<svg id="bktc_logo_color" xmlns="http://www.w3.org/2000/svg" xmlns:xlink="http://www.w3.org/1999/xlink" viewBox="0 0 196.274 91">
  <defs>
    <style>
      .cls-1 {
        fill: none;
      }

      .cls-2 {
        clip-path: url(#clip-path);
      }

      .cls-3 {
        fill: #2b4d9e;
      }

      .cls-3, .cls-7, .cls-8, .cls-9 {
        fill-rule: evenodd;
      }

      .cls-4 {
        fill: #f6e806;
      }

      .cls-5 {
        fill: #fafbfc;
      }

      .cls-6 {
        fill: #fff;
      }

      .cls-7 {
        fill: #9faa76;
      }

      .cls-8 {
        fill: #f5ed71;
      }

      .cls-9 {
        fill: #f47a2c;
      }
    </style>
    <clipPath id="clip-path">
      <rect id="Rectangle_17513" data-name="Rectangle 17513" width="196.275" height="91"/>
    </clipPath>
  </defs>
  <rect id="bktc_logo_color-2" data-name="bktc_logo_color" class="cls-1" width="196.275" height="91"/>
  <g id="Group_9842" data-name="Group 9842" class="cls-2">
    <g id="Group_9841" data-name="Group 9841" transform="translate(0)">
      <g id="Layer-1">
        <path id="Path_4021" data-name="Path 4021" class="cls-3" d="M90.988,1.645A1.582,1.582,0,0,0,90.14.236C90.029.168,89.931.079,89.826,0H.715A1.84,1.84,0,0,0,0,.651V89.827a.992.992,0,0,1,.116.138,1.71,1.71,0,0,0,1.525,1.023q43.866,0,87.733.012A1.837,1.837,0,0,0,91,89.379q-.021-43.867-.012-87.734" transform="translate(0)"/>
        <path id="Path_4022" data-name="Path 4022" class="cls-4" d="M245.707,20.667a9.518,9.518,0,0,0-.15-1.731,4.746,4.746,0,0,0-.488-1.439,2.633,2.633,0,0,0-.911-.983,2.589,2.589,0,0,0-1.408-.361,2.642,2.642,0,0,0-1.656.494,3.2,3.2,0,0,0-.989,1.294v5.669a3.265,3.265,0,0,0,.994,1.307,2.646,2.646,0,0,0,1.675.507,2.543,2.543,0,0,0,1.372-.349,2.643,2.643,0,0,0,.906-.957,4.606,4.606,0,0,0,.5-1.427,9.5,9.5,0,0,0,.154-1.757v-.266Zm2.849.266a11.242,11.242,0,0,1-.327,2.8,6.806,6.806,0,0,1-.972,2.2,4.66,4.66,0,0,1-1.586,1.446,4.854,4.854,0,0,1-4.212.076,4.252,4.252,0,0,1-1.485-1.281l-.132,1.471h-2.586V8.162h2.849v7.064a4.252,4.252,0,0,1,1.429-1.154,4.353,4.353,0,0,1,1.943-.405,4.519,4.519,0,0,1,2.188.513,4.578,4.578,0,0,1,1.592,1.439,6.8,6.8,0,0,1,.972,2.213,11.494,11.494,0,0,1,.327,2.834v.266Z" transform="translate(-131.422 -4.521)"/>
        <path id="Path_4023" data-name="Path 4023" class="cls-5" d="M271.79,32.284a3.541,3.541,0,0,0,1.03-.146,3.788,3.788,0,0,0,.871-.381,3.025,3.025,0,0,0,.666-.539,2.916,2.916,0,0,0,.448-.621V28.022h-1.813a4.427,4.427,0,0,0-2.567.6,1.967,1.967,0,0,0-.828,1.7,2.271,2.271,0,0,0,.131.78,1.627,1.627,0,0,0,.4.621,1.94,1.94,0,0,0,.679.412,2.844,2.844,0,0,0,.984.152m3.433,2.194a2.776,2.776,0,0,1-.2-.6q-.079-.342-.138-.736a4.879,4.879,0,0,1-.674.615,4.637,4.637,0,0,1-.833.5,5.194,5.194,0,0,1-.991.342,4.9,4.9,0,0,1-1.139.126,5.249,5.249,0,0,1-1.853-.31,4.206,4.206,0,0,1-1.418-.863,3.824,3.824,0,0,1-.913-1.3,4.062,4.062,0,0,1-.322-1.623,3.972,3.972,0,0,1,1.544-3.373,7.233,7.233,0,0,1,4.428-1.166h2.086v-.9a2.244,2.244,0,0,0-.692-1.731,2.764,2.764,0,0,0-1.954-.641,3.121,3.121,0,0,0-1,.146,2.073,2.073,0,0,0-.715.4,1.661,1.661,0,0,0-.43.6,1.9,1.9,0,0,0-.142.736h-2.849a3.645,3.645,0,0,1,.352-1.554A4.016,4.016,0,0,1,268.4,21.8a5.214,5.214,0,0,1,1.662-.945,6.607,6.607,0,0,1,2.248-.355,7.242,7.242,0,0,1,2.121.3,4.86,4.86,0,0,1,1.692.888,4.08,4.08,0,0,1,1.12,1.471,4.877,4.877,0,0,1,.405,2.061v6.113a10,10,0,0,0,.125,1.642,5.544,5.544,0,0,0,.364,1.288v.215h-2.92Z" transform="translate(-147.757 -11.356)"/>
        <path id="Path_4024" data-name="Path 4024" class="cls-5" d="M302.722,20.755l.18,1.9a5.089,5.089,0,0,1,1.7-1.591,4.4,4.4,0,0,1,2.211-.565,5.136,5.136,0,0,1,1.807.3,3.575,3.575,0,0,1,1.406.951,4.464,4.464,0,0,1,.918,1.675,8.207,8.207,0,0,1,.327,2.473v8.573H308.42V25.954a4.658,4.658,0,0,0-.185-1.42,2.27,2.27,0,0,0-.524-.913,1.922,1.922,0,0,0-.828-.488,3.874,3.874,0,0,0-1.109-.146,2.983,2.983,0,0,0-1.638.444,3.341,3.341,0,0,0-1.127,1.2v9.841h-2.861V20.755Z" transform="translate(-166.258 -11.356)"/>
        <path id="Path_4025" data-name="Path 4025" class="cls-5" d="M337.415,21.644l-1.551,1.572v4.426h-2.849V8.162h2.849V19.64l1.205-1.433,3.79-4.287h3.431l-4.983,5.707,5.746,8.015H341.5l-4.088-6Z" transform="translate(-184.464 -4.521)"/>
        <path id="Path_4026" data-name="Path 4026" class="cls-4" d="M242.531,83.493v3.323h4.875v2.258h-4.875v6.582a4.006,4.006,0,0,0,.173,1.281,2.037,2.037,0,0,0,.482.812,1.7,1.7,0,0,0,.728.425,3.311,3.311,0,0,0,.918.12,6.958,6.958,0,0,0,.768-.044c.267-.029.525-.064.775-.1s.482-.081.692-.128.387-.091.53-.132l.32,2.092a4.068,4.068,0,0,1-.744.349,6.448,6.448,0,0,1-.948.26q-.513.1-1.068.158a10.638,10.638,0,0,1-1.09.057,5.263,5.263,0,0,1-1.77-.285,3.515,3.515,0,0,1-1.382-.888,4.152,4.152,0,0,1-.906-1.547,6.924,6.924,0,0,1-.328-2.264V89.073h-3.147V86.816h3.147V83.493Z" transform="translate(-131.022 -46.249)"/>
        <path id="Path_4027" data-name="Path 4027" class="cls-4" d="M243.144,172.065a2.982,2.982,0,0,0,1.02-.178,2.889,2.889,0,0,0,.876-.494,2.362,2.362,0,0,0,.6-.748,1.942,1.942,0,0,0,.208-.939h2.694a3.983,3.983,0,0,1-.424,1.858,4.893,4.893,0,0,1-1.179,1.515,5.836,5.836,0,0,1-1.723,1.027,5.61,5.61,0,0,1-2.05.38,5.887,5.887,0,0,1-2.61-.545,5.327,5.327,0,0,1-1.87-1.49,6.491,6.491,0,0,1-1.127-2.194,9.144,9.144,0,0,1-.375-2.657v-.457a9.207,9.207,0,0,1,.375-2.664,6.415,6.415,0,0,1,1.127-2.194,5.423,5.423,0,0,1,1.87-1.49,5.812,5.812,0,0,1,2.6-.552,6,6,0,0,1,2.163.38,5.1,5.1,0,0,1,1.717,1.065,4.811,4.811,0,0,1,1.122,1.636,5.211,5.211,0,0,1,.386,2.08h-2.694a2.675,2.675,0,0,0-.185-1.052,2.493,2.493,0,0,0-.566-.863,2.739,2.739,0,0,0-1.967-.8,2.687,2.687,0,0,0-1.49.386,2.9,2.9,0,0,0-.953,1.015,4.519,4.519,0,0,0-.507,1.427,8.777,8.777,0,0,0-.149,1.623v.457a8.852,8.852,0,0,0,.149,1.636,4.516,4.516,0,0,0,.507,1.427,2.9,2.9,0,0,0,.953,1.015,2.715,2.715,0,0,0,1.5.387" transform="translate(-131.382 -88.763)"/>
        <path id="Path_4028" data-name="Path 4028" class="cls-6" d="M275.162,160.246c.232,0,.462.008.693.025s.451.042.661.076.4.07.579.108a2.57,2.57,0,0,1,.441.133l-.406,2.981a10.944,10.944,0,0,0-2.586-.318,3.842,3.842,0,0,0-2.306.634,3.674,3.674,0,0,0-1.294,1.762v8.574h-2.849V160.5h2.671l.131,2.143a6.056,6.056,0,0,1,1.865-1.757,4.618,4.618,0,0,1,2.4-.64" transform="translate(-148.503 -88.764)"/>
        <path id="Path_4029" data-name="Path 4029" class="cls-6" d="M300.619,169.045l.488,1.649,3.624-9.88h3.158l-6.531,15.8a9.7,9.7,0,0,1-.56,1.122,5.609,5.609,0,0,1-.852,1.122,4.4,4.4,0,0,1-1.209.869,3.672,3.672,0,0,1-1.646.348,4.607,4.607,0,0,1-.792-.07,6.759,6.759,0,0,1-.709-.159l.4-2.359c.055,0,.133,0,.226.007s.2.01.3.019.2.014.293.019.164.006.221.006a1.167,1.167,0,0,0,.745-.261,3.192,3.192,0,0,0,.577-.6,4.413,4.413,0,0,0,.412-.659c.108-.215.184-.362.232-.438l.846-1.7-5.482-13.075h3.146l3.111,8.231Z" transform="translate(-163.053 -89.078)"/>
        <path id="Path_4030" data-name="Path 4030" class="cls-6" d="M338.22,167.234a8.2,8.2,0,0,0-.178-1.744,4.753,4.753,0,0,0-.55-1.433,2.831,2.831,0,0,0-.941-.97,2.527,2.527,0,0,0-1.359-.355,2.7,2.7,0,0,0-1.574.431,3,3,0,0,0-.977,1.154v6.138a3.148,3.148,0,0,0,.971,1.154,2.671,2.671,0,0,0,1.6.445,2.465,2.465,0,0,0,1.36-.368,2.885,2.885,0,0,0,.935-.989,4.793,4.793,0,0,0,.537-1.446,8.494,8.494,0,0,0,.172-1.75v-.267Zm2.849.267a10.973,10.973,0,0,1-.333,2.777,6.944,6.944,0,0,1-.977,2.213,4.711,4.711,0,0,1-1.579,1.459,4.316,4.316,0,0,1-2.152.525,4.638,4.638,0,0,1-1.937-.38,4.125,4.125,0,0,1-1.448-1.09V179.5h-2.849v-19h2.623l.119,1.382a4.307,4.307,0,0,1,1.472-1.211,4.4,4.4,0,0,1,1.985-.425,4.4,4.4,0,0,1,3.766,1.933,6.8,6.8,0,0,1,.977,2.207,11.316,11.316,0,0,1,.333,2.847Z" transform="translate(-182.679 -88.764)"/>
        <path id="Path_4031" data-name="Path 4031" class="cls-6" d="M362.55,153.365v3.323h4.873v2.258H362.55v6.582a4.031,4.031,0,0,0,.173,1.281,2.026,2.026,0,0,0,.482.812,1.684,1.684,0,0,0,.728.425,3.3,3.3,0,0,0,.917.12,6.989,6.989,0,0,0,.769-.044c.268-.03.525-.064.776-.1s.481-.081.691-.128.388-.091.53-.133l.321,2.093a4.058,4.058,0,0,1-.745.349,6.279,6.279,0,0,1-.947.26c-.342.068-.7.121-1.067.159a10.651,10.651,0,0,1-1.09.057,5.25,5.25,0,0,1-1.769-.285,3.511,3.511,0,0,1-1.384-.888,4.178,4.178,0,0,1-.906-1.547,6.934,6.934,0,0,1-.328-2.264v-6.747h-3.146v-2.258H359.7v-3.323h2.85Z" transform="translate(-197.503 -84.952)"/>
        <path id="Path_4032" data-name="Path 4032" class="cls-6" d="M391.705,167.5a8.108,8.108,0,0,0,.185,1.762,4.728,4.728,0,0,0,.572,1.452,2.932,2.932,0,0,0,.984.99,2.677,2.677,0,0,0,1.416.361,2.608,2.608,0,0,0,1.39-.361,2.969,2.969,0,0,0,.977-.99,4.763,4.763,0,0,0,.573-1.452,8.194,8.194,0,0,0,.183-1.762v-.267a8.076,8.076,0,0,0-.183-1.738,4.685,4.685,0,0,0-.573-1.445,3.042,3.042,0,0,0-.977-.989,2.881,2.881,0,0,0-2.82,0,2.947,2.947,0,0,0-.976.989,4.711,4.711,0,0,0-.567,1.445,7.993,7.993,0,0,0-.185,1.738v.267Zm-2.849-.267a8.962,8.962,0,0,1,.413-2.765,6.659,6.659,0,0,1,1.179-2.22,5.469,5.469,0,0,1,1.877-1.471,5.734,5.734,0,0,1,2.515-.532,5.8,5.8,0,0,1,2.532.532,5.417,5.417,0,0,1,1.883,1.471,6.62,6.62,0,0,1,1.175,2.22,9.127,9.127,0,0,1,.4,2.765v.267a9.171,9.171,0,0,1-.4,2.777,6.536,6.536,0,0,1-1.175,2.213,5.477,5.477,0,0,1-1.877,1.465,5.746,5.746,0,0,1-2.516.532,5.8,5.8,0,0,1-2.532-.532,5.486,5.486,0,0,1-1.883-1.465,6.575,6.575,0,0,1-1.179-2.213,9.005,9.005,0,0,1-.413-2.777Z" transform="translate(-215.396 -88.764)"/>
        <path id="Path_4033" data-name="Path 4033" class="cls-7" d="M65.021,24.053V16.326c-.895.329-1.746.625-2.583.955-.4.159-.578.143-.564-.367.026-.872,0-.875.809-1.183,1.084-.412,2.17-.817,3.253-1.226.679-.256.708-.239.71.466q.007,4.539.016,9.079c-.009.774-.031,1.548-.025,2.321,0,.294-.079.4-.394.412-1.2.035-1.2.047-1.2-1.164,0-.522-.013-1.044-.02-1.566" transform="translate(-34.273 -7.951)"/>
        <path id="Path_4034" data-name="Path 4034" class="cls-8" d="M29.94,20.023a3.536,3.536,0,0,0-.276-.981,2.089,2.089,0,0,0-3.412-.556,2.157,2.157,0,0,0-.62,1.29,22.787,22.787,0,0,0-.154,5.031,5.029,5.029,0,0,0,.381,1.9,1.9,1.9,0,0,0,1.735,1.266,2,2,0,0,0,2.267-1.848,20.9,20.9,0,0,0,.08-6.1m1.7,1.313c-.008,1.1-.013,2.2-.029,3.305a7.782,7.782,0,0,1-.31,1.972c-.6,2.18-2.242,2.859-4.229,2.619-.232-.028-.459-.094-.688-.141l-.188-.047a3.28,3.28,0,0,1-1.992-2.4c-.05-.177-.017-.4-.2-.527a28.509,28.509,0,0,1-.144-3.152v-.87a13.16,13.16,0,0,1,.236-2.474,3.367,3.367,0,0,1,2.578-2.942,3.7,3.7,0,0,1,4.241,1.486,8.884,8.884,0,0,1,.7,2.4c.01.256.02.513.028.769" transform="translate(-13.218 -9.162)"/>
        <path id="Path_4035" data-name="Path 4035" class="cls-8" d="M169.59,24.053V16.326c-.894.329-1.745.625-2.583.955-.4.159-.578.143-.563-.367.025-.872,0-.875.809-1.183,1.083-.412,2.168-.817,3.253-1.226.678-.256.707-.239.708.466q.01,4.539.017,9.079c-.009.774-.029,1.548-.024,2.321,0,.294-.079.4-.4.412-1.2.035-1.2.047-1.2-1.164,0-.522-.012-1.044-.019-1.566" transform="translate(-92.196 -7.951)"/>
        <path id="Path_4036" data-name="Path 4036" class="cls-8" d="M138.48,17.5a3.523,3.523,0,0,0-.277-.981,2.089,2.089,0,0,0-3.412-.556,2.169,2.169,0,0,0-.62,1.29,22.821,22.821,0,0,0-.153,5.032,5.045,5.045,0,0,0,.381,1.9,1.9,1.9,0,0,0,1.734,1.266,2,2,0,0,0,2.267-1.848,20.871,20.871,0,0,0,.081-6.1m1.7,1.313c-.01,1.1-.013,2.2-.03,3.3a7.9,7.9,0,0,1-.308,1.972c-.6,2.18-2.242,2.859-4.231,2.619-.232-.029-.458-.094-.687-.142l-.186-.046a3.279,3.279,0,0,1-1.992-2.4c-.053-.177-.017-.4-.2-.528a28.832,28.832,0,0,1-.145-3.152q0-.436,0-.871a12.927,12.927,0,0,1,.236-2.472,3.366,3.366,0,0,1,2.579-2.943,3.7,3.7,0,0,1,4.241,1.486,8.884,8.884,0,0,1,.7,2.4c.01.257.018.513.028.77" transform="translate(-73.339 -7.765)"/>
        <path id="Path_4037" data-name="Path 4037" class="cls-8" d="M100.725,17.5a3.507,3.507,0,0,0-.277-.981,2.089,2.089,0,0,0-3.413-.556,2.174,2.174,0,0,0-.62,1.29,22.848,22.848,0,0,0-.153,5.032,5.045,5.045,0,0,0,.381,1.9,1.9,1.9,0,0,0,1.733,1.266,2,2,0,0,0,2.268-1.848,20.886,20.886,0,0,0,.08-6.1m1.706,1.313c-.01,1.1-.013,2.2-.03,3.3a7.878,7.878,0,0,1-.31,1.972c-.6,2.18-2.241,2.859-4.229,2.619-.232-.029-.459-.094-.688-.142l-.187-.046a3.281,3.281,0,0,1-1.991-2.4c-.053-.177-.017-.4-.205-.528a28.833,28.833,0,0,1-.144-3.152V19.57a13.145,13.145,0,0,1,.236-2.472,3.366,3.366,0,0,1,2.58-2.943,3.7,3.7,0,0,1,4.241,1.486,8.851,8.851,0,0,1,.7,2.4c.009.257.018.513.028.77" transform="translate(-52.426 -7.765)"/>
        <path id="Path_4038" data-name="Path 4038" class="cls-7" d="M29.528,70.823V63.1c-.895.328-1.746.625-2.583.955-.4.159-.577.144-.563-.367.025-.872,0-.875.809-1.183,1.084-.411,2.168-.816,3.252-1.225.678-.256.707-.239.708.465q.01,4.54.017,9.078c-.009.775-.03,1.549-.024,2.323,0,.294-.08.4-.4.411-1.2.035-1.2.047-1.2-1.164,0-.522-.012-1.044-.019-1.567" transform="translate(-14.613 -33.858)"/>
        <path id="Path_4039" data-name="Path 4039" class="cls-8" d="M99.762,74.079V66.351c-.893.328-1.744.625-2.581.955-.4.159-.579.144-.564-.367.025-.872,0-.876.808-1.184,1.084-.411,2.17-.816,3.255-1.225.678-.256.707-.239.708.465q.008,4.54.016,9.079c-.009.775-.029,1.549-.023,2.322,0,.294-.08.4-.4.412-1.2.035-1.2.048-1.2-1.164,0-.521-.013-1.044-.02-1.566" transform="translate(-53.517 -35.661)"/>
        <path id="Path_4040" data-name="Path 4040" class="cls-8" d="M66.846,65.008a3.5,3.5,0,0,0-.277-.981,2.087,2.087,0,0,0-3.411-.556,2.156,2.156,0,0,0-.62,1.291,22.813,22.813,0,0,0-.155,5.031,5.023,5.023,0,0,0,.383,1.9A1.9,1.9,0,0,0,64.5,72.959a2,2,0,0,0,2.267-1.848,20.9,20.9,0,0,0,.079-6.1m1.707,1.313c-.01,1.1-.014,2.2-.031,3.3a7.785,7.785,0,0,1-.309,1.972c-.6,2.18-2.241,2.86-4.229,2.619-.232-.028-.459-.094-.688-.142l-.187-.047a3.28,3.28,0,0,1-1.992-2.4c-.051-.177-.017-.4-.2-.528a28.946,28.946,0,0,1-.144-3.152v-.871A13.2,13.2,0,0,1,61,64.6a3.368,3.368,0,0,1,2.578-2.942,3.7,3.7,0,0,1,4.243,1.486,8.924,8.924,0,0,1,.7,2.4q.013.385.029.77" transform="translate(-33.66 -34.08)"/>
        <path id="Path_4041" data-name="Path 4041" class="cls-7" d="M170.558,65.008a3.534,3.534,0,0,0-.277-.981,2.088,2.088,0,0,0-3.412-.556,2.159,2.159,0,0,0-.62,1.291,22.95,22.95,0,0,0-.155,5.031,5.075,5.075,0,0,0,.383,1.9,1.9,1.9,0,0,0,1.734,1.265,2,2,0,0,0,2.267-1.848,20.9,20.9,0,0,0,.079-6.1m1.707,1.313c-.01,1.1-.015,2.2-.031,3.3a7.8,7.8,0,0,1-.309,1.972c-.6,2.18-2.241,2.86-4.23,2.619-.231-.028-.459-.094-.687-.142l-.188-.047a3.283,3.283,0,0,1-1.993-2.4c-.05-.177-.017-.4-.2-.527a28.735,28.735,0,0,1-.144-3.153v-.871a13.048,13.048,0,0,1,.236-2.473,3.365,3.365,0,0,1,2.579-2.942,3.7,3.7,0,0,1,4.241,1.486,8.975,8.975,0,0,1,.7,2.4c.008.257.018.514.028.77" transform="translate(-91.108 -34.08)"/>
        <path id="Path_4042" data-name="Path 4042" class="cls-8" d="M138.8,65.008a3.566,3.566,0,0,0-.277-.981,2.088,2.088,0,0,0-3.412-.556,2.161,2.161,0,0,0-.62,1.291,22.814,22.814,0,0,0-.154,5.031,5.015,5.015,0,0,0,.383,1.9,1.9,1.9,0,0,0,1.733,1.265,2,2,0,0,0,2.267-1.848,20.871,20.871,0,0,0,.08-6.1m1.707,1.313c-.01,1.1-.014,2.2-.03,3.3a7.846,7.846,0,0,1-.31,1.972c-.6,2.18-2.242,2.86-4.229,2.619-.232-.028-.459-.094-.688-.142l-.187-.047a3.281,3.281,0,0,1-1.993-2.4c-.05-.177-.016-.4-.2-.527a28.959,28.959,0,0,1-.144-3.153v-.871a13.084,13.084,0,0,1,.237-2.473,3.364,3.364,0,0,1,2.577-2.942,3.7,3.7,0,0,1,4.241,1.486,8.894,8.894,0,0,1,.7,2.4q.013.385.029.77" transform="translate(-73.516 -34.08)"/>
        <path id="Path_4043" data-name="Path 4043" class="cls-8" d="M67.112,115.949a3.545,3.545,0,0,0-.277-.981,2.088,2.088,0,0,0-3.411-.556,2.154,2.154,0,0,0-.62,1.29,22.845,22.845,0,0,0-.155,5.032,5.045,5.045,0,0,0,.383,1.9,1.9,1.9,0,0,0,1.733,1.266,2,2,0,0,0,2.267-1.848,20.83,20.83,0,0,0,.08-6.1m1.707,1.314c-.009,1.1-.014,2.2-.029,3.305a7.817,7.817,0,0,1-.31,1.971c-.6,2.18-2.242,2.861-4.229,2.618-.232-.027-.459-.092-.688-.141l-.188-.047a3.283,3.283,0,0,1-1.992-2.4c-.05-.177-.016-.4-.2-.528a28.819,28.819,0,0,1-.143-3.152v-.872a13.007,13.007,0,0,1,.237-2.472,3.363,3.363,0,0,1,2.577-2.941,3.7,3.7,0,0,1,4.243,1.487,8.911,8.911,0,0,1,.7,2.4c.008.256.019.513.028.769" transform="translate(-33.808 -62.298)"/>
        <path id="Path_4044" data-name="Path 4044" class="cls-8" d="M31.621,115.949a3.593,3.593,0,0,0-.278-.981,2.088,2.088,0,0,0-3.411-.555,2.154,2.154,0,0,0-.62,1.291,22.84,22.84,0,0,0-.155,5.032,5.071,5.071,0,0,0,.382,1.9,1.9,1.9,0,0,0,1.734,1.264,2,2,0,0,0,2.267-1.847,20.917,20.917,0,0,0,.081-6.1m1.7,1.312c-.009,1.1-.013,2.2-.029,3.306a7.792,7.792,0,0,1-.31,1.971c-.6,2.18-2.241,2.859-4.23,2.618-.23-.028-.457-.094-.686-.143l-.189-.046a3.282,3.282,0,0,1-1.992-2.4c-.05-.175-.017-.4-.2-.527a28.724,28.724,0,0,1-.145-3.152c0-.29,0-.581,0-.872a13.1,13.1,0,0,1,.237-2.472,3.362,3.362,0,0,1,2.577-2.942,3.7,3.7,0,0,1,4.241,1.486,8.927,8.927,0,0,1,.7,2.4c.009.257.019.512.028.769" transform="translate(-14.147 -62.297)"/>
        <path id="Path_4045" data-name="Path 4045" class="cls-7" d="M135.958,115.949a3.562,3.562,0,0,0-.278-.981,2.088,2.088,0,0,0-3.411-.555,2.156,2.156,0,0,0-.62,1.291,22.865,22.865,0,0,0-.155,5.032,5.045,5.045,0,0,0,.383,1.9,1.9,1.9,0,0,0,1.733,1.264,2,2,0,0,0,2.267-1.847,20.871,20.871,0,0,0,.081-6.1m1.706,1.312c-.01,1.1-.014,2.2-.029,3.306a7.852,7.852,0,0,1-.31,1.971c-.6,2.18-2.242,2.859-4.229,2.618-.232-.028-.459-.094-.687-.143l-.188-.046a3.286,3.286,0,0,1-1.993-2.4c-.051-.175-.017-.4-.2-.527a28.831,28.831,0,0,1-.144-3.152v-.872a13.067,13.067,0,0,1,.237-2.472,3.363,3.363,0,0,1,2.577-2.942,3.7,3.7,0,0,1,4.243,1.486,8.861,8.861,0,0,1,.7,2.4c.009.257.019.512.029.769" transform="translate(-71.942 -62.297)"/>
        <path id="Path_4046" data-name="Path 4046" class="cls-8" d="M100.726,115.949a3.593,3.593,0,0,0-.278-.981,2.088,2.088,0,0,0-3.412-.555,2.154,2.154,0,0,0-.62,1.291,22.84,22.84,0,0,0-.155,5.032,5.045,5.045,0,0,0,.382,1.9,1.9,1.9,0,0,0,1.734,1.264,2,2,0,0,0,2.267-1.847,20.917,20.917,0,0,0,.082-6.1m1.7,1.312c-.008,1.1-.013,2.2-.029,3.306a7.812,7.812,0,0,1-.31,1.971c-.6,2.18-2.242,2.859-4.231,2.618-.23-.028-.457-.094-.686-.143l-.188-.046a3.276,3.276,0,0,1-1.992-2.4c-.051-.175-.017-.4-.205-.527a28.836,28.836,0,0,1-.145-3.152c0-.29,0-.581,0-.872a13.1,13.1,0,0,1,.237-2.472A3.363,3.363,0,0,1,97.46,112.6a3.7,3.7,0,0,1,4.241,1.486,8.929,8.929,0,0,1,.7,2.4c.01.257.019.512.027.769" transform="translate(-52.426 -62.297)"/>
        <path id="Path_4047" data-name="Path 4047" class="cls-8" d="M169.59,123.551v-7.727c-.894.328-1.745.625-2.583.956-.4.159-.578.144-.563-.368.025-.871,0-.874.809-1.184,1.084-.41,2.168-.815,3.253-1.225.678-.256.707-.239.708.466q.01,4.539.017,9.079c-.009.774-.029,1.549-.024,2.322,0,.294-.08.4-.394.412-1.2.035-1.2.047-1.2-1.163,0-.523-.012-1.045-.019-1.567" transform="translate(-92.196 -63.065)"/>
        <path id="Path_4048" data-name="Path 4048" class="cls-8" d="M29.2,171.547V163.82c-.895.329-1.746.624-2.582.955-.4.159-.579.144-.564-.367.025-.871,0-.876.809-1.183,1.084-.412,2.168-.817,3.254-1.225.678-.257.707-.239.707.465q.008,4.538.017,9.077c-.01.775-.031,1.548-.025,2.323,0,.294-.079.4-.394.413-1.2.034-1.2.046-1.2-1.165,0-.521-.013-1.044-.021-1.566" transform="translate(-14.432 -89.651)"/>
        <path id="Path_4049" data-name="Path 4049" class="cls-8" d="M98.632,171.222v-7.727c-.894.328-1.745.625-2.582.956-.4.158-.579.142-.563-.367.025-.872,0-.877.809-1.183,1.082-.412,2.168-.816,3.252-1.225.678-.257.707-.239.708.464q.01,4.539.017,9.079c-.01.774-.029,1.547-.024,2.322,0,.294-.08.4-.4.412-1.2.036-1.2.047-1.2-1.163,0-.521-.012-1.044-.019-1.566" transform="translate(-52.892 -89.471)"/>
        <path id="Path_4050" data-name="Path 4050" class="cls-8" d="M66.786,165a3.57,3.57,0,0,0-.277-.981,2.088,2.088,0,0,0-3.412-.555,2.158,2.158,0,0,0-.62,1.29,22.9,22.9,0,0,0-.154,5.032,5.072,5.072,0,0,0,.382,1.9,1.9,1.9,0,0,0,1.733,1.265,2,2,0,0,0,2.267-1.849,20.85,20.85,0,0,0,.08-6.1m1.706,1.313c-.009,1.1-.013,2.2-.029,3.306a7.8,7.8,0,0,1-.311,1.972c-.6,2.18-2.24,2.858-4.229,2.618-.232-.029-.458-.094-.687-.142l-.188-.046a3.28,3.28,0,0,1-1.991-2.4c-.053-.176-.018-.4-.205-.527a28.718,28.718,0,0,1-.144-3.152v-.872a12.942,12.942,0,0,1,.236-2.473,3.366,3.366,0,0,1,2.579-2.943,3.7,3.7,0,0,1,4.241,1.486,8.949,8.949,0,0,1,.7,2.4c.009.258.018.513.028.77" transform="translate(-33.627 -89.466)"/>
        <path id="Path_4051" data-name="Path 4051" class="cls-7" d="M138.478,165a3.582,3.582,0,0,0-.277-.98,2.089,2.089,0,0,0-3.412-.556,2.167,2.167,0,0,0-.62,1.291,22.809,22.809,0,0,0-.153,5.031,5.053,5.053,0,0,0,.382,1.9,1.9,1.9,0,0,0,1.733,1.265A2,2,0,0,0,138.4,171.1a20.889,20.889,0,0,0,.081-6.1m1.705,1.314c-.01,1.1-.014,2.2-.03,3.3a7.782,7.782,0,0,1-.31,1.971c-.6,2.18-2.242,2.859-4.229,2.618-.232-.027-.458-.093-.687-.141l-.188-.047a3.28,3.28,0,0,1-1.992-2.4c-.052-.177-.016-.4-.2-.528a28.837,28.837,0,0,1-.144-3.152v-.871a13.133,13.133,0,0,1,.236-2.474,3.368,3.368,0,0,1,2.579-2.942,3.7,3.7,0,0,1,4.242,1.486,8.846,8.846,0,0,1,.7,2.4c.01.257.019.514.029.771" transform="translate(-73.339 -89.465)"/>
        <path id="Path_4052" data-name="Path 4052" class="cls-8" d="M172.436,171.548v-7.727c-.894.328-1.745.624-2.582.954-.4.161-.579.145-.564-.365.025-.872,0-.876.81-1.184,1.083-.412,2.167-.816,3.252-1.226.678-.257.707-.239.707.465q.01,4.541.018,9.079c-.01.773-.03,1.549-.025,2.321,0,.295-.08.4-.393.413-1.2.035-1.2.047-1.2-1.164,0-.522-.012-1.045-.019-1.566" transform="translate(-93.773 -89.651)"/>
        <path id="Path_4053" data-name="Path 4053" class="cls-9" d="M293.373,95.594c-.659,1.393-1.469,2.585-2.2,3.961l-2.283-3.95h1.473a4.492,4.492,0,0,0-.348-2.024,5.59,5.59,0,0,0-10.764,1.532,5.491,5.491,0,0,0,1,3.8,5.357,5.357,0,0,0,4.1,2.3c.31.022.4.122.381.408a7.3,7.3,0,0,0,0,.844c.015.283-.094.387-.381.364a7.116,7.116,0,0,1-3.7-1.329,7.015,7.015,0,0,1-2.966-4.939,6.786,6.786,0,0,1,1.337-5.13,7.147,7.147,0,0,1,11.579.012,7.119,7.119,0,0,1,1.389,3.83c.018.256.116.33.352.322.3-.012.608,0,1.031,0" transform="translate(-153.779 -49.011)"/>
      </g>
    </g>
  </g>
</svg>
