<?xml version="1.0" encoding="UTF-8"?>
<!DOCTYPE svg PUBLIC "-//W3C//DTD SVG 1.0//EN" "http://www.w3.org/TR/2001/REC-SVG-20010904/DTD/svg10.dtd">
<!-- Creator: CorelDRAW 2017 -->
<svg xmlns="http://www.w3.org/2000/svg" xml:space="preserve" width="218.529mm" height="71.6596mm" version="1.0" style="shape-rendering:geometricPrecision; text-rendering:geometricPrecision; image-rendering:optimizeQuality; fill-rule:evenodd; clip-rule:evenodd"
viewBox="0 0 21852.8 7165.94"
 xmlns:xlink="http://www.w3.org/1999/xlink">
 <defs>
  <style type="text/css">
   <![CDATA[
    .fil107 {fill:none}
    .fil104 {fill:black}
    .fil1 {fill:#D1D1D1}
    .fil90 {fill:#D2D1D2}
    .fil0 {fill:#D2D2D2}
    .fil89 {fill:#D3D2D3}
    .fil2 {fill:lightgrey}
    .fil88 {fill:#D4D3D4}
    .fil3 {fill:#D4D4D4}
    .fil87 {fill:#D5D4D5}
    .fil4 {fill:#D5D5D5}
    .fil86 {fill:#D6D5D6}
    .fil5 {fill:#D6D6D6}
    .fil85 {fill:#D7D6D7}
    .fil6 {fill:#D7D7D7}
    .fil84 {fill:#D8D7D8}
    .fil7 {fill:#D8D8D8}
    .fil83 {fill:#D9D8D9}
    .fil8 {fill:#D9D9D9}
    .fil82 {fill:#DAD9DA}
    .fil9 {fill:#DADADA}
    .fil81 {fill:#DBDADB}
    .fil10 {fill:#DBDBDB}
    .fil80 {fill:#DCDBDC}
    .fil11 {fill:gainsboro}
    .fil79 {fill:#DDDCDD}
    .fil12 {fill:#DDDDDD}
    .fil78 {fill:#DEDDDE}
    .fil13 {fill:#DEDEDE}
    .fil77 {fill:#DFDEDF}
    .fil14 {fill:#DFDFDF}
    .fil76 {fill:#E0DFE0}
    .fil15 {fill:#E0E0E0}
    .fil75 {fill:#E1E0E1}
    .fil16 {fill:#E1E1E1}
    .fil74 {fill:#E2E1E2}
    .fil17 {fill:#E2E2E2}
    .fil73 {fill:#E3E2E3}
    .fil18 {fill:#E3E3E3}
    .fil72 {fill:#E4E3E4}
    .fil19 {fill:#E4E4E4}
    .fil71 {fill:#E5E4E5}
    .fil20 {fill:#E5E5E5}
    .fil70 {fill:#E6E5E6}
    .fil21 {fill:#E6E6E6}
    .fil69 {fill:#E7E6E7}
    .fil22 {fill:#E7E7E7}
    .fil68 {fill:#E8E7E8}
    .fil23 {fill:#E8E8E8}
    .fil67 {fill:#E9E8E9}
    .fil24 {fill:#E9E9E9}
    .fil66 {fill:#EAE9EA}
    .fil25 {fill:#EAEAEA}
    .fil65 {fill:#EBEAEB}
    .fil26 {fill:#EBEBEB}
    .fil64 {fill:#ECEBEC}
    .fil27 {fill:#ECECEC}
    .fil63 {fill:#EDECED}
    .fil28 {fill:#EDEDED}
    .fil62 {fill:#EEEDEE}
    .fil29 {fill:#EEEEEE}
    .fil61 {fill:#EFEEEF}
    .fil30 {fill:#EFEFEF}
    .fil60 {fill:#F0EFF0}
    .fil31 {fill:#F0F0F0}
    .fil59 {fill:#F1F0F1}
    .fil32 {fill:#F1F1F1}
    .fil58 {fill:#F2F1F2}
    .fil33 {fill:#F2F2F2}
    .fil57 {fill:#F3F2F3}
    .fil34 {fill:#F3F3F3}
    .fil56 {fill:#F4F3F4}
    .fil35 {fill:#F4F4F4}
    .fil55 {fill:#F5F4F5}
    .fil36 {fill:whitesmoke}
    .fil54 {fill:#F6F5F6}
    .fil37 {fill:#F6F6F6}
    .fil53 {fill:#F7F6F7}
    .fil38 {fill:#F7F7F7}
    .fil52 {fill:#F8F7F8}
    .fil39 {fill:#F8F8F8}
    .fil51 {fill:#F9F8F9}
    .fil40 {fill:#F9F9F9}
    .fil50 {fill:#FAF9FA}
    .fil41 {fill:#FAFAFA}
    .fil49 {fill:#FBFAFB}
    .fil42 {fill:#FBFBFB}
    .fil48 {fill:#FCFBFC}
    .fil43 {fill:#FCFCFC}
    .fil47 {fill:#FDFCFD}
    .fil44 {fill:#FDFDFD}
    .fil46 {fill:#FEFDFE}
    .fil45 {fill:#FEFEFE}
    .fil106 {fill:#FEFEFE;fill-rule:nonzero}
    .fil91 {fill:black;fill-rule:nonzero}
    .fil92 {fill:#FEFEFE;fill-rule:nonzero}
    .fil98 {fill:url(#id2)}
    .fil94 {fill:url(#id3)}
    .fil100 {fill:url(#id4)}
    .fil105 {fill:url(#id5)}
    .fil97 {fill:url(#id6)}
    .fil95 {fill:url(#id7)}
    .fil102 {fill:url(#id8)}
    .fil96 {fill:url(#id9)}
    .fil93 {fill:url(#id10)}
    .fil101 {fill:url(#id11)}
    .fil103 {fill:url(#id12)}
    .fil99 {fill:url(#id13)}
   ]]>
  </style>
    <clipPath id="id0">
     <path d="M713.04 1398.28l20426.73 0c392.16,0 713.03,320.88 713.03,713.05l0 1490.74c0,392.21 -320.87,713.05 -713.03,713.05l-20426.73 0c-392.16,0 -713.04,-320.84 -713.04,-713.05l0 -1490.74c0,-392.17 320.88,-713.05 713.04,-713.05z"/>
    </clipPath>
    <clipPath id="id1">
     <path d="M10926.43 999.86l-2074.51 351.06 0 3019.98c0,817.82 2074.51,1795.2 2074.51,1795.2 0,0 2074.46,-977.38 2074.46,-1795.2l0 -3019.98 -2074.46 -351.06z"/>
    </clipPath>
  <linearGradient id="id2" gradientUnits="userSpaceOnUse" x1="18849.77" y1="2956.14" x2="18855.26" y2="2846.28">
   <stop offset="0" style="stop-opacity:1; stop-color:#4EA224"/>
   <stop offset="0.109804" style="stop-opacity:1; stop-color:#86B612"/>
   <stop offset="0.270588" style="stop-opacity:1; stop-color:#96BC07"/>
   <stop offset="1" style="stop-opacity:1; stop-color:#BECB00"/>
  </linearGradient>
  <linearGradient id="id3" gradientUnits="userSpaceOnUse" xlink:href="#id2" x1="18738.82" y1="3577.51" x2="18750.19" y2="3008.22">
  </linearGradient>
  <linearGradient id="id4" gradientUnits="userSpaceOnUse" xlink:href="#id2" x1="18620.85" y1="2875.63" x2="18624.83" y2="2796.01">
  </linearGradient>
  <linearGradient id="id5" gradientUnits="userSpaceOnUse" x1="10766" y1="6159.34" x2="11086.81" y2="1006.61">
   <stop offset="0" style="stop-opacity:1; stop-color:#4EA224"/>
   <stop offset="0.109804" style="stop-opacity:1; stop-color:#86B612"/>
   <stop offset="0.270588" style="stop-opacity:1; stop-color:#96BC07"/>
   <stop offset="1" style="stop-opacity:1; stop-color:#BECB00"/>
  </linearGradient>
  <linearGradient id="id6" gradientUnits="userSpaceOnUse" xlink:href="#id2" x1="18982.62" y1="2879.62" x2="18987.15" y2="2788.83">
  </linearGradient>
  <linearGradient id="id7" gradientUnits="userSpaceOnUse" xlink:href="#id2" x1="18838.97" y1="2773.09" x2="18848.7" y2="2578.65">
  </linearGradient>
  <linearGradient id="id8" gradientUnits="userSpaceOnUse" xlink:href="#id2" x1="18184.61" y1="3046.71" x2="18188.59" y2="2967.02">
  </linearGradient>
  <linearGradient id="id9" gradientUnits="userSpaceOnUse" xlink:href="#id2" x1="19195.81" y1="2961.46" x2="19204.44" y2="2788.92">
  </linearGradient>
  <linearGradient id="id10" gradientUnits="userSpaceOnUse" xlink:href="#id2" x1="10743.11" y1="6527.14" x2="11109.71" y2="638.82">
  </linearGradient>
  <linearGradient id="id11" gradientUnits="userSpaceOnUse" xlink:href="#id2" x1="18549.34" y1="2781.14" x2="18552" y2="2727.8">
  </linearGradient>
  <linearGradient id="id12" gradientUnits="userSpaceOnUse" xlink:href="#id2" x1="18356.31" y1="2954.97" x2="18363" y2="2821.11">
  </linearGradient>
  <linearGradient id="id13" gradientUnits="userSpaceOnUse" xlink:href="#id2" x1="18695.02" y1="3056.21" x2="18702.19" y2="2912.86">
  </linearGradient>
 </defs>
 <g id="Camada_x0020_1">
  <metadata id="CorelCorpID_0Corel-Layer"/>
  <g>
   <g style="clip-path:url(#id0)">
    <path class="fil0" d="M-0 1398.28l-42.68 0 0 2916.83 42.68 0 0 -2916.83z"/>
    <path id="1" class="fil1" d="M-85.36 1398.28l128.05 0 0 2916.83 -128.05 0 0 -2916.83z"/>
    <path id="2" class="fil0" d="M-0 1398.28l128.05 0 0 2916.83 -128.05 0 0 -2916.83z"/>
    <path id="3" class="fil0" d="M85.37 1398.28l128.04 0 0 2916.83 -128.04 0 0 -2916.83z"/>
    <path id="4" class="fil2" d="M170.73 1398.28l128.04 0 0 2916.83 -128.04 0 0 -2916.83z"/>
    <path id="5" class="fil3" d="M256.09 1398.28l128.05 0 0 2916.83 -128.05 0 0 -2916.83z"/>
    <path id="6" class="fil3" d="M341.45 1398.28l128.05 0 0 2916.83 -128.05 0 0 -2916.83z"/>
    <path id="7" class="fil4" d="M426.82 1398.28l128.04 0 0 2916.83 -128.04 0 0 -2916.83z"/>
    <path id="8" class="fil5" d="M512.18 1398.28l128.04 0 0 2916.83 -128.04 0 0 -2916.83z"/>
    <path id="9" class="fil5" d="M597.54 1398.28l128.05 0 0 2916.83 -128.05 0 0 -2916.83z"/>
    <path id="10" class="fil6" d="M682.91 1398.28l128.04 0 0 2916.83 -128.04 0 0 -2916.83z"/>
    <path id="11" class="fil7" d="M768.27 1398.28l128.04 0 0 2916.83 -128.04 0 0 -2916.83z"/>
    <path id="12" class="fil7" d="M853.63 1398.28l128.05 0 0 2916.83 -128.05 0 0 -2916.83z"/>
    <path id="13" class="fil8" d="M938.99 1398.28l128.05 0 0 2916.83 -128.05 0 0 -2916.83z"/>
    <path id="14" class="fil9" d="M1024.36 1398.28l128.04 0 0 2916.83 -128.04 0 0 -2916.83z"/>
    <path id="15" class="fil9" d="M1109.72 1398.28l128.04 0 0 2916.83 -128.04 0 0 -2916.83z"/>
    <path id="16" class="fil10" d="M1195.08 1398.28l128.05 0 0 2916.83 -128.05 0 0 -2916.83z"/>
    <path id="17" class="fil11" d="M1280.45 1398.28l128.04 0 0 2916.83 -128.04 0 0 -2916.83z"/>
    <path id="18" class="fil11" d="M1365.81 1398.28l128.04 0 0 2916.83 -128.04 0 0 -2916.83z"/>
    <path id="19" class="fil12" d="M1451.17 1398.28l128.04 0 0 2916.83 -128.04 0 0 -2916.83z"/>
    <path id="20" class="fil13" d="M1536.53 1398.28l128.05 0 0 2916.83 -128.05 0 0 -2916.83z"/>
    <path id="21" class="fil13" d="M1621.9 1398.28l128.04 0 0 2916.83 -128.04 0 0 -2916.83z"/>
    <path id="22" class="fil14" d="M1707.26 1398.28l128.04 0 0 2916.83 -128.04 0 0 -2916.83z"/>
    <path id="23" class="fil15" d="M1792.62 1398.28l128.05 0 0 2916.83 -128.05 0 0 -2916.83z"/>
    <path id="24" class="fil15" d="M1877.97 1398.28l128.05 0 0 2916.83 -128.05 0 0 -2916.83z"/>
    <path id="25" class="fil16" d="M1963.34 1398.28l128.04 0 0 2916.83 -128.04 0 0 -2916.83z"/>
    <path id="26" class="fil17" d="M2048.7 1398.28l128.04 0 0 2916.83 -128.04 0 0 -2916.83z"/>
    <path id="27" class="fil17" d="M2134.06 1398.28l128.05 0 0 2916.83 -128.05 0 0 -2916.83z"/>
    <path id="28" class="fil18" d="M2219.43 1398.28l128.04 0 0 2916.83 -128.04 0 0 -2916.83z"/>
    <path id="29" class="fil19" d="M2304.79 1398.28l128.04 0 0 2916.83 -128.04 0 0 -2916.83z"/>
    <path id="30" class="fil19" d="M2390.15 1398.28l128.04 0 0 2916.83 -128.04 0 0 -2916.83z"/>
    <path id="31" class="fil20" d="M2475.51 1398.28l128.05 0 0 2916.83 -128.05 0 0 -2916.83z"/>
    <path id="32" class="fil21" d="M2560.88 1398.28l128.04 0 0 2916.83 -128.04 0 0 -2916.83z"/>
    <path id="33" class="fil21" d="M2646.24 1398.28l128.04 0 0 2916.83 -128.04 0 0 -2916.83z"/>
    <path id="34" class="fil22" d="M2731.6 1398.28l128.05 0 0 2916.83 -128.05 0 0 -2916.83z"/>
    <path id="35" class="fil23" d="M2816.96 1398.28l128.05 0 0 2916.83 -128.05 0 0 -2916.83z"/>
    <path id="36" class="fil23" d="M2902.33 1398.28l128.04 0 0 2916.83 -128.04 0 0 -2916.83z"/>
    <path id="37" class="fil24" d="M2987.69 1398.28l128.04 0 0 2916.83 -128.04 0 0 -2916.83z"/>
    <path id="38" class="fil24" d="M3073.05 1398.28l128.05 0 0 2916.83 -128.05 0 0 -2916.83z"/>
    <path id="39" class="fil24" d="M3158.42 1398.28l128.04 0 0 2916.83 -128.04 0 0 -2916.83z"/>
    <path id="40" class="fil25" d="M3243.78 1398.28l128.04 0 0 2916.83 -128.04 0 0 -2916.83z"/>
    <path id="41" class="fil25" d="M3329.14 1398.28l128.05 0 0 2916.83 -128.05 0 0 -2916.83z"/>
    <path id="42" class="fil26" d="M3414.5 1398.28l128.05 0 0 2916.83 -128.05 0 0 -2916.83z"/>
    <path id="43" class="fil26" d="M3499.87 1398.28l128.04 0 0 2916.83 -128.04 0 0 -2916.83z"/>
    <path id="44" class="fil27" d="M3585.23 1398.28l128.04 0 0 2916.83 -128.04 0 0 -2916.83z"/>
    <path id="45" class="fil27" d="M3670.59 1398.28l128.05 0 0 2916.83 -128.05 0 0 -2916.83z"/>
    <path id="46" class="fil28" d="M3755.95 1398.28l128.05 0 0 2916.83 -128.05 0 0 -2916.83z"/>
    <path id="47" class="fil28" d="M3841.32 1398.28l128.04 0 0 2916.83 -128.04 0 0 -2916.83z"/>
    <path id="48" class="fil28" d="M3926.68 1398.28l128.04 0 0 2916.83 -128.04 0 0 -2916.83z"/>
    <path id="49" class="fil29" d="M4012.04 1398.28l128.05 0 0 2916.83 -128.05 0 0 -2916.83z"/>
    <path id="50" class="fil29" d="M4097.41 1398.28l128.04 0 0 2916.83 -128.04 0 0 -2916.83z"/>
    <path id="51" class="fil30" d="M4182.77 1398.28l128.04 0 0 2916.83 -128.04 0 0 -2916.83z"/>
    <path id="52" class="fil30" d="M4268.13 1398.28l128.05 0 0 2916.83 -128.05 0 0 -2916.83z"/>
    <path id="53" class="fil31" d="M4353.49 1398.28l128.05 0 0 2916.83 -128.05 0 0 -2916.83z"/>
    <path id="54" class="fil31" d="M4438.86 1398.28l128.04 0 0 2916.83 -128.04 0 0 -2916.83z"/>
    <path id="55" class="fil32" d="M4524.22 1398.28l128.04 0 0 2916.83 -128.04 0 0 -2916.83z"/>
    <path id="56" class="fil32" d="M4609.58 1398.28l128.05 0 0 2916.83 -128.05 0 0 -2916.83z"/>
    <path id="57" class="fil32" d="M4694.94 1398.28l128.05 0 0 2916.83 -128.05 0 0 -2916.83z"/>
    <path id="58" class="fil33" d="M4780.31 1398.28l128.04 0 0 2916.83 -128.04 0 0 -2916.83z"/>
    <path id="59" class="fil33" d="M4865.67 1398.28l128.04 0 0 2916.83 -128.04 0 0 -2916.83z"/>
    <path id="60" class="fil34" d="M4951.03 1398.28l128.05 0 0 2916.83 -128.05 0 0 -2916.83z"/>
    <path id="61" class="fil34" d="M5036.4 1398.28l128.04 0 0 2916.83 -128.04 0 0 -2916.83z"/>
    <path id="62" class="fil35" d="M5121.76 1398.28l128.04 0 0 2916.83 -128.04 0 0 -2916.83z"/>
    <path id="63" class="fil35" d="M5207.12 1398.28l128.05 0 0 2916.83 -128.05 0 0 -2916.83z"/>
    <path id="64" class="fil36" d="M5292.48 1398.28l128.05 0 0 2916.83 -128.05 0 0 -2916.83z"/>
    <path id="65" class="fil36" d="M5377.85 1398.28l128.04 0 0 2916.83 -128.04 0 0 -2916.83z"/>
    <path id="66" class="fil36" d="M5463.21 1398.28l128.04 0 0 2916.83 -128.04 0 0 -2916.83z"/>
    <path id="67" class="fil37" d="M5548.56 1398.28l128.05 0 0 2916.83 -128.05 0 0 -2916.83z"/>
    <path id="68" class="fil37" d="M5633.93 1398.28l128.04 0 0 2916.83 -128.04 0 0 -2916.83z"/>
    <path id="69" class="fil38" d="M5719.29 1398.28l128.04 0 0 2916.83 -128.04 0 0 -2916.83z"/>
    <path id="70" class="fil38" d="M5804.65 1398.28l128.04 0 0 2916.83 -128.04 0 0 -2916.83z"/>
    <path id="71" class="fil39" d="M5890.01 1398.28l128.05 0 0 2916.83 -128.05 0 0 -2916.83z"/>
    <path id="72" class="fil39" d="M5975.38 1398.28l128.04 0 0 2916.83 -128.04 0 0 -2916.83z"/>
    <path id="73" class="fil40" d="M6060.74 1398.28l128.04 0 0 2916.83 -128.04 0 0 -2916.83z"/>
    <path id="74" class="fil40" d="M6146.1 1398.28l128.05 0 0 2916.83 -128.05 0 0 -2916.83z"/>
    <path id="75" class="fil40" d="M6231.46 1398.28l128.05 0 0 2916.83 -128.05 0 0 -2916.83z"/>
    <path id="76" class="fil41" d="M6316.83 1398.28l128.04 0 0 2916.83 -128.04 0 0 -2916.83z"/>
    <path id="77" class="fil41" d="M6402.19 1398.28l128.04 0 0 2916.83 -128.04 0 0 -2916.83z"/>
    <path id="78" class="fil42" d="M6487.55 1398.28l128.05 0 0 2916.83 -128.05 0 0 -2916.83z"/>
    <path id="79" class="fil42" d="M6572.92 1398.28l128.04 0 0 2916.83 -128.04 0 0 -2916.83z"/>
    <path id="80" class="fil43" d="M6658.28 1398.28l128.04 0 0 2916.83 -128.04 0 0 -2916.83z"/>
    <path id="81" class="fil43" d="M6743.64 1398.28l128.04 0 0 2916.83 -128.04 0 0 -2916.83z"/>
    <path id="82" class="fil44" d="M6829 1398.28l128.05 0 0 2916.83 -128.05 0 0 -2916.83z"/>
    <path id="83" class="fil44" d="M6914.37 1398.28l128.04 0 0 2916.83 -128.04 0 0 -2916.83z"/>
    <path id="84" class="fil44" d="M6999.73 1398.28l128.04 0 0 2916.83 -128.04 0 0 -2916.83z"/>
    <path id="85" class="fil45" d="M7085.09 1398.28l128.05 0 0 2916.83 -128.05 0 0 -2916.83z"/>
    <path id="86" class="fil45" d="M7170.45 1398.28l128.05 0 0 2916.83 -128.05 0 0 -2916.83z"/>
    <path id="87" class="fil45" d="M7255.82 1398.28l128.04 0 0 2916.83 -128.04 0 0 -2916.83z"/>
    <path id="88" class="fil45" d="M7341.18 1398.28l128.04 0 0 2916.83 -128.04 0 0 -2916.83z"/>
    <path id="89" class="fil45" d="M7426.54 1398.28l128.05 0 0 2916.83 -128.05 0 0 -2916.83z"/>
    <path id="90" class="fil45" d="M7511.91 1398.28l128.04 0 0 2916.83 -128.04 0 0 -2916.83z"/>
    <path id="91" class="fil45" d="M7597.27 1398.28l128.04 0 0 2916.83 -128.04 0 0 -2916.83z"/>
    <path id="92" class="fil45" d="M7682.63 1398.28l128.05 0 0 2916.83 -128.05 0 0 -2916.83z"/>
    <path id="93" class="fil45" d="M7767.99 1398.28l128.05 0 0 2916.83 -128.05 0 0 -2916.83z"/>
    <path id="94" class="fil45" d="M7853.36 1398.28l128.04 0 0 2916.83 -128.04 0 0 -2916.83z"/>
    <path id="95" class="fil45" d="M7938.72 1398.28l128.04 0 0 2916.83 -128.04 0 0 -2916.83z"/>
    <path id="96" class="fil45" d="M8024.08 1398.28l128.05 0 0 2916.83 -128.05 0 0 -2916.83z"/>
    <path id="97" class="fil45" d="M8109.44 1398.28l128.05 0 0 2916.83 -128.05 0 0 -2916.83z"/>
    <path id="98" class="fil45" d="M8194.81 1398.28l128.04 0 0 2916.83 -128.04 0 0 -2916.83z"/>
    <path id="99" class="fil45" d="M8280.17 1398.28l128.04 0 0 2916.83 -128.04 0 0 -2916.83z"/>
    <path id="100" class="fil45" d="M8365.53 1398.28l128.05 0 0 2916.83 -128.05 0 0 -2916.83z"/>
    <path id="101" class="fil45" d="M8450.9 1398.28l128.04 0 0 2916.83 -128.04 0 0 -2916.83z"/>
    <path id="102" class="fil45" d="M8536.26 1398.28l128.04 0 0 2916.83 -128.04 0 0 -2916.83z"/>
    <path id="103" class="fil45" d="M8621.62 1398.28l128.05 0 0 2916.83 -128.05 0 0 -2916.83z"/>
    <path id="104" class="fil45" d="M8706.98 1398.28l128.05 0 0 2916.83 -128.05 0 0 -2916.83z"/>
    <path id="105" class="fil45" d="M8792.35 1398.28l128.04 0 0 2916.83 -128.04 0 0 -2916.83z"/>
    <path id="106" class="fil45" d="M8877.71 1398.28l128.04 0 0 2916.83 -128.04 0 0 -2916.83z"/>
    <path id="107" class="fil45" d="M8963.07 1398.28l128.05 0 0 2916.83 -128.05 0 0 -2916.83z"/>
    <path id="108" class="fil45" d="M9048.43 1398.28l128.05 0 0 2916.83 -128.05 0 0 -2916.83z"/>
    <path id="109" class="fil45" d="M9133.79 1398.28l128.04 0 0 2916.83 -128.04 0 0 -2916.83z"/>
    <path id="110" class="fil45" d="M9219.15 1398.28l128.04 0 0 2916.83 -128.04 0 0 -2916.83z"/>
    <path id="111" class="fil45" d="M9304.51 1398.28l128.05 0 0 2916.83 -128.05 0 0 -2916.83z"/>
    <path id="112" class="fil45" d="M9389.88 1398.28l128.04 0 0 2916.83 -128.04 0 0 -2916.83z"/>
    <path id="113" class="fil45" d="M9475.24 1398.28l128.04 0 0 2916.83 -128.04 0 0 -2916.83z"/>
    <path id="114" class="fil45" d="M9560.6 1398.28l128.05 0 0 2916.83 -128.05 0 0 -2916.83z"/>
    <path id="115" class="fil45" d="M9645.96 1398.28l128.05 0 0 2916.83 -128.05 0 0 -2916.83z"/>
    <path id="116" class="fil45" d="M9731.33 1398.28l128.04 0 0 2916.83 -128.04 0 0 -2916.83z"/>
    <path id="117" class="fil45" d="M9816.69 1398.28l128.04 0 0 2916.83 -128.04 0 0 -2916.83z"/>
    <path id="118" class="fil45" d="M9902.05 1398.28l128.05 0 0 2916.83 -128.05 0 0 -2916.83z"/>
    <path id="119" class="fil45" d="M9987.42 1398.28l128.04 0 0 2916.83 -128.04 0 0 -2916.83z"/>
    <path id="120" class="fil46" d="M10072.78 1398.28l128.04 0 0 2916.83 -128.04 0 0 -2916.83z"/>
    <path id="121" class="fil46" d="M10158.14 1398.28l128.04 0 0 2916.83 -128.04 0 0 -2916.83z"/>
    <path id="122" class="fil46" d="M10243.5 1398.28l128.05 0 0 2916.83 -128.05 0 0 -2916.83z"/>
    <path id="123" class="fil46" d="M10328.87 1398.28l128.04 0 0 2916.83 -128.04 0 0 -2916.83z"/>
    <path id="124" class="fil46" d="M10414.23 1398.28l128.04 0 0 2916.83 -128.04 0 0 -2916.83z"/>
    <path id="125" class="fil46" d="M10499.59 1398.28l128.05 0 0 2916.83 -128.05 0 0 -2916.83z"/>
    <path id="126" class="fil46" d="M10584.95 1398.28l128.05 0 0 2916.83 -128.05 0 0 -2916.83z"/>
    <path id="127" class="fil46" d="M10670.32 1398.28l128.04 0 0 2916.83 -128.04 0 0 -2916.83z"/>
    <path id="128" class="fil46" d="M10755.68 1398.28l128.04 0 0 2916.83 -128.04 0 0 -2916.83z"/>
    <path id="129" class="fil46" d="M10841.04 1398.28l128.05 0 0 2916.83 -128.05 0 0 -2916.83z"/>
    <path id="130" class="fil46" d="M10926.41 1398.28l128.04 0 0 2916.83 -128.04 0 0 -2916.83z"/>
    <path id="131" class="fil46" d="M11011.77 1398.28l128.04 0 0 2916.83 -128.04 0 0 -2916.83z"/>
    <path id="132" class="fil46" d="M11097.13 1398.28l128.04 0 0 2916.83 -128.04 0 0 -2916.83z"/>
    <path id="133" class="fil46" d="M11182.49 1398.28l128.05 0 0 2916.83 -128.05 0 0 -2916.83z"/>
    <path id="134" class="fil46" d="M11267.86 1398.28l128.04 0 0 2916.83 -128.04 0 0 -2916.83z"/>
    <path id="135" class="fil46" d="M11353.22 1398.28l128.04 0 0 2916.83 -128.04 0 0 -2916.83z"/>
    <path id="136" class="fil46" d="M11438.58 1398.28l128.05 0 0 2916.83 -128.05 0 0 -2916.83z"/>
    <path id="137" class="fil46" d="M11523.94 1398.28l128.05 0 0 2916.83 -128.05 0 0 -2916.83z"/>
    <path id="138" class="fil46" d="M11609.31 1398.28l128.04 0 0 2916.83 -128.04 0 0 -2916.83z"/>
    <path id="139" class="fil46" d="M11694.67 1398.28l128.04 0 0 2916.83 -128.04 0 0 -2916.83z"/>
    <path id="140" class="fil46" d="M11780.03 1398.28l128.05 0 0 2916.83 -128.05 0 0 -2916.83z"/>
    <path id="141" class="fil46" d="M11865.4 1398.28l128.04 0 0 2916.83 -128.04 0 0 -2916.83z"/>
    <path id="142" class="fil46" d="M11950.76 1398.28l128.04 0 0 2916.83 -128.04 0 0 -2916.83z"/>
    <path id="143" class="fil46" d="M12036.12 1398.28l128.04 0 0 2916.83 -128.04 0 0 -2916.83z"/>
    <path id="144" class="fil46" d="M12121.48 1398.28l128.05 0 0 2916.83 -128.05 0 0 -2916.83z"/>
    <path id="145" class="fil46" d="M12206.85 1398.28l128.04 0 0 2916.83 -128.04 0 0 -2916.83z"/>
    <path id="146" class="fil46" d="M12292.21 1398.28l128.04 0 0 2916.83 -128.04 0 0 -2916.83z"/>
    <path id="147" class="fil46" d="M12377.57 1398.28l128.05 0 0 2916.83 -128.05 0 0 -2916.83z"/>
    <path id="148" class="fil46" d="M12462.93 1398.28l128.05 0 0 2916.83 -128.05 0 0 -2916.83z"/>
    <path id="149" class="fil46" d="M12548.3 1398.28l128.04 0 0 2916.83 -128.04 0 0 -2916.83z"/>
    <path id="150" class="fil46" d="M12633.66 1398.28l128.04 0 0 2916.83 -128.04 0 0 -2916.83z"/>
    <path id="151" class="fil46" d="M12719.02 1398.28l128.05 0 0 2916.83 -128.05 0 0 -2916.83z"/>
    <path id="152" class="fil46" d="M12804.38 1398.28l128.04 0 0 2916.83 -128.04 0 0 -2916.83z"/>
    <path id="153" class="fil46" d="M12889.74 1398.28l128.04 0 0 2916.83 -128.04 0 0 -2916.83z"/>
    <path id="154" class="fil46" d="M12975.1 1398.28l128.05 0 0 2916.83 -128.05 0 0 -2916.83z"/>
    <path id="155" class="fil46" d="M13060.46 1398.28l128.05 0 0 2916.83 -128.05 0 0 -2916.83z"/>
    <path id="156" class="fil46" d="M13145.83 1398.28l128.04 0 0 2916.83 -128.04 0 0 -2916.83z"/>
    <path id="157" class="fil46" d="M13231.19 1398.28l128.04 0 0 2916.83 -128.04 0 0 -2916.83z"/>
    <path id="158" class="fil46" d="M13316.55 1398.28l128.05 0 0 2916.83 -128.05 0 0 -2916.83z"/>
    <path id="159" class="fil46" d="M13401.91 1398.28l128.05 0 0 2916.83 -128.05 0 0 -2916.83z"/>
    <path id="160" class="fil46" d="M13487.28 1398.28l128.04 0 0 2916.83 -128.04 0 0 -2916.83z"/>
    <path id="161" class="fil46" d="M13572.64 1398.28l128.04 0 0 2916.83 -128.04 0 0 -2916.83z"/>
    <path id="162" class="fil46" d="M13658 1398.28l128.05 0 0 2916.83 -128.05 0 0 -2916.83z"/>
    <path id="163" class="fil46" d="M13743.37 1398.28l128.04 0 0 2916.83 -128.04 0 0 -2916.83z"/>
    <path id="164" class="fil46" d="M13828.73 1398.28l128.04 0 0 2916.83 -128.04 0 0 -2916.83z"/>
    <path id="165" class="fil46" d="M13914.09 1398.28l128.05 0 0 2916.83 -128.05 0 0 -2916.83z"/>
    <path id="166" class="fil46" d="M13999.45 1398.28l128.05 0 0 2916.83 -128.05 0 0 -2916.83z"/>
    <path id="167" class="fil46" d="M14084.82 1398.28l128.04 0 0 2916.83 -128.04 0 0 -2916.83z"/>
    <path id="168" class="fil46" d="M14170.18 1398.28l128.04 0 0 2916.83 -128.04 0 0 -2916.83z"/>
    <path id="169" class="fil46" d="M14255.54 1398.28l128.05 0 0 2916.83 -128.05 0 0 -2916.83z"/>
    <path id="170" class="fil46" d="M14340.9 1398.28l128.05 0 0 2916.83 -128.05 0 0 -2916.83z"/>
    <path id="171" class="fil46" d="M14426.27 1398.28l128.04 0 0 2916.83 -128.04 0 0 -2916.83z"/>
    <path id="172" class="fil46" d="M14511.63 1398.28l128.04 0 0 2916.83 -128.04 0 0 -2916.83z"/>
    <path id="173" class="fil47" d="M14596.99 1398.28l128.05 0 0 2916.83 -128.05 0 0 -2916.83z"/>
    <path id="174" class="fil47" d="M14682.36 1398.28l128.04 0 0 2916.83 -128.04 0 0 -2916.83z"/>
    <path id="175" class="fil48" d="M14767.72 1398.28l128.04 0 0 2916.83 -128.04 0 0 -2916.83z"/>
    <path id="176" class="fil48" d="M14853.08 1398.28l128.05 0 0 2916.83 -128.05 0 0 -2916.83z"/>
    <path id="177" class="fil49" d="M14938.44 1398.28l128.05 0 0 2916.83 -128.05 0 0 -2916.83z"/>
    <path id="178" class="fil49" d="M15023.81 1398.28l128.04 0 0 2916.83 -128.04 0 0 -2916.83z"/>
    <path id="179" class="fil50" d="M15109.17 1398.28l128.04 0 0 2916.83 -128.04 0 0 -2916.83z"/>
    <path id="180" class="fil51" d="M15194.53 1398.28l128.05 0 0 2916.83 -128.05 0 0 -2916.83z"/>
    <path id="181" class="fil51" d="M15279.9 1398.28l128.04 0 0 2916.83 -128.04 0 0 -2916.83z"/>
    <path id="182" class="fil52" d="M15365.26 1398.28l128.04 0 0 2916.83 -128.04 0 0 -2916.83z"/>
    <path id="183" class="fil52" d="M15450.62 1398.28l128.04 0 0 2916.83 -128.04 0 0 -2916.83z"/>
    <path id="184" class="fil53" d="M15535.98 1398.28l128.05 0 0 2916.83 -128.05 0 0 -2916.83z"/>
    <path id="185" class="fil53" d="M15621.35 1398.28l128.04 0 0 2916.83 -128.04 0 0 -2916.83z"/>
    <path id="186" class="fil54" d="M15706.71 1398.28l128.04 0 0 2916.83 -128.04 0 0 -2916.83z"/>
    <path id="187" class="fil36" d="M15792.07 1398.28l128.05 0 0 2916.83 -128.05 0 0 -2916.83z"/>
    <path id="188" class="fil55" d="M15877.43 1398.28l128.05 0 0 2916.83 -128.05 0 0 -2916.83z"/>
    <path id="189" class="fil56" d="M15962.8 1398.28l128.04 0 0 2916.83 -128.04 0 0 -2916.83z"/>
    <path id="190" class="fil56" d="M16048.16 1398.28l128.04 0 0 2916.83 -128.04 0 0 -2916.83z"/>
    <path id="191" class="fil57" d="M16133.52 1398.28l128.05 0 0 2916.83 -128.05 0 0 -2916.83z"/>
    <path id="192" class="fil57" d="M16218.89 1398.28l128.04 0 0 2916.83 -128.04 0 0 -2916.83z"/>
    <path id="193" class="fil58" d="M16304.25 1398.28l128.04 0 0 2916.83 -128.04 0 0 -2916.83z"/>
    <path id="194" class="fil32" d="M16389.61 1398.28l128.04 0 0 2916.83 -128.04 0 0 -2916.83z"/>
    <path id="195" class="fil59" d="M16474.96 1398.28l128.05 0 0 2916.83 -128.05 0 0 -2916.83z"/>
    <path id="196" class="fil31" d="M16560.33 1398.28l128.04 0 0 2916.83 -128.04 0 0 -2916.83z"/>
    <path id="197" class="fil60" d="M16645.69 1398.28l128.04 0 0 2916.83 -128.04 0 0 -2916.83z"/>
    <path id="198" class="fil61" d="M16731.05 1398.28l128.05 0 0 2916.83 -128.05 0 0 -2916.83z"/>
    <path id="199" class="fil61" d="M16816.41 1398.28l128.05 0 0 2916.83 -128.05 0 0 -2916.83z"/>
    <path id="200" class="fil62" d="M16901.78 1398.28l128.04 0 0 2916.83 -128.04 0 0 -2916.83z"/>
    <path id="201" class="fil28" d="M16987.14 1398.28l128.04 0 0 2916.83 -128.04 0 0 -2916.83z"/>
    <path id="202" class="fil63" d="M17072.5 1398.28l128.05 0 0 2916.83 -128.05 0 0 -2916.83z"/>
    <path id="203" class="fil27" d="M17157.87 1398.28l128.04 0 0 2916.83 -128.04 0 0 -2916.83z"/>
    <path id="204" class="fil64" d="M17243.23 1398.28l128.04 0 0 2916.83 -128.04 0 0 -2916.83z"/>
    <path id="205" class="fil26" d="M17328.59 1398.28l128.05 0 0 2916.83 -128.05 0 0 -2916.83z"/>
    <path id="206" class="fil65" d="M17413.95 1398.28l128.05 0 0 2916.83 -128.05 0 0 -2916.83z"/>
    <path id="207" class="fil66" d="M17499.32 1398.28l128.04 0 0 2916.83 -128.04 0 0 -2916.83z"/>
    <path id="208" class="fil24" d="M17584.68 1398.28l128.04 0 0 2916.83 -128.04 0 0 -2916.83z"/>
    <path id="209" class="fil67" d="M17670.04 1398.28l128.05 0 0 2916.83 -128.05 0 0 -2916.83z"/>
    <path id="210" class="fil23" d="M17755.4 1398.28l128.05 0 0 2916.83 -128.05 0 0 -2916.83z"/>
    <path id="211" class="fil68" d="M17840.77 1398.28l128.04 0 0 2916.83 -128.04 0 0 -2916.83z"/>
    <path id="212" class="fil22" d="M17926.13 1398.28l128.04 0 0 2916.83 -128.04 0 0 -2916.83z"/>
    <path id="213" class="fil69" d="M18011.49 1398.28l128.05 0 0 2916.83 -128.05 0 0 -2916.83z"/>
    <path id="214" class="fil21" d="M18096.86 1398.28l128.04 0 0 2916.83 -128.04 0 0 -2916.83z"/>
    <path id="215" class="fil70" d="M18182.22 1398.28l128.04 0 0 2916.83 -128.04 0 0 -2916.83z"/>
    <path id="216" class="fil20" d="M18267.58 1398.28l128.05 0 0 2916.83 -128.05 0 0 -2916.83z"/>
    <path id="217" class="fil71" d="M18352.94 1398.28l128.05 0 0 2916.83 -128.05 0 0 -2916.83z"/>
    <path id="218" class="fil19" d="M18438.31 1398.28l128.04 0 0 2916.83 -128.04 0 0 -2916.83z"/>
    <path id="219" class="fil72" d="M18523.67 1398.28l128.04 0 0 2916.83 -128.04 0 0 -2916.83z"/>
    <path id="220" class="fil18" d="M18609.03 1398.28l128.05 0 0 2916.83 -128.05 0 0 -2916.83z"/>
    <path id="221" class="fil73" d="M18694.39 1398.28l128.05 0 0 2916.83 -128.05 0 0 -2916.83z"/>
    <path id="222" class="fil17" d="M18779.76 1398.28l128.04 0 0 2916.83 -128.04 0 0 -2916.83z"/>
    <path id="223" class="fil74" d="M18865.12 1398.28l128.04 0 0 2916.83 -128.04 0 0 -2916.83z"/>
    <path id="224" class="fil16" d="M18950.48 1398.28l128.05 0 0 2916.83 -128.05 0 0 -2916.83z"/>
    <path id="225" class="fil75" d="M19035.85 1398.28l128.04 0 0 2916.83 -128.04 0 0 -2916.83z"/>
    <path id="226" class="fil15" d="M19121.21 1398.28l128.04 0 0 2916.83 -128.04 0 0 -2916.83z"/>
    <path id="227" class="fil76" d="M19206.57 1398.28l128.05 0 0 2916.83 -128.05 0 0 -2916.83z"/>
    <path id="228" class="fil14" d="M19291.93 1398.28l128.05 0 0 2916.83 -128.05 0 0 -2916.83z"/>
    <path id="229" class="fil77" d="M19377.3 1398.28l128.04 0 0 2916.83 -128.04 0 0 -2916.83z"/>
    <path id="230" class="fil13" d="M19462.66 1398.28l128.04 0 0 2916.83 -128.04 0 0 -2916.83z"/>
    <path id="231" class="fil78" d="M19548.02 1398.28l128.05 0 0 2916.83 -128.05 0 0 -2916.83z"/>
    <path id="232" class="fil12" d="M19633.39 1398.28l128.04 0 0 2916.83 -128.04 0 0 -2916.83z"/>
    <path id="233" class="fil79" d="M19718.75 1398.28l128.04 0 0 2916.83 -128.04 0 0 -2916.83z"/>
    <path id="234" class="fil11" d="M19804.11 1398.28l128.04 0 0 2916.83 -128.04 0 0 -2916.83z"/>
    <path id="235" class="fil80" d="M19889.47 1398.28l128.05 0 0 2916.83 -128.05 0 0 -2916.83z"/>
    <path id="236" class="fil10" d="M19974.84 1398.28l128.04 0 0 2916.83 -128.04 0 0 -2916.83z"/>
    <path id="237" class="fil81" d="M20060.19 1398.28l128.04 0 0 2916.83 -128.04 0 0 -2916.83z"/>
    <path id="238" class="fil9" d="M20145.55 1398.28l128.05 0 0 2916.83 -128.05 0 0 -2916.83z"/>
    <path id="239" class="fil82" d="M20230.91 1398.28l128.05 0 0 2916.83 -128.05 0 0 -2916.83z"/>
    <path id="240" class="fil8" d="M20316.28 1398.28l128.04 0 0 2916.83 -128.04 0 0 -2916.83z"/>
    <path id="241" class="fil83" d="M20401.64 1398.28l128.04 0 0 2916.83 -128.04 0 0 -2916.83z"/>
    <path id="242" class="fil7" d="M20487 1398.28l128.05 0 0 2916.83 -128.05 0 0 -2916.83z"/>
    <path id="243" class="fil84" d="M20572.37 1398.28l128.04 0 0 2916.83 -128.04 0 0 -2916.83z"/>
    <path id="244" class="fil6" d="M20657.73 1398.28l128.04 0 0 2916.83 -128.04 0 0 -2916.83z"/>
    <path id="245" class="fil85" d="M20743.09 1398.28l128.04 0 0 2916.83 -128.04 0 0 -2916.83z"/>
    <path id="246" class="fil5" d="M20828.45 1398.28l128.05 0 0 2916.83 -128.05 0 0 -2916.83z"/>
    <path id="247" class="fil86" d="M20913.82 1398.28l128.04 0 0 2916.83 -128.04 0 0 -2916.83z"/>
    <path id="248" class="fil4" d="M20999.18 1398.28l128.04 0 0 2916.83 -128.04 0 0 -2916.83z"/>
    <path id="249" class="fil87" d="M21084.54 1398.28l128.05 0 0 2916.83 -128.05 0 0 -2916.83z"/>
    <path id="250" class="fil3" d="M21169.9 1398.28l128.05 0 0 2916.83 -128.05 0 0 -2916.83z"/>
    <path id="251" class="fil88" d="M21255.27 1398.28l128.04 0 0 2916.83 -128.04 0 0 -2916.83z"/>
    <path id="252" class="fil2" d="M21340.63 1398.28l128.04 0 0 2916.83 -128.04 0 0 -2916.83z"/>
    <path id="253" class="fil89" d="M21425.99 1398.28l128.05 0 0 2916.83 -128.05 0 0 -2916.83z"/>
    <path id="254" class="fil0" d="M21511.36 1398.28l128.04 0 0 2916.83 -128.04 0 0 -2916.83z"/>
    <path id="255" class="fil90" d="M21596.72 1398.28l128.04 0 0 2916.83 -128.04 0 0 -2916.83z"/>
    <path id="256" class="fil1" d="M21682.08 1398.28l128.05 0 0 2916.83 -128.05 0 0 -2916.83z"/>
    <path id="257" class="fil90" d="M21767.44 1398.28l85.36 0 0 2916.83 -85.36 0 0 -2916.83z"/>
   </g>
  </g>
  <g>
   <path class="fil91" d="M10926.42 0l-2877.46 486.95 0 4188.86c0,1134.39 2877.46,2490.13 2877.46,2490.13 0,0 2877.41,-1355.75 2877.41,-2490.13l0 -4188.86 -2877.41 -486.95z"/>
   <path class="fil92" d="M10926.51 472.75l-2497.9 422.73 0 3636.18c0,984.73 2497.9,2161.54 2497.9,2161.54 0,0 2497.77,-1176.82 2497.77,-2161.54l0 -3636.18 -2497.77 -422.73z"/>
   <g id="_1705637836640">
    <path class="fil91" d="M535.59 3503.21l65.72 0 0 -185.37 245.93 0c48.74,0 77.55,0 86.41,-0.74 64.99,-1.47 86.41,-7.38 112.99,-30.28 26.59,-22.15 36.93,-57.6 36.93,-124.07 0,-67.2 -11.82,-104.13 -39.88,-125.55 -30.28,-22.89 -30.28,-22.89 -196.45,-26.58l-311.65 0 0 492.59zm65.72 -242.97l0 -192.02 245.93 0c123.33,2.22 130.72,3.69 150.66,18.46 14.77,11.08 18.46,27.33 18.46,78.29 0,46.52 -5.17,64.99 -19.94,77.54 -19.94,16.25 -29.54,17.73 -149.18,17.73l-245.93 0zm528.79 242.97l65.72 0 0 -189.8 241.5 0c106.35,0.74 106.35,0.74 129.24,4.43 31.02,4.43 48.74,22.9 52.44,54.65 2.95,19.2 2.95,19.94 2.95,83.45l0 47.27 65.73 0 0 -70.16c0,-84.19 -2.96,-98.96 -22.16,-118.9 -12.55,-13.29 -26.58,-20.68 -50.22,-25.11 64.99,-13.29 81.24,-39.14 81.24,-129.98 0,-40.62 -4.43,-64.99 -15.51,-87.88 -15.51,-30.28 -45.05,-49.49 -84.93,-54.65 -33.97,-4.44 -34.71,-4.44 -158.78,-5.91l-307.22 0 0 492.59zm65.72 -247.4l0 -187.59 241.5 0c118.9,0 148.44,2.96 168.38,17.73 14.77,10.34 23.64,37.66 23.64,72.37 0,25.11 -4.44,53.17 -10.34,64.25 -13.3,25.11 -43.58,33.24 -122.6,33.24l-59.08 0 -241.5 0zm875.15 -246.67c-42.84,0 -127.77,2.22 -157.31,3.69 -67.2,4.43 -92.31,11.08 -117.42,29.54 -36.19,28.07 -48,80.5 -48,212.7 0,79.76 2.95,125.55 11.07,158.04 8.87,39.88 40.62,70.9 80.5,79.76 36.93,8.12 121.12,11.82 252.58,11.82 150.65,0 205.3,-9.6 234.11,-39.88 27.32,-29.54 37.66,-84.93 37.66,-206.05 0,-37.66 -2.21,-87.15 -5.17,-112.26 -5.17,-52.43 -14.03,-77.54 -34.71,-97.48 -31.76,-31.76 -84.93,-39.88 -253.31,-39.88zm-38.4 59.08c126.28,0 163.95,1.48 201.61,7.39 33.23,5.17 50.96,19.94 55.39,48 4.43,22.16 7.39,81.24 7.39,136.63 0,45.79 -3.7,98.96 -8.13,125.55 -5.91,29.54 -21.42,45.05 -50.22,50.21 -33.23,5.91 -101.17,9.61 -173.55,9.61 -31.76,0 -114.47,-2.22 -141.06,-3.7 -54.65,-3.69 -74.59,-8.86 -87.88,-22.89 -15.51,-16.99 -20.68,-59.82 -20.68,-169.12 0,-94.53 7.39,-141.06 25.11,-157.31 19.2,-17.72 69.42,-24.37 192.02,-24.37zm361.14 -57.6l0 57.6 247.4 0 0 434.99 65.73 0 0 -434.99 245.93 0 0 -57.6 -559.06 0zm595.99 492.59l482.99 0 0 -57.6 -417.27 0 0 -169.13 398.81 0 0 -57.6 -398.81 0 0 -150.66 416.53 0 0 -57.6 -482.25 0 0 492.59zm799.81 -249.62l0 57.6 257.01 0c-1.48,71.27 -5.17,92.57 -18.46,106.47 -19.21,19.94 -60.56,26.47 -175.77,26.47 -233.37,0 -254.79,-4.31 -267.35,-55.02 -4.43,-19.94 -8.12,-79.39 -8.12,-141.43 0,-98.96 5.91,-137.36 24.37,-154.35 19.94,-19.2 70.9,-25.11 209,-25.11 36.93,0 99.7,1.48 126.29,3.69 55.39,2.96 75.33,8.13 88.62,20.68 11.08,11.08 15.51,29.54 16.25,72.38l67.2 0c-0.73,-42.84 -3.69,-61.3 -14.03,-83.45 -14.77,-33.24 -51.69,-57.61 -95.27,-63.52 -30.28,-4.43 -132.19,-8.86 -200.87,-8.86 -205.31,0 -255.53,16.25 -273.99,88.62 -9.61,36.19 -14.77,94.53 -14.77,159.52 0,67.09 5.16,122.97 14.03,158.91 10.34,41.97 43.57,70.03 90.84,77.42 38.4,5.91 120.37,9.6 211.95,9.6 216.39,0 259.22,-15.51 277.68,-97.98 5.91,-28.68 7.39,-54.4 8.13,-151.64l-322.74 0zm384.04 -242.97l0 492.59 65.72 0 0 -492.59 -65.72 0zm139.58 492.59l344.88 0c138.85,0 176.51,-7.39 211.96,-40.62 36.93,-34.71 52.44,-96.74 52.44,-206.05 0,-115.94 -10.34,-163.95 -42.84,-198.66 -36.93,-39.14 -74.59,-47.26 -226.72,-47.26l-339.72 0 0 492.59zm65.72 -57.6l0 -377.39 272.52 0c55.39,0 76.8,0 90.1,1.48 45.05,2.95 67.94,11.82 84.19,31.02 19.2,24.37 29.54,76.8 29.54,152.87 0,119.64 -21.42,172.81 -74.59,185.37 -27.33,6.65 -30.28,6.65 -125.55,6.65l-276.21 0zm920.2 -436.47c-42.84,0 -127.77,2.22 -157.31,3.69 -67.2,4.43 -92.31,11.08 -117.42,29.54 -36.19,28.07 -48,80.5 -48,212.7 0,79.76 2.95,125.55 11.07,158.04 8.87,39.88 40.62,70.9 80.5,79.76 36.93,8.12 121.12,11.82 252.58,11.82 150.65,0 205.3,-9.6 234.11,-39.88 27.32,-29.54 37.66,-84.93 37.66,-206.05 0,-37.66 -2.21,-87.15 -5.17,-112.26 -5.17,-52.43 -14.03,-77.54 -34.71,-97.48 -31.76,-31.76 -84.93,-39.88 -253.31,-39.88zm-38.4 59.08c126.28,0 163.95,1.48 201.61,7.39 33.23,5.17 50.96,19.94 55.39,48 4.43,22.16 7.39,81.24 7.39,136.63 0,45.79 -3.7,98.96 -8.13,125.55 -5.91,29.54 -21.42,45.05 -50.22,50.21 -33.23,5.91 -101.17,9.61 -173.55,9.61 -31.76,0 -114.47,-2.22 -141.06,-3.7 -54.65,-3.69 -74.59,-8.86 -87.88,-22.89 -15.51,-16.99 -20.68,-59.82 -20.68,-169.12 0,-94.53 7.39,-141.06 25.11,-157.31 19.2,-17.72 69.42,-24.37 192.02,-24.37zm580.48 434.99l65.72 0 0 -185.37 245.93 0c48.74,0 77.55,0 86.41,-0.74 64.99,-1.47 86.41,-7.38 112.99,-30.28 26.59,-22.15 36.93,-57.6 36.93,-124.07 0,-67.2 -11.82,-104.13 -39.88,-125.55 -30.28,-22.89 -30.28,-22.89 -196.45,-26.58l-311.65 0 0 492.59zm65.72 -242.97l0 -192.02 245.93 0c123.33,2.22 130.72,3.69 150.66,18.46 14.77,11.08 18.46,27.33 18.46,78.29 0,46.52 -5.17,64.99 -19.94,77.54 -19.94,16.25 -29.54,17.73 -149.18,17.73l-245.93 0zm841.92 -251.1c-42.84,0 -127.77,2.22 -157.31,3.69 -67.2,4.43 -92.31,11.08 -117.42,29.54 -36.19,28.07 -48,80.5 -48,212.7 0,79.76 2.95,125.55 11.07,158.04 8.87,39.88 40.62,70.9 80.5,79.76 36.93,8.12 121.12,11.82 252.58,11.82 150.65,0 205.3,-9.6 234.11,-39.88 27.32,-29.54 37.66,-84.93 37.66,-206.05 0,-37.66 -2.21,-87.15 -5.17,-112.26 -5.17,-52.43 -14.03,-77.54 -34.71,-97.48 -31.76,-31.76 -84.93,-39.88 -253.31,-39.88zm-38.4 59.08c126.28,0 163.95,1.48 201.61,7.39 33.23,5.17 50.96,19.94 55.39,48 4.43,22.16 7.39,81.24 7.39,136.63 0,45.79 -3.7,98.96 -8.13,125.55 -5.91,29.54 -21.42,45.05 -50.22,50.21 -33.23,5.91 -101.17,9.61 -173.55,9.61 -31.76,0 -114.47,-2.22 -141.06,-3.7 -54.65,-3.69 -74.59,-8.86 -87.88,-22.89 -15.51,-16.99 -20.68,-59.82 -20.68,-169.12 0,-94.53 7.39,-141.06 25.11,-157.31 19.2,-17.72 69.42,-24.37 192.02,-24.37zm395.85 434.99l65.72 0 0 -189.8 241.5 0c106.35,0.74 106.35,0.74 129.24,4.43 31.02,4.43 48.74,22.9 52.44,54.65 2.95,19.2 2.95,19.94 2.95,83.45l0 47.27 65.73 0 0 -70.16c0,-84.19 -2.96,-98.96 -22.16,-118.9 -12.55,-13.29 -26.58,-20.68 -50.22,-25.11 64.99,-13.29 81.24,-39.14 81.24,-129.98 0,-40.62 -4.43,-64.99 -15.51,-87.88 -15.51,-30.28 -45.05,-49.49 -84.93,-54.65 -33.97,-4.44 -34.71,-4.44 -158.78,-5.91l-307.22 0 0 492.59zm65.72 -247.4l0 -187.59 241.5 0c118.9,0 148.44,2.96 168.38,17.73 14.77,10.34 23.64,37.66 23.64,72.37 0,25.11 -4.44,53.17 -10.34,64.25 -13.3,25.11 -43.58,33.24 -122.6,33.24l-59.08 0 -241.5 0z"/>
    <path class="fil91" d="M540.08 2299.14l82.72 0 113.84 361.5 114.44 -361.5 124.59 0 115.16 361.67 113.93 -361.67 112.72 0c-56.34,172.76 -112.66,345.55 -168.56,518.41l-115.47 0 -119.9 -370.02 -117.8 370.02 -118.65 0 -1.99 -6.19c-45.08,-140.25 -90.02,-280.57 -134.94,-420.85l-29.26 -91.37 29.17 0zm817.97 499.64l0 -499.64 447.29 0 0 88.48 -339.36 0 0 119.88 329.76 0 0 86.49 -329.76 0 0 135.75 339.36 0 0 87.81 -447.29 0 0 -18.77zm613.15 -291.95l184.51 0c7.71,0 14.56,-0.27 20.53,-0.79 5.89,-0.51 11.2,-1.3 15.85,-2.35 3.89,-0.87 7.16,-1.88 9.76,-2.98 2.3,-1.02 4.15,-2.11 5.47,-3.26 1.25,-1.11 2.47,-2.81 3.6,-5.05 1.37,-2.72 2.6,-6.15 3.67,-10.29 1.25,-4.85 2.21,-10.48 2.85,-16.83 0.64,-6.47 0.97,-13.74 0.97,-21.8 0,-14.24 -1.09,-25.58 -3.26,-33.98 -1.83,-7.05 -4.16,-11.58 -6.96,-13.56 -1.29,-0.87 -3.58,-1.76 -6.83,-2.63 -4.03,-1.07 -9.15,-2.03 -15.33,-2.85 -7.02,-0.93 -15.42,-1.65 -25.15,-2.13 -9.48,-0.47 -20.46,-0.71 -32.92,-0.71l-156.76 0 0 119.21zm0 222.91l186.74 0c9.12,0 17.15,-0.27 24.05,-0.78 6.91,-0.52 13.17,-1.31 18.68,-2.35 4.69,-0.9 8.74,-1.99 12.08,-3.22 2.93,-1.05 5.27,-2.26 7.01,-3.55 1.13,-0.86 2.32,-2.49 3.55,-4.88 1.53,-2.9 2.92,-6.77 4.13,-11.54 1.43,-5.64 2.54,-12.31 3.28,-19.92 0.73,-7.67 1.11,-16.41 1.11,-26.16 0,-8.1 -0.4,-15.3 -1.17,-21.55 -0.77,-6.14 -1.95,-11.64 -3.49,-16.41 -1.28,-3.98 -2.81,-7.3 -4.5,-9.92 -1.45,-2.26 -3.05,-4.01 -4.77,-5.21 -1.79,-1.26 -4.9,-2.5 -9.25,-3.7 -5.18,-1.43 -11.64,-2.67 -19.33,-3.7 -8.66,-1.16 -18.94,-2.05 -30.78,-2.64 -11.65,-0.58 -25.07,-0.88 -40.19,-0.88l-147.15 0 0 136.41zm-107.14 69.04l0 -499.64 289.28 0c15.85,0 30.75,0.55 44.59,1.61 13.84,1.07 26.32,2.67 37.35,4.79 11.92,2.28 22.54,5.26 31.8,8.9 9.57,3.76 17.64,8.22 24.21,13.36 6.71,5.22 12.54,11.65 17.42,19.25 4.72,7.37 8.63,15.9 11.65,25.53 2.79,8.86 4.89,18.8 6.27,29.74 1.39,10.91 2.09,22.74 2.09,35.43 0,9.52 -0.35,18.54 -1.03,27.04 -0.65,8.27 -1.69,16.05 -3.05,23.26 -1.42,7.59 -3.26,14.43 -5.47,20.47 -2.31,6.31 -5.03,11.84 -8.12,16.52 -3.3,5.02 -7.23,9.65 -11.75,13.85 -2.49,2.27 -5.11,4.44 -7.9,6.46 6.09,3.42 11.6,7.22 16.5,11.38 5.27,4.48 9.88,9.44 13.77,14.81 3.78,5.14 7.06,11.09 9.79,17.75 2.62,6.38 4.82,13.65 6.55,21.74 1.67,7.72 2.9,16.01 3.7,24.77 0.8,8.93 1.21,18.49 1.21,28.6 0,13.95 -0.85,26.91 -2.55,38.83 -1.7,11.93 -4.3,22.89 -7.75,32.82 -3.69,10.54 -8.39,19.92 -14.1,28.08 -5.83,8.34 -12.74,15.46 -20.66,21.28 -7.74,5.69 -17.26,10.66 -28.5,14.84 -11.01,4.09 -23.56,7.44 -37.58,10 -13.32,2.44 -28.23,4.28 -44.71,5.49 -16.34,1.2 -34.27,1.81 -53.72,1.81l-269.29 0 0 -18.77zm542.61 -175.42l86.33 0 0 27.81c0,7.33 0.15,13.75 0.41,19.22 0.29,5.84 0.76,11.22 1.35,16.07 0.58,4.75 1.29,9.02 2.11,12.73 0.78,3.52 1.72,6.75 2.8,9.6 0.88,2.4 1.98,4.66 3.19,6.76 1.15,1.97 2.36,3.7 3.62,5.12 1.22,1.38 2.52,2.61 3.87,3.62 1.3,0.98 2.78,1.87 4.38,2.62 1.29,0.6 2.94,1.2 4.88,1.79 2.02,0.63 4.48,1.25 7.31,1.86 3.22,0.69 6.62,1.3 10.15,1.8 3.71,0.54 7.68,1.01 11.87,1.39 4.71,0.45 10.53,0.84 17.43,1.17 7.34,0.35 15.64,0.63 24.82,0.83 9.43,0.22 20.27,0.39 32.5,0.48l41.84 0.12c8.47,0 15.9,-0.1 22.21,-0.29 6.52,-0.18 13.01,-0.53 19.37,-0.96 5.94,-0.41 11.32,-0.92 16.07,-1.48 4.8,-0.59 9.22,-1.27 13.17,-2.04 3.66,-0.72 7,-1.55 10.02,-2.44 3.02,-0.9 5.82,-1.91 8.33,-2.99 2.15,-0.91 4.15,-1.95 5.99,-3.08 1.69,-1.04 3.22,-2.16 4.49,-3.31l0.77 -0.86 1.27 -2.19c0.54,-1.07 1.1,-2.48 1.64,-4.09l1.51 -5.55c0.45,-1.96 0.86,-4.38 1.23,-7.15l0.96 -8.85 0.62 -10.5 0.17 -11.98c0,-8.76 -0.25,-16.45 -0.73,-23.07 -0.49,-6.78 -1.22,-12.64 -2.14,-17.53 -0.83,-4.32 -1.77,-7.86 -2.81,-10.6 -0.83,-2.19 -1.64,-3.71 -2.38,-4.52 -0.77,-0.79 -1.87,-1.6 -3.25,-2.37 -1.73,-0.93 -3.86,-1.83 -6.35,-2.62 -3.2,-1.02 -6.87,-1.89 -10.98,-2.56 -4.37,-0.72 -9.17,-1.26 -14.42,-1.6l-177.13 -11.69c-14.08,-0.9 -27.22,-2.36 -39.34,-4.33 -12.24,-2 -23.49,-4.56 -33.67,-7.64 -10.75,-3.25 -20.4,-7.16 -28.95,-11.67 -8.73,-4.62 -16.29,-9.89 -22.63,-15.74 -6.35,-5.85 -11.89,-12.62 -16.57,-20.25 -4.65,-7.55 -8.47,-15.97 -11.44,-25.23 -2.8,-8.68 -4.91,-18.24 -6.31,-28.65 -1.39,-10.34 -2.09,-21.41 -2.09,-33.16 0,-7.09 0.24,-14.12 0.69,-21.03 0.44,-6.85 1.11,-13.25 1.98,-19.11 0.9,-6.18 2.08,-12.05 3.48,-17.58 1.38,-5.41 3.06,-10.63 5.03,-15.62 1.87,-4.88 4.17,-9.67 6.79,-14.32 2.61,-4.61 5.54,-9.05 8.75,-13.25 3.21,-4.18 6.79,-8.21 10.69,-12.05 3.82,-3.74 8.05,-7.36 12.6,-10.78 3.74,-2.8 7.83,-5.4 12.22,-7.74 4.33,-2.34 9.06,-4.47 14.11,-6.38 4.98,-1.84 10.18,-3.49 15.54,-4.9 5.35,-1.4 11.03,-2.64 17,-3.68 5.84,-0.99 12.72,-1.85 20.67,-2.59 7.62,-0.69 16.23,-1.28 25.79,-1.73 9.33,-0.45 19.86,-0.8 31.52,-1.03 12.37,-0.24 24.69,-0.37 36.79,-0.37l20.52 0c13.9,0 27.7,0.17 41.23,0.49 13.17,0.31 24.98,0.79 35.43,1.38 10.71,0.62 20.53,1.42 29.43,2.4 9.04,0.98 16.82,2.12 23.29,3.39 6.62,1.3 13.17,2.92 19.58,4.79 6.36,1.86 12.43,3.97 18.15,6.29 5.89,2.39 11.49,5.03 16.75,7.88 5.44,2.96 10.53,6.12 15.26,9.49 3.59,2.55 7.02,5.42 10.22,8.55 3.11,3.04 6.02,6.41 8.73,10.08 2.6,3.51 4.95,7.23 6.98,11.09 2.04,3.88 3.88,7.99 5.44,12.26 1.53,4.25 2.89,8.65 4,13.18 1.14,4.67 2.1,9.42 2.78,14.19 0.69,4.7 1.23,9.82 1.6,15.28 0.37,5.49 0.56,10.97 0.56,16.42 -0.09,4.96 -0.35,10.01 -0.35,14.95 -0.26,6.01 -0.67,11.32 -1.07,16.62l-0.78 10.47 -107.31 0 0 -30.8 -0.18 -11.85 -0.64 -10.08c-0.27,-3.12 -0.6,-5.83 -0.96,-8.11 -0.85,-4.18 -1.57,-7.08 -2.83,-11.15 -0.49,-1.32 -1.04,-2.5 -1.57,-3.48l-1.42 -2.06 -1.23 -1.29c-0.87,-0.72 -1.98,-1.43 -3.26,-2.07 -1.51,-0.76 -3.44,-1.53 -5.71,-2.27 -2.75,-0.9 -5.91,-1.73 -9.4,-2.46 -3.56,-0.75 -7.52,-1.41 -11.78,-1.96 -4.5,-0.62 -10.29,-1.17 -17.44,-1.66 -7.41,-0.5 -15.62,-0.92 -24.51,-1.22 -9.4,-0.33 -19.96,-0.58 -31.65,-0.73 -10.24,-0.13 -23.36,-0.21 -39.44,-0.21 -14.38,0 -27.24,0.33 -38.49,0.97 -11.21,0.63 -21.13,1.61 -29.71,2.9 -7.44,1.08 -13.74,2.43 -18.86,4 -4.4,1.33 -7.59,2.75 -9.58,4.19 -1.98,1.48 -3.82,3.49 -5.46,6 -1.86,2.83 -3.49,6.27 -4.85,10.29 -1.58,4.71 -2.8,10.08 -3.59,16.08 -0.81,6.1 -1.23,13.01 -1.23,20.69 0,6.29 0.28,12.04 0.82,17.22 0.54,5.1 1.34,9.71 2.39,13.75 0.93,3.54 2,6.56 3.19,8.99 1.05,2.21 2.25,4.01 3.57,5.38 1.19,1.26 2.7,2.41 4.54,3.44 2.12,1.19 4.71,2.29 7.7,3.26 3.68,1.2 7.91,2.2 12.66,3.01 4.82,0.81 10.38,1.45 16.66,1.88l180.59 12.57c12.79,0.91 24.73,2.39 35.75,4.36 11.15,2 21.42,4.56 30.75,7.63 9.91,3.27 18.85,7.16 26.76,11.64 7.99,4.52 15.04,9.72 21.1,15.56 5.95,5.8 11.14,12.44 15.48,19.9 4.23,7.27 7.77,15.47 10.56,24.53 2.64,8.64 4.62,17.98 5.92,28 1.31,10.05 1.96,20.76 1.96,32.09 0,7.55 -0.18,15.14 -0.51,22.72 -0.33,7.53 -0.82,14.24 -1.42,20.1 -0.62,5.99 -1.47,11.87 -2.55,17.59 -1.07,5.75 -2.3,10.82 -3.63,15.2 -1.46,4.64 -3.14,9.09 -5,13.29 -1.91,4.28 -4.1,8.42 -6.52,12.39 -2.48,4.07 -5.19,7.9 -8.06,11.43 -2.87,3.53 -6.09,6.96 -9.59,10.26 -4.23,4 -8.86,7.73 -13.83,11.12 -4.94,3.38 -10.3,6.49 -16.03,9.31 -5.62,2.75 -11.51,5.21 -17.67,7.33 -6.26,2.15 -12.75,3.99 -19.42,5.5 -6.6,1.47 -14.5,2.78 -23.65,3.88 -8.91,1.07 -19.04,1.97 -30.31,2.66 -10.72,0.66 -22.97,1.17 -36.71,1.52 -14.14,0.35 -28.67,0.54 -43.6,0.54l-28.55 0c-12.5,0 -24.9,-0.17 -37.12,-0.48 -11.92,-0.3 -22.59,-0.74 -31.95,-1.31 -9.7,-0.58 -18.64,-1.37 -26.74,-2.29 -8.18,-0.95 -15.4,-2.06 -21.64,-3.34 -6.42,-1.31 -12.5,-2.85 -18.21,-4.61 -5.78,-1.79 -11.42,-3.88 -16.89,-6.21 -5.51,-2.36 -10.74,-4.97 -15.68,-7.82 -4.95,-2.84 -9.58,-5.91 -13.84,-9.16 -4.31,-3.13 -8.42,-6.63 -12.3,-10.42 -3.77,-3.71 -7.28,-7.69 -10.47,-11.93 -3.09,-4.11 -5.96,-8.54 -8.55,-13.27 -2.5,-4.57 -4.74,-9.45 -6.71,-14.58 -1.97,-4.99 -3.66,-10.28 -5.08,-15.8 -1.37,-5.4 -2.55,-11.29 -3.52,-17.68 -0.94,-6.25 -1.66,-12.66 -2.12,-19.12 -0.47,-6.82 -0.71,-13.63 -0.71,-20.43l0 -42.36 22.39 0zm532.28 175.42l0 -499.64 108.72 0 0 518.41 -108.72 0 0 -18.77zm140.35 -429.93l0 -69.71 474.13 0 0 88.48 -183.1 0 0 429.93 -108.72 0 0 -429.93 -182.31 0 0 -18.77zm513.77 429.93l0 -499.64 447.29 0 0 88.48 -339.36 0 0 119.88 329.76 0 0 86.49 -329.76 0 0 135.75 339.36 0 0 87.81 -447.29 0 0 -18.77zm777.67 -175.42l86.32 0 0 27.81c0,7.33 0.15,13.75 0.42,19.22 0.29,5.84 0.76,11.22 1.35,16.07 0.57,4.75 1.29,9.02 2.11,12.73 0.77,3.52 1.72,6.75 2.79,9.6 0.89,2.4 1.98,4.66 3.2,6.76 1.14,1.97 2.36,3.7 3.61,5.12 1.23,1.38 2.53,2.61 3.88,3.62 1.3,0.98 2.77,1.87 4.38,2.62 1.29,0.6 2.93,1.2 4.87,1.79 2.03,0.63 4.48,1.25 7.32,1.86 3.22,0.69 6.62,1.3 10.15,1.8 3.71,0.54 7.68,1.01 11.87,1.39 4.71,0.45 10.52,0.84 17.42,1.17 7.35,0.35 15.64,0.63 24.83,0.83 9.43,0.22 20.27,0.39 32.5,0.48l41.84 0.12c8.47,0 15.9,-0.1 22.21,-0.29 6.52,-0.18 13.01,-0.53 19.37,-0.96 5.93,-0.41 11.32,-0.92 16.07,-1.48 4.8,-0.59 9.22,-1.27 13.17,-2.04 3.65,-0.72 7,-1.55 10.01,-2.44 3.03,-0.9 5.83,-1.91 8.34,-2.99 2.15,-0.91 4.15,-1.95 5.99,-3.08 1.69,-1.04 3.22,-2.16 4.49,-3.31l0.77 -0.86 1.27 -2.19c0.54,-1.07 1.1,-2.48 1.63,-4.09l1.52 -5.55c0.44,-1.96 0.85,-4.38 1.23,-7.15l0.96 -8.85 0.61 -10.5 0.17 -11.98c0,-8.76 -0.25,-16.45 -0.72,-23.07 -0.49,-6.78 -1.22,-12.64 -2.14,-17.53 -0.83,-4.32 -1.78,-7.86 -2.81,-10.6 -0.83,-2.19 -1.64,-3.71 -2.38,-4.52 -0.78,-0.79 -1.87,-1.6 -3.26,-2.37 -1.72,-0.93 -3.85,-1.83 -6.35,-2.62 -3.19,-1.02 -6.87,-1.89 -10.97,-2.56 -4.37,-0.72 -9.18,-1.26 -14.42,-1.6l-177.14 -11.69c-14.07,-0.9 -27.21,-2.36 -39.33,-4.33 -12.24,-2 -23.49,-4.56 -33.67,-7.64 -10.75,-3.25 -20.41,-7.16 -28.95,-11.67 -8.73,-4.62 -16.29,-9.89 -22.64,-15.74 -6.34,-5.85 -11.88,-12.62 -16.56,-20.25 -4.65,-7.55 -8.47,-15.97 -11.44,-25.23 -2.8,-8.68 -4.91,-18.24 -6.31,-28.65 -1.4,-10.34 -2.09,-21.41 -2.09,-33.16 0,-7.09 0.24,-14.12 0.68,-21.03 0.45,-6.85 1.12,-13.25 1.99,-19.11 0.9,-6.18 2.08,-12.05 3.48,-17.58 1.37,-5.41 3.06,-10.63 5.03,-15.62 1.87,-4.88 4.17,-9.67 6.79,-14.32 2.6,-4.61 5.54,-9.05 8.75,-13.25 3.2,-4.18 6.79,-8.21 10.69,-12.05 3.82,-3.74 8.04,-7.36 12.6,-10.78 3.74,-2.8 7.83,-5.4 12.22,-7.74 4.33,-2.34 9.06,-4.47 14.1,-6.38 4.99,-1.84 10.19,-3.49 15.54,-4.9 5.36,-1.4 11.03,-2.64 17.01,-3.68 5.84,-0.99 12.72,-1.85 20.66,-2.59 7.63,-0.69 16.24,-1.28 25.8,-1.73 9.33,-0.45 19.86,-0.8 31.52,-1.03 12.37,-0.24 24.69,-0.37 36.79,-0.37l20.52 0c13.9,0 27.69,0.17 41.22,0.49 13.17,0.31 24.99,0.79 35.43,1.38 10.72,0.62 20.54,1.42 29.44,2.4 9.04,0.98 16.82,2.12 23.29,3.39 6.62,1.3 13.17,2.92 19.58,4.79 6.36,1.86 12.42,3.97 18.15,6.29 5.89,2.39 11.49,5.03 16.74,7.88 5.45,2.96 10.54,6.12 15.26,9.49 3.6,2.55 7.03,5.42 10.23,8.55 3.1,3.04 6.02,6.41 8.73,10.08 2.6,3.51 4.95,7.23 6.98,11.09 2.04,3.88 3.88,7.99 5.43,12.26 1.54,4.25 2.9,8.65 4,13.18 1.15,4.67 2.11,9.42 2.79,14.19 0.69,4.7 1.23,9.82 1.6,15.28 0.36,5.49 0.55,10.97 0.55,16.42 -0.09,4.96 -0.35,10.01 -0.35,14.95 -0.25,6.01 -0.66,11.32 -1.06,16.62l-0.79 10.47 -107.3 0 0 -30.8 -0.18 -11.85 -0.64 -10.08c-0.27,-3.12 -0.6,-5.83 -0.97,-8.11 -0.84,-4.18 -1.56,-7.08 -2.82,-11.15 -0.49,-1.32 -1.04,-2.5 -1.58,-3.48l-1.41 -2.06 -1.24 -1.29c-0.86,-0.72 -1.98,-1.43 -3.25,-2.07 -1.51,-0.76 -3.45,-1.53 -5.71,-2.27 -2.75,-0.9 -5.91,-1.73 -9.4,-2.46 -3.57,-0.75 -7.52,-1.41 -11.78,-1.96 -4.5,-0.62 -10.29,-1.17 -17.44,-1.66 -7.41,-0.5 -15.62,-0.92 -24.51,-1.22 -9.4,-0.33 -19.96,-0.58 -31.65,-0.73 -10.24,-0.13 -23.36,-0.21 -39.44,-0.21 -14.39,0 -27.24,0.33 -38.49,0.97 -11.21,0.63 -21.13,1.61 -29.71,2.9 -7.44,1.08 -13.74,2.43 -18.86,4 -4.4,1.33 -7.6,2.75 -9.59,4.19 -1.97,1.48 -3.81,3.49 -5.45,6 -1.86,2.83 -3.5,6.27 -4.85,10.29 -1.58,4.71 -2.8,10.08 -3.59,16.08 -0.81,6.1 -1.23,13.01 -1.23,20.69 0,6.29 0.28,12.04 0.82,17.22 0.54,5.1 1.34,9.71 2.39,13.75 0.92,3.54 2,6.56 3.18,8.99 1.06,2.21 2.26,4.01 3.58,5.38 1.19,1.26 2.69,2.41 4.54,3.44 2.12,1.19 4.7,2.29 7.7,3.26 3.67,1.2 7.91,2.2 12.65,3.01 4.82,0.81 10.39,1.45 16.67,1.88l180.59 12.57c12.79,0.91 24.73,2.39 35.75,4.36 11.15,2 21.42,4.56 30.75,7.63 9.9,3.27 18.84,7.16 26.76,11.64 7.99,4.52 15.04,9.72 21.09,15.56 5.96,5.8 11.14,12.44 15.48,19.9 4.23,7.27 7.78,15.47 10.57,24.53 2.63,8.64 4.62,17.98 5.92,28 1.3,10.05 1.96,20.76 1.96,32.09 0,7.55 -0.18,15.14 -0.52,22.72 -0.33,7.53 -0.81,14.24 -1.41,20.1 -0.62,5.99 -1.47,11.87 -2.55,17.59 -1.07,5.75 -2.3,10.82 -3.63,15.2 -1.47,4.64 -3.14,9.09 -5,13.29 -1.91,4.28 -4.1,8.42 -6.52,12.39 -2.48,4.07 -5.19,7.9 -8.06,11.43 -2.87,3.53 -6.1,6.96 -9.59,10.26 -4.23,4 -8.86,7.73 -13.83,11.12 -4.95,3.38 -10.3,6.49 -16.04,9.31 -5.61,2.75 -11.51,5.21 -17.66,7.33 -6.26,2.15 -12.75,3.99 -19.42,5.5 -6.6,1.47 -14.51,2.78 -23.65,3.88 -8.91,1.07 -19.04,1.97 -30.31,2.66 -10.72,0.66 -22.97,1.17 -36.71,1.52 -14.14,0.35 -28.67,0.54 -43.61,0.54l-28.54 0c-12.5,0 -24.91,-0.17 -37.12,-0.48 -11.92,-0.3 -22.59,-0.74 -31.95,-1.31 -9.7,-0.58 -18.64,-1.37 -26.75,-2.29 -8.17,-0.95 -15.39,-2.06 -21.63,-3.34 -6.42,-1.31 -12.5,-2.85 -18.21,-4.61 -5.78,-1.79 -11.43,-3.88 -16.89,-6.21 -5.51,-2.36 -10.74,-4.97 -15.68,-7.82 -4.95,-2.84 -9.58,-5.91 -13.84,-9.16 -4.31,-3.13 -8.42,-6.63 -12.3,-10.42 -3.78,-3.71 -7.28,-7.69 -10.48,-11.93 -3.08,-4.11 -5.95,-8.54 -8.54,-13.27 -2.51,-4.57 -4.75,-9.45 -6.71,-14.58 -1.97,-4.99 -3.66,-10.28 -5.09,-15.8 -1.36,-5.4 -2.54,-11.29 -3.51,-17.68 -0.95,-6.25 -1.66,-12.66 -2.12,-19.12 -0.47,-6.82 -0.72,-13.63 -0.72,-20.43l0 -42.36 22.4 0zm540.16 175.42l0 -499.64 447.29 0 0 88.48 -339.35 0 0 119.88 329.75 0 0 86.49 -329.75 0 0 135.75 339.35 0 0 87.81 -447.29 0 0 -18.77zm498.13 -322.01c0,-16.11 1.03,-31.14 3.06,-45 2.03,-13.91 5.14,-26.74 9.27,-38.43 4.33,-12.25 9.81,-23.22 16.42,-32.89 6.72,-9.83 14.66,-18.4 23.76,-25.67 9.06,-7.23 19.72,-13.53 31.89,-18.85 12,-5.23 25.6,-9.57 40.71,-12.97 14.4,-3.25 30.33,-5.7 47.78,-7.33 17.37,-1.62 36.1,-2.43 56.14,-2.43l72.88 0c36.9,0 69.34,2.69 97.17,8.06 14.3,2.76 27.5,6.28 39.55,10.55 12.14,4.31 23.07,9.38 32.71,15.18 9.99,6 18.77,12.89 26.28,20.61 7.5,7.7 13.77,16.26 18.77,25.64 4.87,9.16 8.53,19.04 10.94,29.6 2.41,10.54 3.62,21.75 3.62,33.59l0 39.16 -110.31 0 0 -24.61c0,-7.33 -0.53,-14 -1.57,-19.98 -1.03,-5.91 -2.57,-11.2 -4.57,-15.83 -1.81,-4.16 -4.02,-7.82 -6.59,-10.93 -2.53,-3.01 -5.4,-5.59 -8.6,-7.65 -3.54,-2.3 -8.09,-4.36 -13.64,-6.18 -5.96,-1.96 -12.93,-3.63 -20.83,-4.96 -8.56,-1.45 -18.46,-2.57 -29.66,-3.32 -11.1,-0.75 -23.49,-1.13 -37.09,-1.13l-50.51 0c-10.29,0 -19.11,0.11 -26.52,0.3 -7.82,0.21 -15.3,0.56 -22.36,1.01 -6.53,0.42 -12.37,0.95 -17.41,1.55 -5,0.58 -9.38,1.29 -13.12,2.07 -3.61,0.75 -7.02,1.63 -10.19,2.6 -3.29,1 -6.38,2.11 -9.16,3.28 -2.79,1.17 -5.5,2.49 -8.08,3.91 -2.55,1.44 -5.05,3 -7.43,4.7 -1.97,1.43 -3.75,2.93 -5.3,4.44 -1.57,1.54 -3.05,3.26 -4.41,5.09 -1.4,1.93 -2.67,3.97 -3.73,6.05 -1.11,2.19 -2.12,4.57 -2.95,7.08 -0.88,2.64 -1.7,5.99 -2.39,10 -0.73,4.12 -1.36,8.91 -1.85,14.33 -0.55,5.99 -0.97,12.41 -1.22,19.18 -0.24,6.52 -0.37,14.32 -0.37,23.41l0 137.03c0,9.03 0.13,16.77 0.37,23.21 0.25,6.77 0.67,13.17 1.22,19.13 0.49,5.39 1.12,10.16 1.85,14.27 0.7,4.02 1.51,7.37 2.38,9.98 0.84,2.51 1.85,4.88 2.96,7.07 1.06,2.09 2.33,4.12 3.74,6.04 1.35,1.85 2.83,3.57 4.4,5.1 1.55,1.52 3.33,3.01 5.31,4.44 2.43,1.74 4.94,3.34 7.43,4.73 2.6,1.45 5.31,2.79 8.03,3.96 2.91,1.2 5.96,2.33 9.13,3.32 3.1,0.97 6.33,1.84 9.65,2.56 3.35,0.72 7.57,1.41 12.56,2 4.96,0.58 10.77,1.11 17.43,1.53 7.12,0.46 14.73,0.81 22.74,1.01 7.6,0.2 16.71,0.31 27.29,0.31l50.51 0c9.66,0 17.84,-0.09 24.53,-0.26 7.12,-0.18 13.92,-0.48 20.38,-0.88 6.01,-0.38 11.29,-0.83 15.71,-1.34 4.43,-0.52 8.27,-1.12 11.43,-1.78 2.93,-0.63 5.82,-1.38 8.6,-2.23 2.85,-0.87 5.54,-1.85 8.04,-2.88 2.49,-1.04 4.93,-2.21 7.25,-3.46 2.15,-1.16 4.34,-2.51 6.46,-3.99 1.55,-1.12 3.06,-2.39 4.47,-3.8 1.47,-1.46 2.82,-3.03 3.99,-4.65 1.29,-1.77 2.46,-3.65 3.44,-5.59 1.03,-2.07 1.99,-4.32 2.82,-6.76 0.8,-2.41 1.55,-5.49 2.22,-9.18 0.67,-3.78 1.26,-8.15 1.73,-13.05 0.52,-5.46 0.9,-11.22 1.14,-17.22 0.22,-5.72 0.34,-12.61 0.34,-20.68l0 -10.88 -159.28 0 0 -86.5 269.59 0 0 99.37c0,16.18 -1.03,31.24 -3.06,45.14 -2.03,13.95 -5.14,26.8 -9.28,38.52 -4.33,12.27 -9.83,23.27 -16.43,32.94 -6.72,9.83 -14.65,18.39 -23.75,25.61 -8.99,7.18 -19.64,13.43 -31.87,18.74 -12.02,5.22 -25.61,9.55 -40.69,12.93 -14.41,3.22 -30.37,5.65 -47.81,7.27 -17.37,1.61 -36.11,2.42 -56.15,2.42l-72.88 0c-20.03,0 -38.76,-0.81 -56.14,-2.42 -17.45,-1.62 -33.39,-4.05 -47.82,-7.27 -15.08,-3.38 -28.67,-7.71 -40.7,-12.93 -12.22,-5.31 -22.87,-11.56 -31.86,-18.74 -9.1,-7.22 -17.04,-15.78 -23.76,-25.61 -6.6,-9.67 -12.09,-20.67 -16.42,-32.94 -4.13,-11.71 -7.24,-24.57 -9.27,-38.52 -2.03,-13.9 -3.06,-28.97 -3.06,-45.14l0 -163.16zm626.01 -177.63l86.33 0 0 334.39c0,14.96 0.45,27.51 1.33,37.58 0.87,9.82 2.13,17.35 3.8,22.52 1.46,4.43 3.4,8.41 5.78,11.88 2.33,3.33 5.11,6.27 8.3,8.75 1.89,1.44 3.82,2.74 5.71,3.85 2.14,1.24 4.33,2.36 6.52,3.33 2.35,1.05 4.74,1.98 7.16,2.76 2.58,0.84 5.32,1.58 8.17,2.22 2.73,0.6 6.18,1.16 10.25,1.63 4.17,0.48 9.13,0.91 14.8,1.26 6.17,0.38 12.64,0.67 19.41,0.83 6.44,0.17 14.32,0.26 23.55,0.26l60.25 0c16.99,0 31.25,-0.36 42.74,-1.03 11.22,-0.67 19.9,-1.67 25.98,-2.96 2.79,-0.62 5.48,-1.35 7.97,-2.15 2.41,-0.76 4.86,-1.7 7.28,-2.78 2.21,-0.96 4.39,-2.09 6.51,-3.32 2.06,-1.19 4.05,-2.52 5.97,-3.98 1.54,-1.19 2.93,-2.43 4.11,-3.68 1.27,-1.38 2.47,-2.87 3.55,-4.47 1.22,-1.77 2.29,-3.64 3.22,-5.59 0.94,-1.97 1.76,-4.1 2.46,-6.35 0.76,-2.46 1.45,-5.54 2.05,-9.19 0.61,-3.72 1.14,-8.1 1.58,-13.13 0.48,-5.44 0.84,-11.21 1.06,-17.31 0.2,-5.7 0.31,-12.67 0.31,-20.93l0 -334.39 108.72 0 0 340.89c0,16.02 -0.98,31 -2.92,44.86 -1.95,13.94 -4.9,26.73 -8.82,38.33 -4.1,12.11 -9.33,23.05 -15.65,32.75 -6.4,9.81 -13.95,18.36 -22.58,25.58 -8.66,7.28 -18.87,13.62 -30.58,18.99 -11.53,5.31 -24.59,9.69 -39.08,13.13 -13.83,3.28 -29.08,5.75 -45.72,7.39 -16.53,1.62 -34.41,2.44 -53.56,2.44l-69.45 0c-19.11,0 -36.98,-0.82 -53.52,-2.44 -16.63,-1.64 -31.89,-4.11 -45.73,-7.4 -14.45,-3.43 -27.52,-7.81 -39.08,-13.11 -11.71,-5.37 -21.92,-11.69 -30.53,-18.93 -8.69,-7.27 -16.25,-15.83 -22.65,-25.65 -6.34,-9.71 -11.56,-20.64 -15.66,-32.76 -3.93,-11.6 -6.87,-24.39 -8.82,-38.33 -1.95,-13.86 -2.92,-28.82 -2.92,-44.85l0 -340.89 22.4 0zm834.19 88.48l-160.7 0 0 154.93 160.7 0c11.46,0 21.79,-0.28 30.92,-0.85 9.2,-0.56 17.31,-1.41 24.26,-2.5 6.23,-0.98 11.5,-2.16 15.78,-3.49 3.89,-1.23 6.83,-2.51 8.83,-3.86 1.98,-1.33 3.78,-2.99 5.32,-4.94 1.69,-2.12 3.12,-4.6 4.27,-7.38 1.38,-3.3 2.42,-7.14 3.14,-11.46 0.72,-4.35 1.09,-9.32 1.09,-14.87l0 -56.22c0,-5.77 -0.36,-10.87 -1.05,-15.29 -0.69,-4.38 -1.73,-8.3 -3.08,-11.68 -1.11,-2.8 -2.48,-5.27 -4.07,-7.36 -1.45,-1.91 -3.1,-3.49 -4.88,-4.69 -1.86,-1.27 -4.69,-2.51 -8.45,-3.64 -4.32,-1.33 -9.63,-2.48 -15.86,-3.43 -6.97,-1.06 -15.2,-1.89 -24.65,-2.45 -9.25,-0.54 -19.81,-0.82 -31.57,-0.82zm-268.64 411.16l0 -499.64 281.4 0c16.74,0 32.29,0.55 46.6,1.6 14.6,1.12 27.8,2.73 39.56,4.85 12.55,2.26 23.89,5.19 33.98,8.75 10.25,3.62 19.17,7.92 26.71,12.87 7.83,5.15 14.67,11.26 20.47,18.3 5.76,6.98 10.5,14.88 14.21,23.61 3.49,8.21 6.11,17.25 7.84,27.05 1.71,9.74 2.58,20.23 2.58,31.44l0 72.65c0,6.93 -0.45,13.64 -1.34,20.08 -0.85,6.34 -2.22,12.46 -4.01,18.34 -1.85,6.07 -4.21,11.75 -7.02,16.99 -2.87,5.38 -6.25,10.32 -10.11,14.86 -4,4.69 -8.51,8.95 -13.54,12.74l-5.28 3.7c2.84,1.8 5.51,3.71 8.02,5.72 4.95,3.95 9.32,8.35 13.03,13.12 3.52,4.54 6.62,9.71 9.26,15.47 2.55,5.51 4.66,11.68 6.33,18.45 1.52,6.22 2.68,13.05 3.47,20.41 0.8,7.21 1.19,14.93 1.19,23.11l0 134.3 -111.1 0 0 -117.88c0,-15.81 -1.43,-28.82 -4.25,-38.99 -1.24,-4.5 -2.71,-8.33 -4.38,-11.45 -1.52,-2.85 -3.25,-5.2 -5.15,-6.98 -1.65,-1.55 -3.92,-2.98 -6.77,-4.29 -3.14,-1.45 -6.98,-2.71 -11.45,-3.78 -5.28,-1.26 -11.31,-2.21 -18.03,-2.85 -6.83,-0.64 -14.59,-0.97 -23.2,-0.97l-181.08 0 0 187.19 -107.94 0 0 -18.77zm816.47 -417.78l-35.52 0c-10.55,0 -19.57,0.11 -27.09,0.3 -7.96,0.21 -15.57,0.56 -22.67,1.01 -6.64,0.42 -12.52,0.95 -17.53,1.55 -5.01,0.59 -9.24,1.27 -12.6,2 -3.19,0.67 -6.42,1.55 -9.65,2.57 -3.06,0.96 -6.11,2.1 -9.1,3.38 -2.75,1.14 -5.41,2.44 -7.98,3.87 -2.57,1.43 -5.09,3.02 -7.49,4.73 -1.83,1.32 -3.6,2.84 -5.26,4.49 -1.64,1.64 -3.18,3.44 -4.53,5.33 -1.5,2.09 -2.83,4.27 -3.95,6.51 -1.16,2.3 -2.19,4.81 -3.07,7.47 -0.89,2.72 -1.73,6.17 -2.48,10.32 -0.75,4.19 -1.42,9.03 -1.94,14.44 -0.58,5.99 -1.01,12.32 -1.28,18.95 -0.26,6.38 -0.39,13.98 -0.39,22.74l0 136.26c0,8.73 0.13,16.29 0.39,22.61 0.26,6.53 0.69,12.78 1.26,18.66 0.52,5.37 1.19,10.16 1.93,14.31 0.76,4.11 1.62,7.53 2.51,10.23 0.91,2.69 1.93,5.17 3.06,7.39 1.19,2.33 2.5,4.48 3.88,6.4 1.3,1.8 2.84,3.57 4.53,5.25 1.57,1.6 3.33,3.09 5.25,4.47 2.46,1.75 4.99,3.36 7.5,4.76 2.6,1.45 5.31,2.79 8.04,3.96 2.9,1.2 5.95,2.33 9.12,3.32 3.1,0.97 6.34,1.84 9.65,2.56 3.36,0.72 7.59,1.41 12.6,2 5.01,0.59 10.89,1.13 17.53,1.54 7.1,0.45 14.71,0.8 22.67,1.01 7.52,0.19 16.54,0.3 27.09,0.3l35.52 0c10.57,0 19.58,-0.11 27.12,-0.3 7.98,-0.21 15.61,-0.56 22.74,-1.01 6.78,-0.43 12.72,-0.96 17.75,-1.55 5.08,-0.6 9.35,-1.26 12.72,-1.98 3.51,-0.78 6.89,-1.68 10.1,-2.67 3.22,-1.02 6.23,-2.12 8.99,-3.29 2.8,-1.19 5.52,-2.52 8.12,-3.96 2.5,-1.36 4.99,-2.94 7.45,-4.69 1.79,-1.29 3.5,-2.74 5.1,-4.33 1.58,-1.56 3.05,-3.27 4.35,-5.06 1.43,-1.95 2.7,-4.01 3.77,-6.13 1.12,-2.25 2.13,-4.66 2.97,-7.21 0.89,-2.63 1.7,-5.97 2.39,-9.94 0.73,-4.09 1.36,-8.89 1.86,-14.36 0.55,-5.94 0.97,-12.32 1.22,-19.07 0.24,-6.44 0.37,-14.18 0.37,-23.22l0 -136.81c0,-8.75 -0.13,-16.34 -0.39,-22.7 -0.26,-6.64 -0.7,-12.98 -1.27,-18.95 -0.52,-5.47 -1.19,-10.34 -1.95,-14.56 -0.75,-4.16 -1.59,-7.63 -2.49,-10.35 -0.88,-2.67 -1.92,-5.19 -3.08,-7.5 -1.15,-2.29 -2.48,-4.49 -3.93,-6.52 -1.36,-1.9 -2.87,-3.67 -4.5,-5.3 -1.7,-1.65 -3.48,-3.17 -5.3,-4.49 -2.29,-1.61 -4.68,-3.11 -7.14,-4.47 -2.67,-1.45 -5.31,-2.75 -7.86,-3.81 -2.65,-1.11 -5.62,-2.19 -8.88,-3.2 -3.4,-1.04 -6.64,-1.91 -9.72,-2.58 -3.53,-0.71 -7.81,-1.38 -12.77,-1.95 -4.94,-0.57 -10.77,-1.07 -17.44,-1.48 -7.13,-0.43 -14.75,-0.76 -22.79,-0.96 -7.6,-0.19 -16.78,-0.29 -27.51,-0.29zm-282.84 95.88c0,-16.15 1.03,-31.18 3.06,-45.07 2.03,-13.91 5.14,-26.75 9.27,-38.45 4.33,-12.25 9.82,-23.24 16.42,-32.9 6.73,-9.84 14.67,-18.42 23.76,-25.68 9.06,-7.23 19.71,-13.53 31.91,-18.85 12,-5.23 25.61,-9.57 40.75,-12.98 14.43,-3.25 30.39,-5.69 47.86,-7.32 17.4,-1.62 36.18,-2.43 56.27,-2.43l72.35 0c40.86,0 75.8,3.2 104.76,9.6 15.15,3.34 28.79,7.63 40.84,12.81 12.29,5.29 22.92,11.51 31.85,18.62 8.92,7.14 16.74,15.7 23.43,25.62 6.56,9.73 11.98,20.74 16.23,32.99 4.08,11.77 7.15,24.7 9.16,38.7 2.01,13.98 3.03,29.11 3.03,45.34l0 162.94c0,16.18 -1.03,31.25 -3.07,45.15 -2.04,13.98 -5.17,26.84 -9.31,38.57 -4.32,12.19 -9.83,23.22 -16.51,32.95 -6.7,9.87 -14.65,18.43 -23.75,25.65 -9.05,7.19 -19.73,13.46 -31.98,18.76 -12.07,5.23 -25.69,9.54 -40.77,12.91 -14.42,3.23 -30.37,5.67 -47.78,7.27 -17.37,1.61 -36.09,2.42 -56.13,2.42l-72.35 0c-20.07,0 -38.82,-0.81 -56.22,-2.41 -17.52,-1.62 -33.48,-4.05 -47.91,-7.28 -15.1,-3.38 -28.71,-7.69 -40.77,-12.91 -12.24,-5.31 -22.88,-11.57 -31.89,-18.76 -9.11,-7.23 -17.03,-15.78 -23.75,-25.62 -6.62,-9.67 -12.1,-20.68 -16.43,-32.95 -4.13,-11.71 -7.24,-24.59 -9.27,-38.55 -2.03,-13.91 -3.06,-29 -3.06,-45.2l0 -162.94z"/>
   </g>
   <path class="fil93" d="M10926.43 631.09l-2370.67 401.18 0 3451.12c0,934.57 2370.67,2051.46 2370.67,2051.46 0,0 2370.61,-1116.9 2370.61,-2051.46l0 -3451.12 -2370.61 -401.18z"/>
   <g id="_1705637827488">
    <path class="fil91" d="M14622.67 3919.41l141 242.03 71.15 0 92.9 -205.96 4.6 0 94.22 205.96 71.81 0 141.66 -242.03 -56.01 0 -117.27 207 -5.27 0 -93.55 -207 -75.77 0 -92.24 207 -4.61 0 -118.59 -207 -54.03 0zm599.55 0l140.99 242.03 71.16 0 92.89 -205.96 4.61 0 94.22 205.96 71.81 0 141.65 -242.03 -56 0 -117.27 207 -5.27 0 -93.56 -207 -75.77 0 -92.24 207 -4.6 0 -118.59 -207 -54.03 0zm599.55 0l140.98 242.03 71.16 0 92.9 -205.96 4.61 0 94.21 205.96 71.82 0 141.65 -242.03 -56.01 0 -117.27 207 -5.27 0 -93.55 -207 -75.77 0 -92.24 207 -4.61 0 -118.59 -207 -54.02 0zm612.06 182.96l0 59.07 71.81 0 0 -59.07 -71.81 0zm129.79 -182.96l154.82 115.01 -173.94 127.02 75.12 0 135.72 -102.98 134.4 102.98 75.11 0 -171.96 -127.02 154.17 -115.01 -71.16 0 -120.56 92.01 -119.91 -92.01 -71.81 0zm425.6 -106.64l0 348.67 48.1 0 0 -348.67 -48.1 0zm156.81 179.3l0 -3.14c0.66,-33.45 19.1,-39.2 123.86,-39.2 79.72,0 107.39,4.71 124.53,21.44 11.19,10.45 14.48,20.9 14.48,45.99l0 26.14 -3.94 0c-21.09,-23 -42.17,-26.14 -167.36,-26.14 -64.56,0 -93.55,2.1 -112,7.85 -31.62,9.41 -43.48,28.22 -43.48,66.38 0,29.27 6.59,43.91 26.35,56.46 22.41,13.59 51.4,16.73 160.76,16.73 92.9,0 115.3,-5.24 138.35,-31.37l1.98 0 -0.66 28.23 48.1 0 0 -127.55c0,-57.5 -4.61,-73.7 -25.69,-90.43 -25.7,-21.43 -61.28,-27.19 -164.72,-27.19 -132.42,0 -171.3,14.65 -171.3,65.35l0 10.45 50.74 0zm123.2 59.07c107.39,0 136.38,8.37 136.38,39.73 0,32.41 -24.37,40.25 -126.49,40.25 -75.12,0 -108.05,-1.57 -121.89,-6.27 -17.13,-5.76 -23.72,-15.17 -23.72,-32.93 0,-15.69 5.93,-26.14 17.79,-32.41 13.83,-6.8 36.89,-8.37 117.93,-8.37zm240.47 -238.37l0 348.67 47.45 0 0 -30.84 2.63 0c23.06,28.22 48.1,33.98 144.94,33.98 75.12,0 106.07,-2.62 131.11,-10.46 48.75,-15.68 69.18,-48.09 69.18,-110.29 0,-56.98 -13.17,-86.78 -46.11,-107.17 -27.68,-16.72 -58.64,-20.9 -162.08,-20.9 -86.97,0 -113.98,6.27 -135.72,32.41l-3.3 0 0 -135.4 -48.1 0zm187.78 136.44c63.9,0 96.19,2.61 114.63,9.41 29.65,10.98 41.51,33.98 41.51,82.59 0,73.71 -23.71,89.91 -131.77,89.91 -70.49,0 -106.73,-2.62 -125.17,-9.93 -30.31,-10.98 -40.2,-30.84 -40.2,-80.5 0,-77.89 21.09,-91.48 141,-91.48zm245.08 128.07l0 12.54c0,29.8 7.25,44.96 28.33,56.98 23.06,13.59 64.57,17.78 168.67,17.78 86.96,0 131.11,-3.67 152.85,-13.08 25.03,-10.97 36.23,-28.74 36.23,-58.54 0,-47.57 -28.33,-68.48 -98.17,-70.57 -31.62,-1.05 -119.9,-2.61 -140.33,-2.09 -73.13,1.04 -90.91,-5.23 -90.91,-31.88 0,-12.55 4.6,-21.44 13.83,-26.66 13.83,-8.37 54.02,-12.03 121.88,-12.03 72.47,0 108.72,4.18 121.89,15.16 7.25,5.23 9.22,11.5 9.22,29.27l51.39 0c0,-28.75 -2.63,-36.59 -13.83,-47.56 -22.4,-23 -63.91,-30.33 -166.69,-30.33 -89.6,0 -135.07,4.71 -156.8,15.69 -21.75,11.5 -32.29,29.8 -32.29,55.93 0,48.62 28.33,65.86 108.71,66.91 116.61,1.05 126.5,1.05 139.67,1.05 61.28,-0.53 81.04,8.88 81.04,37.63 0,12.03 -3.95,20.39 -13.17,26.14 -14.5,9.41 -38.22,11.5 -122.54,11.5 -137.05,0 -147.59,-3.14 -146.93,-47.04l-0.66 -6.8 -51.39 0zm447.35 25.09l0 59.07 71.82 0 0 -59.07 -71.82 0zm468.43 -28.75c-1.97,47.04 -23.72,56.98 -122.55,56.98 -63.9,0 -100.8,-3.14 -119.9,-10.46 -27.67,-9.93 -39.53,-33.45 -39.53,-76.84 0,-78.93 21.74,-93.57 139.68,-93.57 111.99,0 138.35,10.46 139.67,55.93l50.07 0c-1.98,-31.36 -8.57,-48.09 -26.35,-62.2 -24.39,-20.39 -65.89,-27.19 -163.39,-27.19 -73.14,0 -108.71,4.19 -135.06,15.69 -38.22,16.72 -56.01,50.7 -56.01,108.73 0,50.18 13.84,82.59 42.17,100.88 27.01,17.77 69.18,23.01 177.88,23.01 79.07,0 113.32,-6.8 137.04,-26.67 17.79,-14.63 25.03,-31.88 25.69,-64.29l-49.41 0zm271.45 -157.35c-69.19,0 -103.44,3.67 -128.48,14.12 -40.19,16.73 -58.63,51.23 -58.63,108.73 0,59.59 15.15,90.43 54.02,108.2 27.67,13.07 65.22,17.26 154.83,17.26 77.74,0 112,-3.67 138.36,-15.69 38.21,-17.25 54.67,-50.18 54.67,-108.73 0,-56.45 -15.14,-87.81 -52.04,-106.63 -26.36,-13.07 -63.91,-17.26 -162.73,-17.26zm7.9 33.46c61.93,0 94.87,2.62 113.33,9.41 30.96,10.98 42.15,32.41 42.15,79.98 0,42.34 -7.9,63.77 -27.67,76.32 -19.76,12.02 -46.77,15.68 -117.92,15.68 -56.67,0 -85.66,-2.09 -105.42,-7.84 -35.58,-9.93 -48.1,-31.36 -48.1,-81.55 0,-77.88 21.75,-92 143.63,-92zm252.99 -30.32l0 242.03 48.1 0 0 -95.14c0,-60.12 3.95,-81.02 19.11,-94.61 17.78,-15.68 48.09,-21.96 109.36,-21.96 57.32,0 86.96,5.23 104.1,17.77 12.51,9.94 16.47,23 16.47,58.03l0 135.91 48.09 0 0 -95.14c0,-59.07 4.62,-79.45 21.74,-95.13 16.48,-15.69 45.47,-21.44 106.74,-21.44 100.8,0 119.91,12.03 119.91,75.8l0 135.91 48.09 0 0 -127.55c0,-56.45 -3.95,-70.57 -23.72,-88.34 -25.69,-21.95 -60.61,-29.28 -143.62,-29.28 -87.63,0 -122.54,10.46 -142.31,42.35 -24.38,-32.94 -58.64,-42.35 -158.13,-42.35 -74.44,0 -94.86,5.76 -125.17,35.03l0 -31.89 -48.76 0zm710.24 182.96l0 59.07 71.81 0 0 -59.07 -71.81 0zm143.62 -289.6l0 348.67 47.44 0 0 -30.84 2.63 0c23.06,28.22 48.1,33.98 144.95,33.98 75.11,0 106.07,-2.62 131.1,-10.46 48.76,-15.68 69.18,-48.09 69.18,-110.29 0,-56.98 -13.17,-86.78 -46.12,-107.17 -27.67,-16.72 -58.63,-20.9 -162.07,-20.9 -86.97,0 -113.98,6.27 -135.72,32.41l-3.3 0 0 -135.4 -48.09 0zm187.77 136.44c63.9,0 96.19,2.61 114.63,9.41 29.65,10.98 41.51,33.98 41.51,82.59 0,73.71 -23.71,89.91 -131.77,89.91 -70.49,0 -106.73,-2.62 -125.17,-9.93 -30.31,-10.98 -40.19,-30.84 -40.19,-80.5 0,-77.89 21.08,-91.48 140.99,-91.48zm253.65 -29.8l0 242.03 48.1 0 0 -111.87c0,-85.2 20.42,-99.84 136.37,-99.84 75.11,0 91.58,10.98 91.58,61.16l0 17.25 49.41 0 0 -25.09c0,-31.36 -10.54,-54.37 -30.96,-68.48 -20.43,-14.11 -44.8,-18.3 -104.76,-18.3 -57.98,0 -83.67,2.1 -102.11,9.41 -16.48,6.28 -28.33,14.64 -36.24,26.14l-3.29 0 0 -32.41 -48.1 0z"/>
    <g>
     <g>
      <path class="fil94" d="M19456.59 3151.14c-58.69,241.9 -360.08,426.13 -723.2,426.13 -329.61,0 -608.42,-151.77 -700.98,-360.7 22.82,4.1 46.31,6.25 70.32,6.25 146.9,0 275.07,-80.21 343.11,-199.23 69.7,61.76 161.35,99.27 261.79,99.27 108.41,0 206.6,-43.69 277.97,-114.4 71.53,71.81 170.49,116.26 279.84,116.26 38.74,0 76.16,-5.6 111.53,-15.99 24.66,17 51.34,31.3 79.62,42.41z"/>
      <path class="fil95" d="M18843.84 2578.53c53.76,0 97.34,43.58 97.34,97.34 0,53.76 -43.58,97.35 -97.34,97.35 -53.76,0 -97.35,-43.59 -97.35,-97.35 0,-53.76 43.59,-97.34 97.35,-97.34z"/>
      <path class="fil96" d="M19200.13 2788.81c47.7,0 86.38,38.68 86.38,86.38 0,47.71 -38.68,86.39 -86.38,86.39 -47.71,0 -86.39,-38.68 -86.39,-86.39 0,-47.7 38.68,-86.38 86.39,-86.38z"/>
      <path class="fil97" d="M18984.88 2788.77c25.11,0 45.45,20.35 45.45,45.45 0,25.11 -20.34,45.46 -45.45,45.46 -25.1,0 -45.45,-20.35 -45.45,-45.46 0,-25.1 20.35,-45.45 45.45,-45.45z"/>
      <path class="fil98" d="M18852.51 2846.2c30.37,0 55,24.63 55,55.01 0,30.37 -24.63,55 -55,55 -30.38,0 -55,-24.63 -55,-55 0,-30.38 24.62,-55.01 55,-55.01z"/>
      <path class="fil99" d="M18698.6 2912.78c39.63,0 71.76,32.12 71.76,71.76 0,39.63 -32.13,71.76 -71.76,71.76 -39.63,0 -71.76,-32.13 -71.76,-71.76 0,-39.64 32.13,-71.76 71.76,-71.76z"/>
      <path class="fil100" d="M18622.84 2795.96c22.01,0 39.86,17.84 39.86,39.86 0,22.01 -17.85,39.86 -39.86,39.86 -22.01,0 -39.86,-17.85 -39.86,-39.86 0,-22.02 17.85,-39.86 39.86,-39.86z"/>
      <path class="fil101" d="M18550.67 2727.77c14.75,0 26.7,11.95 26.7,26.7 0,14.75 -11.95,26.71 -26.7,26.71 -14.75,0 -26.71,-11.96 -26.71,-26.71 0,-14.75 11.96,-26.7 26.71,-26.7z"/>
      <path class="fil102" d="M18186.6 2966.97c22.04,0 39.89,17.86 39.89,39.9 0,22.03 -17.85,39.89 -39.89,39.89 -22.03,0 -39.89,-17.86 -39.89,-39.89 0,-22.04 17.86,-39.9 39.89,-39.9z"/>
      <path class="fil103" d="M18359.66 2821.03c37.01,0 67.01,30 67.01,67.01 0,37.01 -30,67.01 -67.01,67.01 -37.01,0 -67.02,-30 -67.02,-67.01 0,-37.01 30.01,-67.01 67.02,-67.01z"/>
     </g>
     <path class="fil104" d="M18724.62 2281.48c513.15,0 929.14,325.67 929.14,727.41 0,401.74 -415.99,727.41 -929.14,727.41 -513.15,0 -929.14,-325.67 -929.14,-727.41 0,-401.74 415.99,-727.41 929.14,-727.41zm0.01 168.94c412.54,0 746.98,250.04 746.98,558.47 0,308.43 -334.44,558.48 -746.98,558.48 -412.55,0 -746.99,-250.05 -746.99,-558.48 0,-308.43 334.44,-558.47 746.99,-558.47z"/>
     <path class="fil91" d="M14595.8 3437.75l681.57 -650.28 -594.18 -565.89 300.01 0 433.99 426.29 433.99 -426.29 300.59 0 -587.78 565.89 681.57 650.28 -300.59 0 -527.78 -512.65 -517.29 512.65 -304.1 0z"/>
     <path class="fil91" d="M16108.26 3437.75l0 -1721.7 206.35 0 0 1721.7 -206.35 0z"/>
     <path class="fil91" d="M17783.13 3562.63l0 -2013.8 206.34 0 0 2013.8 -206.34 0z"/>
     <path class="fil91" d="M16519.06 2562.74l0 -16.23c2.73,-173.07 79,-202.81 512.11,-202.81 329.59,0 444,24.33 514.83,110.87 34.39,40.16 50.74,80.34 56.89,151.53l0.24 0 0 2.82c1.96,23.99 2.79,51.49 2.79,83.62l0 2.63 -2.79 0 0 30.34 -915.61 0c-209.93,0 -381.68,168.59 -381.68,374.67l0 0c0,206.07 171.75,374.67 381.68,374.67l639.28 0c105.35,0 252.52,-42.4 280.9,-131.3l-1.78 95.37 198.85 0 0 -659.84c0,-297.47 -19.07,-381.3 -106.24,-467.84 -106.23,-110.87 -253.32,-140.62 -680.98,-140.62 -547.52,0 -708.23,75.72 -708.23,338.03l0 54.09 209.74 0zm1084.07 356.2l0 248.13c-31.01,87.66 -141.25,119.93 -198.84,119.93l-672.69 0c-120.97,0 -219.97,-82.13 -219.97,-182.53l0 0c0,-25.05 6.17,-48.96 17.3,-70.75 16.8,-49.3 55.3,-79.93 116.32,-97.02 26.54,-9.48 55.74,-14.74 86.35,-14.74l2.61 0c24.99,-2.06 52.19,-3.02 81.65,-3.02l787.27 0z"/>
     <path class="fil91" d="M19595.28 3099.11c2.23,143.12 30.25,218.37 105.75,278.57 86.21,71.02 241.35,92.88 630.46,92.88 325.08,0 490.09,-19.13 571.35,-68.3 93.58,-57.36 135.45,-150.24 135.45,-305.95 0,-248.59 -105.89,-357.85 -366.95,-368.78 -118.2,-5.47 -448.21,-13.66 -524.55,-10.92 -273.37,5.45 -339.86,-27.33 -339.86,-166.64 0,-65.57 17.24,-112.01 51.72,-139.32 51.72,-43.71 201.94,-62.83 455.6,-62.83 270.9,0 406.35,21.85 455.6,79.22 22.72,22.9 31.58,49.65 33.86,112.43l192.42 0c-1.91,-117.75 -13.6,-156.21 -51.42,-208.04 -83.73,-120.2 -238.89,-158.44 -623.07,-158.44 -334.93,0 -504.86,24.59 -586.13,81.95 -81.27,60.1 -120.67,155.71 -120.67,292.29 0,254.06 105.9,344.2 406.35,349.67 435.91,5.46 472.84,5.46 522.09,5.46 229.03,-2.73 302.92,46.44 302.92,196.68 0,62.83 -14.77,106.54 -49.25,136.59 -54.19,49.17 -142.84,60.1 -458.07,60.1 -472.79,0 -542.76,-14.04 -548.8,-196.62l-194.8 0z"/>
    </g>
   </g>
   <path class="fil105" d="M10926.43 999.86l-2074.51 351.06 0 3019.98c0,817.82 2074.51,1795.2 2074.51,1795.2 0,0 2074.46,-977.38 2074.46,-1795.2l0 -3019.98 -2074.46 -351.06z"/>
   <g style="clip-path:url(#id1)">
    <g id="_1705637823200">
     <g>
      <path id="1" class="fil106" d="M11857.3 6652.78l-115.1 0 0 -169.57c8.72,-4 17.1,-9.15 24.46,-16.12l1145.72 -1083.78c17.88,-16.9 28.01,-40.43 28.01,-65.02l0 -2544.97c0,-2.05 -0.47,-4.01 -0.6,-6.01 -0.21,-3.27 -0.37,-6.47 -0.98,-9.7 -0.5,-2.85 -1.31,-5.54 -2.08,-8.25 -0.76,-2.86 -1.54,-5.71 -2.63,-8.47 -1.08,-2.81 -2.48,-5.45 -3.84,-8.13 -1.28,-2.51 -2.47,-4.98 -4,-7.4 -1.79,-2.77 -3.83,-5.27 -5.87,-7.83 -1.27,-1.58 -2.25,-3.32 -3.61,-4.81 -0.44,-0.47 -0.95,-0.81 -1.42,-1.23 -2.2,-2.34 -4.76,-4.38 -7.22,-6.47 -2.09,-1.75 -4.04,-3.62 -6.26,-5.15 -2.26,-1.58 -4.77,-2.81 -7.19,-4.17 -2.64,-1.49 -5.24,-3.15 -8,-4.35 -2.3,-1.01 -4.76,-1.65 -7.15,-2.46 -3.15,-1.06 -6.21,-2.22 -9.41,-2.89 -2.25,-0.52 -4.63,-0.64 -6.97,-0.98 -3.54,-0.52 -7.07,-1.02 -10.64,-1.07 -0.55,0 -1.11,-0.17 -1.66,-0.17 -1.91,0 -3.66,0.43 -5.53,0.55 -3.5,0.22 -6.93,0.44 -10.35,1.03 -2.68,0.51 -5.19,1.28 -7.78,1.95 -2.98,0.86 -6.01,1.67 -8.89,2.76 -2.72,1.11 -5.23,2.44 -7.84,3.71 -2.54,1.32 -5.14,2.6 -7.66,4.17 -2.71,1.75 -5.18,3.79 -7.69,5.79 -1.62,1.28 -3.37,2.26 -4.9,3.7l-366.71 337.36c-17.16,15.45 -28.18,37.23 -29.45,61.74 -0.05,0.47 -0.13,0.93 -0.13,1.4 -0.09,1.11 -0.34,2.14 -0.34,3.24l0 1577.39 -800.45 711.64c-19.11,16.94 -30.05,41.33 -30.05,66.9l0 1185.68 -131.58 0 2.86 -1327.26 710.72 -663.31c18.11,-16.93 28.42,-40.63 28.42,-65.45l0 -458.54c0,-21.87 -8,-42.94 -22.43,-59.32l-261.19 -295.35 240.81 -221.54c6.46,-5.96 11.44,-12.84 15.79,-20 34.54,2.18 69.96,-9.02 97.45,-34.34 53.61,-49.31 57.05,-132.72 7.78,-186.28 -49.33,-53.62 -132.72,-57.07 -186.34,-7.8 -30.59,28.17 -44.26,67.41 -41.66,105.92 -5.02,3.02 -9.83,6.55 -14.3,10.68l-305.95 281.48c-36.38,33.49 -38.77,90.13 -5.27,126.55 4.76,5.19 10.08,9.53 15.65,13.37 3.07,5.44 6.69,10.72 11.03,15.61l269.56 304.89 0 385.79 -710.63 663.22c-18.13,16.85 -28.38,40.51 -28.46,65.23l-2.09 966.37 -253.57 -279.02 0.98 -839.47 91.32 -84.01 50.97 55.45 504.97 -464.58 -50.97 -55.41 176.42 -162.34c17.49,-16.09 27.88,-38.46 28.85,-62.21 0.98,-23.74 -7.49,-46.89 -23.57,-64.34l-265.44 -288.37c-33.49,-36.43 -90.12,-38.73 -126.55,-5.29 -5.02,4.65 -9.28,9.8 -13.03,15.24 -5.69,3.28 -11.23,7.07 -16.3,11.75l-885.63 814.8c-24.52,22.54 -33.2,55.52 -26.31,85.78l-0.76 639.44c-2.26,1.82 -4.68,3.15 -6.85,5.14 -53.57,49.28 -57.07,132.73 -7.75,186.3 49.28,53.61 132.72,57.06 186.3,7.79 53.57,-49.32 57.06,-132.73 7.75,-186.35 -0.09,-0.12 -0.27,-0.2 -0.35,-0.29l0.72 -635.01 817.61 -752.21 144.17 156.64 -110.55 101.7 -46.99 -51.06 -504.97 464.58 46.99 51.03 -120.18 110.55c-18.42,16.98 -28.89,40.8 -28.92,65.78l-1.08 913.45c0,22.29 8.3,43.82 23.33,60.33l405.6 446.29c0.99,1.11 2.17,1.83 3.2,2.89l-0.25 135.11 -268.39 0 -783.05 -851.09 -5.7 -1006.97 1976.99 -1819.81 48.76 52.99 504.97 -464.6 -48.9 -53.09 395.36 -363.92 1.67 3387.01 -1216.84 1119.47zm121.44 -1105.18c-36.16,-3.61 -73.57,7.1 -102.42,33.62 -53.57,49.32 -57.07,132.72 -7.75,186.33 49.28,53.58 132.72,57.07 186.3,7.76 27.28,-25.11 41.4,-59.07 42.38,-93.41l444.94 -390.55c19.39,-17.02 30.5,-41.53 30.5,-67.32l0 -2073.11 188.59 -173.52 0 2302.34 -1019.08 964.03 0 -736.46 651.39 -579.15 0 255.32 -414.85 364.12zm-3303.65 -1432.27l590.68 -543.4 48.98 53.23 504.99 -464.54 -49 -53.28 694.68 -639.1 158.46 172.26 -1659.61 1526.83c-18.42,16.97 -28.89,40.8 -28.92,65.79l-1.23 1045.17c-0.01,22.42 8.32,44.04 23.43,60.55l278.01 304.26 -13.12 394.42 -548.05 -504.21 0.7 -1417.98zm1216.15 2537.44l-495.35 -455.69c0.12,-1.37 0.51,-2.68 0.56,-4.04l19.31 -580.47c0.79,-23.4 -7.6,-46.13 -23.38,-63.4l-279.1 -305.44 1.12 -971.13 1681.73 -1547.22c0.26,-0.26 0.47,-0.55 0.72,-0.85 5.49,-3.15 10.72,-6.9 15.58,-11.36 36.38,-33.49 38.72,-90.13 5.28,-126.51l-281.1 -305.57c-16.09,-17.49 -38.48,-27.83 -62.22,-28.86 -23.7,-0.75 -46.85,7.5 -64.34,23.59l-760.58 699.72 -48.99 -53.26 -504.98 464.58 49.01 53.23 -469.29 431.74 0.19 -386.46 885.91 -815.23 0.03 0 551.21 -507.14c35.24,2.77 71.45,-8.2 99.49,-34.04 53.62,-49.31 57.07,-132.72 7.8,-186.29 -49.33,-53.61 -132.72,-57.06 -186.33,-7.79 -28.04,25.82 -42.01,60.97 -42.2,96.29l-392.35 360.99 -0.95 -402.35 212.18 -195.22 546.27 2.12 538.47 558.42c-1.7,34.13 9.61,68.85 34.55,95.95 49.32,53.58 132.73,57.07 186.34,7.76 53.57,-49.29 57.06,-132.69 7.75,-186.3 -26.73,-29.03 -63.41,-42.81 -99.96,-42l-564.51 -585.36c-16.8,-17.44 -39.91,-27.32 -64.12,-27.4l-619.21 -2.43c-21.16,0.09 -44.35,8.39 -60.99,23.66l-267.03 245.66c-18.49,17.01 -28.99,41.02 -28.93,66.12l1.42 605.82 -744.72 685.23 0.19 -414.25 467.48 -430.08c18.54,-17.02 29.02,-41.11 28.93,-66.29l-2.34 -518.67 473.11 -430.77 832.34 0 799.02 807.44c15.18,15.36 34.54,23.61 54.51,25.66 9.1,3.01 18.46,4.93 27.99,4.93 21.62,0 43.32,-7.74 60.47,-23.48l563.52 -516.47 121.49 111.28 -2815.49 2583.56c-15.74,14.48 -24.74,33.28 -27.64,52.86 -0.5,2.29 -0.66,4.68 -0.97,7.02 -0.06,0.98 -0.25,1.87 -0.3,2.81 -0.33,3.15 -0.94,6.21 -0.94,9.45l-0.57 476.54c-0.01,10.08 2,19.66 5.08,28.73 -1.39,1.14 -2.97,1.99 -4.33,3.23 -53.59,49.31 -57.07,132.72 -7.77,186.29 49.32,53.61 132.73,57.06 186.33,7.79 53.58,-49.32 57.06,-132.72 7.75,-186.3 -3.99,-4.33 -8.5,-7.83 -12.91,-11.48 2.96,-8.86 4.94,-18.18 4.95,-28l0.52 -442.76 2837.56 -2603.83c11.53,-4.85 22.17,-12.13 31.19,-21.96 33.42,-36.42 30.89,-93.06 -5.57,-126.46l-541.06 -495.53c-4.85,-4.42 -10.03,-8.13 -15.49,-11.27 -15.15,-11.84 -33.99,-19.15 -54.71,-19.15l-587.7 0c-49.95,-44.81 -126.43,-45.75 -176.85,0.63 -53.61,49.32 -57.06,132.73 -7.79,186.35 49.32,53.57 132.73,57.05 186.35,7.74 5.22,-4.81 9.56,-10.21 13.87,-15.62l539.52 0 192.84 176.64 -496.11 454.76 -755.61 -763.56c-0.72,-0.77 -1.62,-1.25 -2.39,-1.97 -15.49,-26.76 -44.07,-44.97 -77.22,-44.97l-908.17 0c-27.01,0 -50.95,12.21 -67.36,31.1 -3.34,2.3 -6.74,4.51 -9.82,7.29l-511.66 465.9c-18.74,17.02 -29.37,41.24 -29.25,66.59l2.34 518.93 -316.99 291.61 0.38 -819.18 262.05 -241.06 46.62 50.69 504.98 -464.59 -46.62 -50.68 80.83 -74.34 2296.67 0 848.47 777 -1783.93 1642.92 -62.86 -68.3 -504.97 464.55 63.11 68.6 -706.56 650.7c-1.21,1.11 -2.08,2.48 -3.23,3.62 -24.75,15.92 -41.24,43.53 -41.27,75.2l-1.68 1437.93c0,2.08 0.48,4.05 0.62,6.09 0.21,3.23 0.39,6.43 0.96,9.61 0.5,2.9 1.33,5.62 2.11,8.43 0.79,2.76 1.52,5.58 2.58,8.3 1.11,2.9 2.52,5.61 3.94,8.34 1.23,2.42 2.41,4.85 3.89,7.15 1.82,2.89 3.96,5.49 6.08,8.13 1.23,1.53 2.15,3.18 3.48,4.63l510.53 554.93 -270.82 0zm-288.92 -6416.52l2518.97 0 950.68 825.52 0.12 260.29 -993.06 -875.82c-0.97,-0.85 -2.12,-1.4 -3.1,-2.21 -3.19,-2.59 -6.42,-4.98 -9.91,-7.1 -1.62,-0.98 -3.28,-1.8 -4.93,-2.69 -3.54,-1.83 -7.11,-3.49 -10.86,-4.85 -1.78,-0.64 -3.62,-1.15 -5.4,-1.7 -3.74,-1.07 -7.49,-2.01 -11.4,-2.6 -2,-0.3 -4.04,-0.42 -6.05,-0.59 -2.55,-0.26 -4.98,-0.77 -7.57,-0.77l-1887.54 0c-49.35,-53.31 -132.52,-56.72 -186.02,-7.49 -53.59,49.27 -57.06,132.68 -7.77,186.3 49.31,53.57 132.74,57.07 186.34,7.74 2.47,-2.3 4.34,-5.01 6.65,-7.49l1854.34 0 1086.36 958.16 0.17 343.31c-2.46,1.87 -5.1,3.49 -7.44,5.62l-509.01 468.55 -49.16 -53.4 -504.97 464.53 49.28 53.58 -2006.07 1846.56c-0.24,0.26 -0.4,0.51 -0.65,0.76 -3.52,3.32 -6.66,6.99 -9.62,10.81 -0.68,0.89 -1.48,1.71 -2.13,2.64 -2.69,3.79 -4.92,7.88 -7.01,12.04 -0.52,1.07 -1.18,2.05 -1.66,3.16 -1.75,3.87 -3,8 -4.18,12.16 -0.42,1.5 -1,2.94 -1.32,4.43 -0.82,3.53 -1.15,7.23 -1.52,10.89 -0.23,2.3 -0.6,4.51 -0.64,6.81 -0.03,0.85 -0.26,1.7 -0.26,2.56l6.11 1081.34c0,2.05 0.48,3.92 0.61,5.92 0.23,3.18 0.45,6.38 1.02,9.53 0.51,2.84 1.31,5.53 2.07,8.21 0.8,2.9 1.58,5.71 2.68,8.51 1.1,2.77 2.43,5.41 3.8,8.04 1.28,2.51 2.53,4.98 4.06,7.41 1.76,2.76 3.8,5.23 5.85,7.79 1.24,1.53 2.17,3.27 3.54,4.72l694.92 755.35 -335.23 0 -598.38 -650.41 1.58 -1362.37 693.27 -638.45 34.85 37.91 504.97 -464.59 -35.1 -38.18 1841.24 -1695.72c10.84,-9.95 18.25,-22.12 23.01,-35.06 23.79,-36.04 18.82,-84.93 -14.07,-115.06l-928.97 -850.71c-12.42,-11.36 -27.2,-18.26 -42.55,-21.41 -13.45,-8 -28.94,-12.89 -45.71,-12.89l-2345.53 0c-6.85,0 -13.46,0.94 -19.87,2.38 -17.02,2.6 -33.47,10.09 -47.09,22.65l-105.04 96.63 -51.36 -55.83 -504.98 464.55 51.35 55.82 -140.66 129.41 0.23 -481.35 925.72 -803.86zm3648.7 785.39c0,-33.03 -18.12,-61.58 -44.77,-77.07 -3.95,-5.48 -8.38,-10.67 -13.7,-15.32l-979.08 -850.15c-16.26,-14.13 -37.15,-21.96 -58.73,-21.96l-2585.85 0c-21.58,0 -42.45,7.83 -58.73,21.96l-979.06 850.15c-21.03,18.25 -31.08,44.18 -30.4,70 -1.87,7.19 -3.18,14.6 -3.18,22.39l-2.25 4550.9c0,25.07 10.48,48.98 28.93,65.91l1270.99 1169.35c17.2,15.83 38.93,23.61 60.61,23.61 0.48,0 0.94,-0.12 1.42,-0.12 2.02,0.12 3.92,0.59 5.97,0.59l2005.13 0c4.93,0 9.75,-0.67 14.46,-1.45 3.32,0.39 6.6,0.98 9.97,0.98 21.65,0 43.4,-7.78 60.59,-23.61l1271.01 -1169.35c18.46,-16.93 28.92,-40.84 28.92,-65.91l-2.25 -4550.9z"/>
      <path class="fil106" d="M12221.04 3027.91l244.55 -225.02 -0.22 -439.82 -463.61 426.49 49.28 53.58 -2006.07 1846.56c-0.24,0.26 -0.4,0.51 -0.65,0.76 -3.52,3.32 -6.66,6.99 -9.62,10.81 -0.68,0.89 -1.48,1.71 -2.13,2.64 -2.69,3.79 -4.92,7.88 -7.01,12.04 -0.52,1.07 -1.18,2.05 -1.66,3.16 -1.75,3.87 -3,8 -4.18,12.16 -0.42,1.5 -1,2.94 -1.32,4.43 -0.82,3.53 -1.15,7.23 -1.52,10.89 -0.23,2.3 -0.6,4.51 -0.64,6.81 -0.03,0.85 -0.26,1.7 -0.26,2.56l4.62 818.79 131.41 120.9c11.49,10.59 26.04,15.83 40.55,15.83 0.35,0 0.64,-0.09 0.99,-0.09 1.31,0.09 2.59,0.39 3.99,0.39l2.95 0 -5.2 -917.06 1976.99 -1819.81 48.76 52.99z"/>
      <path class="fil106" d="M11802.23 4361.12c0.98,-23.74 -7.49,-46.89 -23.57,-64.34l-265.44 -288.37c-33.49,-36.43 -90.12,-38.73 -126.55,-5.29 -5.02,4.65 -9.28,9.8 -13.03,15.24 -5.69,3.28 -11.23,7.07 -16.3,11.7l-885.63 814.85c-24.52,22.54 -33.2,55.48 -26.31,85.78l-0.76 639.44c-2.26,1.82 -4.68,3.15 -6.85,5.14 -38.86,35.75 -50.98,89.28 -36.13,136.52l250.64 0c13.65,-43.5 4.88,-92.77 -28.21,-128.78 -0.09,-0.12 -0.27,-0.2 -0.35,-0.29l0.72 -635.01 817.61 -752.21 144.17 156.64 -110.55 101.7 -46.99 -51.06 -504.97 464.58 46.99 51.03 -120.18 110.55c-18.42,16.98 -28.89,40.8 -28.92,65.78l-0.69 617.07 179.11 0 0.63 -577.57 91.32 -84.01 50.97 55.45 504.97 -464.58 -50.97 -55.41 176.42 -162.34c17.49,-16.09 27.88,-38.46 28.85,-62.21z"/>
      <path class="fil106" d="M10796.89 2724.55c5.44,-3.2 10.67,-6.9 15.53,-11.36 36.38,-33.49 38.72,-90.13 5.28,-126.51l-281.1 -305.57c-16.09,-17.49 -38.48,-27.83 -62.22,-28.86 -23.7,-0.75 -46.85,7.5 -64.34,23.59l-760.58 699.72 -48.99 -53.26 -317.72 292.29 -0.18 375.61 32.17 34.97 504.99 -464.54 -49 -53.28 694.68 -639.1 158.46 172.26 -1341.44 1234.1 -0.12 243.49 1513.81 -1392.7c0.3,-0.26 0.47,-0.55 0.77,-0.85z"/>
      <path class="fil106" d="M9561.34 2670.16l551.21 -507.14c35.24,2.77 71.45,-8.2 99.49,-34.04 53.62,-49.31 57.07,-132.72 7.8,-186.29 -49.33,-53.61 -132.72,-57.11 -186.33,-7.79 -28.04,25.82 -42.01,60.97 -42.2,96.29l-392.35 360.99 -0.95 -402.35 212.18 -195.22 546.27 2.12 538.51 558.42c-1.74,34.08 9.57,68.85 34.51,95.95 49.32,53.58 132.73,57.07 186.34,7.76 53.57,-49.29 57.06,-132.69 7.75,-186.3 -26.73,-29.03 -63.41,-42.81 -99.96,-42l-564.51 -585.36c-16.8,-17.44 -39.91,-27.32 -64.12,-27.4l-619.21 -2.43c-21.16,0.09 -44.35,8.39 -60.99,23.66l-267.03 245.66c-18.49,17.01 -28.99,41.02 -28.93,66.12l1.42 605.82 -137.24 126.26 -0.12 243.48 278.43 -256.21 0.03 0z"/>
      <path class="fil106" d="M11742.2 5561.65l0 -54.34 651.39 -579.15 0 34.22 53.65 -49.41c12.34,-11.31 19.36,-27.35 19.36,-44.12l-0.93 -1862.86 -42.16 38.81c-17.16,15.45 -28.18,37.23 -29.45,61.74 -0.05,0.47 -0.13,0.93 -0.13,1.4 -0.09,1.11 -0.34,2.14 -0.34,3.24l0 1577.39 -800.45 711.64c-19.11,16.94 -30.05,41.33 -30.05,66.9l0 243.05c12,-1.44 23.83,-5.66 33.45,-14.5l145.66 -134z"/>
      <path class="fil106" d="M9443.37 4963.11c-3.99,-4.29 -8.5,-7.79 -12.91,-11.44 2.96,-8.86 4.94,-18.18 4.95,-28l0.52 -442.76 2837.56 -2603.83c11.53,-4.85 22.17,-12.13 31.16,-21.96 33.45,-36.42 30.92,-93.06 -5.54,-126.46l-541.06 -495.53c-4.85,-4.42 -10.03,-8.13 -15.49,-11.27 -15.15,-11.84 -33.99,-19.15 -54.71,-19.15l-587.7 0c-12.6,-11.27 -26.89,-19.79 -42.04,-25.45l-92.55 0c-15.19,5.74 -29.53,14.38 -42.26,26.08 -53.61,49.32 -57.06,132.73 -7.79,186.35 49.32,53.57 132.73,57.05 186.35,7.74 5.22,-4.81 9.56,-10.21 13.87,-15.62l539.52 0 192.84 176.64 -496.11 454.76 -755.61 -763.56c-0.72,-0.77 -1.62,-1.25 -2.39,-1.97 -15.49,-26.76 -44.07,-44.97 -77.22,-44.97l-567.93 0 -206.27 179.1 732.66 0 799.02 807.44c15.18,15.36 34.54,23.61 54.51,25.66 9.1,3.01 18.46,4.93 27.99,4.93 21.62,0 43.32,-7.74 60.47,-23.48l563.52 -516.47 121.49 111.28 -2815.49 2583.56c-1.7,1.58 -3.01,3.37 -4.56,5.02l-0.23 489.11c0,16.77 7,32.81 19.35,44.12l174.61 160.68c6.3,-38.6 -4,-79.52 -32.53,-110.55z"/>
      <path class="fil106" d="M11434.37 5325.53l710.72 -663.31c18.11,-16.93 28.42,-40.63 28.42,-65.45l0 -458.54c0,-21.87 -7.97,-42.94 -22.43,-59.32l-261.19 -295.4 240.81 -221.52c6.46,-5.93 11.44,-12.81 15.79,-19.97 34.59,2.14 69.96,-9.02 97.45,-34.34 53.61,-49.31 57.05,-132.72 7.78,-186.28 -49.33,-53.62 -132.72,-57.07 -186.34,-7.8 -30.59,28.17 -44.26,67.41 -41.66,105.87 -5.02,3.07 -9.83,6.6 -14.3,10.73l-305.95 281.48c-36.38,33.49 -38.77,90.13 -5.27,126.55 4.76,5.19 10.08,9.53 15.65,13.37 3.12,5.44 6.69,10.72 11.03,15.61l269.56 304.89 0 385.79 -710.63 663.22c-18.08,16.85 -28.38,40.51 -28.46,65.23l-0.9 425.45 179.12 0 0.8 -386.26z"/>
      <path class="fil106" d="M9808.6 4640.01l693.27 -638.45 34.85 37.91 504.97 -464.59 -35.1 -38.18 1458.7 -1343.38 -0.13 -243.35 -1579.84 1454.91 -62.86 -68.3 -504.97 464.55 63.11 68.6 -706.56 650.7c-1.21,1.11 -2.08,2.48 -3.23,3.62 -24.75,15.92 -41.24,43.53 -41.27,75.15l-0.71 615.14 178.9 164.59 0.87 -738.92z"/>
      <path class="fil106" d="M10796.89 2724.55c5.44,-3.2 10.67,-6.9 15.53,-11.36 36.38,-33.49 38.72,-90.13 5.28,-126.51l-281.1 -305.57c-16.09,-17.49 -38.48,-27.83 -62.22,-28.86 -23.7,-0.75 -46.85,7.5 -64.34,23.59l-484.79 445.98 -0.12 243.49 540.28 -497.06 158.46 172.26 -698.91 642.96 -0.12 243.49 871.28 -801.56c0.3,-0.26 0.47,-0.55 0.77,-0.85z"/>
      <path class="fil106" d="M10929.48 2451.1c49.32,53.58 132.73,57.07 186.34,7.76 53.57,-49.29 57.06,-132.69 7.75,-186.3 -26.73,-29.03 -63.41,-42.81 -99.96,-42l-133.49 -138.43 -248.81 0 253.66 263.02c-1.74,34.08 9.57,68.85 34.51,95.95z"/>
      <path class="fil106" d="M10536.72 4039.47l504.97 -464.59 -35.1 -38.18 816.75 -752.15 -0.13 -243.41 -937.89 863.74 -62.86 -68.3 -504.97 464.55 63.11 68.6 -456.13 420.08 0 4.29c0,10 4.19,19.58 11.56,26.34l109.83 101.06 456.01 -419.94 34.85 37.91z"/>
      <path class="fil106" d="M11513.22 4008.41c-33.49,-36.43 -90.12,-38.73 -126.55,-5.29 -5.02,4.65 -9.28,9.8 -13.03,15.24 -5.69,3.28 -11.23,7.07 -16.3,11.7l-833.47 766.84 264.5 0 653.7 -601.4 144.17 156.64 -110.55 101.7 -46.99 -51.06 -428.41 394.12 270.85 0c1.95,0 3.87,-0.26 5.79,-0.59 1.31,0.17 2.64,0.42 3.95,0.42 8.64,0 17.32,-3.1 24.21,-9.45l493.49 -453.99c-3.79,-13.45 -10.3,-26.04 -19.92,-36.51l-265.44 -288.37z"/>
      <path class="fil106" d="M11591.72 2259.61l-1667 1529.69 -0.12 243.18 1803.26 -1654.65 -136.14 -118.22z"/>
      <path class="fil106" d="M11703.47 3711.68c-36.38,33.49 -38.77,90.13 -5.27,126.55 4.76,5.19 10.08,9.53 15.65,13.37 3.12,5.44 6.69,10.72 11.03,15.61l99.02 112.04 -0.17 -378.21 -120.26 110.64z"/>
      <path class="fil106" d="M11823.47 3052.63l-1632.32 1502.53 132.25 121.66 1500.16 -1380.92 -0.09 -243.27z"/>
      <path class="fil106" d="M11328.76 2214.9c9.1,3.01 18.46,4.93 27.99,4.93 21.62,0 43.32,-7.74 60.47,-23.48l49.44 -45.32 -57.74 -50.13c-6.46,-5.62 -14.81,-8.77 -23.45,-8.77l-207.31 0 96.09 97.11c15.18,15.36 34.54,23.61 54.51,25.66z"/>
     </g>
    </g>
   </g>
   <path class="fil107" d="M10926.43 999.86l-2074.51 351.06 0 3019.98c0,817.82 2074.51,1795.2 2074.51,1795.2 0,0 2074.46,-977.38 2074.46,-1795.2l0 -3019.98 -2074.46 -351.06z"/>
  </g>
 </g>
</svg>
