<svg xmlns="http://www.w3.org/2000/svg" xmlns:xlink="http://www.w3.org/1999/xlink" viewBox="0 0 189.321 62.292">
  <defs>
    <style>
      .cls-1 {
        clip-rule: evenodd;
      }

      .cls-2 {
        fill: none;
      }

      .cls-3 {
        fill: #fcd938;
      }

      .cls-4 {
        fill: #f7971d;
      }

      .cls-5 {
        fill: #13202e;
      }

      .cls-6 {
        clip-path: url(#clip-path);
      }

      .cls-7 {
        fill: #b3b1b1;
      }

      .cls-8 {
        opacity: 0.5;
      }

      .cls-9 {
        fill: #aaaaab;
      }

      .cls-10 {
        fill: #fff;
      }

      .cls-11 {
        fill: #6fa842;
      }
    </style>
    <clipPath id="clip-path">
      <path id="Path_4000" data-name="Path 4000" class="cls-1" d="M58.3,70.275A14.392,14.392,0,0,0,72.622,84.706h.056A14.377,14.377,0,1,0,58.3,70.275Z" transform="translate(-58.305 -55.953)"/>
    </clipPath>
  </defs>
  <g id="Group_9840" data-name="Group 9840" transform="translate(-1292 -679)">
    <g id="stratum_logo_color" transform="translate(1292 679)">
      <rect id="stratum_logo_color-2" data-name="stratum_logo_color" class="cls-2" width="189.321" height="62.292"/>
      <g id="Group_9839" data-name="Group 9839" transform="translate(0 4.414)">
        <g id="Symbol">
          <path id="Path_3963" data-name="Path 3963" class="cls-3" d="M0,41.147,36.453,14.562,48.893,23.78,24.948,41.243,48.759,58.878,36.25,67.994,0,41.147Z" transform="translate(0 -14.529)"/>
          <path id="Path_3964" data-name="Path 3964" class="cls-4" d="M49.942,58.67,73.887,41.206,50.076,23.572l12.509-9.118L98.835,41.3,62.383,67.888Z" transform="translate(-34.692 -14.454)"/>
          <path id="Path_3965" data-name="Path 3965" class="cls-5" d="M72.622,84.706a14.409,14.409,0,1,1,.056,0Z" transform="translate(-40.502 -43.281)"/>
          <g id="Group_9838" data-name="Group 9838" transform="translate(17.804 12.672)">
            <g id="Group_9837" data-name="Group 9837" class="cls-6">
              <path id="Path_3966" data-name="Path 3966" class="cls-7" d="M63.542,97.723h-.654V93.364l-1.348.518v-.6l1.948-.758h.053v5.2Z" transform="translate(-60.553 -81.355)"/>
              <path id="Path_3967" data-name="Path 3967" class="cls-7" d="M79.2,97.723h-.654V93.364l-1.347.518v-.6l1.948-.758H79.2v5.2Z" transform="translate(-71.427 -81.355)"/>
              <path id="Path_3968" data-name="Path 3968" class="cls-7" d="M94.8,94.508l-2,1.547a1.326,1.326,0,0,0,.308.768.9.9,0,0,0,.689.264.855.855,0,0,0,.762-.357A1.827,1.827,0,0,0,94.8,95.7V94.508Zm-2.019.922,2-1.554a1.38,1.38,0,0,0-.3-.788.891.891,0,0,0-.7-.27.867.867,0,0,0-.762.352,1.791,1.791,0,0,0-.246,1.027Zm2.676.132a3.121,3.121,0,0,1-.113.881,1.861,1.861,0,0,1-.325.647,1.372,1.372,0,0,1-.52.4,1.885,1.885,0,0,1-1.405,0,1.4,1.4,0,0,1-.525-.4,1.837,1.837,0,0,1-.331-.647,3.085,3.085,0,0,1-.115-.881V94.344a3.136,3.136,0,0,1,.113-.881,1.85,1.85,0,0,1,.327-.648,1.389,1.389,0,0,1,.523-.4,1.867,1.867,0,0,1,1.407,0,1.389,1.389,0,0,1,.523.4,1.861,1.861,0,0,1,.327.648,3.125,3.125,0,0,1,.113.881v1.218Z" transform="translate(-81.794 -81.184)"/>
              <path id="Path_3969" data-name="Path 3969" class="cls-7" d="M110.449,94.508l-2,1.547a1.327,1.327,0,0,0,.307.768.9.9,0,0,0,.689.264.855.855,0,0,0,.762-.357,1.827,1.827,0,0,0,.242-1.029Zm-2.019.922,2-1.554a1.382,1.382,0,0,0-.3-.788.891.891,0,0,0-.7-.27.866.866,0,0,0-.762.352,1.789,1.789,0,0,0-.246,1.027Zm2.676.132a3.11,3.11,0,0,1-.113.881,1.85,1.85,0,0,1-.325.647,1.371,1.371,0,0,1-.52.4,1.885,1.885,0,0,1-1.406,0,1.4,1.4,0,0,1-.525-.4,1.837,1.837,0,0,1-.331-.647,3.074,3.074,0,0,1-.115-.881V94.344a3.125,3.125,0,0,1,.113-.881,1.85,1.85,0,0,1,.327-.648,1.388,1.388,0,0,1,.523-.4,1.868,1.868,0,0,1,1.408,0,1.388,1.388,0,0,1,.523.4,1.85,1.85,0,0,1,.327.648,3.113,3.113,0,0,1,.113.881Z" transform="translate(-92.668 -81.184)"/>
              <path id="Path_3970" data-name="Path 3970" class="cls-7" d="M126.157,97.723H125.5V93.364l-1.348.518v-.6l1.948-.758h.053v5.2Z" transform="translate(-104.048 -81.355)"/>
              <path id="Path_3971" data-name="Path 3971" class="cls-7" d="M141.811,97.723h-.654V93.364l-1.347.518v-.6l1.948-.758h.053v5.2Z" transform="translate(-114.922 -81.355)"/>
              <g id="Group_9830" data-name="Group 9830" transform="translate(2.501 5.277)">
                <g id="Group_9829" data-name="Group 9829" class="cls-8">
                  <path id="Path_3972" data-name="Path 3972" class="cls-9" d="M67.763,73.445v4.548h-.57V73.9h-.7v-.325a2.269,2.269,0,0,1,.406-.091,3.713,3.713,0,0,1,.545-.039Z" transform="translate(-66.495 -73.38)"/>
                  <path id="Path_3973" data-name="Path 3973" class="cls-9" d="M77.307,73.445v4.548h-.57V73.9h-.7v-.325a2.265,2.265,0,0,1,.406-.091,3.714,3.714,0,0,1,.545-.039h.317Z" transform="translate(-73.125 -73.38)"/>
                  <path id="Path_3974" data-name="Path 3974" class="cls-9" d="M87.713,77.52a.478.478,0,0,0,.263-.084.718.718,0,0,0,.235-.305,2.338,2.338,0,0,0,.168-.6,7.346,7.346,0,0,0,0-1.923,2.339,2.339,0,0,0-.168-.6.721.721,0,0,0-.235-.305.45.45,0,0,0-.526,0,.719.719,0,0,0-.235.305,2.337,2.337,0,0,0-.168.6,7.345,7.345,0,0,0,0,1.923,2.337,2.337,0,0,0,.168.6.716.716,0,0,0,.235.305.477.477,0,0,0,.263.084m0-4.287a1.278,1.278,0,0,1,.539.11.963.963,0,0,1,.409.377,2.17,2.17,0,0,1,.26.718,7.037,7.037,0,0,1,0,2.267,2.159,2.159,0,0,1-.26.718.958.958,0,0,1-.409.377,1.37,1.37,0,0,1-1.077,0,.954.954,0,0,1-.409-.377,2.152,2.152,0,0,1-.26-.718,7.014,7.014,0,0,1,0-2.267,2.163,2.163,0,0,1,.26-.718.959.959,0,0,1,.409-.377,1.277,1.277,0,0,1,.538-.11" transform="translate(-80.332 -73.233)"/>
                  <path id="Path_3975" data-name="Path 3975" class="cls-9" d="M100.961,73.445v4.548h-.57V73.9h-.7v-.325a2.265,2.265,0,0,1,.406-.091,3.715,3.715,0,0,1,.545-.039Z" transform="translate(-89.556 -73.38)"/>
                  <path id="Path_3976" data-name="Path 3976" class="cls-9" d="M111.367,77.52a.479.479,0,0,0,.263-.084.72.72,0,0,0,.235-.305,2.352,2.352,0,0,0,.168-.6,7.346,7.346,0,0,0,0-1.923,2.352,2.352,0,0,0-.168-.6.724.724,0,0,0-.235-.305.451.451,0,0,0-.526,0,.723.723,0,0,0-.235.305,2.34,2.34,0,0,0-.168.6,7.31,7.31,0,0,0,0,1.923,2.339,2.339,0,0,0,.168.6.72.72,0,0,0,.235.305.479.479,0,0,0,.263.084m0-4.287a1.279,1.279,0,0,1,.539.11.962.962,0,0,1,.409.377,2.176,2.176,0,0,1,.26.718,7.06,7.06,0,0,1,0,2.267,2.166,2.166,0,0,1-.26.718.957.957,0,0,1-.409.377,1.37,1.37,0,0,1-1.077,0,.955.955,0,0,1-.409-.377,2.159,2.159,0,0,1-.26-.718,7.036,7.036,0,0,1,0-2.267,2.169,2.169,0,0,1,.26-.718.959.959,0,0,1,.409-.377,1.276,1.276,0,0,1,.538-.11" transform="translate(-96.763 -73.233)"/>
                  <path id="Path_3977" data-name="Path 3977" class="cls-9" d="M125.684,77.52a.479.479,0,0,0,.263-.084.723.723,0,0,0,.235-.305,2.339,2.339,0,0,0,.168-.6,7.309,7.309,0,0,0,0-1.923,2.34,2.34,0,0,0-.168-.6.726.726,0,0,0-.235-.305.451.451,0,0,0-.526,0,.721.721,0,0,0-.235.305,2.351,2.351,0,0,0-.168.6,7.344,7.344,0,0,0,0,1.923,2.35,2.35,0,0,0,.168.6.718.718,0,0,0,.235.305.478.478,0,0,0,.263.084m0-4.287a1.277,1.277,0,0,1,.538.11.961.961,0,0,1,.409.377,2.176,2.176,0,0,1,.26.718,7.06,7.06,0,0,1,0,2.267,2.166,2.166,0,0,1-.26.718.956.956,0,0,1-.409.377,1.37,1.37,0,0,1-1.077,0,.956.956,0,0,1-.409-.377,2.152,2.152,0,0,1-.26-.718,7.038,7.038,0,0,1,0-2.267,2.163,2.163,0,0,1,.26-.718.96.96,0,0,1,.409-.377,1.277,1.277,0,0,1,.539-.11" transform="translate(-106.708 -73.233)"/>
                  <path id="Path_3978" data-name="Path 3978" class="cls-9" d="M138.931,73.445v4.548h-.57V73.9h-.7v-.325a2.263,2.263,0,0,1,.406-.091,3.71,3.71,0,0,1,.545-.039Z" transform="translate(-115.932 -73.38)"/>
                </g>
              </g>
              <g id="Group_9832" data-name="Group 9832" transform="translate(0.3 17.415)">
                <g id="Group_9831" data-name="Group 9831" class="cls-8">
                  <path id="Path_3979" data-name="Path 3979" class="cls-9" d="M60.555,117.272a.461.461,0,0,0,.257-.084.721.721,0,0,0,.229-.305,2.394,2.394,0,0,0,.164-.6,7.488,7.488,0,0,0,0-1.923,2.4,2.4,0,0,0-.164-.6.723.723,0,0,0-.229-.305.433.433,0,0,0-.513,0,.717.717,0,0,0-.229.305,2.368,2.368,0,0,0-.164.6,7.526,7.526,0,0,0,0,1.923,2.367,2.367,0,0,0,.164.6.715.715,0,0,0,.229.305.462.462,0,0,0,.257.084m0-4.287a1.226,1.226,0,0,1,.526.11.946.946,0,0,1,.4.377,2.2,2.2,0,0,1,.254.718,7.227,7.227,0,0,1,0,2.267,2.2,2.2,0,0,1-.254.718.946.946,0,0,1-.4.377,1.309,1.309,0,0,1-1.052,0,.943.943,0,0,1-.4-.377,2.184,2.184,0,0,1-.253-.718,7.178,7.178,0,0,1,0-2.267,2.184,2.184,0,0,1,.253-.718.943.943,0,0,1,.4-.377,1.226,1.226,0,0,1,.526-.11" transform="translate(-59.287 -112.985)"/>
                  <path id="Path_3980" data-name="Path 3980" class="cls-9" d="M75.344,117.272a.463.463,0,0,0,.257-.084.723.723,0,0,0,.229-.305,2.381,2.381,0,0,0,.164-.6,7.489,7.489,0,0,0,0-1.923,2.383,2.383,0,0,0-.164-.6.725.725,0,0,0-.229-.305.433.433,0,0,0-.514,0,.72.72,0,0,0-.229.305,2.368,2.368,0,0,0-.164.6,7.525,7.525,0,0,0,0,1.923,2.367,2.367,0,0,0,.164.6.718.718,0,0,0,.229.305.462.462,0,0,0,.257.084m0-4.287a1.226,1.226,0,0,1,.526.11.946.946,0,0,1,.4.377,2.2,2.2,0,0,1,.254.718,7.227,7.227,0,0,1,0,2.267,2.2,2.2,0,0,1-.254.718.946.946,0,0,1-.4.377,1.309,1.309,0,0,1-1.052,0,.942.942,0,0,1-.4-.377,2.177,2.177,0,0,1-.254-.718,7.179,7.179,0,0,1,0-2.267,2.177,2.177,0,0,1,.254-.718.942.942,0,0,1,.4-.377,1.226,1.226,0,0,1,.526-.11" transform="translate(-69.56 -112.985)"/>
                  <path id="Path_3981" data-name="Path 3981" class="cls-9" d="M90.134,117.272a.463.463,0,0,0,.257-.084.723.723,0,0,0,.229-.305,2.381,2.381,0,0,0,.164-.6,7.489,7.489,0,0,0,0-1.923,2.383,2.383,0,0,0-.164-.6.725.725,0,0,0-.229-.305.433.433,0,0,0-.514,0,.72.72,0,0,0-.229.305,2.381,2.381,0,0,0-.164.6,7.526,7.526,0,0,0,0,1.923,2.38,2.38,0,0,0,.164.6.718.718,0,0,0,.229.305.463.463,0,0,0,.257.084m0-4.287a1.228,1.228,0,0,1,.526.11.947.947,0,0,1,.4.377,2.2,2.2,0,0,1,.254.718,7.227,7.227,0,0,1,0,2.267,2.2,2.2,0,0,1-.254.718.947.947,0,0,1-.4.377,1.31,1.31,0,0,1-1.052,0,.944.944,0,0,1-.4-.377,2.184,2.184,0,0,1-.254-.718,7.2,7.2,0,0,1,0-2.267,2.184,2.184,0,0,1,.254-.718.944.944,0,0,1,.4-.377,1.227,1.227,0,0,1,.526-.11" transform="translate(-79.834 -112.985)"/>
                  <path id="Path_3982" data-name="Path 3982" class="cls-9" d="M103.879,113.2v4.548h-.557v-4.093h-.68v-.325a2.174,2.174,0,0,1,.4-.091,3.5,3.5,0,0,1,.532-.039Z" transform="translate(-89.403 -113.132)"/>
                  <path id="Path_3983" data-name="Path 3983" class="cls-9" d="M114.85,117.272a.462.462,0,0,0,.257-.084.721.721,0,0,0,.229-.305,2.393,2.393,0,0,0,.164-.6,7.527,7.527,0,0,0,0-1.923,2.4,2.4,0,0,0-.164-.6.722.722,0,0,0-.229-.305.433.433,0,0,0-.514,0,.722.722,0,0,0-.229.305,2.37,2.37,0,0,0-.164.6,7.49,7.49,0,0,0,0,1.923,2.368,2.368,0,0,0,.164.6.72.72,0,0,0,.229.305.464.464,0,0,0,.257.084m0-4.287a1.227,1.227,0,0,1,.526.11.947.947,0,0,1,.4.377,2.2,2.2,0,0,1,.254.718,7.227,7.227,0,0,1,0,2.267,2.2,2.2,0,0,1-.254.718.947.947,0,0,1-.4.377,1.309,1.309,0,0,1-1.052,0,.943.943,0,0,1-.4-.377,2.191,2.191,0,0,1-.254-.718,7.2,7.2,0,0,1,0-2.267,2.191,2.191,0,0,1,.254-.718.943.943,0,0,1,.4-.377,1.225,1.225,0,0,1,.526-.11" transform="translate(-97.003 -112.985)"/>
                  <path id="Path_3984" data-name="Path 3984" class="cls-9" d="M129.639,117.272a.462.462,0,0,0,.257-.084.721.721,0,0,0,.229-.305,2.38,2.38,0,0,0,.164-.6,7.527,7.527,0,0,0,0-1.923,2.38,2.38,0,0,0-.164-.6.722.722,0,0,0-.229-.305.433.433,0,0,0-.513,0,.72.72,0,0,0-.229.305,2.369,2.369,0,0,0-.164.6,7.49,7.49,0,0,0,0,1.923,2.368,2.368,0,0,0,.164.6.718.718,0,0,0,.229.305.462.462,0,0,0,.256.084m0-4.287a1.227,1.227,0,0,1,.526.11.948.948,0,0,1,.4.377,2.2,2.2,0,0,1,.253.718,7.2,7.2,0,0,1,0,2.267,2.2,2.2,0,0,1-.253.718.948.948,0,0,1-.4.377,1.309,1.309,0,0,1-1.052,0,.943.943,0,0,1-.4-.377,2.191,2.191,0,0,1-.254-.718,7.2,7.2,0,0,1,0-2.267,2.191,2.191,0,0,1,.254-.718.943.943,0,0,1,.4-.377,1.225,1.225,0,0,1,.526-.11" transform="translate(-107.276 -112.985)"/>
                  <path id="Path_3985" data-name="Path 3985" class="cls-9" d="M143.385,113.2v4.548h-.557v-4.093h-.68v-.325a2.175,2.175,0,0,1,.4-.091,3.5,3.5,0,0,1,.532-.039Z" transform="translate(-116.846 -113.132)"/>
                </g>
              </g>
              <g id="Group_9834" data-name="Group 9834" transform="translate(1.103 -0.777)">
                <g id="Group_9833" data-name="Group 9833" class="cls-8">
                  <path id="Path_3986" data-name="Path 3986" class="cls-9" d="M63.186,53.619v4.547h-.571V54.074h-.7v-.325a2.263,2.263,0,0,1,.406-.091,3.71,3.71,0,0,1,.545-.039h.317Z" transform="translate(-61.918 -53.554)"/>
                  <path id="Path_3987" data-name="Path 3987" class="cls-9" d="M72.315,53.619v4.547h-.57V54.074h-.7v-.325a2.265,2.265,0,0,1,.406-.091A3.714,3.714,0,0,1,72,53.619h.317Z" transform="translate(-68.26 -53.554)"/>
                  <path id="Path_3988" data-name="Path 3988" class="cls-9" d="M82.306,57.694a.478.478,0,0,0,.263-.085A.718.718,0,0,0,82.8,57.3a2.339,2.339,0,0,0,.168-.6,7.344,7.344,0,0,0,0-1.923,2.339,2.339,0,0,0-.168-.6.721.721,0,0,0-.235-.305.45.45,0,0,0-.526,0,.719.719,0,0,0-.235.305,2.339,2.339,0,0,0-.168.6,7.345,7.345,0,0,0,0,1.923,2.338,2.338,0,0,0,.168.6.716.716,0,0,0,.235.305.477.477,0,0,0,.263.085m0-4.287a1.278,1.278,0,0,1,.539.11.96.96,0,0,1,.409.377,2.162,2.162,0,0,1,.26.718,7.036,7.036,0,0,1,0,2.267,2.151,2.151,0,0,1-.26.718.955.955,0,0,1-.409.377,1.37,1.37,0,0,1-1.077,0,.954.954,0,0,1-.409-.377,2.152,2.152,0,0,1-.26-.718,7.013,7.013,0,0,1,0-2.267,2.162,2.162,0,0,1,.26-.718.959.959,0,0,1,.409-.377,1.277,1.277,0,0,1,.538-.11" transform="translate(-75.178 -53.407)"/>
                  <path id="Path_3989" data-name="Path 3989" class="cls-9" d="M95.139,53.619v4.547h-.57V54.074h-.7v-.325a2.265,2.265,0,0,1,.406-.091,3.714,3.714,0,0,1,.545-.039h.317Z" transform="translate(-84.115 -53.554)"/>
                  <path id="Path_3990" data-name="Path 3990" class="cls-9" d="M105.13,57.694a.479.479,0,0,0,.263-.085.72.72,0,0,0,.235-.305,2.351,2.351,0,0,0,.168-.6,7.347,7.347,0,0,0,0-1.923,2.352,2.352,0,0,0-.168-.6.724.724,0,0,0-.235-.305.451.451,0,0,0-.526,0,.724.724,0,0,0-.235.305,2.339,2.339,0,0,0-.168.6,7.31,7.31,0,0,0,0,1.923,2.338,2.338,0,0,0,.168.6.72.72,0,0,0,.235.305.479.479,0,0,0,.263.085m0-4.287a1.279,1.279,0,0,1,.539.11.962.962,0,0,1,.409.377,2.176,2.176,0,0,1,.26.718,7.06,7.06,0,0,1,0,2.267,2.165,2.165,0,0,1-.26.718.957.957,0,0,1-.409.377,1.37,1.37,0,0,1-1.077,0,.954.954,0,0,1-.409-.377,2.159,2.159,0,0,1-.26-.718,7.037,7.037,0,0,1,0-2.267,2.169,2.169,0,0,1,.26-.718.959.959,0,0,1,.409-.377,1.276,1.276,0,0,1,.538-.11" transform="translate(-91.033 -53.407)"/>
                  <path id="Path_3991" data-name="Path 3991" class="cls-9" d="M117.963,53.619v4.547h-.57V54.074h-.7v-.325a2.265,2.265,0,0,1,.406-.091,3.715,3.715,0,0,1,.545-.039h.317Z" transform="translate(-99.969 -53.554)"/>
                  <path id="Path_3992" data-name="Path 3992" class="cls-9" d="M127.092,53.619v4.547h-.57V54.074h-.7v-.325a2.266,2.266,0,0,1,.406-.091,3.714,3.714,0,0,1,.545-.039h.317Z" transform="translate(-106.311 -53.554)"/>
                  <path id="Path_3993" data-name="Path 3993" class="cls-9" d="M137.084,57.694a.48.48,0,0,0,.263-.085.723.723,0,0,0,.235-.305,2.352,2.352,0,0,0,.168-.6,7.31,7.31,0,0,0,0-1.923,2.353,2.353,0,0,0-.168-.6.726.726,0,0,0-.235-.305.451.451,0,0,0-.526,0,.721.721,0,0,0-.235.305,2.349,2.349,0,0,0-.168.6,7.346,7.346,0,0,0,0,1.923,2.349,2.349,0,0,0,.168.6.718.718,0,0,0,.235.305.478.478,0,0,0,.263.085m0-4.287a1.277,1.277,0,0,1,.538.11.961.961,0,0,1,.409.377,2.176,2.176,0,0,1,.26.718,7.06,7.06,0,0,1,0,2.267,2.166,2.166,0,0,1-.26.718.956.956,0,0,1-.409.377,1.37,1.37,0,0,1-1.077,0,.955.955,0,0,1-.409-.377,2.152,2.152,0,0,1-.26-.718,7.036,7.036,0,0,1,0-2.267,2.162,2.162,0,0,1,.26-.718.96.96,0,0,1,.409-.377,1.277,1.277,0,0,1,.539-.11" transform="translate(-113.229 -53.407)"/>
                </g>
              </g>
              <g id="Group_9836" data-name="Group 9836" transform="translate(0.985 23.38)">
                <g id="Group_9835" data-name="Group 9835" class="cls-8">
                  <path id="Path_3994" data-name="Path 3994" class="cls-9" d="M62.831,136.808a.478.478,0,0,0,.263-.085.718.718,0,0,0,.235-.305,2.339,2.339,0,0,0,.168-.6,7.346,7.346,0,0,0,0-1.923,2.34,2.34,0,0,0-.168-.6.721.721,0,0,0-.235-.305.45.45,0,0,0-.526,0,.721.721,0,0,0-.235.305,2.339,2.339,0,0,0-.168.6,7.346,7.346,0,0,0,0,1.923,2.338,2.338,0,0,0,.168.6.718.718,0,0,0,.235.305.478.478,0,0,0,.263.085m0-4.287a1.278,1.278,0,0,1,.538.11.96.96,0,0,1,.409.377,2.165,2.165,0,0,1,.26.718,7.037,7.037,0,0,1,0,2.267,2.16,2.16,0,0,1-.26.718.956.956,0,0,1-.409.377,1.37,1.37,0,0,1-1.077,0,.954.954,0,0,1-.409-.377,2.153,2.153,0,0,1-.26-.718,7.037,7.037,0,0,1,0-2.267,2.157,2.157,0,0,1,.26-.718.957.957,0,0,1,.409-.377,1.277,1.277,0,0,1,.539-.11" transform="translate(-61.532 -132.521)"/>
                  <path id="Path_3995" data-name="Path 3995" class="cls-9" d="M76.908,132.733v4.548h-.57v-4.093h-.7v-.325a2.243,2.243,0,0,1,.406-.091,3.672,3.672,0,0,1,.545-.039h.317Z" transform="translate(-71.333 -132.668)"/>
                  <path id="Path_3996" data-name="Path 3996" class="cls-9" d="M87.283,132.733v4.548h-.57v-4.093h-.7v-.325a2.243,2.243,0,0,1,.406-.091,3.672,3.672,0,0,1,.545-.039h.317Z" transform="translate(-78.54 -132.668)"/>
                  <path id="Path_3997" data-name="Path 3997" class="cls-9" d="M98.519,136.808a.478.478,0,0,0,.263-.085.721.721,0,0,0,.235-.305,2.353,2.353,0,0,0,.168-.6,7.311,7.311,0,0,0,0-1.923,2.354,2.354,0,0,0-.168-.6.724.724,0,0,0-.235-.305.45.45,0,0,0-.526,0,.721.721,0,0,0-.235.305,2.338,2.338,0,0,0-.168.6,7.346,7.346,0,0,0,0,1.923,2.338,2.338,0,0,0,.168.6.718.718,0,0,0,.235.305.478.478,0,0,0,.263.085m0-4.287a1.277,1.277,0,0,1,.538.11.96.96,0,0,1,.409.377,2.171,2.171,0,0,1,.26.718,7.06,7.06,0,0,1,0,2.267,2.166,2.166,0,0,1-.26.718.956.956,0,0,1-.409.377,1.37,1.37,0,0,1-1.077,0,.955.955,0,0,1-.409-.377,2.152,2.152,0,0,1-.26-.718,7.038,7.038,0,0,1,0-2.267,2.157,2.157,0,0,1,.26-.718.959.959,0,0,1,.409-.377,1.277,1.277,0,0,1,.539-.11" transform="translate(-86.322 -132.521)"/>
                  <path id="Path_3998" data-name="Path 3998" class="cls-9" d="M113.665,136.808a.478.478,0,0,0,.263-.085.721.721,0,0,0,.235-.305,2.339,2.339,0,0,0,.168-.6,7.346,7.346,0,0,0,0-1.923,2.34,2.34,0,0,0-.168-.6.723.723,0,0,0-.235-.305.45.45,0,0,0-.526,0,.719.719,0,0,0-.235.305,2.338,2.338,0,0,0-.168.6,7.345,7.345,0,0,0,0,1.923,2.337,2.337,0,0,0,.168.6.716.716,0,0,0,.235.305.477.477,0,0,0,.263.085m0-4.287a1.278,1.278,0,0,1,.539.11.959.959,0,0,1,.409.377,2.164,2.164,0,0,1,.26.718,7.06,7.06,0,0,1,0,2.267,2.16,2.16,0,0,1-.26.718.956.956,0,0,1-.409.377,1.37,1.37,0,0,1-1.077,0,.954.954,0,0,1-.409-.377,2.153,2.153,0,0,1-.26-.718,7.014,7.014,0,0,1,0-2.267,2.157,2.157,0,0,1,.26-.718.958.958,0,0,1,.409-.377,1.277,1.277,0,0,1,.538-.11" transform="translate(-96.844 -132.521)"/>
                  <path id="Path_3999" data-name="Path 3999" class="cls-9" d="M127.743,132.733v4.548h-.57v-4.093h-.7v-.325a2.242,2.242,0,0,1,.406-.091,3.668,3.668,0,0,1,.545-.039h.317Z" transform="translate(-106.645 -132.668)"/>
                </g>
              </g>
            </g>
          </g>
        </g>
        <g id="Stratum" transform="translate(70.88 4.568)">
          <path id="Path_4001" data-name="Path 4001" class="cls-10" d="M247.313,48.723h-2.133v-.206a1.01,1.01,0,0,0-1-1h-8.945a1.01,1.01,0,0,0-1,1v2.288a1.01,1.01,0,0,0,1,1h8.945a3.156,3.156,0,0,1,2.223.913,3.149,3.149,0,0,1,.668.989,3.017,3.017,0,0,1,.244,1.208v2.288a3.013,3.013,0,0,1-.244,1.208,3.138,3.138,0,0,1-2.891,1.9h-8.945a3.012,3.012,0,0,1-1.208-.244,3.142,3.142,0,0,1-1.658-1.658,3.007,3.007,0,0,1-.244-1.208V57h2.107v.206a1.01,1.01,0,0,0,1,1h8.945a1.009,1.009,0,0,0,1-1V54.917a1.009,1.009,0,0,0-1-1h-8.945a3.012,3.012,0,0,1-1.208-.244,3.14,3.14,0,0,1-1.658-1.658,3.01,3.01,0,0,1-.244-1.208V48.517a3.013,3.013,0,0,1,.244-1.208,3.138,3.138,0,0,1,1.658-1.658,3.012,3.012,0,0,1,1.208-.244h8.945a3.158,3.158,0,0,1,2.223.912,3.153,3.153,0,0,1,.668.99,3.018,3.018,0,0,1,.244,1.208Z" transform="translate(-232.122 -40.523)"/>
          <path id="Path_4002" data-name="Path 4002" class="cls-10" d="M296.519,36.4v9.69a1.009,1.009,0,0,0,1,1h5.449V49.2h-5.449a3.075,3.075,0,0,1-1.234-.244,3.005,3.005,0,0,1-.977-.668,3.269,3.269,0,0,1-.655-.99,3.007,3.007,0,0,1-.244-1.208V29.413h2.108V34.3h6.452V36.4h-6.452Z" transform="translate(-275.391 -29.413)"/>
          <path id="Path_4003" data-name="Path 4003" class="cls-10" d="M344.451,45.407v2.108h-8.38a1.009,1.009,0,0,0-1,1v11.8h-2.108v-11.8a3.017,3.017,0,0,1,.245-1.208,3.138,3.138,0,0,1,1.658-1.658,3.019,3.019,0,0,1,1.208-.244Z" transform="translate(-302.169 -40.523)"/>
          <path id="Path_4004" data-name="Path 4004" class="cls-10" d="M393.241,53.915h-10.95v3.291a1.01,1.01,0,0,0,1,1h9.947Zm-1-8.508a3.156,3.156,0,0,1,2.223.913,3.14,3.14,0,0,1,.668.99,3.015,3.015,0,0,1,.244,1.208v11.8h-12.08a3.013,3.013,0,0,1-1.208-.244,3.138,3.138,0,0,1-1.658-1.658,3,3,0,0,1-.244-1.208v-5.4h13.057v-3.29a.989.989,0,0,0-.283-.707.955.955,0,0,0-.72-.3H380.184V45.407h12.055Z" transform="translate(-334.972 -40.523)"/>
          <path id="Path_4005" data-name="Path 4005" class="cls-10" d="M444.917,36.4v9.69a1.01,1.01,0,0,0,1,1h5.449V49.2h-5.449a3.074,3.074,0,0,1-1.234-.244,3,3,0,0,1-.977-.668,3.253,3.253,0,0,1-.656-.99,3.008,3.008,0,0,1-.244-1.208V29.413h2.108V34.3h6.452V36.4h-6.452Z" transform="translate(-378.474 -29.413)"/>
          <path id="Path_4006" data-name="Path 4006" class="cls-10" d="M496.635,45.407v11.8a3.017,3.017,0,0,1-.244,1.208,3.106,3.106,0,0,1-1.671,1.658,3.106,3.106,0,0,1-1.221.244h-8.945a3.01,3.01,0,0,1-1.208-.244,3.14,3.14,0,0,1-1.658-1.658,3.012,3.012,0,0,1-.244-1.208v-11.8h2.108v11.8a1.009,1.009,0,0,0,1,1H493.5a1,1,0,0,0,.733-.3.966.966,0,0,0,.3-.707v-11.8Z" transform="translate(-405.312 -40.523)"/>
          <path id="Path_4007" data-name="Path 4007" class="cls-10" d="M562.162,45.407a3.116,3.116,0,0,1,1.221.244,2.97,2.97,0,0,1,.989.668,3.283,3.283,0,0,1,.656.989,3.017,3.017,0,0,1,.244,1.208v11.8H563.19v-11.8a.966.966,0,0,0-.3-.707,1,1,0,0,0-.733-.3h-6.195a.953.953,0,0,0-.72.3.988.988,0,0,0-.283.707v11.8h-2.133v-11.8a1.009,1.009,0,0,0-1-1h-6.22a1.009,1.009,0,0,0-1,1v11.8h-2.133V45.407Z" transform="translate(-447.705 -40.523)"/>
        </g>
        <g id="Blockchain-Tech" transform="translate(71.682 31.92)">
          <path id="Path_4008" data-name="Path 4008" class="cls-11" d="M241.814,126.32c0-1.032-.808-2-2.407-2h-3.679v4.007h3.679c1.513,0,2.407-.774,2.407-2m-.223-4.66c0-1.032-.773-1.882-2.252-1.882h-3.61v3.749h3.61c1.479,0,2.252-.82,2.252-1.867m-6.842,7.452V118.989h4.71c1.925,0,3.163.987,3.163,2.58a2.382,2.382,0,0,1-2.011,2.323,2.635,2.635,0,0,1,2.235,2.489c0,1.685-1.238,2.732-3.284,2.732Z" transform="translate(-234.749 -118.989)"/>
          <rect id="Rectangle_17512" data-name="Rectangle 17512" class="cls-11" width="0.894" height="10.124" transform="translate(10.538)"/>
          <path id="Path_4009" data-name="Path 4009" class="cls-11" d="M286.8,131.38a3.036,3.036,0,1,0-3.043,3.142,2.974,2.974,0,0,0,3.043-3.142m-7.014,0a3.991,3.991,0,1,1,3.971,3.855,3.757,3.757,0,0,1-3.971-3.855" transform="translate(-266.035 -124.929)"/>
          <path id="Path_4010" data-name="Path 4010" class="cls-11" d="M311.935,131.38a3.791,3.791,0,0,1,4.023-3.84,3.6,3.6,0,0,1,2.939,1.244l-.618.486a2.754,2.754,0,0,0-2.269-1.017,3.134,3.134,0,0,0,0,6.269,2.768,2.768,0,0,0,2.269-1.032l.618.485a3.56,3.56,0,0,1-2.939,1.26,3.8,3.8,0,0,1-4.023-3.855" transform="translate(-288.366 -124.929)"/>
          <path id="Path_4011" data-name="Path 4011" class="cls-11" d="M347.026,129.113l-3.318-3.491-1.547,1.29v2.2h-.893V118.989h.893v6.982l4.882-4.189h1.2l-3.868,3.309,3.851,4.022Z" transform="translate(-308.741 -118.989)"/>
          <path id="Path_4012" data-name="Path 4012" class="cls-11" d="M368.064,131.38a3.791,3.791,0,0,1,4.023-3.84,3.6,3.6,0,0,1,2.939,1.244l-.619.486a2.753,2.753,0,0,0-2.269-1.017,3.134,3.134,0,0,0,0,6.269,2.767,2.767,0,0,0,2.269-1.032l.619.485a3.56,3.56,0,0,1-2.939,1.26,3.8,3.8,0,0,1-4.023-3.855" transform="translate(-327.355 -124.929)"/>
          <path id="Path_4013" data-name="Path 4013" class="cls-11" d="M403,129.113v-4.994c0-1.411-.808-1.806-2.011-1.806a3.707,3.707,0,0,0-2.7,1.26v5.54H397.4V118.989h.893v3.9a4.432,4.432,0,0,1,2.991-1.29c1.685,0,2.613.7,2.613,2.352v5.161Z" transform="translate(-347.731 -118.989)"/>
          <path id="Path_4014" data-name="Path 4014" class="cls-11" d="M432.057,133.61V132a3.246,3.246,0,0,0-2.51-1.017c-1.358,0-2.269.774-2.269,1.821,0,1.032.911,1.806,2.269,1.806a3.29,3.29,0,0,0,2.51-1m0,1.442v-.865a3.86,3.86,0,0,1-2.819,1.047,2.657,2.657,0,0,1-2.905-2.443c0-1.594,1.461-2.429,2.905-2.429a3.833,3.833,0,0,1,2.819,1.047v-1.487c0-1.093-1-1.685-2.218-1.685a3.428,3.428,0,0,0-2.613,1.078l-.5-.546a4.287,4.287,0,0,1,3.2-1.229c1.685,0,3.026.713,3.026,2.352v5.161Z" transform="translate(-367.832 -124.928)"/>
          <path id="Path_4015" data-name="Path 4015" class="cls-11" d="M456.581,122.783h.894v7.331h-.894Zm-.241-1.761a.653.653,0,0,1,.688-.592.641.641,0,0,1,.688.592.653.653,0,0,1-.688.607.665.665,0,0,1-.688-.607" transform="translate(-388.676 -119.991)"/>
          <path id="Path_4016" data-name="Path 4016" class="cls-11" d="M474.78,135.052v-4.963c0-1.412-.808-1.837-2.011-1.837a3.706,3.706,0,0,0-2.7,1.26v5.54h-.894v-7.331h.894v1.108a4.433,4.433,0,0,1,2.991-1.29c1.685,0,2.613.729,2.613,2.383v5.131Z" transform="translate(-397.592 -124.928)"/>
          <path id="Path_4017" data-name="Path 4017" class="cls-11" d="M515.316,129.113v-9.335h-3.748v-.789h8.492v.789h-3.748v9.335Z" transform="translate(-427.04 -118.989)"/>
          <path id="Path_4018" data-name="Path 4018" class="cls-11" d="M541.438,128.222a2.929,2.929,0,0,0-3.008,2.793h6.034a2.851,2.851,0,0,0-3.026-2.793m-3.971,3.157a3.851,3.851,0,0,1,3.988-3.84,3.7,3.7,0,0,1,3.92,3.886v.212h-6.945a3.056,3.056,0,0,0,3.249,2.914,3.9,3.9,0,0,0,2.716-1.017l.464.516a4.58,4.58,0,0,1-3.249,1.184,3.846,3.846,0,0,1-4.143-3.855" transform="translate(-445.03 -124.928)"/>
          <path id="Path_4019" data-name="Path 4019" class="cls-11" d="M569.387,131.38a3.791,3.791,0,0,1,4.022-3.84,3.6,3.6,0,0,1,2.94,1.244l-.619.486a2.753,2.753,0,0,0-2.269-1.017,3.134,3.134,0,0,0,0,6.269,2.768,2.768,0,0,0,2.269-1.032l.619.485a3.562,3.562,0,0,1-2.94,1.26,3.8,3.8,0,0,1-4.022-3.855" transform="translate(-467.203 -124.929)"/>
          <path id="Path_4020" data-name="Path 4020" class="cls-11" d="M604.324,129.113v-4.994c0-1.411-.808-1.806-2.012-1.806a3.706,3.706,0,0,0-2.7,1.26v5.54h-.893V118.989h.893v3.9a4.433,4.433,0,0,1,2.991-1.29c1.685,0,2.613.7,2.613,2.352v5.161Z" transform="translate(-487.579 -118.989)"/>
        </g>
      </g>
    </g>
  </g>
</svg>
