<svg xmlns="http://www.w3.org/2000/svg" width="34" height="34" viewBox="0 0 34 34">
  <g id="user_insert_icon_" data-name="user_insert_icon " transform="translate(-1284 -385)">
    <rect id="Rectangle_17541" data-name="Rectangle 17541" width="34" height="34" rx="10" transform="translate(1284 385)" fill="#202b31"/>
    <g id="Group_9805" data-name="Group 9805" transform="translate(1291.004 390.827)">
      <circle id="Ellipse_1394" data-name="Ellipse 1394" cx="6.017" cy="6.017" r="6.017" transform="translate(3.76)" fill="#b6c8d3"/>
      <path id="Subtraction_19" data-name="Subtraction 19" d="M15.508,11.6H4.081A4.085,4.085,0,0,1,0,7.524V5.013a5.439,5.439,0,0,1,3.292-5A6.821,6.821,0,0,0,5.7,3.471,6.708,6.708,0,0,0,9.777,4.837a6.709,6.709,0,0,0,4.083-1.37A6.821,6.821,0,0,0,16.266,0a5.434,5.434,0,0,1,3.323,5.014V7.524A4.085,4.085,0,0,1,15.508,11.6Z" transform="translate(0 10.205)" fill="#b6c8d3"/>
    </g>
  </g>
</svg>
