<?xml version="1.0" encoding="UTF-8" standalone="no"?><!DOCTYPE svg PUBLIC "-//W3C//DTD SVG 1.1//EN" "http://www.w3.org/Graphics/SVG/1.1/DTD/svg11.dtd"><svg width="100%" height="100%" viewBox="0 0 620 204" version="1.1" xmlns="http://www.w3.org/2000/svg" xmlns:xlink="http://www.w3.org/1999/xlink" xml:space="preserve" xmlns:serif="http://www.serif.com/" style="fill-rule:evenodd;clip-rule:evenodd;stroke-linejoin:round;stroke-miterlimit:1.41421;"><rect id="xlabs_logo_gray" x="0" y="0" width="620" height="204" style="fill:none;"/><g><path d="M308.708,18.269l65.373,11.083c0,0 1.343,0.261 1.473,1.746c0,31.838 0.153,63.676 -0.001,95.513c-0.113,7.592 -4.93,14.518 -10.111,20.165c-14.944,16.286 -34.893,27.494 -55.119,37.385c-0.927,0.453 -2.126,0.825 -3.82,0c-22.45,-11.018 -45.689,-23.242 -59.668,-42.961c-3.101,-4.375 -5.539,-9.39 -5.565,-14.754l0,-95.348c0.116,-1.323 0.33,-1.447 1.473,-1.746l65.375,-11.083c0,0 0.27,-0.027 0.59,0Zm-63.902,14.326c0,31.327 -0.154,62.654 0,93.981c0.127,8.6 6.827,15.817 12.993,21.667c14.625,13.876 32.569,24.126 50.614,32.909c21.851,-10.637 45.156,-22.908 58.692,-42.003c2.688,-3.791 4.891,-8.105 4.913,-12.711l0,-93.843l-63.605,-10.784c-21.203,3.595 -42.405,7.19 -63.607,10.784Z" style="fill:#bbb;fill-rule:nonzero;"/><g><path d="M382.305,32.898c71.712,0.198 141.424,0.505 213.134,0.739c12.212,0.113 23.503,10.55 23.708,23.555c0.133,13.629 0.133,27.26 0,40.889c-0.193,12.206 -10.546,23.348 -23.554,23.553c-71.76,0.664 -141.523,1.077 -213.288,1.241l0,-6.302c71.739,-0.023 141.477,-0.275 213.213,-0.938c9.196,-0.145 17.536,-8.099 17.631,-17.747c0.044,-13.539 0.131,-27.08 -0.002,-40.62c-0.145,-9.194 -8.093,-17.542 -17.745,-17.631c-71.699,-0.234 -141.398,-0.291 -213.097,-0.273l0,-6.466Zm-146.61,-0.198l0,6.773c-71.508,0.076 -140.017,0.163 -211.525,0.163c-9.311,0.031 -17.775,7.973 -17.867,17.748c-0.043,13.54 -0.128,27.081 0.001,40.621c0.145,9.181 8.089,17.542 17.745,17.631c71.548,0.233 140.097,0.539 211.646,0.737l0,6.501c-71.614,-0.165 -140.227,-0.578 -211.837,-1.24c-12.173,-0.192 -23.348,-10.547 -23.554,-23.553c-0.129,-13.629 -0.129,-27.26 0,-40.889c0.193,-12.163 10.57,-23.349 23.554,-23.554c71.611,-0.662 140.223,-0.914 211.837,-0.938Z" style="fill:#bbb;fill-rule:nonzero;"/><g><path d="M551.891,85.017c-1.689,6.964 -10.366,12.268 -20.82,12.268c-9.489,0 -17.515,-4.37 -20.18,-10.384c0.657,0.118 1.334,0.18 2.025,0.18c4.229,0 7.919,-2.31 9.877,-5.736c2.007,1.778 4.645,2.858 7.537,2.858c3.121,0 5.948,-1.258 8.002,-3.294c2.059,2.068 4.908,3.347 8.056,3.347c1.116,0 2.193,-0.161 3.211,-0.46c0.71,0.489 1.478,0.901 2.292,1.221Z" style="fill:#818181;"/><path d="M534.251,68.532c1.548,0 2.802,1.255 2.802,2.803c0,1.547 -1.254,2.802 -2.802,2.802c-1.548,0 -2.802,-1.255 -2.802,-2.802c0,-1.548 1.254,-2.803 2.802,-2.803Z" style="fill:#818181;"/><path d="M544.508,74.586c1.373,0 2.487,1.114 2.487,2.487c0,1.373 -1.114,2.487 -2.487,2.487c-1.373,0 -2.487,-1.114 -2.487,-2.487c0,-1.373 1.114,-2.487 2.487,-2.487Z" style="fill:#818181;"/><path d="M538.311,74.585c0.723,0 1.309,0.586 1.309,1.308c0,0.723 -0.586,1.309 -1.309,1.309c-0.722,0 -1.308,-0.586 -1.308,-1.309c0,-0.722 0.586,-1.308 1.308,-1.308Z" style="fill:#818181;"/><path d="M534.501,76.238c0.874,0 1.583,0.709 1.583,1.584c0,0.874 -0.709,1.583 -1.583,1.583c-0.875,0 -1.584,-0.709 -1.584,-1.583c0,-0.875 0.709,-1.584 1.584,-1.584Z" style="fill:#818181;"/><path d="M530.07,78.155c1.141,0 2.066,0.925 2.066,2.066c0,1.141 -0.925,2.066 -2.066,2.066c-1.141,0 -2.066,-0.925 -2.066,-2.066c0,-1.141 0.925,-2.066 2.066,-2.066Z" style="fill:#818181;"/><path d="M527.889,74.792c0.634,0 1.147,0.513 1.147,1.147c0,0.634 -0.513,1.148 -1.147,1.148c-0.634,0 -1.148,-0.514 -1.148,-1.148c0,-0.634 0.514,-1.147 1.148,-1.147Z" style="fill:#818181;"/><path d="M525.811,72.829c0.425,0 0.769,0.344 0.769,0.768c0,0.425 -0.344,0.769 -0.769,0.769c-0.424,0 -0.769,-0.344 -0.769,-0.769c0,-0.424 0.345,-0.768 0.769,-0.768Z" style="fill:#818181;"/><path d="M515.33,79.715c0.635,0 1.149,0.514 1.149,1.149c0,0.634 -0.514,1.148 -1.149,1.148c-0.634,0 -1.148,-0.514 -1.148,-1.148c0,-0.635 0.514,-1.149 1.148,-1.149Z" style="fill:#818181;"/><path d="M520.312,75.514c1.066,0 1.929,0.863 1.929,1.929c0,1.065 -0.863,1.929 -1.929,1.929c-1.065,0 -1.929,-0.864 -1.929,-1.929c0,-1.066 0.864,-1.929 1.929,-1.929Z" style="fill:#818181;"/></g><g><path d="M530.773,60.34c14.546,0 26.338,9.232 26.338,20.62c0,11.388 -11.792,20.619 -26.338,20.619c-14.546,0 -26.338,-9.231 -26.338,-20.619c0,-11.388 11.792,-20.62 26.338,-20.62Zm0,4.789c11.694,0 21.174,7.088 21.174,15.831c0,8.743 -9.48,15.831 -21.174,15.831c-11.694,0 -21.174,-7.088 -21.174,-15.831c0,-8.743 9.48,-15.831 21.174,-15.831Z" style="fill:#bbb;"/><path d="M413.735,93.116l19.32,-18.433l-16.843,-16.041l8.505,0l12.302,12.084l12.302,-12.084l8.521,0l-16.662,16.041l19.32,18.433l-8.521,0l-14.96,-14.532l-14.664,14.532l-8.62,0l0,0Z" style="fill:#bbb;fill-rule:nonzero;"/><rect x="456.608" y="44.312" width="5.849" height="48.804" style="fill:#bbb;fill-rule:nonzero;"/><rect x="504.085" y="39.572" width="5.849" height="57.084" style="fill:#bbb;fill-rule:nonzero;"/><path d="M468.253,68.313l0,-0.46c0.077,-4.906 2.239,-5.749 14.516,-5.749c9.343,0 12.586,0.689 14.594,3.143c0.975,1.138 1.438,2.277 1.613,4.295l0.007,0l0,0.08c0.055,0.68 0.079,1.459 0.079,2.37l0,0.075l-0.079,0l0,0.86l-25.955,0c-5.951,0 -10.819,4.779 -10.819,10.62c0,5.842 4.868,10.621 10.819,10.621l18.122,0c2.986,0 7.158,-1.202 7.962,-3.722l-0.05,2.703l5.636,0l0,-18.704c0,-8.432 -0.54,-10.808 -3.011,-13.261c-3.011,-3.143 -7.181,-3.986 -19.304,-3.986c-15.52,0 -20.075,2.146 -20.075,9.582l0,1.533l5.945,0Zm30.73,10.097l0,7.033c-0.879,2.485 -4.004,3.4 -5.637,3.4l-19.068,0c-3.429,0 -6.236,-2.328 -6.236,-5.174c0,-0.71 0.175,-1.388 0.491,-2.006c0.476,-1.397 1.567,-2.265 3.297,-2.75c0.752,-0.268 1.58,-0.418 2.448,-0.418l0.074,0c0.708,-0.058 1.479,-0.085 2.314,-0.085l22.317,0Z" style="fill:#bbb;fill-rule:nonzero;"/><path d="M555.453,83.517c0.063,4.057 0.858,6.19 2.998,7.897c2.444,2.013 6.841,2.632 17.871,2.632c9.215,0 13.892,-0.542 16.196,-1.936c2.653,-1.626 3.839,-4.258 3.839,-8.672c0,-7.047 -3.001,-10.144 -10.401,-10.454c-3.351,-0.155 -12.706,-0.387 -14.87,-0.309c-7.749,0.154 -9.633,-0.775 -9.633,-4.724c0,-1.859 0.488,-3.175 1.466,-3.949c1.466,-1.239 5.724,-1.781 12.914,-1.781c7.679,0 11.519,0.619 12.915,2.245c0.644,0.649 0.895,1.408 0.96,3.187l5.454,0c-0.054,-3.338 -0.385,-4.428 -1.457,-5.897c-2.374,-3.407 -6.772,-4.491 -17.662,-4.491c-9.494,0 -14.311,0.697 -16.615,2.323c-2.304,1.703 -3.42,4.414 -3.42,8.285c0,7.202 3.001,9.757 11.518,9.912c12.357,0.155 13.404,0.155 14.8,0.155c6.492,-0.078 8.586,1.316 8.586,5.575c0,1.781 -0.418,3.02 -1.396,3.872c-1.536,1.394 -4.049,1.704 -12.984,1.704c-13.402,0 -15.386,-0.398 -15.557,-5.574l-5.522,0l0,0Z" style="fill:#bbb;fill-rule:nonzero;"/></g><path d="M308.501,0l-81.566,13.803l0,118.74c0,32.156 81.566,70.587 81.566,70.587c0,0 81.564,-38.431 81.564,-70.587l0,-118.74l-81.564,-13.803Zm0.002,13.401l-70.807,11.983l0,103.073c0,27.914 70.807,61.272 70.807,61.272c0,0 70.803,-33.359 70.803,-61.272l0,-103.073l-70.803,-11.983Z" style="fill:#bbb;"/><g><path d="M414.531,106.779l3.997,6.861l2.017,0l2.633,-5.838l0.13,0l2.671,5.838l2.036,0l4.015,-6.861l-1.587,0l-3.325,5.868l-0.149,0l-2.652,-5.868l-2.148,0l-2.614,5.868l-0.131,0l-3.362,-5.868l-1.531,0l0,0Zm16.995,0l3.997,6.861l2.017,0l2.633,-5.838l0.131,0l2.67,5.838l2.036,0l4.015,-6.861l-1.587,0l-3.324,5.868l-0.15,0l-2.652,-5.868l-2.148,0l-2.614,5.868l-0.131,0l-3.361,-5.868l-1.532,0l0,0Zm16.995,0l3.996,6.861l2.018,0l2.633,-5.838l0.131,0l2.67,5.838l2.036,0l4.015,-6.861l-1.587,0l-3.325,5.868l-0.149,0l-2.652,-5.868l-2.148,0l-2.614,5.868l-0.131,0l-3.362,-5.868l-1.531,0l0,0Zm17.35,5.187l0,1.674l2.036,0l0,-1.674l-2.036,0Zm3.679,-5.187l4.389,3.26l-4.931,3.601l2.129,0l3.848,-2.919l3.809,2.919l2.13,0l-4.875,-3.601l4.37,-3.26l-2.017,0l-3.417,2.608l-3.399,-2.608l-2.036,0Zm12.064,-3.023l0,9.884l1.364,0l0,-9.884l-1.364,0Zm4.445,5.083l0,-0.089c0.019,-0.948 0.542,-1.111 3.511,-1.111c2.26,0 3.044,0.133 3.53,0.608c0.318,0.296 0.411,0.592 0.411,1.303l0,0.741l-0.112,0c-0.598,-0.652 -1.195,-0.741 -4.744,-0.741c-1.83,0 -2.652,0.06 -3.175,0.223c-0.896,0.266 -1.232,0.8 -1.232,1.881c0,0.83 0.187,1.245 0.747,1.601c0.635,0.385 1.457,0.474 4.557,0.474c2.633,0 3.268,-0.148 3.921,-0.889l0.057,0l-0.019,0.8l1.363,0l0,-3.616c0,-1.629 -0.13,-2.089 -0.728,-2.563c-0.728,-0.607 -1.737,-0.771 -4.669,-0.771c-3.754,0 -4.856,0.416 -4.856,1.853l0,0.296l1.438,0Zm3.493,1.674c3.044,0 3.866,0.238 3.866,1.127c0,0.918 -0.691,1.141 -3.586,1.141c-2.129,0 -3.063,-0.045 -3.455,-0.178c-0.486,-0.163 -0.673,-0.43 -0.673,-0.934c0,-0.444 0.169,-0.741 0.505,-0.918c0.392,-0.193 1.045,-0.238 3.343,-0.238Zm6.816,-6.757l0,9.884l1.345,0l0,-0.874l0.075,0c0.653,0.8 1.363,0.963 4.108,0.963c2.13,0 3.007,-0.074 3.717,-0.296c1.382,-0.445 1.961,-1.364 1.961,-3.127c0,-1.615 -0.374,-2.46 -1.307,-3.038c-0.785,-0.474 -1.662,-0.592 -4.595,-0.592c-2.465,0 -3.231,0.178 -3.847,0.919l-0.093,0l0,-3.839l-1.364,0Zm5.323,3.868c1.811,0 2.727,0.074 3.249,0.267c0.841,0.311 1.177,0.963 1.177,2.341c0,2.089 -0.672,2.549 -3.735,2.549c-1.998,0 -3.026,-0.075 -3.548,-0.282c-0.859,-0.311 -1.14,-0.874 -1.14,-2.282c0,-2.208 0.598,-2.593 3.997,-2.593Zm6.947,3.63l0,0.356c0,0.845 0.206,1.274 0.803,1.615c0.654,0.385 1.831,0.504 4.781,0.504c2.465,0 3.717,-0.104 4.333,-0.371c0.71,-0.311 1.027,-0.814 1.027,-1.659c0,-1.349 -0.803,-1.941 -2.783,-2.001c-0.896,-0.029 -3.398,-0.074 -3.977,-0.059c-2.073,0.03 -2.577,-0.148 -2.577,-0.903c0,-0.356 0.13,-0.608 0.392,-0.756c0.392,-0.237 1.531,-0.341 3.455,-0.341c2.054,0 3.081,0.118 3.455,0.43c0.205,0.148 0.261,0.326 0.261,0.829l1.457,0c0,-0.815 -0.075,-1.037 -0.392,-1.348c-0.635,-0.652 -1.812,-0.86 -4.725,-0.86c-2.54,0 -3.829,0.134 -4.445,0.445c-0.617,0.326 -0.915,0.845 -0.915,1.585c0,1.379 0.803,1.867 3.081,1.897c3.306,0.03 3.586,0.03 3.959,0.03c1.737,-0.015 2.298,0.252 2.298,1.067c0,0.341 -0.112,0.578 -0.374,0.741c-0.411,0.266 -1.083,0.326 -3.473,0.326c-3.885,0 -4.184,-0.089 -4.165,-1.334l-0.019,-0.193l-1.457,0Zm12.681,0.712l0,1.674l2.036,0l0,-1.674l-2.036,0Zm13.278,-0.815c-0.055,1.333 -0.672,1.615 -3.473,1.615c-1.812,0 -2.858,-0.089 -3.399,-0.297c-0.785,-0.281 -1.121,-0.948 -1.121,-2.178c0,-2.237 0.617,-2.652 3.96,-2.652c3.174,0 3.921,0.296 3.959,1.585l1.419,0c-0.056,-0.889 -0.243,-1.363 -0.747,-1.763c-0.691,-0.578 -1.868,-0.771 -4.631,-0.771c-2.074,0 -3.082,0.119 -3.829,0.445c-1.083,0.474 -1.587,1.437 -1.587,3.082c0,1.423 0.392,2.341 1.195,2.86c0.766,0.504 1.961,0.652 5.042,0.652c2.242,0 3.212,-0.193 3.885,-0.756c0.504,-0.415 0.709,-0.904 0.728,-1.822l-1.401,0Zm7.695,-4.461c-1.961,0 -2.932,0.104 -3.642,0.401c-1.139,0.474 -1.662,1.452 -1.662,3.082c0,1.689 0.43,2.563 1.531,3.067c0.785,0.37 1.849,0.489 4.389,0.489c2.204,0 3.175,-0.104 3.922,-0.445c1.083,-0.489 1.55,-1.422 1.55,-3.082c0,-1.6 -0.429,-2.489 -1.475,-3.022c-0.747,-0.371 -1.812,-0.49 -4.613,-0.49Zm0.224,0.949c1.756,0 2.689,0.074 3.213,0.267c0.877,0.311 1.194,0.918 1.194,2.267c0,1.2 -0.224,1.807 -0.784,2.163c-0.56,0.341 -1.326,0.445 -3.343,0.445c-1.606,0 -2.428,-0.06 -2.988,-0.223c-1.009,-0.281 -1.363,-0.889 -1.363,-2.311c0,-2.208 0.616,-2.608 4.071,-2.608l0,0Zm7.171,-0.86l0,6.861l1.364,0l0,-2.697c0,-1.704 0.112,-2.296 0.542,-2.682c0.504,-0.444 1.363,-0.622 3.1,-0.622c1.624,0 2.465,0.148 2.95,0.504c0.355,0.281 0.467,0.651 0.467,1.644l0,3.853l1.363,0l0,-2.697c0,-1.674 0.131,-2.252 0.617,-2.696c0.467,-0.445 1.289,-0.608 3.025,-0.608c2.858,0 3.399,0.341 3.399,2.148l0,3.853l1.364,0l0,-3.616c0,-1.6 -0.112,-2 -0.673,-2.504c-0.728,-0.622 -1.718,-0.83 -4.071,-0.83c-2.484,0 -3.473,0.297 -4.034,1.201c-0.691,-0.934 -1.662,-1.201 -4.482,-1.201c-2.11,0 -2.689,0.164 -3.548,0.993l0,-0.904l-1.383,0l0,0Zm20.133,5.187l0,1.674l2.036,0l0,-1.674l-2.036,0Zm4.071,-8.21l0,9.884l1.345,0l0,-0.874l0.075,0c0.653,0.8 1.363,0.963 4.109,0.963c2.129,0 3.006,-0.074 3.716,-0.296c1.382,-0.445 1.961,-1.364 1.961,-3.127c0,-1.615 -0.374,-2.46 -1.308,-3.038c-0.784,-0.474 -1.662,-0.592 -4.594,-0.592c-2.465,0 -3.231,0.178 -3.847,0.919l-0.093,0l0,-3.839l-1.364,0l0,0Zm5.323,3.868c1.811,0 2.727,0.074 3.249,0.267c0.841,0.311 1.177,0.963 1.177,2.341c0,2.089 -0.672,2.549 -3.735,2.549c-1.998,0 -3.026,-0.075 -3.548,-0.282c-0.86,-0.311 -1.14,-0.874 -1.14,-2.282c0,-2.208 0.598,-2.593 3.997,-2.593l0,0Zm7.19,-0.845l0,6.861l1.364,0l0,-3.171c0,-2.415 0.578,-2.83 3.865,-2.83c2.129,0 2.596,0.311 2.596,1.733l0,0.489l1.401,0l0,-0.711c0,-0.889 -0.299,-1.541 -0.878,-1.941c-0.579,-0.4 -1.27,-0.519 -2.969,-0.519c-1.644,0 -2.372,0.06 -2.895,0.267c-0.467,0.178 -0.803,0.415 -1.027,0.741l-0.093,0l0,-0.919l-1.364,0Z" style="fill:#bbb;fill-rule:nonzero;"/></g><g><path d="M15.175,94.922l1.863,0l0,-5.255l6.971,0c1.382,0 2.198,0 2.449,-0.021c1.843,-0.042 2.45,-0.209 3.203,-0.858c0.754,-0.628 1.047,-1.633 1.047,-3.517c0,-1.905 -0.335,-2.952 -1.13,-3.559c-0.859,-0.649 -0.859,-0.649 -5.569,-0.753l-8.834,0l0,13.963Zm1.863,-6.888l0,-5.443l6.971,0c3.496,0.063 3.705,0.105 4.271,0.524c0.418,0.314 0.523,0.774 0.523,2.219c0,1.318 -0.147,1.842 -0.565,2.198c-0.565,0.46 -0.838,0.502 -4.229,0.502l-6.971,0Zm14.989,6.888l1.863,0l0,-5.38l6.846,0c3.014,0.021 3.014,0.021 3.663,0.125c0.88,0.126 1.382,0.649 1.487,1.549c0.083,0.545 0.083,0.566 0.083,2.366l0,1.34l1.864,0l0,-1.989c0,-2.387 -0.084,-2.805 -0.629,-3.37c-0.355,-0.377 -0.753,-0.587 -1.423,-0.712c1.842,-0.377 2.303,-1.11 2.303,-3.685c0,-1.151 -0.126,-1.842 -0.44,-2.491c-0.44,-0.858 -1.277,-1.403 -2.407,-1.549c-0.963,-0.126 -0.984,-0.126 -4.501,-0.167l-8.709,0l0,13.963Zm1.863,-7.013l0,-5.318l6.846,0c3.37,0 4.208,0.084 4.773,0.503c0.418,0.293 0.67,1.067 0.67,2.051c0,0.712 -0.126,1.507 -0.293,1.822c-0.377,0.711 -1.236,0.942 -3.476,0.942l-1.674,0l-6.846,0Zm24.808,-6.992c-1.215,0 -3.622,0.062 -4.46,0.104c-1.905,0.126 -2.616,0.314 -3.328,0.838c-1.026,0.795 -1.361,2.281 -1.361,6.029c0,2.261 0.084,3.559 0.314,4.48c0.251,1.13 1.151,2.009 2.282,2.261c1.047,0.23 3.433,0.335 7.16,0.335c4.27,0 5.819,-0.272 6.636,-1.131c0.774,-0.837 1.067,-2.407 1.067,-5.841c0,-1.067 -0.062,-2.47 -0.146,-3.182c-0.147,-1.486 -0.398,-2.198 -0.984,-2.763c-0.9,-0.9 -2.407,-1.13 -7.18,-1.13Zm-1.089,1.674c3.58,0 4.647,0.042 5.715,0.21c0.942,0.146 1.445,0.565 1.57,1.36c0.126,0.629 0.21,2.303 0.21,3.873c0,1.298 -0.105,2.806 -0.231,3.559c-0.167,0.838 -0.607,1.277 -1.423,1.424c-0.942,0.167 -2.868,0.272 -4.92,0.272c-0.9,0 -3.245,-0.063 -3.999,-0.105c-1.549,-0.105 -2.114,-0.251 -2.491,-0.649c-0.439,-0.481 -0.586,-1.695 -0.586,-4.794c0,-2.679 0.21,-3.998 0.712,-4.459c0.544,-0.502 1.968,-0.691 5.443,-0.691Zm10.237,-1.632l0,1.632l7.013,0l0,12.331l1.863,0l0,-12.331l6.972,0l0,-1.632l-15.848,0Zm16.894,13.963l13.691,0l0,-1.633l-11.828,0l0,-4.794l11.305,0l0,-1.633l-11.305,0l0,-4.271l11.807,0l0,-1.632l-13.67,0l0,13.963Zm22.672,-7.076l0,1.633l7.286,0c-0.042,2.02 -0.147,2.624 -0.524,3.018c-0.544,0.565 -1.716,0.75 -4.982,0.75c-6.615,0 -7.223,-0.122 -7.579,-1.56c-0.125,-0.565 -0.23,-2.25 -0.23,-4.009c0,-2.805 0.168,-3.893 0.691,-4.375c0.565,-0.544 2.01,-0.712 5.924,-0.712c1.047,0 2.827,0.042 3.58,0.105c1.57,0.084 2.136,0.23 2.512,0.586c0.314,0.314 0.44,0.837 0.461,2.052l1.905,0c-0.021,-1.215 -0.105,-1.738 -0.398,-2.366c-0.419,-0.942 -1.465,-1.633 -2.7,-1.8c-0.859,-0.126 -3.748,-0.251 -5.694,-0.251c-5.82,0 -7.244,0.46 -7.767,2.512c-0.272,1.025 -0.419,2.679 -0.419,4.521c0,1.902 0.147,3.486 0.398,4.505c0.293,1.19 1.235,1.985 2.575,2.195c1.088,0.167 3.412,0.272 6.008,0.272c6.134,0 7.348,-0.44 7.871,-2.778c0.168,-0.813 0.21,-1.542 0.231,-4.298l-9.149,0Zm10.886,-6.887l0,13.963l1.863,0l0,-13.963l-1.863,0Zm3.957,13.963l9.776,0c3.936,0 5.004,-0.21 6.008,-1.152c1.047,-0.984 1.487,-2.742 1.487,-5.841c0,-3.286 -0.293,-4.647 -1.214,-5.631c-1.047,-1.109 -2.115,-1.339 -6.427,-1.339l-9.63,0l0,13.963Zm1.863,-1.633l0,-10.698l7.725,0c1.57,0 2.177,0 2.554,0.042c1.277,0.084 1.926,0.335 2.386,0.88c0.545,0.69 0.838,2.177 0.838,4.333c0,3.391 -0.607,4.898 -2.115,5.254c-0.774,0.189 -0.858,0.189 -3.558,0.189l-7.83,0Zm26.084,-12.372c-1.214,0 -3.621,0.062 -4.459,0.104c-1.905,0.126 -2.616,0.314 -3.328,0.838c-1.026,0.795 -1.361,2.281 -1.361,6.029c0,2.261 0.084,3.559 0.314,4.48c0.251,1.13 1.151,2.009 2.282,2.261c1.047,0.23 3.433,0.335 7.16,0.335c4.27,0 5.819,-0.272 6.636,-1.131c0.774,-0.837 1.067,-2.407 1.067,-5.841c0,-1.067 -0.062,-2.47 -0.146,-3.182c-0.147,-1.486 -0.398,-2.198 -0.984,-2.763c-0.9,-0.9 -2.408,-1.13 -7.181,-1.13l0,0Zm-1.088,1.674c3.58,0 4.647,0.042 5.715,0.21c0.942,0.146 1.444,0.565 1.57,1.36c0.126,0.629 0.209,2.303 0.209,3.873c0,1.298 -0.104,2.806 -0.23,3.559c-0.168,0.838 -0.607,1.277 -1.424,1.424c-0.942,0.167 -2.867,0.272 -4.919,0.272c-0.9,0 -3.245,-0.063 -3.999,-0.105c-1.549,-0.105 -2.114,-0.251 -2.491,-0.649c-0.439,-0.481 -0.586,-1.695 -0.586,-4.794c0,-2.679 0.21,-3.998 0.712,-4.459c0.544,-0.502 1.968,-0.691 5.443,-0.691Zm16.455,12.331l1.862,0l0,-5.255l6.972,0c1.381,0 2.198,0 2.449,-0.021c1.842,-0.042 2.45,-0.209 3.203,-0.858c0.754,-0.628 1.047,-1.633 1.047,-3.517c0,-1.905 -0.335,-2.952 -1.131,-3.559c-0.858,-0.649 -0.858,-0.649 -5.568,-0.753l-8.834,0l0,13.963Zm1.862,-6.888l0,-5.443l6.972,0c3.496,0.063 3.705,0.105 4.27,0.524c0.419,0.314 0.524,0.774 0.524,2.219c0,1.318 -0.147,1.842 -0.566,2.198c-0.565,0.46 -0.837,0.502 -4.228,0.502l-6.972,0Zm23.866,-7.117c-1.214,0 -3.622,0.062 -4.459,0.104c-1.905,0.126 -2.617,0.314 -3.329,0.838c-1.026,0.795 -1.36,2.281 -1.36,6.029c0,2.261 0.083,3.559 0.313,4.48c0.252,1.13 1.152,2.009 2.282,2.261c1.047,0.23 3.434,0.335 7.16,0.335c4.271,0 5.82,-0.272 6.636,-1.131c0.775,-0.837 1.068,-2.407 1.068,-5.841c0,-1.067 -0.063,-2.47 -0.147,-3.182c-0.146,-1.486 -0.397,-2.198 -0.984,-2.763c-0.9,-0.9 -2.407,-1.13 -7.18,-1.13l0,0Zm-1.089,1.674c3.58,0 4.648,0.042 5.715,0.21c0.942,0.146 1.445,0.565 1.571,1.36c0.125,0.629 0.209,2.303 0.209,3.873c0,1.298 -0.105,2.806 -0.23,3.559c-0.168,0.838 -0.608,1.277 -1.424,1.424c-0.942,0.167 -2.868,0.272 -4.92,0.272c-0.9,0 -3.244,-0.063 -3.998,-0.105c-1.549,-0.105 -2.115,-0.251 -2.491,-0.649c-0.44,-0.481 -0.586,-1.695 -0.586,-4.794c0,-2.679 0.209,-3.998 0.711,-4.459c0.545,-0.502 1.968,-0.691 5.443,-0.691Zm11.221,12.331l1.863,0l0,-5.38l6.846,0c3.015,0.021 3.015,0.021 3.664,0.125c0.879,0.126 1.381,0.649 1.486,1.549c0.084,0.545 0.084,0.566 0.084,2.366l0,1.34l1.863,0l0,-1.989c0,-2.387 -0.084,-2.805 -0.628,-3.37c-0.356,-0.377 -0.754,-0.587 -1.424,-0.712c1.842,-0.377 2.303,-1.11 2.303,-3.685c0,-1.151 -0.126,-1.842 -0.44,-2.491c-0.439,-0.858 -1.277,-1.403 -2.407,-1.549c-0.963,-0.126 -0.984,-0.126 -4.501,-0.167l-8.709,0l0,13.963Zm1.863,-7.013l0,-5.318l6.846,0c3.37,0 4.208,0.084 4.773,0.503c0.419,0.293 0.67,1.067 0.67,2.051c0,0.712 -0.126,1.507 -0.293,1.822c-0.377,0.711 -1.235,0.942 -3.475,0.942l-1.675,0l-6.846,0Z" style="fill:#bbb;fill-rule:nonzero;"/><path d="M15.302,60.791l2.345,0l3.227,10.247l3.244,-10.247l3.532,0l3.264,10.252l3.229,-10.252l3.196,0c-1.597,4.897 -3.194,9.795 -4.778,14.695l-3.274,0l-3.398,-10.489l-3.34,10.489l-3.363,0l-0.056,-0.176c-1.278,-3.975 -2.552,-7.953 -3.825,-11.929l-0.83,-2.59l0.827,0Zm23.187,14.163l0,-14.163l12.679,0l0,2.508l-9.62,0l0,3.398l9.348,0l0,2.452l-9.348,0l0,3.848l9.62,0l0,2.489l-12.679,0l0,-0.532Zm17.38,-8.276l5.231,0c0.218,0 0.412,-0.008 0.582,-0.023c0.167,-0.014 0.317,-0.036 0.449,-0.066c0.11,-0.025 0.203,-0.053 0.277,-0.085c0.065,-0.029 0.117,-0.059 0.155,-0.092c0.035,-0.032 0.07,-0.08 0.102,-0.143c0.038,-0.077 0.073,-0.175 0.104,-0.292c0.035,-0.137 0.062,-0.297 0.08,-0.477c0.019,-0.183 0.028,-0.389 0.028,-0.618c0,-0.404 -0.031,-0.725 -0.092,-0.963c-0.052,-0.2 -0.118,-0.328 -0.198,-0.385c-0.036,-0.024 -0.101,-0.049 -0.193,-0.074c-0.115,-0.03 -0.26,-0.058 -0.435,-0.081c-0.199,-0.026 -0.437,-0.047 -0.713,-0.06c-0.269,-0.014 -0.58,-0.02 -0.933,-0.02l-4.444,0l0,3.379Zm0,6.319l5.294,0c0.258,0 0.486,-0.008 0.682,-0.023c0.195,-0.014 0.373,-0.037 0.529,-0.066c0.133,-0.026 0.248,-0.057 0.342,-0.091c0.084,-0.03 0.15,-0.065 0.199,-0.101c0.032,-0.024 0.066,-0.071 0.101,-0.138c0.043,-0.083 0.083,-0.192 0.117,-0.328c0.04,-0.159 0.072,-0.348 0.093,-0.564c0.021,-0.218 0.031,-0.465 0.031,-0.742c0,-0.229 -0.011,-0.433 -0.033,-0.611c-0.022,-0.174 -0.055,-0.33 -0.099,-0.465c-0.036,-0.113 -0.079,-0.207 -0.127,-0.281c-0.041,-0.064 -0.087,-0.114 -0.136,-0.148c-0.05,-0.035 -0.138,-0.071 -0.262,-0.105c-0.147,-0.04 -0.33,-0.075 -0.548,-0.104c-0.245,-0.033 -0.537,-0.059 -0.872,-0.075c-0.33,-0.017 -0.711,-0.025 -1.139,-0.025l-4.172,0l0,3.867Zm-3.037,1.957l0,-14.163l8.2,0c0.45,0 0.872,0.015 1.264,0.045c0.393,0.03 0.746,0.076 1.059,0.136c0.338,0.065 0.639,0.149 0.902,0.252c0.271,0.107 0.5,0.233 0.686,0.379c0.19,0.148 0.355,0.33 0.494,0.546c0.133,0.209 0.244,0.45 0.33,0.723c0.079,0.251 0.138,0.533 0.178,0.843c0.039,0.31 0.059,0.645 0.059,1.005c0,0.269 -0.01,0.525 -0.029,0.766c-0.019,0.235 -0.048,0.455 -0.087,0.659c-0.04,0.216 -0.092,0.41 -0.155,0.581c-0.065,0.179 -0.142,0.335 -0.23,0.468c-0.094,0.142 -0.205,0.274 -0.333,0.393c-0.071,0.064 -0.145,0.125 -0.224,0.183c0.173,0.097 0.329,0.204 0.468,0.322c0.149,0.127 0.28,0.268 0.39,0.42c0.107,0.146 0.2,0.314 0.278,0.503c0.074,0.181 0.136,0.387 0.185,0.617c0.048,0.218 0.082,0.453 0.105,0.702c0.023,0.253 0.034,0.524 0.034,0.81c0,0.396 -0.024,0.763 -0.072,1.101c-0.048,0.338 -0.122,0.649 -0.22,0.93c-0.104,0.299 -0.237,0.565 -0.399,0.796c-0.166,0.237 -0.361,0.439 -0.586,0.604c-0.219,0.161 -0.489,0.302 -0.808,0.42c-0.312,0.116 -0.668,0.211 -1.065,0.284c-0.378,0.069 -0.8,0.121 -1.267,0.155c-0.464,0.034 -0.972,0.052 -1.523,0.052l-7.634,0l0,-0.532Zm15.381,-4.973l2.448,0l0,0.788c0,0.208 0.004,0.39 0.011,0.545c0.008,0.166 0.022,0.318 0.039,0.456c0.016,0.134 0.036,0.255 0.059,0.361c0.022,0.099 0.049,0.191 0.08,0.272c0.025,0.068 0.056,0.132 0.09,0.191c0.033,0.056 0.067,0.105 0.103,0.145c0.034,0.04 0.071,0.074 0.109,0.103c0.037,0.028 0.079,0.053 0.125,0.074c0.036,0.017 0.083,0.034 0.138,0.051c0.057,0.018 0.127,0.035 0.207,0.053c0.091,0.019 0.188,0.037 0.288,0.051c0.105,0.015 0.218,0.028 0.336,0.039c0.134,0.013 0.299,0.024 0.494,0.033c0.208,0.01 0.444,0.018 0.704,0.024c0.267,0.006 0.575,0.011 0.921,0.014l1.186,0.003c0.24,0 0.451,-0.003 0.63,-0.008c0.185,-0.005 0.369,-0.015 0.549,-0.028c0.168,-0.011 0.321,-0.026 0.455,-0.041c0.136,-0.017 0.262,-0.036 0.374,-0.058c0.103,-0.021 0.198,-0.044 0.284,-0.069c0.085,-0.026 0.165,-0.055 0.236,-0.085c0.061,-0.026 0.118,-0.055 0.17,-0.088c0.048,-0.029 0.091,-0.061 0.127,-0.093l0.022,-0.025l0.036,-0.062c0.015,-0.03 0.031,-0.07 0.046,-0.116l0.043,-0.157c0.013,-0.056 0.024,-0.124 0.035,-0.203l0.027,-0.251l0.018,-0.297l0.005,-0.34c0,-0.248 -0.008,-0.466 -0.021,-0.654c-0.014,-0.192 -0.035,-0.358 -0.061,-0.497c-0.023,-0.122 -0.05,-0.223 -0.079,-0.3c-0.024,-0.062 -0.047,-0.105 -0.068,-0.128c-0.022,-0.023 -0.053,-0.046 -0.092,-0.067c-0.049,-0.027 -0.109,-0.052 -0.18,-0.075c-0.091,-0.029 -0.195,-0.053 -0.311,-0.072c-0.124,-0.021 -0.26,-0.036 -0.409,-0.046l-5.021,-0.331c-0.399,-0.026 -0.772,-0.067 -1.115,-0.123c-0.347,-0.056 -0.666,-0.129 -0.955,-0.216c-0.304,-0.092 -0.578,-0.203 -0.82,-0.331c-0.248,-0.131 -0.462,-0.281 -0.642,-0.446c-0.18,-0.166 -0.337,-0.358 -0.469,-0.574c-0.132,-0.214 -0.241,-0.453 -0.325,-0.716c-0.079,-0.246 -0.139,-0.517 -0.179,-0.812c-0.039,-0.293 -0.059,-0.607 -0.059,-0.94c0,-0.201 0.007,-0.4 0.02,-0.596c0.012,-0.194 0.031,-0.375 0.056,-0.541c0.025,-0.176 0.059,-0.342 0.098,-0.499c0.04,-0.153 0.087,-0.301 0.143,-0.443c0.053,-0.138 0.118,-0.274 0.193,-0.406c0.074,-0.13 0.157,-0.256 0.248,-0.375c0.091,-0.119 0.192,-0.233 0.303,-0.342c0.108,-0.106 0.228,-0.208 0.357,-0.305c0.106,-0.08 0.222,-0.153 0.346,-0.22c0.123,-0.066 0.257,-0.126 0.4,-0.18c0.141,-0.053 0.289,-0.099 0.441,-0.139c0.151,-0.04 0.312,-0.075 0.482,-0.105c0.165,-0.028 0.36,-0.052 0.585,-0.073c0.216,-0.02 0.461,-0.036 0.731,-0.049c0.265,-0.013 0.563,-0.023 0.894,-0.029c0.351,-0.007 0.7,-0.011 1.043,-0.011l0.582,0c0.394,0 0.785,0.005 1.168,0.014c0.374,0.009 0.708,0.022 1.005,0.039c0.303,0.018 0.582,0.04 0.834,0.068c0.256,0.028 0.477,0.06 0.66,0.096c0.188,0.037 0.373,0.083 0.555,0.136c0.18,0.053 0.352,0.113 0.515,0.178c0.166,0.068 0.325,0.143 0.474,0.224c0.155,0.084 0.299,0.173 0.433,0.269c0.102,0.072 0.199,0.153 0.29,0.242c0.088,0.086 0.17,0.182 0.247,0.286c0.074,0.099 0.14,0.205 0.198,0.314c0.058,0.11 0.11,0.227 0.154,0.348c0.043,0.12 0.082,0.245 0.114,0.373c0.032,0.133 0.059,0.267 0.078,0.403c0.02,0.133 0.035,0.278 0.046,0.433c0.01,0.155 0.016,0.311 0.016,0.465c-0.003,0.141 -0.01,0.284 -0.01,0.424c-0.008,0.17 -0.019,0.321 -0.031,0.471l-0.022,0.297l-3.042,0l0,-0.873l-0.005,-0.336l-0.018,-0.286c-0.008,-0.088 -0.017,-0.165 -0.027,-0.23c-0.024,-0.118 -0.045,-0.2 -0.08,-0.316c-0.014,-0.037 -0.03,-0.071 -0.045,-0.098l-0.04,-0.059l-0.035,-0.036c-0.025,-0.021 -0.056,-0.041 -0.092,-0.059c-0.043,-0.022 -0.098,-0.043 -0.162,-0.064c-0.078,-0.026 -0.168,-0.049 -0.267,-0.07c-0.101,-0.021 -0.213,-0.04 -0.334,-0.056c-0.127,-0.017 -0.291,-0.033 -0.494,-0.047c-0.21,-0.014 -0.443,-0.026 -0.695,-0.034c-0.266,-0.01 -0.566,-0.017 -0.897,-0.021c-0.29,-0.004 -0.662,-0.006 -1.118,-0.006c-0.408,0 -0.772,0.009 -1.091,0.027c-0.318,0.018 -0.599,0.046 -0.842,0.083c-0.211,0.03 -0.39,0.069 -0.535,0.113c-0.125,0.038 -0.215,0.078 -0.271,0.119c-0.056,0.042 -0.109,0.099 -0.155,0.17c-0.053,0.08 -0.099,0.178 -0.138,0.292c-0.044,0.133 -0.079,0.285 -0.101,0.455c-0.023,0.173 -0.035,0.369 -0.035,0.587c0,0.178 0.008,0.341 0.023,0.488c0.015,0.145 0.038,0.275 0.068,0.39c0.026,0.1 0.056,0.186 0.09,0.255c0.03,0.062 0.064,0.113 0.101,0.152c0.034,0.036 0.077,0.068 0.129,0.098c0.06,0.033 0.134,0.065 0.218,0.092c0.105,0.034 0.225,0.062 0.359,0.085c0.137,0.023 0.294,0.041 0.472,0.054l5.12,0.356c0.362,0.026 0.701,0.068 1.013,0.124c0.316,0.056 0.607,0.129 0.872,0.216c0.281,0.093 0.534,0.203 0.758,0.33c0.227,0.128 0.426,0.275 0.598,0.441c0.169,0.164 0.316,0.353 0.439,0.564c0.12,0.206 0.22,0.439 0.299,0.695c0.075,0.245 0.131,0.51 0.168,0.794c0.037,0.285 0.056,0.588 0.056,0.91c0,0.214 -0.005,0.429 -0.015,0.644c-0.009,0.213 -0.023,0.403 -0.04,0.569c-0.017,0.17 -0.042,0.337 -0.072,0.499c-0.031,0.163 -0.065,0.307 -0.103,0.431c-0.041,0.131 -0.089,0.258 -0.142,0.377c-0.054,0.121 -0.116,0.238 -0.185,0.351c-0.07,0.115 -0.147,0.224 -0.228,0.324c-0.081,0.1 -0.173,0.197 -0.272,0.291c-0.12,0.113 -0.251,0.219 -0.392,0.315c-0.14,0.096 -0.292,0.184 -0.454,0.264c-0.16,0.078 -0.327,0.148 -0.501,0.208c-0.178,0.061 -0.362,0.113 -0.551,0.156c-0.187,0.041 -0.411,0.078 -0.67,0.11c-0.253,0.03 -0.54,0.055 -0.859,0.075c-0.304,0.019 -0.651,0.033 -1.041,0.043c-0.401,0.01 -0.813,0.015 -1.236,0.015l-0.809,0c-0.354,0 -0.706,-0.005 -1.052,-0.013c-0.338,-0.009 -0.641,-0.021 -0.906,-0.037c-0.275,-0.017 -0.528,-0.039 -0.758,-0.065c-0.232,-0.027 -0.437,-0.059 -0.613,-0.095c-0.182,-0.037 -0.355,-0.081 -0.517,-0.131c-0.163,-0.05 -0.323,-0.11 -0.478,-0.176c-0.157,-0.067 -0.305,-0.141 -0.445,-0.221c-0.14,-0.081 -0.271,-0.168 -0.392,-0.26c-0.122,-0.089 -0.239,-0.188 -0.349,-0.295c-0.107,-0.106 -0.206,-0.218 -0.297,-0.339c-0.087,-0.116 -0.169,-0.242 -0.242,-0.376c-0.071,-0.129 -0.134,-0.268 -0.19,-0.413c-0.056,-0.142 -0.104,-0.291 -0.144,-0.448c-0.039,-0.153 -0.073,-0.32 -0.1,-0.501c-0.027,-0.177 -0.047,-0.359 -0.06,-0.542c-0.013,-0.193 -0.02,-0.386 -0.02,-0.579l0,-1.201l0.634,0Zm15.089,4.973l0,-14.163l3.082,0l0,14.695l-3.082,0l0,-0.532Zm3.978,-12.187l0,-1.976l13.44,0l0,2.508l-5.19,0l0,12.187l-3.082,0l0,-12.187l-5.168,0l0,-0.532Zm14.564,12.187l0,-14.163l12.679,0l0,2.508l-9.62,0l0,3.398l9.348,0l0,2.452l-9.348,0l0,3.848l9.62,0l0,2.489l-12.679,0l0,-0.532Zm22.044,-4.973l2.447,0l0,0.788c0,0.208 0.004,0.39 0.012,0.545c0.008,0.166 0.021,0.318 0.038,0.456c0.016,0.134 0.037,0.255 0.06,0.361c0.022,0.099 0.049,0.191 0.079,0.272c0.025,0.068 0.056,0.132 0.091,0.191c0.032,0.056 0.067,0.105 0.102,0.145c0.035,0.04 0.072,0.074 0.11,0.103c0.037,0.028 0.079,0.053 0.124,0.074c0.037,0.017 0.083,0.034 0.138,0.051c0.058,0.018 0.127,0.035 0.208,0.053c0.091,0.019 0.187,0.037 0.287,0.051c0.106,0.015 0.218,0.028 0.337,0.039c0.133,0.013 0.298,0.024 0.494,0.033c0.208,0.01 0.443,0.018 0.704,0.024c0.267,0.006 0.574,0.011 0.921,0.014l1.186,0.003c0.24,0 0.451,-0.003 0.629,-0.008c0.185,-0.005 0.369,-0.015 0.549,-0.028c0.169,-0.011 0.321,-0.026 0.456,-0.041c0.136,-0.017 0.261,-0.036 0.373,-0.058c0.104,-0.021 0.199,-0.044 0.284,-0.069c0.086,-0.026 0.165,-0.055 0.236,-0.085c0.061,-0.026 0.118,-0.055 0.17,-0.088c0.048,-0.029 0.092,-0.061 0.128,-0.093l0.021,-0.025l0.036,-0.062c0.016,-0.03 0.032,-0.07 0.047,-0.116l0.043,-0.157c0.012,-0.056 0.024,-0.124 0.035,-0.203l0.027,-0.251l0.017,-0.297l0.005,-0.34c0,-0.248 -0.007,-0.466 -0.021,-0.654c-0.013,-0.192 -0.034,-0.358 -0.06,-0.497c-0.024,-0.122 -0.051,-0.223 -0.08,-0.3c-0.023,-0.062 -0.046,-0.105 -0.067,-0.128c-0.022,-0.023 -0.053,-0.046 -0.093,-0.067c-0.048,-0.027 -0.109,-0.052 -0.18,-0.075c-0.09,-0.029 -0.194,-0.053 -0.311,-0.072c-0.124,-0.021 -0.26,-0.036 -0.408,-0.046l-5.022,-0.331c-0.399,-0.026 -0.771,-0.067 -1.115,-0.123c-0.347,-0.056 -0.665,-0.129 -0.954,-0.216c-0.305,-0.092 -0.579,-0.203 -0.821,-0.331c-0.247,-0.131 -0.461,-0.281 -0.641,-0.446c-0.18,-0.166 -0.337,-0.358 -0.47,-0.574c-0.132,-0.214 -0.24,-0.453 -0.324,-0.716c-0.08,-0.246 -0.139,-0.517 -0.179,-0.812c-0.04,-0.293 -0.059,-0.607 -0.059,-0.94c0,-0.201 0.007,-0.4 0.019,-0.596c0.013,-0.194 0.032,-0.375 0.056,-0.541c0.026,-0.176 0.059,-0.342 0.099,-0.499c0.039,-0.153 0.087,-0.301 0.143,-0.443c0.053,-0.138 0.118,-0.274 0.192,-0.406c0.074,-0.13 0.157,-0.256 0.248,-0.375c0.091,-0.119 0.193,-0.233 0.303,-0.342c0.108,-0.106 0.228,-0.208 0.357,-0.305c0.106,-0.08 0.222,-0.153 0.347,-0.22c0.122,-0.066 0.257,-0.126 0.399,-0.18c0.142,-0.053 0.289,-0.099 0.441,-0.139c0.152,-0.04 0.313,-0.075 0.482,-0.105c0.166,-0.028 0.361,-0.052 0.586,-0.073c0.216,-0.02 0.46,-0.036 0.731,-0.049c0.265,-0.013 0.563,-0.023 0.894,-0.029c0.35,-0.007 0.699,-0.011 1.042,-0.011l0.582,0c0.394,0 0.785,0.005 1.169,0.014c0.373,0.009 0.708,0.022 1.004,0.039c0.304,0.018 0.582,0.04 0.834,0.068c0.257,0.028 0.477,0.06 0.661,0.096c0.187,0.037 0.373,0.083 0.555,0.136c0.18,0.053 0.352,0.113 0.514,0.178c0.167,0.068 0.326,0.143 0.475,0.224c0.154,0.084 0.298,0.173 0.432,0.269c0.102,0.072 0.199,0.153 0.29,0.242c0.088,0.086 0.171,0.182 0.248,0.286c0.073,0.099 0.14,0.205 0.197,0.314c0.058,0.11 0.11,0.227 0.154,0.348c0.044,0.12 0.083,0.245 0.114,0.373c0.032,0.133 0.06,0.267 0.079,0.403c0.019,0.133 0.035,0.278 0.045,0.433c0.01,0.155 0.016,0.311 0.016,0.465c-0.003,0.141 -0.01,0.284 -0.01,0.424c-0.007,0.17 -0.019,0.321 -0.03,0.471l-0.023,0.297l-3.041,0l0,-0.873l-0.005,-0.336l-0.018,-0.286c-0.008,-0.088 -0.017,-0.165 -0.028,-0.23c-0.024,-0.118 -0.044,-0.2 -0.08,-0.316c-0.014,-0.037 -0.029,-0.071 -0.045,-0.098l-0.04,-0.059l-0.035,-0.036c-0.024,-0.021 -0.056,-0.041 -0.092,-0.059c-0.043,-0.022 -0.098,-0.043 -0.162,-0.064c-0.078,-0.026 -0.167,-0.049 -0.266,-0.07c-0.101,-0.021 -0.213,-0.04 -0.334,-0.056c-0.128,-0.017 -0.292,-0.033 -0.494,-0.047c-0.21,-0.014 -0.443,-0.026 -0.695,-0.034c-0.267,-0.01 -0.566,-0.017 -0.897,-0.021c-0.291,-0.004 -0.663,-0.006 -1.118,-0.006c-0.408,0 -0.773,0.009 -1.091,0.027c-0.318,0.018 -0.599,0.046 -0.843,0.083c-0.21,0.03 -0.389,0.069 -0.534,0.113c-0.125,0.038 -0.216,0.078 -0.272,0.119c-0.056,0.042 -0.108,0.099 -0.155,0.17c-0.052,0.08 -0.099,0.178 -0.137,0.292c-0.045,0.133 -0.079,0.285 -0.102,0.455c-0.023,0.173 -0.035,0.369 -0.035,0.587c0,0.178 0.008,0.341 0.024,0.488c0.015,0.145 0.038,0.275 0.067,0.39c0.026,0.1 0.057,0.186 0.09,0.255c0.031,0.062 0.065,0.113 0.102,0.152c0.034,0.036 0.076,0.068 0.129,0.098c0.06,0.033 0.133,0.065 0.218,0.092c0.104,0.034 0.224,0.062 0.359,0.085c0.136,0.023 0.294,0.041 0.472,0.054l5.119,0.356c0.363,0.026 0.701,0.068 1.014,0.124c0.316,0.056 0.607,0.129 0.871,0.216c0.281,0.093 0.534,0.203 0.759,0.33c0.226,0.128 0.426,0.275 0.598,0.441c0.169,0.164 0.315,0.353 0.438,0.564c0.12,0.206 0.221,0.439 0.3,0.695c0.075,0.245 0.131,0.51 0.168,0.794c0.037,0.285 0.055,0.588 0.055,0.91c0,0.214 -0.005,0.429 -0.014,0.644c-0.01,0.213 -0.023,0.403 -0.04,0.569c-0.018,0.17 -0.042,0.337 -0.073,0.499c-0.03,0.163 -0.065,0.307 -0.103,0.431c-0.041,0.131 -0.089,0.258 -0.141,0.377c-0.054,0.121 -0.116,0.238 -0.185,0.351c-0.07,0.115 -0.147,0.224 -0.229,0.324c-0.081,0.1 -0.172,0.197 -0.271,0.291c-0.12,0.113 -0.252,0.219 -0.392,0.315c-0.141,0.096 -0.292,0.184 -0.455,0.264c-0.159,0.078 -0.326,0.148 -0.501,0.208c-0.177,0.061 -0.361,0.113 -0.55,0.156c-0.187,0.041 -0.411,0.078 -0.671,0.11c-0.252,0.03 -0.539,0.055 -0.859,0.075c-0.304,0.019 -0.651,0.033 -1.04,0.043c-0.401,0.01 -0.813,0.015 -1.237,0.015l-0.809,0c-0.354,0 -0.706,-0.005 -1.052,-0.013c-0.338,-0.009 -0.64,-0.021 -0.905,-0.037c-0.275,-0.017 -0.529,-0.039 -0.759,-0.065c-0.231,-0.027 -0.436,-0.059 -0.613,-0.095c-0.182,-0.037 -0.354,-0.081 -0.516,-0.131c-0.164,-0.05 -0.324,-0.11 -0.479,-0.176c-0.156,-0.067 -0.304,-0.141 -0.444,-0.221c-0.141,-0.081 -0.272,-0.168 -0.393,-0.26c-0.122,-0.089 -0.238,-0.188 -0.348,-0.295c-0.107,-0.106 -0.207,-0.218 -0.297,-0.339c-0.088,-0.116 -0.169,-0.242 -0.242,-0.376c-0.072,-0.129 -0.135,-0.268 -0.191,-0.413c-0.055,-0.142 -0.103,-0.291 -0.144,-0.448c-0.038,-0.153 -0.072,-0.32 -0.099,-0.501c-0.027,-0.177 -0.047,-0.359 -0.061,-0.542c-0.013,-0.193 -0.02,-0.386 -0.02,-0.579l0,-1.201l0.635,0Zm15.312,4.973l0,-14.163l12.679,0l0,2.508l-9.62,0l0,3.398l9.348,0l0,2.452l-9.348,0l0,3.848l9.62,0l0,2.489l-12.679,0l0,-0.532Zm14.12,-9.128c0,-0.457 0.029,-0.883 0.087,-1.276c0.057,-0.394 0.145,-0.758 0.262,-1.089c0.123,-0.347 0.279,-0.658 0.466,-0.933c0.19,-0.278 0.415,-0.521 0.673,-0.727c0.257,-0.205 0.559,-0.384 0.904,-0.535c0.341,-0.148 0.726,-0.271 1.154,-0.367c0.409,-0.092 0.86,-0.162 1.355,-0.208c0.492,-0.046 1.023,-0.069 1.591,-0.069l2.066,0c1.046,0 1.966,0.076 2.754,0.229c0.406,0.078 0.78,0.178 1.122,0.299c0.344,0.122 0.654,0.266 0.927,0.43c0.283,0.17 0.532,0.365 0.745,0.584c0.212,0.218 0.39,0.461 0.532,0.727c0.138,0.26 0.242,0.54 0.31,0.839c0.068,0.299 0.103,0.617 0.103,0.952l0,1.11l-3.127,0l0,-0.697c0,-0.208 -0.015,-0.397 -0.045,-0.567c-0.029,-0.167 -0.073,-0.317 -0.129,-0.448c-0.052,-0.118 -0.114,-0.222 -0.187,-0.31c-0.072,-0.086 -0.153,-0.159 -0.244,-0.217c-0.1,-0.065 -0.229,-0.124 -0.387,-0.175c-0.169,-0.056 -0.366,-0.103 -0.59,-0.141c-0.243,-0.041 -0.523,-0.073 -0.841,-0.094c-0.314,-0.021 -0.666,-0.032 -1.051,-0.032l-1.432,0c-0.292,0 -0.542,0.003 -0.752,0.008c-0.221,0.006 -0.433,0.016 -0.634,0.029c-0.185,0.012 -0.35,0.027 -0.493,0.044c-0.142,0.016 -0.266,0.037 -0.372,0.059c-0.102,0.021 -0.199,0.046 -0.289,0.073c-0.093,0.029 -0.181,0.06 -0.26,0.093c-0.079,0.034 -0.155,0.071 -0.229,0.111c-0.072,0.041 -0.143,0.085 -0.21,0.133c-0.056,0.041 -0.106,0.084 -0.15,0.126c-0.045,0.044 -0.087,0.093 -0.125,0.145c-0.04,0.054 -0.076,0.112 -0.106,0.171c-0.032,0.062 -0.06,0.13 -0.084,0.201c-0.025,0.075 -0.048,0.17 -0.068,0.283c-0.02,0.117 -0.038,0.253 -0.052,0.406c-0.016,0.17 -0.027,0.352 -0.035,0.544c-0.006,0.185 -0.01,0.406 -0.01,0.664l0,3.884c0,0.256 0.004,0.475 0.01,0.658c0.008,0.192 0.019,0.373 0.035,0.542c0.014,0.153 0.032,0.288 0.052,0.405c0.02,0.114 0.043,0.209 0.068,0.283c0.024,0.071 0.052,0.138 0.084,0.2c0.03,0.059 0.066,0.117 0.106,0.171c0.038,0.053 0.08,0.101 0.125,0.145c0.044,0.043 0.094,0.085 0.15,0.126c0.069,0.049 0.14,0.094 0.211,0.134c0.073,0.041 0.15,0.079 0.227,0.112c0.083,0.034 0.169,0.066 0.259,0.094c0.088,0.028 0.18,0.052 0.274,0.073c0.095,0.02 0.214,0.04 0.356,0.056c0.14,0.017 0.305,0.032 0.494,0.044c0.202,0.013 0.417,0.023 0.644,0.028c0.216,0.006 0.474,0.009 0.774,0.009l1.432,0c0.274,0 0.505,-0.002 0.695,-0.007c0.202,-0.005 0.395,-0.014 0.578,-0.025c0.17,-0.011 0.32,-0.024 0.445,-0.038c0.126,-0.015 0.235,-0.032 0.324,-0.051c0.083,-0.017 0.165,-0.039 0.244,-0.063c0.081,-0.024 0.157,-0.052 0.228,-0.081c0.07,-0.03 0.14,-0.063 0.205,-0.098c0.061,-0.033 0.123,-0.072 0.183,-0.114c0.044,-0.031 0.087,-0.067 0.127,-0.107c0.042,-0.042 0.08,-0.086 0.113,-0.132c0.037,-0.05 0.07,-0.104 0.098,-0.159c0.029,-0.058 0.056,-0.122 0.08,-0.191c0.022,-0.069 0.044,-0.156 0.063,-0.26c0.019,-0.108 0.035,-0.231 0.049,-0.37c0.014,-0.155 0.025,-0.318 0.032,-0.488c0.006,-0.163 0.01,-0.358 0.01,-0.587l0,-0.308l-4.515,0l0,-2.452l7.642,0l0,2.817c0,0.458 -0.03,0.885 -0.087,1.279c-0.058,0.396 -0.146,0.76 -0.263,1.092c-0.123,0.348 -0.279,0.66 -0.466,0.934c-0.19,0.279 -0.415,0.521 -0.673,0.726c-0.255,0.203 -0.557,0.381 -0.904,0.531c-0.34,0.148 -0.726,0.271 -1.153,0.367c-0.409,0.091 -0.861,0.16 -1.355,0.206c-0.493,0.045 -1.024,0.068 -1.592,0.068l-2.066,0c-0.568,0 -1.099,-0.023 -1.591,-0.068c-0.495,-0.046 -0.947,-0.115 -1.356,-0.206c-0.427,-0.096 -0.812,-0.219 -1.153,-0.367c-0.347,-0.15 -0.649,-0.328 -0.904,-0.531c-0.258,-0.205 -0.483,-0.447 -0.673,-0.726c-0.187,-0.274 -0.343,-0.586 -0.466,-0.934c-0.117,-0.332 -0.205,-0.696 -0.262,-1.092c-0.058,-0.394 -0.087,-0.821 -0.087,-1.279l0,-4.625l0,0Zm17.745,-5.035l2.447,0l0,9.478c0,0.424 0.013,0.78 0.038,1.066c0.025,0.278 0.06,0.491 0.108,0.638c0.041,0.126 0.096,0.238 0.164,0.337c0.066,0.094 0.144,0.177 0.235,0.248c0.053,0.041 0.108,0.077 0.162,0.109c0.06,0.035 0.122,0.067 0.185,0.094c0.066,0.03 0.134,0.056 0.203,0.079c0.073,0.023 0.15,0.044 0.231,0.062c0.077,0.017 0.175,0.033 0.291,0.047c0.118,0.013 0.258,0.025 0.419,0.035c0.175,0.011 0.358,0.019 0.55,0.024c0.183,0.005 0.406,0.007 0.668,0.007l1.708,0c0.481,0 0.886,-0.01 1.211,-0.029c0.318,-0.019 0.564,-0.047 0.737,-0.084c0.079,-0.017 0.155,-0.038 0.226,-0.061c0.068,-0.021 0.137,-0.048 0.206,-0.079c0.063,-0.027 0.125,-0.059 0.185,-0.094c0.058,-0.033 0.114,-0.071 0.169,-0.113c0.044,-0.033 0.083,-0.068 0.116,-0.104c0.036,-0.039 0.07,-0.081 0.101,-0.127c0.035,-0.05 0.065,-0.103 0.091,-0.158c0.027,-0.056 0.05,-0.116 0.07,-0.18c0.022,-0.07 0.041,-0.157 0.058,-0.261c0.017,-0.105 0.032,-0.229 0.045,-0.372c0.013,-0.154 0.024,-0.317 0.03,-0.49c0.006,-0.162 0.009,-0.36 0.009,-0.594l0,-9.478l3.082,0l0,9.663c0,0.454 -0.028,0.878 -0.083,1.271c-0.055,0.395 -0.139,0.758 -0.25,1.087c-0.116,0.343 -0.265,0.653 -0.444,0.928c-0.181,0.278 -0.395,0.521 -0.64,0.725c-0.245,0.207 -0.535,0.386 -0.867,0.538c-0.327,0.151 -0.697,0.275 -1.108,0.373c-0.392,0.093 -0.824,0.163 -1.296,0.209c-0.468,0.046 -0.975,0.069 -1.518,0.069l-1.968,0c-0.542,0 -1.049,-0.023 -1.518,-0.069c-0.471,-0.046 -0.904,-0.116 -1.296,-0.21c-0.409,-0.097 -0.78,-0.221 -1.108,-0.371c-0.332,-0.152 -0.621,-0.332 -0.865,-0.537c-0.246,-0.206 -0.461,-0.449 -0.642,-0.727c-0.18,-0.275 -0.328,-0.585 -0.444,-0.929c-0.111,-0.328 -0.195,-0.691 -0.25,-1.086c-0.055,-0.393 -0.083,-0.817 -0.083,-1.271l0,-9.663l0.635,0Zm23.647,2.508l-4.556,0l0,4.391l4.556,0c0.324,0 0.617,-0.008 0.876,-0.024c0.261,-0.016 0.491,-0.04 0.688,-0.071c0.176,-0.027 0.326,-0.061 0.447,-0.099c0.11,-0.034 0.194,-0.071 0.25,-0.109c0.056,-0.038 0.107,-0.085 0.151,-0.14c0.048,-0.06 0.089,-0.13 0.121,-0.209c0.039,-0.094 0.069,-0.203 0.089,-0.325c0.021,-0.123 0.031,-0.264 0.031,-0.422l0,-1.593c0,-0.164 -0.01,-0.308 -0.03,-0.434c-0.019,-0.124 -0.049,-0.235 -0.087,-0.331c-0.031,-0.079 -0.07,-0.149 -0.115,-0.208c-0.041,-0.054 -0.088,-0.099 -0.139,-0.133c-0.052,-0.036 -0.133,-0.071 -0.239,-0.103c-0.123,-0.038 -0.273,-0.071 -0.45,-0.098c-0.197,-0.03 -0.431,-0.053 -0.699,-0.069c-0.262,-0.015 -0.561,-0.023 -0.894,-0.023l0,0Zm-7.615,11.655l0,-14.163l7.976,0c0.475,0 0.916,0.015 1.321,0.045c0.414,0.032 0.788,0.077 1.122,0.137c0.355,0.064 0.677,0.147 0.963,0.248c0.29,0.103 0.543,0.225 0.757,0.365c0.222,0.146 0.416,0.319 0.58,0.519c0.163,0.198 0.298,0.422 0.403,0.669c0.099,0.233 0.173,0.489 0.222,0.767c0.049,0.276 0.073,0.573 0.073,0.891l0,2.06c0,0.196 -0.012,0.386 -0.038,0.569c-0.024,0.179 -0.063,0.353 -0.113,0.52c-0.053,0.172 -0.12,0.333 -0.199,0.481c-0.082,0.153 -0.177,0.293 -0.287,0.421c-0.113,0.133 -0.241,0.254 -0.384,0.362l-0.149,0.105c0.08,0.051 0.156,0.105 0.227,0.162c0.14,0.112 0.264,0.236 0.369,0.372c0.1,0.128 0.188,0.275 0.263,0.438c0.072,0.156 0.132,0.331 0.179,0.523c0.043,0.176 0.076,0.37 0.099,0.579c0.022,0.204 0.033,0.423 0.033,0.655l0,3.807l-3.149,0l0,-3.342c0,-0.448 -0.04,-0.817 -0.12,-1.105c-0.036,-0.128 -0.077,-0.236 -0.125,-0.325c-0.043,-0.08 -0.092,-0.147 -0.146,-0.197c-0.046,-0.044 -0.111,-0.085 -0.191,-0.122c-0.089,-0.041 -0.198,-0.077 -0.325,-0.107c-0.15,-0.036 -0.321,-0.063 -0.511,-0.081c-0.194,-0.018 -0.414,-0.028 -0.658,-0.028l-5.133,0l0,5.307l-3.059,0l0,-0.532Zm23.144,-11.843l-1.007,0c-0.299,0 -0.555,0.003 -0.768,0.008c-0.226,0.006 -0.441,0.016 -0.643,0.029c-0.188,0.012 -0.355,0.027 -0.497,0.044c-0.142,0.017 -0.262,0.036 -0.357,0.057c-0.09,0.019 -0.182,0.044 -0.273,0.073c-0.087,0.027 -0.174,0.059 -0.258,0.095c-0.078,0.033 -0.154,0.07 -0.227,0.11c-0.072,0.041 -0.144,0.086 -0.212,0.134c-0.052,0.038 -0.102,0.081 -0.149,0.127c-0.046,0.047 -0.09,0.098 -0.128,0.152c-0.043,0.059 -0.081,0.121 -0.112,0.184c-0.033,0.065 -0.062,0.136 -0.087,0.212c-0.026,0.077 -0.049,0.175 -0.071,0.292c-0.021,0.119 -0.04,0.256 -0.055,0.41c-0.016,0.169 -0.028,0.349 -0.036,0.537c-0.007,0.181 -0.011,0.396 -0.011,0.644l0,3.863c0,0.247 0.004,0.462 0.011,0.641c0.007,0.185 0.02,0.362 0.036,0.529c0.015,0.152 0.034,0.288 0.055,0.405c0.021,0.117 0.045,0.214 0.071,0.29c0.025,0.077 0.054,0.147 0.086,0.21c0.034,0.066 0.071,0.127 0.11,0.181c0.037,0.051 0.081,0.102 0.129,0.149c0.044,0.046 0.094,0.088 0.149,0.127c0.069,0.049 0.141,0.095 0.212,0.135c0.074,0.041 0.151,0.079 0.228,0.112c0.082,0.034 0.169,0.066 0.259,0.094c0.088,0.028 0.179,0.052 0.273,0.073c0.095,0.02 0.215,0.04 0.357,0.056c0.142,0.017 0.309,0.032 0.497,0.044c0.202,0.013 0.417,0.023 0.643,0.029c0.213,0.005 0.469,0.008 0.768,0.008l1.007,0c0.299,0 0.555,-0.003 0.768,-0.008c0.227,-0.006 0.443,-0.016 0.645,-0.029c0.192,-0.012 0.361,-0.027 0.503,-0.044c0.144,-0.017 0.265,-0.036 0.361,-0.056c0.099,-0.022 0.195,-0.048 0.286,-0.076c0.091,-0.029 0.177,-0.06 0.255,-0.093c0.079,-0.034 0.156,-0.071 0.23,-0.112c0.071,-0.039 0.141,-0.084 0.211,-0.133c0.051,-0.037 0.099,-0.078 0.145,-0.123c0.045,-0.044 0.086,-0.093 0.123,-0.143c0.041,-0.056 0.077,-0.114 0.107,-0.174c0.032,-0.064 0.06,-0.132 0.084,-0.204c0.025,-0.075 0.048,-0.17 0.068,-0.282c0.021,-0.116 0.038,-0.252 0.053,-0.407c0.015,-0.169 0.027,-0.35 0.034,-0.541c0.007,-0.182 0.011,-0.402 0.011,-0.658l0,-3.878c0,-0.248 -0.004,-0.463 -0.011,-0.644c-0.008,-0.188 -0.02,-0.368 -0.036,-0.537c-0.015,-0.155 -0.034,-0.293 -0.056,-0.412c-0.021,-0.118 -0.045,-0.217 -0.07,-0.294c-0.025,-0.076 -0.055,-0.147 -0.088,-0.212c-0.032,-0.065 -0.07,-0.128 -0.111,-0.185c-0.038,-0.054 -0.081,-0.104 -0.127,-0.151c-0.049,-0.046 -0.099,-0.089 -0.151,-0.127c-0.065,-0.045 -0.132,-0.088 -0.202,-0.127c-0.076,-0.041 -0.151,-0.077 -0.223,-0.108c-0.075,-0.031 -0.159,-0.062 -0.252,-0.09c-0.096,-0.03 -0.188,-0.054 -0.275,-0.073c-0.1,-0.02 -0.222,-0.039 -0.362,-0.056c-0.14,-0.016 -0.305,-0.03 -0.495,-0.042c-0.202,-0.012 -0.418,-0.021 -0.646,-0.027c-0.215,-0.005 -0.475,-0.008 -0.779,-0.008l0,0Zm-8.018,2.718c0,-0.458 0.029,-0.884 0.087,-1.278c0.057,-0.394 0.146,-0.758 0.263,-1.09c0.122,-0.347 0.278,-0.658 0.465,-0.932c0.191,-0.279 0.416,-0.522 0.674,-0.728c0.256,-0.205 0.558,-0.384 0.904,-0.535c0.34,-0.148 0.726,-0.271 1.155,-0.367c0.409,-0.093 0.862,-0.162 1.357,-0.208c0.493,-0.046 1.026,-0.069 1.595,-0.069l2.051,0c1.158,0 2.149,0.091 2.969,0.272c0.43,0.095 0.817,0.217 1.158,0.363c0.348,0.15 0.65,0.327 0.903,0.528c0.253,0.203 0.474,0.445 0.664,0.726c0.186,0.276 0.34,0.588 0.46,0.936c0.116,0.333 0.203,0.7 0.26,1.097c0.057,0.396 0.086,0.825 0.086,1.285l0,4.619c0,0.458 -0.029,0.885 -0.087,1.279c-0.058,0.397 -0.147,0.761 -0.264,1.094c-0.123,0.345 -0.279,0.658 -0.468,0.934c-0.19,0.28 -0.415,0.522 -0.673,0.727c-0.257,0.204 -0.56,0.381 -0.907,0.532c-0.342,0.148 -0.728,0.27 -1.156,0.366c-0.408,0.091 -0.861,0.16 -1.354,0.206c-0.492,0.045 -1.023,0.068 -1.591,0.068l-2.051,0c-0.569,0 -1.1,-0.023 -1.594,-0.068c-0.496,-0.046 -0.949,-0.115 -1.358,-0.206c-0.428,-0.096 -0.814,-0.218 -1.155,-0.366c-0.347,-0.151 -0.649,-0.328 -0.904,-0.532c-0.259,-0.205 -0.483,-0.447 -0.674,-0.726c-0.187,-0.274 -0.343,-0.587 -0.465,-0.934c-0.117,-0.332 -0.206,-0.697 -0.263,-1.093c-0.058,-0.394 -0.087,-0.822 -0.087,-1.281l0,-4.619Z" style="fill:#bbb;fill-rule:nonzero;"/></g></g><path d="M309.278,174.356l-2.172,-2.389c-0.426,-0.468 -0.661,-1.079 -0.661,-1.711l0.03,-25.893c0.001,-0.708 0.298,-1.383 0.82,-1.864l3.407,-3.134l-1.332,-1.447l14.314,-13.169l1.332,1.448l3.134,-2.883l-4.087,-4.44l-23.177,21.322l-0.02,18c0.002,0.003 0.007,0.005 0.01,0.009c1.398,1.52 1.299,3.884 -0.22,5.282c-1.519,1.397 -3.884,1.299 -5.281,-0.221c-1.398,-1.518 -1.299,-3.884 0.22,-5.281c0.061,-0.056 0.13,-0.094 0.194,-0.145l0.022,-18.126c-0.196,-0.858 0.05,-1.793 0.745,-2.432l25.105,-23.097c0.144,-0.132 0.301,-0.24 0.462,-0.333c0.106,-0.154 0.227,-0.3 0.369,-0.432c1.033,-0.948 2.638,-0.882 3.588,0.15l7.524,8.174c0.456,0.495 0.696,1.151 0.668,1.824c-0.027,0.674 -0.322,1.308 -0.818,1.764l-5.001,4.602l1.445,1.57l-14.314,13.169l-1.445,-1.571l-2.588,2.381l-0.028,23.796l2.43,2.674l-4.675,2.403Zm9.449,-4.92l0.043,-19.641c0.002,-0.701 0.293,-1.371 0.807,-1.849l20.144,-18.8l0,-10.936l-7.641,-8.642c-0.124,-0.139 -0.226,-0.289 -0.313,-0.443c-0.158,-0.109 -0.309,-0.232 -0.444,-0.379c-0.949,-1.032 -0.882,-2.638 0.15,-3.587l8.672,-7.979c0.127,-0.117 0.263,-0.217 0.406,-0.303c-0.074,-1.091 0.313,-2.204 1.18,-3.002c1.52,-1.397 3.884,-1.299 5.283,0.221c1.396,1.518 1.299,3.882 -0.221,5.28c-0.779,0.718 -1.783,1.035 -2.762,0.974c-0.124,0.203 -0.265,0.398 -0.448,0.567l-6.826,6.279l7.404,8.373c0.409,0.464 0.636,1.061 0.636,1.681l0,12.998c0,0.704 -0.293,1.376 -0.806,1.855l-20.146,18.803l-0.034,15.773l-0.783,0.448l-4.301,2.309Zm8.766,-4.867l0,-9.65c0,-0.725 0.31,-1.416 0.852,-1.896l22.69,-20.173l0,-44.713c0,-0.031 0.007,-0.061 0.01,-0.092c0,-0.013 0.002,-0.026 0.003,-0.04c0.036,-0.694 0.349,-1.312 0.835,-1.75l10.395,-9.563c0.044,-0.041 0.093,-0.068 0.139,-0.105c0.071,-0.056 0.141,-0.114 0.218,-0.164c0.072,-0.044 0.145,-0.081 0.217,-0.118c0.074,-0.036 0.145,-0.074 0.222,-0.105c0.082,-0.031 0.168,-0.054 0.252,-0.078c0.074,-0.019 0.145,-0.041 0.221,-0.056c0.097,-0.016 0.194,-0.023 0.293,-0.029c0.053,-0.003 0.103,-0.015 0.157,-0.015c0.016,0 0.032,0.004 0.047,0.004c0.101,0.002 0.201,0.016 0.302,0.031c0.066,0.009 0.134,0.013 0.197,0.027c0.091,0.019 0.178,0.052 0.267,0.082c0.068,0.023 0.138,0.041 0.203,0.07c0.078,0.034 0.152,0.081 0.227,0.123c0.068,0.039 0.139,0.074 0.203,0.119c0.063,0.043 0.119,0.096 0.178,0.146c0.07,0.059 0.142,0.117 0.204,0.183c0.014,0.012 0.028,0.022 0.041,0.035c0.038,0.042 0.066,0.091 0.102,0.136c0.058,0.073 0.116,0.144 0.166,0.222c0.044,0.069 0.078,0.139 0.114,0.21c0.038,0.076 0.078,0.151 0.109,0.23c0.031,0.079 0.053,0.159 0.074,0.24c0.022,0.077 0.045,0.154 0.059,0.234c0.018,0.092 0.022,0.183 0.028,0.275l0,0.005l0,48.616c-0.018,3.596 -2.405,7.252 -5.06,10.47l0,-53.135l-5.346,4.918l0,54.147c-5.016,5.07 -10.657,9.579 -16.676,13.65l11.599,-10.181l0,-7.237l-18.465,16.417l0,5.469l-2.573,1.607l-2.504,1.434Zm39.025,-107.221l0,6.899l-7.446,6.855l1.386,1.505l-14.314,13.169l-1.383,-1.502l-56.04,51.586l0.157,27.779l-4.156,-2.54l-0.939,-0.618l-0.145,-25.72c0,-0.025 0.007,-0.049 0.007,-0.073c0.002,-0.065 0.012,-0.128 0.019,-0.193c0.01,-0.104 0.019,-0.209 0.043,-0.309c0.009,-0.042 0.025,-0.083 0.037,-0.125c0.034,-0.118 0.069,-0.235 0.119,-0.345c0.013,-0.031 0.032,-0.059 0.047,-0.09c0.059,-0.117 0.122,-0.233 0.198,-0.341c0.019,-0.026 0.041,-0.049 0.061,-0.075c0.084,-0.108 0.173,-0.212 0.272,-0.306c0.008,-0.007 0.012,-0.014 0.019,-0.022l56.865,-52.343l-1.397,-1.519l14.314,-13.168l1.394,1.514l10.882,-10.018Zm-27.28,99.85l-2.461,1.705l-1.373,0.857c0.143,-0.615 0.483,-1.16 0.968,-1.606c0.792,-0.728 1.812,-1.036 2.807,-0.962l0.059,0.006Zm0.919,-124.425l9.22,1.561l14.788,13.541c0.932,0.854 1.073,2.24 0.399,3.262c-0.135,0.367 -0.345,0.712 -0.652,0.994l-52.193,48.068l0.995,1.082l-14.314,13.169l-0.988,-1.074l-19.652,18.098l-0.029,24.945l-4.268,-3.06l-0.805,-0.634l0.026,-22.407c0.001,-0.898 0.468,-1.68 1.17,-2.132c0.032,-0.032 0.057,-0.071 0.091,-0.102l20.029,-18.445l-1.789,-1.945l14.314,-13.168l1.782,1.936l50.568,-46.571l-18.692,-17.118Zm-25.344,6.341l-0.393,0.443c-1.52,1.398 -3.885,1.299 -5.283,-0.219c-1.396,-1.52 -1.299,-3.885 0.221,-5.283c1.409,-1.296 3.536,-1.288 5.013,-0.018l16.659,0c0.635,0.019 1.141,0.223 1.551,0.543c0.155,0.089 0.302,0.194 0.439,0.32l15.338,14.046c1.033,0.947 1.105,2.553 0.157,3.585c-0.255,0.279 -0.557,0.485 -0.884,0.623l-80.435,73.809l-0.014,12.551c-0.001,0.278 -0.057,0.542 -0.141,0.793c0.125,0.104 0.253,0.203 0.366,0.326c1.398,1.519 1.299,3.883 -0.22,5.281c-0.52,0.479 -1.14,0.782 -1.805,0.85l-2.413,-2.105l-1.994,-1.874c0.059,-0.893 0.457,-1.734 1.151,-2.373c0.038,-0.035 0.083,-0.059 0.123,-0.091c-0.088,-0.257 -0.145,-0.529 -0.144,-0.815l0.016,-13.508c0,-0.092 0.017,-0.178 0.026,-0.268c0.002,-0.026 0.007,-0.052 0.009,-0.079c0.009,-0.067 0.013,-0.134 0.027,-0.199c0.083,-0.555 0.338,-1.088 0.784,-1.499l79.809,-73.235l-3.443,-3.154l-15.974,14.64c-0.486,0.446 -1.102,0.666 -1.714,0.666c-0.271,0 -0.536,-0.055 -0.794,-0.14c-0.566,-0.058 -1.115,-0.292 -1.545,-0.728l-22.649,-22.888l-23.594,0l-13.411,12.211l0.066,14.703c0.002,0.713 -0.295,1.396 -0.82,1.879l-7.918,7.284l0.026,-6.921l3.63,-3.34l-0.066,-14.71c-0.004,-0.719 0.298,-1.405 0.829,-1.888l14.504,-13.206c0.087,-0.079 0.183,-0.142 0.278,-0.207c0.465,-0.535 1.143,-0.881 1.91,-0.882l25.743,0c0.94,0.001 1.75,0.517 2.189,1.275c0.022,0.021 0.047,0.034 0.068,0.056l21.419,21.644l14.063,-12.891l-5.467,-5.007l-15.293,0Zm-63.877,65.706l7.999,-7.36l-1.389,-1.509l14.314,-13.169l1.389,1.51l21.56,-19.835c0.495,-0.456 1.152,-0.69 1.823,-0.668c0.673,0.029 1.308,0.322 1.764,0.818l7.968,8.662c0.948,1.031 0.882,2.636 -0.149,3.586c-0.138,0.126 -0.286,0.232 -0.442,0.322c-0.007,0.008 -0.013,0.016 -0.02,0.024l-47.672,43.858l-0.021,18.906c-1.989,-2.023 -3.823,-4.195 -5.07,-6.554l0.016,-13.471c0.001,-0.708 0.298,-1.384 0.82,-1.865l47.044,-43.28l-4.492,-4.883l-19.692,18.116l1.389,1.51l-14.314,13.168l-1.389,-1.509l-11.38,10.469l-0.056,-6.846Zm0.014,-17.865l15.801,-14.538l-0.04,-17.173c-0.002,-0.712 0.296,-1.392 0.82,-1.874l7.569,-6.964c0.472,-0.433 1.129,-0.668 1.729,-0.671l17.553,0.069c0.686,0.002 1.341,0.282 1.817,0.777l16.002,16.593c1.036,-0.023 2.076,0.367 2.834,1.19c1.397,1.52 1.299,3.884 -0.22,5.281c-1.52,1.398 -3.884,1.299 -5.282,-0.22c-0.707,-0.768 -1.028,-1.752 -0.979,-2.72l-15.264,-15.829l-15.485,-0.06l-6.015,5.534l0.027,11.405l11.122,-10.233c0.005,-1.001 0.401,-1.997 1.196,-2.729c1.52,-1.397 3.884,-1.299 5.282,0.221c1.397,1.518 1.299,3.883 -0.221,5.28c-0.795,0.733 -1.821,1.044 -2.82,0.965l-15.625,14.376l-0.001,0l-19.806,18.226l0.006,-6.906Zm13.985,-52.059l-10.524,9.683l-1.321,-1.437l-1.999,1.838l0.029,-7.746l13.815,-2.338Zm101.583,2.338l0,3.65l-5.12,-4.516l5.12,0.866Z" style="fill:#bbb;"/></g></svg>