<svg id="attention" xmlns="http://www.w3.org/2000/svg" width="33" height="32.963" viewBox="0 0 33 32.963">
  <path id="Path_30" data-name="Path 30" d="M32.69-270.2a2.932,2.932,0,0,1-.127,2.853,2.931,2.931,0,0,1-2.494,1.391H2.932a2.931,2.931,0,0,1-2.494-1.391A2.932,2.932,0,0,1,.31-270.2l13.568-27.1a2.931,2.931,0,0,1,2.621-1.619,2.931,2.931,0,0,1,2.621,1.619Zm-18.052-1.255h3.723v-3.723H14.638Zm2.915-5.008.954-9.858v-4.558H14.479v4.558l.967,9.858Z" transform="translate(0 298.915)" fill="#fff" fill-rule="evenodd"/>
</svg>
