<?xml version="1.0" encoding="UTF-8" standalone="no"?>
<!DOCTYPE svg PUBLIC "-//W3C//DTD SVG 1.1//EN" "http://www.w3.org/Graphics/SVG/1.1/DTD/svg11.dtd">
<svg width="100%" height="100%" viewBox="0 0 500 500" version="1.1" xmlns="http://www.w3.org/2000/svg" xmlns:xlink="http://www.w3.org/1999/xlink" xml:space="preserve" xmlns:serif="http://www.serif.com/" style="fill-rule:evenodd;clip-rule:evenodd;stroke-linejoin:round;stroke-miterlimit:1.41421;">
    <g transform="matrix(1,0,0,1,-3800,-2582)">
        <g id="icon-risk" transform="matrix(0.328474,0,0,0.287282,3729.62,2565.59)">
            <rect x="214.268" y="57.119" width="1522.19" height="1740.45" style="fill:none;"/>
            <g transform="matrix(86.6344,0,0,99.0418,-18498.7,-33794.1)">
                <path d="M233.307,352.699C232.133,357.406 227.366,360.27 222.659,359.097C217.953,357.923 215.089,353.155 216.263,348.449C217.436,343.741 222.203,340.876 226.909,342.05C231.616,343.223 234.481,347.992 233.307,352.699Z" style="fill:rgb(192,189,189);"/>
            </g>
            <g transform="matrix(4.25129,0,0,4.86085,-20017.9,-12769.9)">
                <g transform="matrix(0.250161,0.433291,-0.417566,0.241082,4898.79,-61.1696)">
                    <path d="M5118.14,2685.65L5118.14,2775.27C5103.45,2765.97 5092.19,2751.36 5091.18,2735.02C5090,2716.15 5102.66,2698.86 5118.14,2685.65Z" style="fill:rgb(85,122,88);"/>
                    <g transform="matrix(1,0,0,1,92.6979,0)">
                        <path d="M5025.44,2685.65L5025.8,2685.96C5041.12,2699.13 5053.57,2716.3 5052.4,2735.02C5051.39,2751.3 5040.22,2765.86 5025.61,2775.16L5025.44,2775.27L5025.44,2685.65Z" style="fill:rgb(0,120,107);"/>
                    </g>
                </g>
                <g transform="matrix(1,0,0,1,248,0)">
                    <path d="M4674.48,2931.59L4648.47,2916.55C4645.36,2919.7 4641.04,2921.65 4636.26,2921.65C4626.78,2921.65 4619.08,2913.95 4619.08,2904.47C4619.08,2896.87 4624.02,2890.42 4630.86,2888.15L4630.86,2857.2C4624.02,2854.94 4619.08,2848.49 4619.08,2840.89C4619.08,2831.41 4626.78,2823.71 4636.26,2823.71C4640.77,2823.71 4644.88,2825.45 4647.95,2828.3L4674.59,2812.89C4674.24,2811.52 4674.05,2810.08 4674.05,2808.6C4674.05,2799.12 4681.75,2791.42 4691.23,2791.42C4700.71,2791.42 4708.41,2799.12 4708.41,2808.6C4708.41,2810.04 4708.24,2811.44 4707.9,2812.78L4734.88,2828.38C4737.96,2825.48 4742.1,2823.71 4746.65,2823.71C4756.14,2823.71 4763.84,2831.41 4763.84,2840.89C4763.84,2848.57 4758.79,2855.08 4751.83,2857.28L4751.83,2888.08C4758.79,2890.28 4763.84,2896.79 4763.84,2904.47C4763.84,2913.95 4756.14,2921.65 4746.65,2921.65C4741.84,2921.65 4737.48,2919.66 4734.36,2916.46L4708.01,2931.7C4708.27,2932.9 4708.41,2934.14 4708.41,2935.42C4708.41,2944.91 4700.71,2952.6 4691.23,2952.6C4681.75,2952.6 4674.05,2944.91 4674.05,2935.42C4674.05,2934.1 4674.2,2932.82 4674.48,2931.59ZM4691.23,2926.99C4695.89,2926.99 4699.67,2930.77 4699.67,2935.42C4699.67,2940.08 4695.89,2943.86 4691.23,2943.86C4686.58,2943.86 4682.8,2940.08 4682.8,2935.42C4682.8,2930.77 4686.58,2926.99 4691.23,2926.99ZM4702.31,2922.29L4729.6,2906.51C4729.52,2905.84 4729.47,2905.16 4729.47,2904.47C4729.47,2903.25 4729.6,2902.07 4729.84,2900.92L4702.45,2885.09C4700.82,2886.49 4698.92,2887.6 4696.85,2888.32L4696.85,2919.18C4698.86,2919.88 4700.71,2920.94 4702.31,2922.29ZM4685.85,2919.1L4685.85,2888.39C4683.72,2887.69 4681.77,2886.59 4680.11,2885.16L4653.05,2900.81C4653.31,2901.99 4653.44,2903.21 4653.44,2904.47C4653.44,2905.2 4653.4,2905.93 4653.31,2906.64L4680.25,2922.21C4681.89,2920.85 4683.78,2919.79 4685.85,2919.1ZM4636.26,2896.03C4640.92,2896.03 4644.7,2899.81 4644.7,2904.47C4644.7,2909.12 4640.92,2912.9 4636.26,2912.9C4631.61,2912.9 4627.83,2909.12 4627.83,2904.47C4627.83,2899.81 4631.61,2896.03 4636.26,2896.03ZM4746.65,2896.03C4751.31,2896.03 4755.09,2899.81 4755.09,2904.47C4755.09,2909.12 4751.31,2912.9 4746.65,2912.9C4742,2912.9 4738.22,2909.12 4738.22,2904.47C4738.22,2899.81 4742,2896.03 4746.65,2896.03ZM4734.89,2853.4L4708.12,2868.88C4708.31,2869.92 4708.41,2870.99 4708.41,2872.08C4708.41,2873.29 4708.29,2874.47 4708.05,2875.62L4735.44,2891.45C4737.01,2890.1 4738.84,2889.02 4740.83,2888.3L4740.83,2857.06C4738.6,2856.25 4736.58,2855 4734.89,2853.4ZM4647.94,2853.48C4646.21,2855.09 4644.14,2856.35 4641.86,2857.14L4641.86,2888.22C4643.9,2888.92 4645.77,2890 4647.39,2891.38L4674.44,2875.73C4674.19,2874.55 4674.05,2873.33 4674.05,2872.08C4674.05,2870.94 4674.16,2869.84 4674.37,2868.76L4647.94,2853.48ZM4691.23,2863.64C4695.89,2863.64 4699.67,2867.42 4699.67,2872.08C4699.67,2876.73 4695.89,2880.51 4691.23,2880.51C4686.58,2880.51 4682.8,2876.73 4682.8,2872.08C4682.8,2867.42 4686.58,2863.64 4691.23,2863.64ZM4701.94,2822.03C4700.43,2823.24 4698.71,2824.2 4696.85,2824.84L4696.85,2855.83C4699.04,2856.59 4701.03,2857.78 4702.72,2859.3L4729.7,2843.7C4729.55,2842.78 4729.47,2841.85 4729.47,2840.89C4729.47,2839.94 4729.55,2839 4729.7,2838.09L4701.94,2822.03ZM4653.2,2837.97C4653.36,2838.92 4653.44,2839.89 4653.44,2840.89C4653.44,2841.89 4653.36,2842.86 4653.19,2843.81L4679.84,2859.22C4681.57,2857.69 4683.6,2856.5 4685.85,2855.76L4685.85,2824.92C4683.93,2824.29 4682.17,2823.33 4680.62,2822.11L4653.2,2837.97ZM4636.26,2832.45C4640.92,2832.45 4644.7,2836.24 4644.7,2840.89C4644.7,2845.54 4640.92,2849.32 4636.26,2849.32C4631.61,2849.32 4627.83,2845.54 4627.83,2840.89C4627.83,2836.24 4631.61,2832.45 4636.26,2832.45ZM4739.83,2845.84C4741.36,2847.95 4743.85,2849.32 4746.65,2849.32C4751.31,2849.32 4755.09,2845.54 4755.09,2840.89C4755.09,2836.24 4751.31,2832.45 4746.65,2832.45C4743.85,2832.45 4741.36,2833.83 4739.83,2835.94C4739.58,2836.63 4739.21,2837.3 4738.77,2837.91C4738.41,2838.83 4738.22,2839.84 4738.22,2840.89C4738.22,2841.94 4738.41,2842.95 4738.77,2843.88C4739.21,2844.48 4739.57,2845.15 4739.83,2845.84ZM4692.03,2817C4696.31,2816.59 4699.67,2812.99 4699.67,2808.6C4699.67,2803.95 4695.89,2800.17 4691.23,2800.17C4686.58,2800.17 4682.8,2803.95 4682.8,2808.6C4682.8,2813.03 4686.22,2816.67 4690.57,2817.01C4690.86,2816.98 4691.17,2816.96 4691.5,2816.96C4691.6,2816.97 4691.7,2816.97 4691.8,2816.97C4691.88,2816.98 4691.96,2816.99 4692.03,2817Z" style="fill:rgb(8,6,5);"/>
                </g>
                <g transform="matrix(0.5,0.866025,-1.57619,0.910015,7014.7,-4030.97)">
                    <path d="M4946,2827.16C4946,2826.59 4945.59,2826.04 4944.85,2825.63C4944.11,2825.23 4943.11,2825 4942.06,2825C4941.05,2825 4939.95,2825 4938.94,2825C4937.89,2825 4936.89,2825.23 4936.15,2825.63C4935.41,2826.04 4935,2826.59 4935,2827.16C4935,2831.95 4935,2843 4935,2843L4946,2843C4946,2843 4946,2831.95 4946,2827.16Z" style="fill:rgb(8,6,5);"/>
                </g>
                <path d="M4939.46,2772L4939.46,2683L4913,2708L4908,2735L4917,2763.42L4939.46,2780L4939.46,2772" style="fill:rgb(85,122,88);"/>
                <g transform="matrix(-1,0,0,1,9878.92,0)">
                    <path d="M4939.46,2772L4939.46,2683L4913,2708L4908,2735L4917,2763.42L4939.46,2780L4939.46,2772" style="fill:rgb(0,120,107);"/>
                </g>
                <path d="M4933.96,2783.63C4915.02,2771.62 4900.36,2751.69 4902.63,2727.8C4904.71,2705.88 4921.11,2686.34 4939.46,2672.8L4939.89,2673.12C4958.07,2686.65 4974.22,2706.05 4976.29,2727.8C4978.56,2751.69 4963.9,2771.62 4944.96,2783.63L4944.96,2796.42L4933.96,2796.42L4933.96,2783.63ZM4944.96,2771.41C4956.88,2762.17 4965.53,2749.25 4966.42,2735.02C4967.59,2716.3 4955.14,2699.13 4939.82,2685.96L4939.46,2685.65C4923.98,2698.86 4911.32,2716.15 4912.5,2735.02C4913.38,2749.25 4922.04,2762.17 4933.96,2771.41L4933.96,2735.92C4933.96,2732.88 4936.42,2730.42 4939.46,2730.42L4939.46,2730.42C4942.5,2730.42 4944.96,2732.88 4944.96,2735.92L4944.96,2771.41Z" style="fill:rgb(8,6,5);fill-rule:nonzero;"/>
                <path d="M5013.73,2828.74C5010.74,2823.89 5011.96,2812.39 5018.14,2805.23C5023.28,2799.27 5031.2,2796.14 5039.29,2796.08C5039.43,2796.08 5039.56,2796.08 5039.7,2796.08C5047.19,2796.14 5054.67,2798.19 5061.23,2801.52C5061.23,2801.52 5061.5,2801.7 5061.88,2802.03L5051.03,2808.05C5042.41,2805 5032.82,2804.38 5026.28,2811.14C5023.05,2814.48 5021.66,2819.39 5022.16,2824.06L5013.73,2828.74Z" style="fill-rule:nonzero;"/>
                <g transform="matrix(0.523206,-0.852206,-0.852206,-0.523206,4801.35,8581.77)">
                    <path d="M5013.73,2828.74C5010.74,2823.89 5011.96,2812.39 5018.14,2805.23C5023.28,2799.27 5031.2,2796.14 5039.29,2796.08C5039.43,2796.08 5039.56,2796.08 5039.7,2796.08C5047.19,2796.14 5054.67,2798.19 5061.23,2801.52C5061.23,2801.52 5061.5,2801.7 5061.88,2802.03L5051.03,2808.05C5042.41,2805 5032.82,2804.38 5026.28,2811.14C5023.05,2814.48 5021.66,2819.39 5022.16,2824.06L5013.73,2828.74Z" style="fill-rule:nonzero;"/>
                </g>
            </g>
        </g>
    </g>
</svg>
