<?xml version="1.0" encoding="UTF-8" standalone="no"?>
<!DOCTYPE svg PUBLIC "-//W3C//DTD SVG 1.1//EN" "http://www.w3.org/Graphics/SVG/1.1/DTD/svg11.dtd">
<svg width="100%" height="100%" viewBox="0 0 500 500" version="1.1" xmlns="http://www.w3.org/2000/svg" xmlns:xlink="http://www.w3.org/1999/xlink" xml:space="preserve" xmlns:serif="http://www.serif.com/" style="fill-rule:evenodd;clip-rule:evenodd;stroke-linejoin:round;stroke-miterlimit:1.41421;">
    <g transform="matrix(1,0,0,1,-5040,-2582)">
        <g id="icon-rif" transform="matrix(0.328474,0,0,0.287282,4969.62,2565.59)">
            <rect x="214.268" y="57.119" width="1522.19" height="1740.45" style="fill:none;"/>
            <g transform="matrix(86.6344,0,0,99.0418,-18498.7,-33794.1)">
                <path d="M233.307,352.699C232.133,357.406 227.366,360.27 222.659,359.097C217.953,357.923 215.089,353.155 216.263,348.449C217.436,343.741 222.203,340.876 226.909,342.05C231.616,343.223 234.481,347.992 233.307,352.699Z" style="fill:rgb(25,43,53);"/>
            </g>
            <g transform="matrix(6.86581,0,0,7.85026,-32297.8,-21053.7)">
                <path d="M4863.58,2873.86L4851.58,2873.86L4851.58,2861.86L4863.58,2861.86L4863.58,2873.86ZM4842.41,2862.76L4830.41,2862.76L4830.41,2813.76L4842.41,2813.76L4842.41,2862.76ZM4863.58,2854.35L4851.58,2854.35L4851.58,2842.35L4863.58,2842.35L4863.58,2854.35ZM4822.9,2853.76L4810.9,2853.76L4810.9,2804.76L4822.9,2804.76L4822.9,2853.76ZM4900.58,2834.84L4851.58,2834.84L4851.58,2822.84L4900.58,2822.84L4900.58,2834.84ZM4803.39,2816.76L4791.39,2816.76L4791.39,2804.76L4803.39,2804.76L4803.39,2816.76ZM4783.88,2816.76L4771.88,2816.76L4771.88,2804.76L4783.88,2804.76L4783.88,2816.76ZM4909.58,2815.33L4860.58,2815.33L4860.58,2803.33L4909.58,2803.33L4909.58,2815.33ZM4831.83,2796.76L4782.83,2796.76L4782.83,2784.76L4831.83,2784.76L4831.83,2796.76ZM4901.02,2795.32L4889.02,2795.32L4889.02,2783.32L4901.02,2783.32L4901.02,2795.32ZM4920.53,2795.32L4908.53,2795.32L4908.53,2783.32L4920.53,2783.32L4920.53,2795.32ZM4881.51,2795.32L4869.51,2795.32L4869.51,2746.32L4881.51,2746.32L4881.51,2795.32ZM4862,2786.32L4850,2786.32L4850,2737.32L4862,2737.32L4862,2786.32ZM4840.83,2777.25L4791.83,2777.25L4791.83,2765.25L4840.83,2765.25L4840.83,2777.25ZM4840.83,2757.74L4828.83,2757.74L4828.83,2745.74L4840.83,2745.74L4840.83,2757.74ZM4840.83,2738.22L4828.83,2738.22L4828.83,2726.22L4840.83,2726.22L4840.83,2738.22Z" style="fill:rgb(63,153,212);"/>
            </g>
        </g>
    </g>
</svg>
