<?xml version="1.0" encoding="UTF-8" standalone="no"?>
<!DOCTYPE svg PUBLIC "-//W3C//DTD SVG 1.1//EN" "http://www.w3.org/Graphics/SVG/1.1/DTD/svg11.dtd">
<svg width="100%" height="100%" viewBox="0 0 500 500" version="1.1" xmlns="http://www.w3.org/2000/svg" xmlns:xlink="http://www.w3.org/1999/xlink" xml:space="preserve" xmlns:serif="http://www.serif.com/" style="fill-rule:evenodd;clip-rule:evenodd;stroke-linejoin:round;stroke-miterlimit:1.41421;">
    <g transform="matrix(1,0,0,1,-2550,-2582)">
        <g id="icon-nem" transform="matrix(0.328474,0,0,0.287282,2479.62,2565.59)">
            <rect x="214.268" y="57.119" width="1522.19" height="1740.45" style="fill:none;"/>
            <g transform="matrix(86.6344,0,0,99.0418,-18498.7,-33794.1)">
                <path d="M233.307,352.699C232.133,357.406 227.366,360.27 222.659,359.097C217.953,357.923 215.089,353.155 216.263,348.449C217.436,343.741 222.203,340.876 226.909,342.05C231.616,343.223 234.481,347.992 233.307,352.699Z"/>
            </g>
            <g transform="matrix(2.28777,0,0,2.62557,-8044.56,-6410.8)">
                <path d="M3942.3,3081.79C3934.61,3077.45 3810.56,3006 3744.35,2873.05C3685.98,2755.83 3691.91,2647 3691.91,2647C3691.91,2647 3752.75,2613.85 3813.41,2597.21C3870.68,2581.5 3942.68,2582 3942.68,2582L3942.89,2582C3947.16,2581.99 4016.46,2581.99 4071.95,2597.21C4132.61,2613.85 4193.44,2647 4193.44,2647C4193.44,2647 4199.37,2755.83 4141,2873.05C4072.66,3010.29 3942.68,3082 3942.68,3082L3942.3,3081.79Z"/>
                <g transform="matrix(0.99783,0,0,0.993443,8.05367,17.0522)">
                    <path d="M3718.52,2737.53C3710.67,2691.29 3712.36,2660.12 3712.36,2660.12C3712.36,2660.12 3768.09,2629.76 3823.64,2614.52C3876.1,2600.13 3942.04,2600.59 3942.04,2600.59L3942.23,2600.59C3945.23,2600.58 3983.1,2600.58 4023.49,2606.83C3971.58,2623.36 3933.45,2670.92 3930.96,2727.68C3930.96,2729.39 3930.92,2731.1 3930.84,2732.82L3930.84,2733L3930.83,2733C3930,2749.29 3925.41,2765.63 3916.7,2780.72C3887.32,2831.61 3822.15,2849.07 3771.26,2819.69C3740.28,2801.8 3721.69,2770.65 3718.52,2737.53Z" style="fill:rgb(243,175,20);"/>
                    <path d="M4009.29,2823.65C4008.1,2823.02 4006.91,2822.37 4005.74,2821.69C3954.85,2792.31 3937.39,2727.14 3966.77,2676.25C3992.02,2632.51 4043.72,2613.47 4090.06,2627.64L4090.12,2627.54C4141.84,2645.08 4173.14,2665.5 4173.14,2665.5C4173.14,2665.5 4171.58,2728.94 4157,2784.67C4143.23,2837.3 4109.86,2894.17 4109.86,2894.17L4109.77,2894.33C4108.28,2896.93 4089.34,2929.73 4063.73,2961.59C4075.05,2909.85 4054.45,2854.73 4009.29,2823.65Z" style="fill:rgb(55,184,123);"/>
                    <path d="M4007.65,3011.99C3970.32,3043.34 3941.19,3058.11 3941.19,3058.11C3941.19,3058.11 3887.04,3025.03 3846.06,2984.54C3807.37,2946.3 3774.8,2888.97 3774.8,2888.97L3774.7,2888.8C3773.19,2886.21 3754.26,2853.41 3739.47,2815.31C3779.2,2851.5 3838.37,2860.98 3888.34,2836.06C3920.37,2817.09 3961.44,2815.47 3995.95,2835.39C4046.84,2864.78 4064.3,2929.94 4034.92,2980.83C4027.73,2993.28 4018.4,3003.74 4007.65,3011.99Z" style="fill:rgb(0,141,181);"/>
                </g>
            </g>
        </g>
    </g>
</svg>
