<?xml version="1.0" encoding="UTF-8" standalone="no"?><!DOCTYPE svg PUBLIC "-//W3C//DTD SVG 1.1//EN" "http://www.w3.org/Graphics/SVG/1.1/DTD/svg11.dtd"><svg width="100%" height="100%" viewBox="0 0 440 204" version="1.1" xmlns="http://www.w3.org/2000/svg" xmlns:xlink="http://www.w3.org/1999/xlink" xml:space="preserve" xmlns:serif="http://www.serif.com/" style="fill-rule:evenodd;clip-rule:evenodd;stroke-linejoin:round;stroke-miterlimit:1.41421;"><rect id="bktc_logo_color" x="0" y="0" width="440" height="204" style="fill:none;"/><clipPath id="_clip1"><rect x="0" y="0" width="440" height="204"/></clipPath><g clip-path="url(#_clip1)"><g><g id="Layer-1" serif:id="Layer 1"><path d="M203.973,3.687c0,-1.434 -0.72,-2.43 -1.901,-3.157c-0.248,-0.153 -0.468,-0.352 -0.703,-0.53l-198.7,0l-1.066,0c-0.652,0.311 -1.168,0.823 -1.603,1.459l0,199.911c0.088,0.103 0.195,0.194 0.261,0.309c0.764,1.327 1.763,2.294 3.419,2.294c65.558,-0.001 131.118,-0.006 196.677,0.027c1.706,0.001 3.642,-1.939 3.642,-3.634c-0.032,-65.56 -0.028,-131.119 -0.026,-196.679" style="fill:#2b4d9e;"/><path d="M256.201,36.195c0,-1.365 -0.111,-2.658 -0.337,-3.881c-0.222,-1.223 -0.585,-2.297 -1.093,-3.226c-0.508,-0.929 -1.188,-1.664 -2.042,-2.204c-0.857,-0.54 -1.908,-0.81 -3.156,-0.81c-1.515,0 -2.75,0.37 -3.712,1.108c-0.962,0.74 -1.702,1.707 -2.217,2.9l0,12.709c0.515,1.194 1.258,2.171 2.229,2.929c0.974,0.758 2.224,1.136 3.754,1.136c1.213,0 2.238,-0.26 3.075,-0.782c0.836,-0.52 1.512,-1.236 2.03,-2.145c0.518,-0.911 0.891,-1.977 1.123,-3.199c0.23,-1.223 0.346,-2.535 0.346,-3.938l0,-0.597Zm6.387,0.597c0,2.274 -0.245,4.364 -0.734,6.27c-0.493,1.903 -1.216,3.549 -2.178,4.932c-0.962,1.384 -2.148,2.464 -3.555,3.241c-1.409,0.777 -3.028,1.165 -4.863,1.165c-1.762,0 -3.291,-0.33 -4.58,-0.994c-1.293,-0.664 -2.403,-1.621 -3.328,-2.872l-0.295,3.298l-5.798,0l0,-43.67l6.387,0l0,15.836c0.907,-1.118 1.976,-1.981 3.204,-2.587c1.231,-0.606 2.683,-0.909 4.356,-0.909c1.852,0 3.487,0.383 4.904,1.151c1.417,0.767 2.606,1.843 3.568,3.226c0.962,1.384 1.685,3.038 2.178,4.962c0.489,1.923 0.734,4.041 0.734,6.354l0,0.597Z" style="fill:#f6e806;fill-rule:nonzero;"/><path d="M278.052,46.914c0.82,0 1.589,-0.109 2.31,-0.327c0.722,-0.218 1.372,-0.503 1.952,-0.854c0.577,-0.35 1.077,-0.753 1.494,-1.208c0.42,-0.454 0.756,-0.919 1.004,-1.392l0,-5.772l-4.065,0c-2.597,0 -4.519,0.445 -5.755,1.336c-1.239,0.89 -1.857,2.161 -1.857,3.81c0,0.626 0.097,1.208 0.293,1.749c0.198,0.54 0.493,1.004 0.896,1.393c0.403,0.388 0.91,0.696 1.522,0.924c0.614,0.227 1.35,0.341 2.206,0.341m7.695,4.918c-0.179,-0.379 -0.328,-0.825 -0.439,-1.337c-0.118,-0.511 -0.222,-1.06 -0.309,-1.649c-0.446,0.494 -0.951,0.954 -1.511,1.379c-0.559,0.427 -1.183,0.801 -1.867,1.125c-0.688,0.321 -1.427,0.577 -2.221,0.767c-0.793,0.189 -1.643,0.283 -2.553,0.283c-1.53,0 -2.916,-0.231 -4.154,-0.695c-1.24,-0.465 -2.298,-1.11 -3.178,-1.934c-0.883,-0.824 -1.565,-1.796 -2.046,-2.915c-0.481,-1.117 -0.722,-2.331 -0.722,-3.639c0,-3.298 1.155,-5.818 3.462,-7.562c2.308,-1.744 5.613,-2.615 9.926,-2.615l4.677,0l0,-2.019c0,-1.631 -0.518,-2.924 -1.552,-3.881c-1.033,-0.958 -2.49,-1.436 -4.38,-1.436c-0.857,0 -1.603,0.109 -2.247,0.327c-0.641,0.218 -1.172,0.516 -1.603,0.896c-0.425,0.379 -0.746,0.825 -0.963,1.336c-0.212,0.512 -0.319,1.061 -0.319,1.65l-6.386,0c0,-1.195 0.264,-2.356 0.789,-3.484c0.523,-1.128 1.298,-2.132 2.312,-3.013c1.016,-0.881 2.258,-1.588 3.726,-2.119c1.473,-0.53 3.148,-0.795 5.039,-0.795c1.71,0 3.296,0.222 4.755,0.667c1.458,0.446 2.727,1.11 3.794,1.991c1.071,0.881 1.905,1.98 2.511,3.297c0.608,1.318 0.909,2.858 0.909,4.62l0,13.704c0,1.346 0.095,2.573 0.28,3.681c0.188,1.11 0.461,2.072 0.817,2.888l0,0.482l-6.547,0Z" style="fill:#fafbfc;fill-rule:nonzero;"/><path d="M305.919,21.07l0.404,4.264c1.049,-1.535 2.317,-2.724 3.805,-3.567c1.488,-0.844 3.14,-1.266 4.957,-1.266c1.478,0 2.828,0.227 4.051,0.683c1.216,0.454 2.268,1.165 3.151,2.131c0.882,0.967 1.567,2.219 2.058,3.754c0.489,1.535 0.732,3.383 0.732,5.544l0,19.219l-6.384,0l0,-19.106c0,-1.27 -0.138,-2.331 -0.415,-3.184c-0.276,-0.852 -0.669,-1.535 -1.175,-2.047c-0.509,-0.512 -1.126,-0.876 -1.857,-1.095c-0.73,-0.218 -1.558,-0.327 -2.486,-0.327c-1.406,0 -2.632,0.332 -3.673,0.996c-1.044,0.663 -1.884,1.563 -2.526,2.701l0,22.062l-6.414,0l0,-30.762l5.772,0Z" style="fill:#fafbfc;fill-rule:nonzero;"/><path d="M342.878,38.385l-3.476,3.525l0,9.922l-6.387,0l0,-43.67l6.387,0l0,25.73l2.702,-3.212l8.497,-9.61l7.692,0l-11.17,12.794l12.881,17.968l-7.962,0l-9.164,-13.447Z" style="fill:#fafbfc;fill-rule:nonzero;"/><path d="M249.976,83.493l0,7.449l10.928,0l0,5.061l-10.928,0l0,14.755c0,1.157 0.128,2.114 0.388,2.872c0.256,0.757 0.618,1.365 1.08,1.821c0.462,0.454 1.008,0.771 1.632,0.952c0.624,0.179 1.306,0.269 2.057,0.269c0.554,0 1.125,-0.032 1.721,-0.098c0.599,-0.066 1.178,-0.144 1.738,-0.227c0.562,-0.087 1.08,-0.182 1.552,-0.287c0.47,-0.103 0.867,-0.203 1.189,-0.297l0.718,4.69c-0.461,0.285 -1.019,0.547 -1.667,0.783c-0.65,0.237 -1.362,0.431 -2.126,0.583c-0.766,0.152 -1.563,0.27 -2.394,0.355c-0.826,0.085 -1.64,0.127 -2.443,0.127c-1.44,0 -2.763,-0.212 -3.967,-0.639c-1.201,-0.426 -2.235,-1.089 -3.099,-1.99c-0.865,-0.9 -1.543,-2.056 -2.031,-3.468c-0.491,-1.412 -0.735,-3.105 -0.735,-5.076l0,-15.125l-7.054,0l0,-5.061l7.054,0l0,-7.449l6.387,0Z" style="fill:#f6e806;fill-rule:nonzero;"/><path d="M250.544,186.743c0.784,0 1.546,-0.132 2.286,-0.399c0.737,-0.265 1.395,-0.635 1.964,-1.108c0.571,-0.473 1.019,-1.032 1.35,-1.677c0.329,-0.646 0.483,-1.345 0.467,-2.104l6.039,0c0.016,1.479 -0.298,2.866 -0.95,4.165c-0.65,1.298 -1.531,2.43 -2.644,3.397c-1.115,0.967 -2.403,1.735 -3.862,2.303c-1.461,0.568 -2.994,0.852 -4.596,0.852c-2.23,0 -4.179,-0.405 -5.852,-1.221c-1.675,-0.816 -3.074,-1.929 -4.193,-3.341c-1.124,-1.412 -1.964,-3.052 -2.527,-4.918c-0.564,-1.868 -0.841,-3.853 -0.841,-5.956l0,-1.024c0,-2.104 0.277,-4.094 0.841,-5.971c0.563,-1.876 1.403,-3.516 2.527,-4.919c1.119,-1.402 2.518,-2.515 4.193,-3.34c1.673,-0.825 3.619,-1.237 5.826,-1.237c1.745,0 3.362,0.284 4.849,0.853c1.489,0.569 2.771,1.364 3.848,2.388c1.078,1.024 1.914,2.247 2.515,3.668c0.594,1.421 0.882,2.976 0.866,4.663l-6.039,0c0.016,-0.835 -0.121,-1.621 -0.415,-2.359c-0.293,-0.741 -0.716,-1.385 -1.269,-1.934c-0.551,-0.55 -1.202,-0.986 -1.949,-1.309c-0.75,-0.322 -1.57,-0.482 -2.46,-0.482c-1.336,0 -2.448,0.288 -3.341,0.866c-0.89,0.578 -1.603,1.336 -2.136,2.275c-0.536,0.939 -0.914,2.004 -1.136,3.199c-0.224,1.192 -0.334,2.407 -0.334,3.639l0,1.024c0,1.251 0.11,2.473 0.334,3.667c0.222,1.193 0.6,2.261 1.136,3.198c0.533,0.939 1.246,1.697 2.136,2.275c0.893,0.577 2.015,0.867 3.367,0.867" style="fill:#f6e806;fill-rule:nonzero;"/><path d="M283.938,160.246c0.519,0 1.035,0.019 1.553,0.056c0.517,0.038 1.011,0.095 1.481,0.17c0.471,0.076 0.905,0.157 1.298,0.242c0.39,0.086 0.719,0.185 0.989,0.299l-0.911,6.682c-1.959,-0.475 -3.891,-0.712 -5.797,-0.712c-2.14,0 -3.861,0.474 -5.17,1.422c-1.312,0.948 -2.279,2.265 -2.9,3.951l0,19.22l-6.387,0l0,-30.762l5.987,0l0.294,4.805c1.175,-1.668 2.566,-2.981 4.18,-3.938c1.613,-0.957 3.408,-1.435 5.383,-1.435" style="fill:#fff;fill-rule:nonzero;"/><path d="M308.389,179.265l1.095,3.697l8.123,-22.148l7.079,0l-14.641,35.425c-0.321,0.777 -0.738,1.617 -1.255,2.516c-0.518,0.899 -1.152,1.739 -1.911,2.516c-0.756,0.776 -1.659,1.426 -2.711,1.948c-1.052,0.52 -2.282,0.781 -3.689,0.781c-0.586,0 -1.178,-0.052 -1.775,-0.156c-0.599,-0.105 -1.128,-0.222 -1.59,-0.356l0.906,-5.288c0.124,0 0.297,0.006 0.507,0.015c0.216,0.01 0.438,0.023 0.668,0.043c0.232,0.017 0.449,0.032 0.657,0.043c0.204,0.008 0.368,0.014 0.495,0.014c0.623,0 1.179,-0.195 1.67,-0.584c0.488,-0.389 0.921,-0.833 1.294,-1.336c0.373,-0.502 0.682,-0.994 0.923,-1.478c0.241,-0.483 0.412,-0.811 0.521,-0.982l1.897,-3.809l-12.29,-29.312l7.053,0l6.974,18.451Z" style="fill:#fff;fill-rule:nonzero;"/><path d="M348.684,175.911c0,-1.384 -0.132,-2.686 -0.398,-3.91c-0.27,-1.222 -0.68,-2.293 -1.233,-3.213c-0.551,-0.92 -1.253,-1.643 -2.109,-2.175c-0.855,-0.53 -1.87,-0.795 -3.046,-0.795c-1.424,0 -2.602,0.323 -3.528,0.967c-0.925,0.643 -1.654,1.506 -2.19,2.586l0,13.761c0.536,1.061 1.26,1.924 2.177,2.587c0.918,0.665 2.117,0.997 3.594,0.997c1.176,0 2.191,-0.277 3.048,-0.826c0.852,-0.549 1.556,-1.289 2.097,-2.218c0.543,-0.928 0.945,-2.01 1.203,-3.241c0.259,-1.232 0.385,-2.539 0.385,-3.922l0,-0.598Zm6.387,0.598c0,2.235 -0.247,4.311 -0.747,6.226c-0.5,1.914 -1.229,3.568 -2.191,4.96c-0.961,1.393 -2.14,2.484 -3.54,3.271c-1.399,0.786 -3.006,1.178 -4.824,1.178c-1.641,0 -3.087,-0.283 -4.342,-0.853c-1.254,-0.567 -2.339,-1.383 -3.247,-2.444l0,14.557l-6.387,0l0,-42.59l5.88,0l0.266,3.099c0.928,-1.176 2.027,-2.081 3.301,-2.715c1.275,-0.635 2.757,-0.952 4.45,-0.952c1.834,0 3.46,0.378 4.877,1.137c1.415,0.757 2.605,1.824 3.566,3.197c0.962,1.375 1.691,3.024 2.191,4.948c0.5,1.923 0.747,4.052 0.747,6.383l0,0.598Z" style="fill:#fff;fill-rule:nonzero;"/><path d="M369.995,153.365l0,7.449l10.925,0l0,5.061l-10.925,0l0,14.755c0,1.156 0.129,2.113 0.387,2.871c0.256,0.759 0.618,1.365 1.081,1.821c0.463,0.454 1.003,0.772 1.632,0.952c0.621,0.179 1.307,0.27 2.055,0.27c0.552,0 1.127,-0.033 1.723,-0.099c0.6,-0.067 1.178,-0.143 1.739,-0.227c0.559,-0.087 1.079,-0.181 1.55,-0.286c0.469,-0.103 0.869,-0.203 1.189,-0.298l0.719,4.691c-0.462,0.285 -1.019,0.546 -1.67,0.782c-0.645,0.237 -1.358,0.431 -2.124,0.582c-0.767,0.153 -1.561,0.271 -2.392,0.356c-0.827,0.085 -1.64,0.127 -2.444,0.127c-1.443,0 -2.765,-0.212 -3.966,-0.639c-1.206,-0.426 -2.236,-1.089 -3.102,-1.99c-0.861,-0.9 -1.541,-2.055 -2.03,-3.468c-0.49,-1.413 -0.736,-3.104 -0.736,-5.075l0,-15.125l-7.052,0l0,-5.061l7.052,0l0,-7.449l6.389,0Z" style="fill:#fff;fill-rule:nonzero;"/><path d="M395.243,176.509c0,1.401 0.141,2.718 0.415,3.951c0.279,1.231 0.703,2.317 1.282,3.254c0.579,0.939 1.314,1.679 2.207,2.219c0.888,0.54 1.949,0.809 3.175,0.809c1.199,0 2.234,-0.269 3.117,-0.809c0.882,-0.54 1.609,-1.28 2.191,-2.219c0.578,-0.937 1.004,-2.023 1.285,-3.254c0.271,-1.233 0.411,-2.55 0.411,-3.951l0,-0.598c0,-1.364 -0.14,-2.663 -0.411,-3.896c-0.281,-1.232 -0.707,-2.311 -1.285,-3.24c-0.582,-0.929 -1.309,-1.669 -2.191,-2.217c-0.883,-0.551 -1.941,-0.826 -3.167,-0.826c-1.212,0 -2.263,0.275 -3.154,0.826c-0.891,0.548 -1.62,1.288 -2.189,2.217c-0.573,0.929 -0.992,2.008 -1.271,3.24c-0.274,1.233 -0.415,2.532 -0.415,3.896l0,0.598Zm-6.387,-0.598c0,-2.218 0.309,-4.284 0.926,-6.198c0.613,-1.915 1.492,-3.572 2.643,-4.976c1.153,-1.402 2.553,-2.502 4.208,-3.298c1.657,-0.796 3.534,-1.193 5.639,-1.193c2.12,0 4.012,0.397 5.677,1.193c1.668,0.796 3.074,1.896 4.222,3.298c1.15,1.404 2.026,3.061 2.634,4.976c0.605,1.914 0.906,3.98 0.906,6.198l0,0.598c0,2.235 -0.301,4.311 -0.906,6.225c-0.608,1.915 -1.484,3.569 -2.634,4.961c-1.148,1.393 -2.551,2.488 -4.208,3.285c-1.658,0.795 -3.536,1.193 -5.641,1.193c-2.12,0 -4.011,-0.398 -5.676,-1.193c-1.665,-0.797 -3.068,-1.892 -4.221,-3.285c-1.151,-1.392 -2.03,-3.046 -2.643,-4.961c-0.617,-1.914 -0.926,-3.99 -0.926,-6.225l0,-0.598Z" style="fill:#fff;fill-rule:nonzero;"/><path d="M68.93,36.097l0,-17.323c-2.006,0.737 -3.913,1.401 -5.791,2.142c-0.899,0.357 -1.296,0.321 -1.264,-0.822c0.059,-1.955 -0.005,-1.962 1.813,-2.652c2.429,-0.923 4.864,-1.831 7.293,-2.749c1.522,-0.574 1.588,-0.536 1.591,1.044c0.011,6.783 0.023,13.567 0.036,20.353c-0.021,1.735 -0.069,3.47 -0.056,5.204c0.004,0.66 -0.177,0.903 -0.884,0.924c-2.694,0.078 -2.689,0.106 -2.694,-2.61c-0.002,-1.17 -0.03,-2.341 -0.044,-3.511" style="fill:#9faa76;"/><path d="M37.488,24.348c-0.105,-0.761 -0.302,-1.499 -0.619,-2.199c-1.359,-2.994 -5.439,-3.66 -7.649,-1.246c-0.87,0.768 -1.187,1.826 -1.39,2.892c-0.714,3.738 -0.465,7.513 -0.346,11.279c0.044,1.464 0.258,2.911 0.855,4.263c0.744,1.686 1.967,2.752 3.889,2.837c2.773,0.12 4.525,-1.189 5.081,-4.143c0.849,-4.536 0.669,-9.116 0.179,-13.683m3.822,2.943c-0.017,2.471 -0.029,4.94 -0.064,7.41c-0.019,1.505 -0.295,2.971 -0.694,4.42c-1.344,4.887 -5.027,6.41 -9.481,5.871c-0.519,-0.062 -1.028,-0.21 -1.542,-0.317c-0.141,-0.036 -0.278,-0.072 -0.422,-0.106c-2.526,-0.933 -3.749,-2.935 -4.466,-5.383c-0.113,-0.396 -0.037,-0.895 -0.457,-1.182c-0.357,-2.345 -0.226,-4.711 -0.322,-7.067l0,-1.951c0.061,-1.86 0.118,-3.716 0.529,-5.545c0.735,-3.256 2.281,-5.869 5.78,-6.596c3.774,-0.781 7.187,-0.199 9.508,3.332c0.88,1.693 1.198,3.549 1.569,5.39c0.022,0.574 0.045,1.149 0.062,1.724" style="fill:#f5ed71;"/><path d="M173.498,36.097l0,-17.323c-2.005,0.737 -3.912,1.401 -5.791,2.142c-0.902,0.357 -1.296,0.321 -1.262,-0.822c0.056,-1.955 -0.004,-1.962 1.813,-2.652c2.427,-0.923 4.86,-1.831 7.292,-2.749c1.52,-0.574 1.584,-0.536 1.587,1.044c0.015,6.783 0.026,13.567 0.038,20.353c-0.021,1.735 -0.065,3.47 -0.053,5.204c0.004,0.66 -0.178,0.903 -0.886,0.924c-2.694,0.078 -2.688,0.106 -2.696,-2.61c-0.003,-1.17 -0.026,-2.341 -0.042,-3.511" style="fill:#f5ed71;"/><path d="M146.029,21.828c-0.106,-0.762 -0.303,-1.498 -0.622,-2.199c-1.356,-2.995 -5.439,-3.663 -7.65,-1.246c-0.87,0.768 -1.184,1.827 -1.391,2.891c-0.714,3.739 -0.461,7.514 -0.343,11.281c0.045,1.463 0.259,2.91 0.855,4.262c0.746,1.685 1.969,2.751 3.888,2.837c2.776,0.121 4.527,-1.189 5.081,-4.143c0.851,-4.537 0.672,-9.115 0.182,-13.683m3.822,2.944c-0.022,2.47 -0.03,4.94 -0.068,7.409c-0.022,1.503 -0.294,2.97 -0.691,4.421c-1.345,4.886 -5.026,6.41 -9.485,5.871c-0.519,-0.064 -1.026,-0.211 -1.541,-0.319c-0.137,-0.036 -0.28,-0.07 -0.418,-0.104c-2.527,-0.936 -3.753,-2.936 -4.466,-5.383c-0.118,-0.397 -0.037,-0.896 -0.458,-1.183c-0.356,-2.345 -0.226,-4.71 -0.324,-7.067c0,-0.652 0,-1.302 0.002,-1.953c0.058,-1.859 0.115,-3.714 0.529,-5.542c0.734,-3.258 2.281,-5.87 5.781,-6.597c3.771,-0.783 7.186,-0.202 9.507,3.332c0.881,1.693 1.198,3.548 1.57,5.388c0.022,0.577 0.04,1.151 0.062,1.727" style="fill:#f5ed71;"/><path d="M108.273,21.828c-0.106,-0.762 -0.3,-1.498 -0.62,-2.199c-1.356,-2.995 -5.438,-3.663 -7.651,-1.246c-0.868,0.768 -1.183,1.827 -1.39,2.891c-0.713,3.739 -0.46,7.514 -0.342,11.281c0.044,1.463 0.259,2.91 0.854,4.262c0.743,1.685 1.968,2.751 3.885,2.837c2.779,0.121 4.53,-1.189 5.085,-4.143c0.851,-4.537 0.668,-9.115 0.179,-13.683m3.824,2.944c-0.022,2.47 -0.03,4.94 -0.067,7.409c-0.023,1.503 -0.295,2.97 -0.694,4.421c-1.343,4.886 -5.024,6.41 -9.481,5.871c-0.521,-0.064 -1.029,-0.211 -1.543,-0.319c-0.137,-0.036 -0.28,-0.07 -0.42,-0.104c-2.524,-0.936 -3.75,-2.936 -4.464,-5.383c-0.118,-0.397 -0.039,-0.896 -0.46,-1.183c-0.356,-2.345 -0.224,-4.71 -0.322,-7.067l0,-1.953c0.061,-1.859 0.118,-3.714 0.529,-5.542c0.736,-3.258 2.281,-5.87 5.783,-6.597c3.769,-0.783 7.187,-0.202 9.507,3.332c0.881,1.693 1.199,3.548 1.569,5.388c0.021,0.577 0.041,1.151 0.063,1.727" style="fill:#f5ed71;"/><path d="M33.435,82.866l0,-17.321c-2.006,0.735 -3.913,1.4 -5.791,2.14c-0.902,0.357 -1.293,0.322 -1.261,-0.822c0.056,-1.954 -0.005,-1.962 1.813,-2.653c2.429,-0.921 4.86,-1.829 7.291,-2.747c1.521,-0.573 1.585,-0.536 1.587,1.043c0.015,6.785 0.027,13.57 0.039,20.351c-0.021,1.737 -0.068,3.472 -0.054,5.208c0.005,0.658 -0.179,0.902 -0.889,0.922c-2.691,0.079 -2.686,0.106 -2.693,-2.609c-0.003,-1.17 -0.027,-2.34 -0.042,-3.512" style="fill:#9faa76;"/><path d="M103.669,86.122l0,-17.323c-2.003,0.736 -3.91,1.4 -5.787,2.142c-0.903,0.357 -1.299,0.323 -1.265,-0.822c0.056,-1.955 -0.005,-1.963 1.811,-2.654c2.431,-0.921 4.865,-1.829 7.296,-2.747c1.52,-0.573 1.584,-0.535 1.587,1.042c0.012,6.785 0.027,13.57 0.036,20.353c-0.021,1.737 -0.066,3.472 -0.051,5.206c0.005,0.659 -0.18,0.903 -0.888,0.923c-2.692,0.078 -2.688,0.108 -2.695,-2.609c-0.002,-1.169 -0.029,-2.341 -0.044,-3.511" style="fill:#f5ed71;"/><path d="M74.394,69.333c-0.105,-0.761 -0.3,-1.496 -0.62,-2.199c-1.357,-2.996 -5.438,-3.662 -7.647,-1.246c-0.869,0.768 -1.189,1.827 -1.39,2.893c-0.714,3.738 -0.465,7.511 -0.347,11.279c0.044,1.464 0.26,2.91 0.858,4.263c0.744,1.686 1.964,2.752 3.886,2.836c2.778,0.12 4.53,-1.188 5.083,-4.143c0.849,-4.537 0.667,-9.115 0.177,-13.683m3.827,2.944c-0.022,2.471 -0.032,4.941 -0.07,7.409c-0.019,1.506 -0.294,2.971 -0.693,4.421c-1.343,4.886 -5.024,6.411 -9.481,5.871c-0.519,-0.063 -1.029,-0.211 -1.543,-0.318c-0.14,-0.036 -0.277,-0.071 -0.42,-0.106c-2.525,-0.935 -3.751,-2.934 -4.466,-5.382c-0.114,-0.397 -0.037,-0.896 -0.459,-1.183c-0.356,-2.345 -0.223,-4.71 -0.322,-7.067l0,-1.952c0.061,-1.859 0.119,-3.715 0.529,-5.544c0.737,-3.255 2.282,-5.869 5.78,-6.595c3.776,-0.783 7.19,-0.201 9.511,3.331c0.881,1.694 1.196,3.549 1.57,5.389c0.02,0.576 0.042,1.152 0.064,1.726" style="fill:#f5ed71;"/><path d="M178.106,69.333c-0.106,-0.761 -0.301,-1.496 -0.62,-2.199c-1.355,-2.994 -5.438,-3.662 -7.648,-1.246c-0.868,0.768 -1.189,1.827 -1.39,2.893c-0.714,3.738 -0.46,7.511 -0.347,11.279c0.049,1.464 0.261,2.91 0.858,4.263c0.744,1.686 1.968,2.752 3.887,2.836c2.776,0.121 4.529,-1.188 5.082,-4.143c0.85,-4.537 0.667,-9.115 0.178,-13.683m3.827,2.944c-0.022,2.471 -0.033,4.941 -0.07,7.409c-0.019,1.506 -0.295,2.971 -0.693,4.421c-1.344,4.886 -5.023,6.411 -9.482,5.871c-0.518,-0.063 -1.028,-0.211 -1.541,-0.318c-0.139,-0.036 -0.28,-0.071 -0.421,-0.105c-2.525,-0.936 -3.751,-2.935 -4.467,-5.383c-0.113,-0.397 -0.037,-0.896 -0.458,-1.182c-0.357,-2.346 -0.224,-4.711 -0.322,-7.068l0,-1.952c0.06,-1.859 0.117,-3.715 0.53,-5.544c0.735,-3.255 2.28,-5.869 5.782,-6.595c3.773,-0.783 7.187,-0.201 9.507,3.331c0.881,1.694 1.196,3.549 1.573,5.389c0.017,0.576 0.04,1.152 0.062,1.726" style="fill:#9faa76;"/><path d="M146.346,69.333c-0.106,-0.761 -0.303,-1.496 -0.62,-2.199c-1.358,-2.994 -5.438,-3.662 -7.648,-1.246c-0.868,0.768 -1.188,1.827 -1.39,2.893c-0.713,3.738 -0.465,7.511 -0.346,11.279c0.046,1.464 0.257,2.91 0.858,4.263c0.744,1.686 1.964,2.752 3.886,2.836c2.777,0.121 4.53,-1.188 5.081,-4.143c0.848,-4.537 0.672,-9.115 0.179,-13.683m3.827,2.944c-0.022,2.471 -0.032,4.941 -0.067,7.409c-0.022,1.506 -0.297,2.971 -0.696,4.421c-1.341,4.886 -5.025,6.411 -9.481,5.871c-0.519,-0.063 -1.029,-0.211 -1.543,-0.318c-0.14,-0.036 -0.278,-0.071 -0.42,-0.105c-2.528,-0.936 -3.75,-2.935 -4.467,-5.383c-0.113,-0.397 -0.036,-0.896 -0.458,-1.182c-0.356,-2.346 -0.223,-4.711 -0.322,-7.068l0,-1.952c0.062,-1.859 0.118,-3.715 0.532,-5.544c0.733,-3.255 2.278,-5.869 5.777,-6.595c3.775,-0.783 7.188,-0.201 9.508,3.331c0.884,1.694 1.198,3.549 1.573,5.389c0.02,0.576 0.042,1.152 0.064,1.726" style="fill:#f5ed71;"/><path d="M74.66,120.274c-0.105,-0.761 -0.303,-1.497 -0.62,-2.199c-1.356,-2.993 -5.438,-3.661 -7.647,-1.246c-0.869,0.766 -1.189,1.827 -1.39,2.893c-0.714,3.738 -0.464,7.513 -0.347,11.28c0.046,1.461 0.26,2.908 0.858,4.262c0.744,1.688 1.964,2.752 3.886,2.837c2.777,0.119 4.53,-1.188 5.081,-4.142c0.851,-4.536 0.672,-9.116 0.179,-13.685m3.826,2.945c-0.021,2.468 -0.031,4.939 -0.066,7.409c-0.021,1.506 -0.297,2.97 -0.696,4.419c-1.341,4.887 -5.025,6.413 -9.481,5.87c-0.519,-0.061 -1.029,-0.207 -1.543,-0.317c-0.14,-0.036 -0.278,-0.071 -0.421,-0.106c-2.524,-0.934 -3.747,-2.932 -4.466,-5.38c-0.113,-0.396 -0.036,-0.896 -0.458,-1.184c-0.356,-2.342 -0.223,-4.71 -0.321,-7.067l0,-1.954c0.06,-1.858 0.117,-3.713 0.531,-5.542c0.734,-3.257 2.278,-5.868 5.777,-6.594c3.775,-0.783 7.192,-0.201 9.511,3.333c0.881,1.692 1.196,3.548 1.57,5.388c0.019,0.575 0.042,1.149 0.063,1.725" style="fill:#f5ed71;"/><path d="M39.172,120.274c-0.109,-0.763 -0.305,-1.497 -0.623,-2.2c-1.358,-2.992 -5.44,-3.662 -7.647,-1.245c-0.869,0.766 -1.189,1.825 -1.391,2.893c-0.716,3.735 -0.462,7.51 -0.347,11.28c0.048,1.461 0.259,2.908 0.856,4.262c0.746,1.686 1.969,2.75 3.888,2.834c2.776,0.122 4.528,-1.185 5.082,-4.141c0.848,-4.534 0.672,-9.117 0.182,-13.683m3.821,2.942c-0.02,2.471 -0.029,4.942 -0.065,7.412c-0.021,1.503 -0.295,2.968 -0.696,4.419c-1.341,4.887 -5.024,6.41 -9.483,5.87c-0.516,-0.063 -1.025,-0.21 -1.538,-0.32c-0.142,-0.033 -0.28,-0.068 -0.423,-0.103c-2.527,-0.934 -3.747,-2.935 -4.466,-5.383c-0.113,-0.393 -0.037,-0.895 -0.457,-1.181c-0.357,-2.345 -0.227,-4.71 -0.325,-7.067c0.002,-0.649 0.002,-1.302 0.002,-1.954c0.062,-1.859 0.119,-3.716 0.532,-5.542c0.733,-3.257 2.278,-5.87 5.778,-6.595c3.774,-0.782 7.189,-0.2 9.508,3.331c0.88,1.693 1.197,3.547 1.571,5.389c0.02,0.576 0.042,1.148 0.062,1.724" style="fill:#f5ed71;"/><path d="M143.508,120.274c-0.108,-0.763 -0.304,-1.497 -0.623,-2.2c-1.355,-2.992 -5.438,-3.662 -7.647,-1.245c-0.868,0.766 -1.188,1.825 -1.39,2.893c-0.714,3.735 -0.463,7.51 -0.347,11.28c0.046,1.461 0.26,2.908 0.858,4.262c0.744,1.686 1.967,2.75 3.886,2.834c2.778,0.122 4.53,-1.185 5.081,-4.141c0.851,-4.534 0.672,-9.117 0.182,-13.683m3.824,2.942c-0.022,2.471 -0.032,4.942 -0.066,7.412c-0.023,1.503 -0.296,2.968 -0.696,4.419c-1.342,4.887 -5.025,6.41 -9.481,5.87c-0.52,-0.063 -1.029,-0.21 -1.541,-0.32c-0.143,-0.033 -0.281,-0.068 -0.421,-0.103c-2.524,-0.934 -3.749,-2.935 -4.468,-5.383c-0.114,-0.393 -0.037,-0.895 -0.459,-1.181c-0.356,-2.345 -0.224,-4.71 -0.322,-7.067l0,-1.954c0.062,-1.859 0.118,-3.716 0.532,-5.542c0.733,-3.257 2.279,-5.87 5.777,-6.595c3.775,-0.782 7.193,-0.2 9.511,3.331c0.884,1.693 1.196,3.547 1.57,5.389c0.02,0.576 0.042,1.148 0.064,1.724" style="fill:#9faa76;"/><path d="M108.277,120.274c-0.109,-0.763 -0.305,-1.497 -0.623,-2.2c-1.359,-2.992 -5.438,-3.662 -7.648,-1.245c-0.869,0.766 -1.188,1.825 -1.39,2.893c-0.716,3.735 -0.462,7.51 -0.347,11.28c0.046,1.461 0.258,2.908 0.856,4.262c0.746,1.686 1.969,2.75 3.888,2.834c2.776,0.122 4.528,-1.185 5.081,-4.141c0.849,-4.534 0.672,-9.117 0.183,-13.683m3.821,2.942c-0.019,2.471 -0.03,4.942 -0.065,7.412c-0.022,1.503 -0.294,2.968 -0.695,4.419c-1.345,4.887 -5.025,6.41 -9.484,5.87c-0.516,-0.063 -1.025,-0.21 -1.538,-0.32c-0.143,-0.033 -0.28,-0.068 -0.421,-0.103c-2.53,-0.934 -3.75,-2.935 -4.466,-5.383c-0.115,-0.393 -0.039,-0.895 -0.46,-1.181c-0.356,-2.345 -0.226,-4.71 -0.324,-7.067c0.002,-0.649 0.002,-1.302 0.002,-1.954c0.062,-1.859 0.118,-3.716 0.531,-5.542c0.734,-3.257 2.278,-5.87 5.778,-6.595c3.775,-0.782 7.19,-0.2 9.508,3.331c0.881,1.693 1.198,3.547 1.573,5.389c0.022,0.576 0.042,1.148 0.061,1.724" style="fill:#f5ed71;"/><path d="M173.498,135.595l0,-17.323c-2.005,0.736 -3.912,1.401 -5.791,2.142c-0.902,0.357 -1.296,0.322 -1.262,-0.824c0.056,-1.952 -0.004,-1.96 1.813,-2.654c2.429,-0.919 4.86,-1.828 7.292,-2.746c1.52,-0.573 1.584,-0.536 1.587,1.044c0.015,6.784 0.026,13.567 0.038,20.352c-0.021,1.735 -0.065,3.473 -0.053,5.206c0.004,0.66 -0.18,0.903 -0.884,0.923c-2.696,0.079 -2.691,0.105 -2.698,-2.607c-0.003,-1.172 -0.027,-2.343 -0.042,-3.513" style="fill:#f5ed71;"/><path d="M33.108,183.591l0,-17.323c-2.006,0.738 -3.913,1.399 -5.788,2.14c-0.906,0.357 -1.297,0.323 -1.264,-0.822c0.056,-1.953 -0.006,-1.963 1.813,-2.651c2.429,-0.924 4.861,-1.831 7.294,-2.747c1.519,-0.576 1.584,-0.536 1.586,1.043c0.012,6.782 0.027,13.566 0.039,20.349c-0.023,1.738 -0.069,3.47 -0.056,5.208c0.005,0.659 -0.177,0.9 -0.883,0.925c-2.695,0.077 -2.69,0.104 -2.695,-2.611c-0.004,-1.169 -0.03,-2.34 -0.046,-3.511" style="fill:#f5ed71;"/><path d="M102.539,183.266l0,-17.323c-2.005,0.736 -3.912,1.401 -5.789,2.142c-0.903,0.355 -1.297,0.319 -1.262,-0.823c0.056,-1.954 -0.006,-1.965 1.813,-2.653c2.426,-0.923 4.86,-1.83 7.291,-2.746c1.52,-0.576 1.584,-0.536 1.587,1.041c0.015,6.783 0.027,13.568 0.039,20.353c-0.022,1.736 -0.066,3.469 -0.054,5.205c0.005,0.66 -0.18,0.902 -0.886,0.923c-2.694,0.08 -2.69,0.106 -2.697,-2.608c-0.002,-1.168 -0.027,-2.34 -0.042,-3.511" style="fill:#f5ed71;"/><path d="M74.334,169.324c-0.108,-0.764 -0.302,-1.497 -0.62,-2.2c-1.356,-2.994 -5.438,-3.662 -7.649,-1.245c-0.87,0.767 -1.187,1.825 -1.391,2.892c-0.714,3.737 -0.46,7.512 -0.345,11.281c0.047,1.462 0.261,2.909 0.856,4.261c0.744,1.685 1.967,2.751 3.886,2.836c2.778,0.12 4.53,-1.189 5.083,-4.144c0.852,-4.536 0.67,-9.114 0.18,-13.681m3.824,2.943c-0.021,2.47 -0.029,4.941 -0.066,7.411c-0.022,1.502 -0.295,2.968 -0.697,4.42c-1.341,4.887 -5.022,6.407 -9.48,5.87c-0.519,-0.064 -1.027,-0.211 -1.54,-0.319c-0.144,-0.035 -0.281,-0.07 -0.422,-0.104c-2.524,-0.934 -3.749,-2.937 -4.463,-5.383c-0.118,-0.394 -0.04,-0.895 -0.46,-1.182c-0.357,-2.343 -0.224,-4.711 -0.322,-7.067l0,-1.954c0.058,-1.857 0.115,-3.714 0.529,-5.543c0.735,-3.256 2.278,-5.868 5.782,-6.597c3.77,-0.781 7.187,-0.197 9.508,3.332c0.881,1.692 1.193,3.55 1.569,5.39c0.02,0.578 0.041,1.151 0.062,1.726" style="fill:#f5ed71;"/><path d="M146.027,169.321c-0.106,-0.761 -0.305,-1.496 -0.62,-2.197c-1.359,-2.997 -5.439,-3.662 -7.65,-1.247c-0.869,0.77 -1.187,1.827 -1.391,2.894c-0.713,3.737 -0.463,7.512 -0.344,11.278c0.044,1.462 0.26,2.909 0.856,4.265c0.744,1.684 1.966,2.75 3.885,2.835c2.778,0.119 4.531,-1.191 5.082,-4.144c0.85,-4.537 0.672,-9.114 0.182,-13.684m3.823,2.946c-0.022,2.471 -0.032,4.938 -0.067,7.409c-0.021,1.504 -0.294,2.97 -0.695,4.419c-1.342,4.887 -5.025,6.41 -9.481,5.87c-0.519,-0.061 -1.026,-0.208 -1.541,-0.316c-0.138,-0.035 -0.281,-0.071 -0.421,-0.106c-2.524,-0.932 -3.749,-2.935 -4.465,-5.381c-0.117,-0.396 -0.037,-0.895 -0.458,-1.184c-0.357,-2.344 -0.224,-4.712 -0.323,-7.066l0,-1.952c0.062,-1.86 0.116,-3.715 0.529,-5.546c0.736,-3.254 2.281,-5.866 5.781,-6.595c3.771,-0.783 7.189,-0.199 9.509,3.332c0.882,1.692 1.197,3.548 1.568,5.388c0.023,0.577 0.042,1.153 0.064,1.728" style="fill:#9faa76;"/><path d="M176.344,183.593l0,-17.323c-2.005,0.736 -3.912,1.4 -5.789,2.138c-0.904,0.36 -1.298,0.326 -1.264,-0.818c0.057,-1.955 -0.004,-1.964 1.815,-2.654c2.427,-0.923 4.859,-1.83 7.291,-2.748c1.521,-0.576 1.585,-0.536 1.586,1.043c0.015,6.787 0.028,13.569 0.04,20.353c-0.022,1.734 -0.067,3.472 -0.055,5.204c0.006,0.661 -0.179,0.905 -0.882,0.925c-2.697,0.078 -2.693,0.105 -2.699,-2.609c-0.003,-1.171 -0.028,-2.342 -0.043,-3.511" style="fill:#f5ed71;"/><path d="M312.937,104.426c-1.477,3.122 -3.294,5.795 -4.937,8.879c-1.751,-3.028 -3.379,-5.847 -5.118,-8.854l3.301,0c0.109,-1.67 -0.212,-3.131 -0.779,-4.538c-2.369,-5.854 -8.25,-8.793 -14.361,-7.63c-5.142,0.982 -9.361,5.791 -9.769,11.065c-0.241,3.116 0.399,5.982 2.249,8.513c2.269,3.099 5.321,4.894 9.184,5.165c0.694,0.049 0.895,0.274 0.855,0.915c-0.039,0.629 -0.034,1.261 0,1.891c0.033,0.635 -0.211,0.868 -0.855,0.816c-3.04,-0.234 -5.815,-1.191 -8.291,-2.98c-3.792,-2.74 -6.042,-6.452 -6.649,-11.071c-0.553,-4.206 0.432,-8.108 2.998,-11.501c3.379,-4.471 7.907,-6.805 13.546,-6.603c5.169,0.185 9.311,2.466 12.412,6.631c1.902,2.553 2.887,5.435 3.113,8.587c0.04,0.573 0.26,0.74 0.789,0.722c0.68,-0.026 1.362,-0.007 2.312,-0.007" style="fill:#f47a2c;"/></g></g></g></svg>