<svg xmlns="http://www.w3.org/2000/svg" xmlns:xlink="http://www.w3.org/1999/xlink" viewBox="0 0 296 289.05">
  <defs>
    <style>
      .cls-1 {
        fill: none;
      }

      .cls-2, .cls-3 {
        fill: #fff;
      }

      .cls-3 {
        fill-rule: evenodd;
      }

      .cls-4 {
        fill: #f89c1b;
      }

      .cls-5 {
        fill: #00ad4c;
      }

      .cls-6 {
        clip-path: url(#clip-path);
      }

      .cls-7 {
        fill: url(#linear-gradient);
      }

      .cls-8 {
        clip-path: url(#clip-path-2);
      }

      .cls-9 {
        fill: url(#linear-gradient-2);
      }
    </style>
    <clipPath id="clip-path">
      <path id="Path_25" data-name="Path 25" class="cls-1" d="M90.258-633.821q-3.047,0-6.089.2c-1.8.119-3.6.241-5.4.41a72.706,72.706,0,0,0-10.575,1.879A88.647,88.647,0,0,0,31.068-612.2a88.866,88.866,0,0,0-22.551,29.6A88.791,88.791,0,0,0,.159-550.222c-.154,2.289-.188,4.592-.138,6.886.06,2.73.166,5.468.446,8.18s.718,5.441,1.228,8.133a85.935,85.935,0,0,0,7.25,21.684,88.968,88.968,0,0,0,14.609,21.426,89.093,89.093,0,0,0,22.526,17.746,87.32,87.32,0,0,0,33.586,10.629c2.941.3,5.9.491,8.857.549a84.551,84.551,0,0,0,13.827-.921,87.206,87.206,0,0,0,12.662-2.781A89.2,89.2,0,0,0,154.1-482.619c.115-.119.219-.248.328-.374a.7.7,0,0,0-.409.049c-1.464.558-2.922,1.13-4.394,1.669a81.892,81.892,0,0,1-29.115,5.022c-4.193-.038-8.38-.119-12.558-.5-1.962-.18-3.92-.391-5.881-.576a12.25,12.25,0,0,0-2.036.015c-2.274.245-4.542.579-6.821.716a61.222,61.222,0,0,1-6.743.013c-2.5-.126-5-.35-7.473-.7a61,61,0,0,1-12.146-3.036,67.51,67.51,0,0,1-35.009-28A66.53,66.53,0,0,1,21.563-540.38c-.139-2.224-.054-4.463-.031-6.693a57.359,57.359,0,0,1,.96-9.243A65.937,65.937,0,0,1,27.9-573.358,67.215,67.215,0,0,1,48.213-598.44a67.167,67.167,0,0,1,40.416-13.919c1.874-.032,3.755.063,5.626.188,1.706.114,3.4.358,5.106.528a25.909,25.909,0,0,0,2.644.194c.705,0,1.408-.177,2.116-.237,2.109-.179,4.216-.387,6.33-.493,3.07-.156,6.144-.334,9.214-.314,3.3.021,6.6.2,9.887.427a58.6,58.6,0,0,1,6.239.8,89.881,89.881,0,0,1,15.364,4.33c1.145.426,2.279.879,3.418,1.318a2.7,2.7,0,0,0-.477-.615,89.6,89.6,0,0,0-27.839-19.726,87.829,87.829,0,0,0-26.607-7.32c-2.271-.254-4.559-.342-6.842-.473-.761-.043-1.523-.071-2.284-.071Z" transform="translate(0 633.821)"/>
    </clipPath>
    <linearGradient id="linear-gradient" y1="0.493" x2="0.199" y2="0.493" gradientUnits="objectBoundingBox">
      <stop offset="0" stop-color="#f19c1b"/>
      <stop offset="0.1" stop-color="#f0971b"/>
      <stop offset="0.2" stop-color="#ef931c"/>
      <stop offset="0.3" stop-color="#ee8e1d"/>
      <stop offset="0.4" stop-color="#ed8a1e"/>
      <stop offset="0.5" stop-color="#ec851f"/>
      <stop offset="0.6" stop-color="#eb811f"/>
      <stop offset="0.7" stop-color="#ea7c20"/>
      <stop offset="0.8" stop-color="#e97821"/>
      <stop offset="0.9" stop-color="#e87322"/>
      <stop offset="1" stop-color="#e76f23"/>
    </linearGradient>
    <clipPath id="clip-path-2">
      <path id="Path_27" data-name="Path 27" class="cls-1" d="M489.055-625.837c2.551,2.182,5.041,4.316,7.587,6.5-.186.211-.332.381-.482.547q-4.879,5.379-9.763,10.754-18.746,20.51-37.507,41-2.285-2.65-4.591-5.281-17.5-19.906-35-39.8a2.558,2.558,0,0,0-.964-.683c-2.374-.895-5.148-1.405-7.555-2.2a76.238,76.238,0,0,0-15.43-3.528,86.19,86.19,0,0,0-11.681-.585c-4.417.1-8.83.345-13.242.586-1.724.094-3.439.348-5.159.529,0,.024.009.05.014.073.16.022.32.042.479.068a34.17,34.17,0,0,1,8.8,2.943,77.7,77.7,0,0,1,15.161,9.649,196.217,196.217,0,0,1,16.225,14.708c9.325,9.235,18.217,18.877,26.907,28.706,3.173,3.59,6.394,7.15,9.4,10.878.184.229.37.457.556.687-.1.105-.209.2-.306.315-2.786,3.177-5.532,6.389-8.327,9.559-7.938,9-16.052,17.839-24.5,26.37A232.623,232.623,0,0,1,381.8-497.414a80,80,0,0,1-16.566,10.765,40.908,40.908,0,0,1-10.238,3.028c1.25.16,3.462.333,4.717.427,3.146.235,6.292.551,9.444.627,3.832.092,7.671.018,11.507-.071a59.5,59.5,0,0,0,9.354-.991,85.576,85.576,0,0,0,18.019-4.852,5.455,5.455,0,0,0,1.215-.809c12.739-14.134,25.643-28.539,38.447-42.818,6.394,7.676,12.892,15.264,19.584,22.688,4.022,4.461,8.025,8.948,12.48,12.994a11.032,11.032,0,0,0,9.73,2.894,10.906,10.906,0,0,0,8.828-7.317,11.028,11.028,0,0,0-1.952-11.375c-.285-.352-.6-.678-.9-1.018q-10.746-12.224-21.488-24.449c-3.511-4-6.973-8.044-10.422-12.1q13.384-14.93,26.682-29.939c6.732-7.6,13.37-15.281,20.054-22.923.828-.947,1.68-1.874,2.537-2.829l7.153,6.12,12.505-43.251C517.945-637,503.538-631.434,489.055-625.837ZM504.295-496.4a11.479,11.479,0,0,0-9.882,12.41,11.4,11.4,0,0,0,8.282,10.015c.756.215,1.543.321,2.316.479h1.652c.632-.116,1.272-.2,1.9-.355a11.451,11.451,0,0,0,8.7-9.962,2.714,2.714,0,0,1,.1-.372v-1.653c-.043-.253-.091-.505-.127-.757a11.512,11.512,0,0,0-11.4-9.905A11.694,11.694,0,0,0,504.295-496.4Z" transform="translate(-354.993 642.616)"/>
    </clipPath>
    <linearGradient id="linear-gradient-2" x1="0.069" y1="0.757" x2="1" y2="0.757" gradientUnits="objectBoundingBox">
      <stop offset="0" stop-color="#00622e"/>
      <stop offset="0.1" stop-color="#006c31"/>
      <stop offset="0.2" stop-color="#007534"/>
      <stop offset="0.3" stop-color="#007f36"/>
      <stop offset="0.4" stop-color="#008839"/>
      <stop offset="0.5" stop-color="#00913c"/>
      <stop offset="0.6" stop-color="#008d3a"/>
      <stop offset="0.7" stop-color="#008337"/>
      <stop offset="0.8" stop-color="#007834"/>
      <stop offset="0.9" stop-color="#006d31"/>
      <stop offset="1" stop-color="#00622e"/>
    </linearGradient>
  </defs>
  <g id="cointrade_logo" transform="translate(2857.893 9727)">
    <g id="Group_9813" data-name="Group 9813" transform="translate(-2857.894 -9521.327)">
      <path id="Path_1" data-name="Path 1" class="cls-2" d="M1059.693-500.336a21.164,21.164,0,0,1-9.968,2.114q-7.7,0-12.333-4.958t-4.632-13.014q0-8.658,5.21-14a17.689,17.689,0,0,1,13.215-5.336,21.192,21.192,0,0,1,8.508,1.485v4.506a17.256,17.256,0,0,0-8.557-2.165,13.134,13.134,0,0,0-10.081,4.153q-3.865,4.154-3.864,11.1,0,6.595,3.611,10.509a12.29,12.29,0,0,0,9.476,3.914,17.782,17.782,0,0,0,9.415-2.417Z" transform="translate(-1032.76 535.526)"/>
      <path id="Path_2" data-name="Path 2" class="cls-2" d="M1255.584-498.223q-7.677,0-12.295-5.059t-4.62-13.164q0-8.709,4.708-13.895t12.811-5.185a15.489,15.489,0,0,1,12.044,5.034q4.569,5.034,4.568,13.165,0,8.834-4.682,13.969t-12.534,5.135m.3-33.477a11.639,11.639,0,0,0-9.238,4.1q-3.549,4.1-3.55,10.773t3.462,10.735a11.285,11.285,0,0,0,9.023,4.065,11.845,11.845,0,0,0,9.363-3.876q3.424-3.876,3.424-10.849,0-7.148-3.323-11.05a11.392,11.392,0,0,0-9.162-3.9" transform="translate(-1203.308 535.526)"/>
      <path id="Path_3" data-name="Path 3" class="cls-3" d="M1502.76-495.913h4.229v-36.1h-4.229Z" transform="translate(-1422.044 532.614)"/>
      <path id="Path_4" data-name="Path 4" class="cls-2" d="M1617.739-495.914h-5.185l-18.577-28.77a11.922,11.922,0,0,1-1.158-2.265h-.152a36.861,36.861,0,0,1,.2,4.958v26.077h-4.229v-36.1h5.489l18.072,28.317q1.134,1.762,1.46,2.417h.1a38.05,38.05,0,0,1-.252-5.311v-25.423h4.23Z" transform="translate(-1493.175 532.613)"/>
      <path id="Path_5" data-name="Path 5" class="cls-2" d="M1834.694-528.181h-10.418v32.269h-4.228v-32.269h-10.4v-3.826h25.044Z" transform="translate(-1676.23 532.611)"/>
      <path id="Path_6" data-name="Path 6" class="cls-2" d="M2032.345-495.914h-5.034l-6.04-10.119a22.438,22.438,0,0,0-1.611-2.4,9.226,9.226,0,0,0-1.6-1.623,5.576,5.576,0,0,0-1.763-.919,7.262,7.262,0,0,0-2.128-.289H2010.7v15.354h-4.23v-36.1h10.774a15.369,15.369,0,0,1,4.367.591,9.79,9.79,0,0,1,3.475,1.8,8.362,8.362,0,0,1,2.3,3.008,9.974,9.974,0,0,1,.832,4.216,10.191,10.191,0,0,1-.567,3.461,9.05,9.05,0,0,1-1.612,2.806,9.737,9.737,0,0,1-2.517,2.1,12.871,12.871,0,0,1-3.31,1.347v.1a7.631,7.631,0,0,1,1.574.919,8.589,8.589,0,0,1,1.271,1.221,15.982,15.982,0,0,1,1.2,1.6q.593.894,1.323,2.077ZM2010.7-528.183v13.09h5.738a8.7,8.7,0,0,0,2.933-.479,6.785,6.785,0,0,0,2.328-1.371,6.2,6.2,0,0,0,1.534-2.19,7.3,7.3,0,0,0,.555-2.907,5.658,5.658,0,0,0-1.876-4.519,8.055,8.055,0,0,0-5.423-1.624Z" transform="translate(-1839.249 532.613)"/>
      <path id="Path_7" data-name="Path 7" class="cls-2" d="M2211.817-495.914h-4.682l-3.827-10.119H2188l-3.6,10.119H2179.7l13.845-36.1h4.377Zm-9.892-13.92-5.664-15.38a14.743,14.743,0,0,1-.555-2.416h-.1a13.506,13.506,0,0,1-.579,2.416l-5.613,15.38Z" transform="translate(-1982.729 532.613)"/>
      <path id="Path_8" data-name="Path 8" class="cls-2" d="M2415.649-495.914v-36.1h9.97q19.079,0,19.078,17.595,0,8.357-5.3,13.429t-14.184,5.072Zm4.23-32.269v28.444h5.386q7.1,0,11.051-3.8t3.951-10.774q0-13.869-14.75-13.869Z" transform="translate(-2178.158 532.613)"/>
      <path id="Path_9" data-name="Path 9" class="cls-2" d="M2663.262-495.914h-19.132v-36.1h18.326v3.826h-14.1v12.007H2661.4v3.8H2648.36v12.636h14.9Z" transform="translate(-2367.4 532.613)"/>
      <path id="Path_10" data-name="Path 10" class="cls-4" d="M1046.32-196.4a10.5,10.5,0,0,1-4.5.907c-4.726,0-7.8-3.2-7.8-7.994,0-4.823,3.3-8.318,8.415-8.318a9.513,9.513,0,0,1,3.948.809l-.646,2.2a6.6,6.6,0,0,0-3.3-.745c-3.593,0-5.535,2.654-5.535,5.924,0,3.625,2.331,5.858,5.439,5.858a8.084,8.084,0,0,0,3.5-.777Z" transform="translate(-1033.803 267.4)"/>
      <path id="Path_11" data-name="Path 11" class="cls-4" d="M1131.961-206.751c0-1.845-.033-3.431-.131-4.888h2.492l.1,3.075h.13a4.7,4.7,0,0,1,4.337-3.431,3.073,3.073,0,0,1,.808.1v2.687a4.266,4.266,0,0,0-.97-.1c-2.007,0-3.431,1.521-3.819,3.657a7.928,7.928,0,0,0-.131,1.328v8.351h-2.814Z" transform="translate(-1114.816 267.557)"/>
      <path id="Path_12" data-name="Path 12" class="cls-4" d="M1197.509-209.922l3.429,9.257c.357,1.035.745,2.266,1,3.2h.063c.292-.939.615-2.136,1-3.269l3.107-9.192h3.01l-4.272,11.167c-2.041,5.372-3.432,8.124-5.374,9.806a7.721,7.721,0,0,1-3.494,1.845l-.713-2.4a7.514,7.514,0,0,0,2.492-1.391,8.628,8.628,0,0,0,2.4-3.172,2.032,2.032,0,0,0,.227-.68,2.5,2.5,0,0,0-.194-.744l-5.795-14.436Z" transform="translate(-1166.64 265.841)"/>
      <path id="Path_13" data-name="Path 13" class="cls-4" d="M1302.149-206.525c0-2.007-.065-3.625-.129-5.113h2.556l.13,2.686h.065a6.155,6.155,0,0,1,5.566-3.042c3.787,0,6.636,3.2,6.636,7.962,0,5.632-3.431,8.416-7.122,8.416a5.5,5.5,0,0,1-4.822-2.46h-.064v8.513h-2.816Zm2.816,4.176a6.369,6.369,0,0,0,.129,1.165,4.394,4.394,0,0,0,4.272,3.333c3.011,0,4.757-2.46,4.757-6.052,0-3.139-1.65-5.825-4.661-5.825a4.541,4.541,0,0,0-4.3,3.527,4.576,4.576,0,0,0-.194,1.166Z" transform="translate(-1255.779 267.558)"/>
      <path id="Path_14" data-name="Path 14" class="cls-4" d="M1408.612-236.118v4.5h4.079v2.168h-4.079V-221c0,1.942.551,3.043,2.136,3.043a6.328,6.328,0,0,0,1.651-.194l.13,2.136a6.991,6.991,0,0,1-2.526.388,3.95,3.95,0,0,1-3.074-1.2c-.809-.842-1.1-2.234-1.1-4.078v-8.545H1403.4v-2.168h2.429v-3.755Z" transform="translate(-1339.748 287.537)"/>
      <path id="Path_15" data-name="Path 15" class="cls-4" d="M1487.508-203.937c0,5.794-4.013,8.319-7.8,8.319-4.24,0-7.508-3.107-7.508-8.06,0-5.243,3.43-8.318,7.768-8.318,4.5,0,7.541,3.27,7.541,8.059m-12.429.162c0,3.431,1.975,6.02,4.757,6.02,2.72,0,4.759-2.557,4.759-6.085,0-2.654-1.327-6.02-4.693-6.02s-4.823,3.108-4.823,6.086" transform="translate(-1396.732 267.559)"/>
      <path id="Path_16" data-name="Path 16" class="cls-5" d="M1622.29-224.631c.091,5.424,3.554,7.658,7.566,7.658a14.507,14.507,0,0,0,6.109-1.14l.684,2.872a17.878,17.878,0,0,1-7.338,1.367c-6.792,0-10.85-4.467-10.85-11.122s3.921-11.9,10.349-11.9c7.2,0,9.117,6.336,9.117,10.393a15.412,15.412,0,0,1-.137,1.869Zm11.76-2.872c.046-2.552-1.048-6.518-5.561-6.518-4.057,0-5.835,3.738-6.153,6.518Z" transform="translate(-1517.875 288.179)"/>
      <path id="Path_17" data-name="Path 17" class="cls-5" d="M1772.445-253.685l-3.92-6.792c-1.6-2.6-2.6-4.284-3.555-6.063h-.091c-.865,1.779-1.733,3.419-3.328,6.109l-3.692,6.747H1753.3l9.391-15.544-9.026-15.181h4.6l4.056,7.2c1.14,2,2.006,3.555,2.827,5.2h.137c.866-1.824,1.64-3.236,2.78-5.2l4.194-7.2h4.558l-9.344,14.952,9.573,15.773Z" transform="translate(-1629.557 327.536)"/>
      <path id="Path_18" data-name="Path 18" class="cls-5" d="M1933.323-214.929a14.774,14.774,0,0,1-6.335,1.276c-6.656,0-10.988-4.513-10.988-11.259,0-6.792,4.651-11.715,11.854-11.715a13.4,13.4,0,0,1,5.56,1.14l-.912,3.1a9.3,9.3,0,0,0-4.648-1.048c-5.061,0-7.8,3.739-7.8,8.342,0,5.105,3.282,8.251,7.657,8.251a11.405,11.405,0,0,0,4.925-1.094Z" transform="translate(-1764.316 287.96)"/>
      <path id="Path_19" data-name="Path 19" class="cls-5" d="M2049.52-293.963h4.01V-280.2h.092a7.437,7.437,0,0,1,2.872-2.826,8.245,8.245,0,0,1,4.1-1.14c2.964,0,7.7,1.823,7.7,9.436V-261.6h-4.011V-274.27c0-3.556-1.321-6.565-5.1-6.565a5.764,5.764,0,0,0-5.38,4.011,4.869,4.869,0,0,0-.274,1.915v13.31h-4.01Z" transform="translate(-1874.906 335.448)"/>
      <path id="Path_20" data-name="Path 20" class="cls-5" d="M2211.3-214.329l-.32-2.781h-.136a8.218,8.218,0,0,1-6.747,3.282c-4.467,0-6.748-3.146-6.748-6.336,0-5.333,4.742-8.251,13.266-8.205v-.456c0-1.823-.5-5.106-5.015-5.106a10.988,10.988,0,0,0-5.743,1.642l-.913-2.645a13.7,13.7,0,0,1,7.248-1.96c6.748,0,8.388,4.6,8.388,9.026v8.251a31.173,31.173,0,0,0,.365,5.288Zm-.592-11.259c-4.376-.092-9.345.684-9.345,4.969a3.549,3.549,0,0,0,3.783,3.829,5.488,5.488,0,0,0,5.333-3.692,4.192,4.192,0,0,0,.229-1.276Z" transform="translate(-1997.348 288.179)"/>
      <path id="Path_21" data-name="Path 21" class="cls-5" d="M2339.8-230.421c0-2.279-.046-4.148-.184-5.971h3.557l.227,3.647h.093a8.113,8.113,0,0,1,7.294-4.148c3.053,0,7.795,1.824,7.795,9.39v13.174h-4.013v-12.718c0-3.555-1.321-6.518-5.1-6.518a5.7,5.7,0,0,0-5.378,4.1,5.7,5.7,0,0,0-.273,1.869v13.265H2339.8Z" transform="translate(-2115.185 288.18)"/>
      <path id="Path_22" data-name="Path 22" class="cls-5" d="M2504.614-236.392c-.089,1.6-.181,3.373-.181,6.063v12.81c0,5.06-1,8.159-3.145,10.074-2.144,2.006-5.243,2.644-8.025,2.644a14.24,14.24,0,0,1-7.338-1.824l1-3.054a12.437,12.437,0,0,0,6.476,1.733c4.1,0,7.109-2.143,7.109-7.7v-2.461h-.092a7.873,7.873,0,0,1-7.017,3.692c-5.473,0-9.394-4.65-9.394-10.758,0-7.476,4.879-11.715,9.938-11.715a7.339,7.339,0,0,1,6.883,3.829h.092l.181-3.328Zm-4.146,8.707a5.737,5.737,0,0,0-.229-1.823,5.779,5.779,0,0,0-5.607-4.239c-3.828,0-6.564,3.236-6.564,8.341,0,4.331,2.188,7.932,6.519,7.932a5.863,5.863,0,0,0,5.56-4.1,6.958,6.958,0,0,0,.321-2.143Z" transform="translate(-2234.78 288.18)"/>
      <path id="Path_23" data-name="Path 23" class="cls-5" d="M2646.83-224.631c.091,5.424,3.555,7.658,7.566,7.658a14.5,14.5,0,0,0,6.109-1.14l.684,2.872a17.878,17.878,0,0,1-7.338,1.367c-6.792,0-10.85-4.467-10.85-11.122s3.92-11.9,10.349-11.9c7.2,0,9.115,6.336,9.115,10.393a15.436,15.436,0,0,1-.135,1.869Zm11.76-2.872c.046-2.552-1.047-6.518-5.559-6.518-4.059,0-5.836,3.738-6.155,6.518Z" transform="translate(-2366.464 288.179)"/>
    </g>
    <g id="Group_9814" data-name="Group 9814" transform="translate(-2848.893 -9727)">
      <g id="Group_2" data-name="Group 2" class="cls-6" transform="translate(0 2.481)">
        <g id="Group_1" data-name="Group 1" transform="translate(0 -2.482)">
          <path id="Path_24" data-name="Path 24" class="cls-7" d="M.1-325.841H777.858v181.327H.1Z" transform="translate(-0.101 325.841)"/>
        </g>
      </g>
      <g id="Group_4" data-name="Group 4" class="cls-8" transform="translate(100.169)">
        <g id="Group_3" data-name="Group 3" transform="translate(-100.168 0)">
          <path id="Path_26" data-name="Path 26" class="cls-9" d="M181.327,0V777.757H0V0Z" transform="translate(0 181.327) rotate(-90)"/>
        </g>
      </g>
    </g>
  </g>
</svg>
