<?xml version="1.0" encoding="UTF-8" standalone="no"?><!DOCTYPE svg PUBLIC "-//W3C//DTD SVG 1.1//EN" "http://www.w3.org/Graphics/SVG/1.1/DTD/svg11.dtd"><svg width="100%" height="100%" viewBox="0 0 145 34" version="1.1" xmlns="http://www.w3.org/2000/svg" xmlns:xlink="http://www.w3.org/1999/xlink" xml:space="preserve" xmlns:serif="http://www.serif.com/" style="fill-rule:evenodd;clip-rule:evenodd;stroke-linejoin:round;stroke-miterlimit:1.41421;"><rect id="cx_whitelogo_small" x="0.105" y="0" width="144" height="33.631" style="fill:none;"/><clipPath id="_clip1"><rect x="0.105" y="0" width="144" height="33.631"/></clipPath><g clip-path="url(#_clip1)"><g id="Cointrde-Logo" serif:id="Cointrde Logo"><g id="Camada-1" serif:id="Camada 1"><g id="Cointrade"><path d="M62.253,16.476c-0.812,0.429 -1.822,0.644 -3.032,0.644c-1.562,0 -2.813,-0.503 -3.752,-1.51c-0.939,-1.006 -1.409,-2.327 -1.409,-3.962c0,-1.757 0.528,-3.178 1.585,-4.261c1.057,-1.083 2.397,-1.624 4.02,-1.624c1.041,0 1.904,0.15 2.588,0.452l0,1.371c-0.786,-0.439 -1.654,-0.659 -2.603,-0.659c-1.261,0 -2.284,0.422 -3.067,1.265c-0.784,0.843 -1.175,1.969 -1.175,3.379c0,1.339 0.366,2.406 1.098,3.2c0.733,0.794 1.694,1.192 2.883,1.192c1.103,0 2.057,-0.246 2.864,-0.736l0,1.249Z" style="fill:#fff;fill-rule:nonzero;"/><path d="M69.963,17.12c-1.557,0 -2.804,-0.514 -3.741,-1.541c-0.937,-1.026 -1.405,-2.362 -1.405,-4.008c0,-1.767 0.477,-3.177 1.432,-4.23c0.954,-1.052 2.253,-1.578 3.897,-1.578c1.516,0 2.738,0.511 3.664,1.532c0.927,1.022 1.39,2.358 1.39,4.008c0,1.793 -0.475,3.211 -1.424,4.253c-0.95,1.043 -2.221,1.564 -3.813,1.564m0.092,-10.193c-1.154,0 -2.091,0.417 -2.811,1.249c-0.72,0.833 -1.079,1.927 -1.079,3.281c0,1.353 0.35,2.443 1.053,3.268c0.701,0.825 1.616,1.238 2.745,1.238c1.204,0 2.154,-0.394 2.848,-1.181c0.694,-0.786 1.041,-1.887 1.041,-3.303c0,-1.45 -0.336,-2.572 -1.01,-3.364c-0.674,-0.792 -1.603,-1.188 -2.787,-1.188" style="fill:#fff;fill-rule:nonzero;"/><rect x="78.614" y="5.946" width="1.286" height="10.989" style="fill:#fff;"/><path d="M91.952,16.936l-1.577,0l-5.651,-8.759c-0.143,-0.22 -0.26,-0.45 -0.352,-0.69l-0.046,0c0.041,0.235 0.061,0.738 0.061,1.51l0,7.939l-1.286,0l0,-10.99l1.669,0l5.498,8.622c0.229,0.358 0.377,0.603 0.444,0.736l0.03,0c-0.05,-0.317 -0.076,-0.856 -0.076,-1.617l0,-7.741l1.286,0l0,10.99Z" style="fill:#fff;fill-rule:nonzero;"/><path d="M102.266,7.111l-3.17,0l0,9.825l-1.287,0l0,-9.825l-3.162,0l0,-1.164l7.619,0l0,1.164Z" style="fill:#fff;fill-rule:nonzero;"/><path d="M112.801,16.936l-1.531,0l-1.838,-3.081c-0.169,-0.286 -0.332,-0.53 -0.49,-0.732c-0.159,-0.201 -0.321,-0.366 -0.486,-0.494c-0.166,-0.128 -0.345,-0.221 -0.537,-0.28c-0.191,-0.058 -0.407,-0.088 -0.646,-0.088l-1.057,0l0,4.675l-1.287,0l0,-10.99l3.278,0c0.479,0 0.922,0.061 1.328,0.18c0.406,0.121 0.758,0.303 1.057,0.549c0.299,0.245 0.532,0.55 0.701,0.915c0.168,0.366 0.252,0.794 0.252,1.284c0,0.383 -0.057,0.735 -0.172,1.054c-0.115,0.319 -0.278,0.604 -0.49,0.854c-0.212,0.25 -0.467,0.464 -0.766,0.64c-0.299,0.176 -0.634,0.313 -1.007,0.41l0,0.031c0.184,0.081 0.343,0.175 0.479,0.279c0.135,0.105 0.264,0.229 0.387,0.372c0.122,0.143 0.243,0.305 0.363,0.487c0.12,0.181 0.254,0.392 0.402,0.632l2.06,3.303Zm-6.585,-9.825l0,3.985l1.746,0c0.321,0 0.619,-0.048 0.892,-0.145c0.273,-0.097 0.509,-0.237 0.708,-0.418c0.199,-0.181 0.355,-0.403 0.467,-0.667c0.112,-0.263 0.169,-0.558 0.169,-0.885c0,-0.587 -0.191,-1.046 -0.571,-1.375c-0.38,-0.33 -0.93,-0.495 -1.65,-0.495l-1.761,0Z" style="fill:#fff;fill-rule:nonzero;"/><path d="M123.75,16.936l-1.425,0l-1.163,-3.081l-4.656,0l-1.095,3.081l-1.432,0l4.212,-10.99l1.332,0l4.227,10.99Zm-3.01,-4.238l-1.722,-4.682c-0.057,-0.154 -0.113,-0.399 -0.169,-0.736l-0.031,0c-0.051,0.312 -0.109,0.557 -0.175,0.736l-1.708,4.682l3.805,0Z" style="fill:#fff;fill-rule:nonzero;"/><path d="M126.306,16.936l0,-10.99l3.033,0c3.869,0 5.804,1.786 5.804,5.357c0,1.696 -0.538,3.059 -1.612,4.089c-1.075,1.029 -2.513,1.544 -4.315,1.544l-2.91,0Zm1.287,-9.825l0,8.66l1.638,0c1.44,0 2.56,-0.386 3.362,-1.157c0.801,-0.772 1.202,-1.865 1.202,-3.28c0,-2.815 -1.496,-4.223 -4.487,-4.223l-1.715,0Z" style="fill:#fff;fill-rule:nonzero;"/><path d="M144.062,16.936l-5.819,0l0,-10.99l5.574,0l0,1.165l-4.288,0l0,3.656l3.967,0l0,1.157l-3.967,0l0,3.847l4.533,0l0,1.165Z" style="fill:#fff;fill-rule:nonzero;"/></g><g id="Crypto"><path d="M57.867,27.379c-0.227,0.118 -0.729,0.276 -1.369,0.276c-1.437,0 -2.373,-0.975 -2.373,-2.434c0,-1.468 1.005,-2.532 2.56,-2.532c0.512,0 0.965,0.128 1.202,0.246l-0.197,0.67c-0.207,-0.118 -0.532,-0.227 -1.005,-0.227c-1.093,0 -1.683,0.808 -1.683,1.804c0,1.104 0.709,1.783 1.654,1.783c0.492,0 0.817,-0.128 1.063,-0.236l0.148,0.65Z" style="fill:#f99d1b;fill-rule:nonzero;"/><path d="M59.275,24.275c0,-0.562 -0.01,-1.044 -0.039,-1.488l0.758,0l0.029,0.936l0.04,0c0.216,-0.64 0.738,-1.044 1.319,-1.044c0.098,0 0.167,0.01 0.246,0.029l0,0.818c-0.089,-0.019 -0.177,-0.029 -0.295,-0.029c-0.611,0 -1.044,0.463 -1.162,1.113c-0.02,0.119 -0.04,0.256 -0.04,0.404l0,2.543l-0.856,0l0,-3.282Z" style="fill:#f99d1b;fill-rule:nonzero;"/><path d="M63.45,22.787l1.043,2.819c0.109,0.315 0.227,0.689 0.305,0.975l0.02,0c0.089,-0.286 0.187,-0.65 0.306,-0.995l0.945,-2.799l0.915,0l-1.299,3.4c-0.621,1.636 -1.044,2.473 -1.635,2.986c-0.423,0.374 -0.847,0.522 -1.063,0.561l-0.217,-0.729c0.217,-0.069 0.502,-0.207 0.758,-0.423c0.237,-0.188 0.532,-0.523 0.729,-0.966c0.039,-0.089 0.069,-0.158 0.069,-0.207c0,-0.049 -0.02,-0.118 -0.059,-0.227l-1.763,-4.395l0.946,0Z" style="fill:#f99d1b;fill-rule:nonzero;"/><path d="M68.166,24.344c0,-0.611 -0.02,-1.104 -0.04,-1.557l0.778,0l0.04,0.818l0.019,0c0.355,-0.581 0.916,-0.926 1.694,-0.926c1.152,0 2.018,0.975 2.018,2.424c0,1.715 -1.043,2.562 -2.166,2.562c-0.63,0 -1.181,-0.276 -1.467,-0.749l-0.02,0l0,2.592l-0.856,0l0,-5.164Zm0.856,1.271c0,0.128 0.02,0.247 0.04,0.355c0.157,0.601 0.679,1.015 1.299,1.015c0.916,0 1.448,-0.749 1.448,-1.843c0,-0.955 -0.502,-1.773 -1.418,-1.773c-0.591,0 -1.142,0.423 -1.31,1.074c-0.029,0.108 -0.059,0.236 -0.059,0.355l0,0.817Z" style="fill:#f99d1b;fill-rule:nonzero;"/><path d="M75.009,21.417l0,1.37l1.24,0l0,0.66l-1.24,0l0,2.572c0,0.592 0.167,0.927 0.65,0.927c0.226,0 0.393,-0.03 0.502,-0.059l0.039,0.65c-0.168,0.069 -0.433,0.118 -0.768,0.118c-0.404,0 -0.729,-0.128 -0.935,-0.364c-0.247,-0.257 -0.335,-0.68 -0.335,-1.242l0,-2.602l-0.739,0l0,-0.66l0.739,0l0,-1.143l0.847,-0.227Z" style="fill:#f99d1b;fill-rule:nonzero;"/><path d="M81.674,25.132c0,1.764 -1.221,2.533 -2.373,2.533c-1.29,0 -2.284,-0.946 -2.284,-2.454c0,-1.596 1.044,-2.532 2.363,-2.532c1.369,0 2.294,0.995 2.294,2.453m-3.781,0.05c0,1.044 0.601,1.833 1.448,1.833c0.827,0 1.447,-0.779 1.447,-1.853c0,-0.808 -0.403,-1.833 -1.427,-1.833c-1.024,0 -1.468,0.946 -1.468,1.853" style="fill:#f99d1b;fill-rule:nonzero;"/></g><g id="Exchange"><path d="M85.823,25.11c0.028,1.652 1.082,2.332 2.302,2.332c0.874,0 1.401,-0.153 1.859,-0.347l0.208,0.874c-0.43,0.195 -1.165,0.417 -2.233,0.417c-2.066,0 -3.301,-1.36 -3.301,-3.387c0,-2.026 1.193,-3.622 3.148,-3.622c2.191,0 2.774,1.929 2.774,3.164c0,0.25 -0.028,0.444 -0.042,0.569l-4.715,0Zm3.578,-0.874c0.014,-0.777 -0.319,-1.985 -1.692,-1.985c-1.234,0 -1.775,1.138 -1.872,1.985l3.564,0Z" style="fill:#00ae4d;fill-rule:nonzero;"/><path d="M97.527,28.247l-1.193,-2.068c-0.485,-0.791 -0.79,-1.305 -1.081,-1.846l-0.028,0c-0.263,0.541 -0.527,1.041 -1.012,1.86l-1.123,2.054l-1.387,0l2.856,-4.733l-2.745,-4.622l1.4,0l1.234,2.194c0.347,0.61 0.611,1.082 0.86,1.582l0.042,0c0.263,-0.556 0.499,-0.986 0.846,-1.582l1.276,-2.194l1.386,0l-2.843,4.553l2.913,4.802l-1.401,0Z" style="fill:#00ae4d;fill-rule:nonzero;"/><path d="M105.473,27.997c-0.319,0.166 -1.027,0.389 -1.928,0.389c-2.024,0 -3.342,-1.374 -3.342,-3.428c0,-2.068 1.414,-3.567 3.606,-3.567c0.721,0 1.359,0.18 1.691,0.347l-0.277,0.943c-0.291,-0.166 -0.749,-0.319 -1.414,-0.319c-1.54,0 -2.372,1.139 -2.372,2.54c0,1.555 0.999,2.512 2.33,2.512c0.693,0 1.151,-0.18 1.498,-0.333l0.208,0.916Z" style="fill:#00ae4d;fill-rule:nonzero;"/><path d="M107.178,18.393l1.22,0l0,4.191l0.028,0c0.194,-0.347 0.499,-0.652 0.874,-0.86c0.36,-0.208 0.79,-0.347 1.248,-0.347c0.901,0 2.343,0.555 2.343,2.873l0,3.997l-1.22,0l0,-3.858c0,-1.083 -0.402,-1.999 -1.553,-1.999c-0.791,0 -1.415,0.555 -1.636,1.221c-0.07,0.167 -0.084,0.347 -0.084,0.583l0,4.053l-1.22,0l0,-9.854Z" style="fill:#00ae4d;fill-rule:nonzero;"/><path d="M119.145,28.247l-0.097,-0.847l-0.041,0c-0.375,0.528 -1.096,1 -2.053,1c-1.359,0 -2.052,-0.958 -2.052,-1.93c0,-1.623 1.442,-2.512 4.035,-2.498l0,-0.139c0,-0.555 -0.152,-1.554 -1.525,-1.554c-0.624,0 -1.276,0.194 -1.748,0.5l-0.277,-0.805c0.555,-0.361 1.359,-0.597 2.205,-0.597c2.052,0 2.552,1.402 2.552,2.748l0,2.512c0,0.583 0.027,1.152 0.11,1.61l-1.109,0Zm-0.18,-3.428c-1.331,-0.028 -2.843,0.208 -2.843,1.513c0,0.791 0.527,1.165 1.151,1.165c0.874,0 1.428,-0.555 1.623,-1.124c0.041,-0.125 0.069,-0.263 0.069,-0.388l0,-1.166Z" style="fill:#00ae4d;fill-rule:nonzero;"/><path d="M122.39,23.348c0,-0.694 -0.014,-1.263 -0.056,-1.818l1.082,0l0.069,1.11l0.028,0c0.333,-0.638 1.109,-1.263 2.219,-1.263c0.929,0 2.371,0.555 2.371,2.859l0,4.011l-1.22,0l0,-3.872c0,-1.083 -0.403,-1.985 -1.553,-1.985c-0.805,0 -1.429,0.569 -1.637,1.249c-0.055,0.153 -0.083,0.361 -0.083,0.569l0,4.039l-1.22,0l0,-4.899Z" style="fill:#00ae4d;fill-rule:nonzero;"/><path d="M136.146,21.53c-0.028,0.485 -0.056,1.027 -0.056,1.845l0,3.9c0,1.541 -0.305,2.485 -0.957,3.067c-0.651,0.611 -1.594,0.805 -2.44,0.805c-0.805,0 -1.692,-0.194 -2.233,-0.555l0.305,-0.93c0.444,0.278 1.137,0.528 1.969,0.528c1.248,0 2.164,-0.652 2.164,-2.346l0,-0.749l-0.028,0c-0.374,0.625 -1.096,1.124 -2.136,1.124c-1.664,0 -2.856,-1.416 -2.856,-3.275c0,-2.276 1.483,-3.567 3.023,-3.567c1.164,0 1.802,0.611 2.094,1.166l0.027,0l0.056,-1.013l1.068,0Zm-1.262,2.65c0,-0.208 -0.014,-0.388 -0.07,-0.555c-0.221,-0.708 -0.818,-1.29 -1.705,-1.29c-1.165,0 -1.997,0.985 -1.997,2.539c0,1.319 0.665,2.415 1.983,2.415c0.749,0 1.428,-0.472 1.692,-1.249c0.069,-0.208 0.097,-0.444 0.097,-0.652l0,-1.208Z" style="fill:#00ae4d;fill-rule:nonzero;"/><path d="M139.349,25.11c0.027,1.652 1.081,2.332 2.301,2.332c0.874,0 1.401,-0.153 1.859,-0.347l0.208,0.874c-0.43,0.195 -1.165,0.417 -2.233,0.417c-2.066,0 -3.3,-1.36 -3.3,-3.387c0,-2.026 1.192,-3.622 3.148,-3.622c2.191,0 2.773,1.929 2.773,3.164c0,0.25 -0.028,0.444 -0.042,0.569l-4.714,0Zm3.577,-0.874c0.014,-0.777 -0.319,-1.985 -1.691,-1.985c-1.235,0 -1.775,1.138 -1.872,1.985l3.563,0Z" style="fill:#00ae4d;fill-rule:nonzero;"/></g><path d="M16.816,0.623c-0.376,0 -0.752,0.013 -1.127,0.038c-0.334,0.022 -0.667,0.044 -1,0.076c-0.662,0.062 -1.314,0.189 -1.958,0.348c-2.573,0.634 -4.866,1.815 -6.874,3.545c-1.778,1.532 -3.17,3.362 -4.175,5.485c-0.9,1.9 -1.407,3.903 -1.547,5.999c-0.029,0.424 -0.035,0.851 -0.026,1.276c0.011,0.506 0.031,1.013 0.083,1.516c0.051,0.505 0.133,1.008 0.227,1.507c0.264,1.399 0.72,2.737 1.342,4.018c0.708,1.455 1.61,2.779 2.705,3.97c1.214,1.32 2.602,2.419 4.171,3.288c1.94,1.075 4.011,1.741 6.218,1.97c0.545,0.056 1.093,0.091 1.64,0.102c0.857,0.016 1.711,-0.048 2.56,-0.171c0.794,-0.115 1.576,-0.284 2.344,-0.515c2.8,-0.844 5.21,-2.328 7.238,-4.434c0.021,-0.022 0.04,-0.046 0.061,-0.07c-0.033,-0.005 -0.055,0.001 -0.076,0.01c-0.271,0.103 -0.541,0.209 -0.814,0.309c-1.74,0.637 -3.536,0.947 -5.39,0.93c-0.777,-0.007 -1.552,-0.022 -2.325,-0.092c-0.364,-0.033 -0.726,-0.072 -1.089,-0.106c-0.104,-0.01 -0.274,-0.009 -0.377,0.002c-0.421,0.046 -0.841,0.108 -1.263,0.133c-0.415,0.025 -0.833,0.024 -1.249,0.003c-0.462,-0.024 -0.925,-0.065 -1.383,-0.13c-0.768,-0.109 -1.519,-0.299 -2.249,-0.563c-2.75,-0.991 -4.915,-2.721 -6.482,-5.189c-1.15,-1.812 -1.771,-3.8 -1.904,-5.94c-0.025,-0.412 -0.01,-0.827 -0.005,-1.24c0.005,-0.577 0.079,-1.146 0.177,-1.713c0.191,-1.098 0.525,-2.152 1.002,-3.158c0.879,-1.852 2.129,-3.408 3.761,-4.648c2.21,-1.679 4.71,-2.531 7.482,-2.579c0.347,-0.006 0.696,0.011 1.042,0.035c0.316,0.021 0.63,0.066 0.945,0.098c0.163,0.016 0.327,0.036 0.49,0.035c0.13,0 0.261,-0.033 0.392,-0.044c0.39,-0.033 0.78,-0.071 1.172,-0.091c0.568,-0.029 1.137,-0.062 1.706,-0.058c0.61,0.004 1.221,0.036 1.83,0.079c0.387,0.027 0.774,0.08 1.155,0.149c0.974,0.175 1.918,0.457 2.845,0.802c0.212,0.079 0.422,0.163 0.632,0.244c-0.023,-0.045 -0.055,-0.08 -0.088,-0.113c-1.485,-1.547 -3.201,-2.77 -5.154,-3.656c-1.571,-0.712 -3.214,-1.164 -4.926,-1.356c-0.421,-0.047 -0.844,-0.064 -1.267,-0.088c-0.141,-0.008 -0.282,-0.013 -0.423,-0.013l-0.049,0Z" style="fill:url(#_Linear2);fill-rule:nonzero;"/><path d="M43.472,3.272c0.472,0.405 0.933,0.8 1.405,1.204c-0.035,0.039 -0.062,0.071 -0.089,0.101c-0.603,0.665 -1.203,1.331 -1.808,1.993c-2.314,2.534 -4.627,5.067 -6.944,7.598c-0.282,-0.327 -0.565,-0.654 -0.85,-0.979c-2.16,-2.458 -4.319,-4.917 -6.481,-7.375c-0.047,-0.053 -0.112,-0.101 -0.178,-0.126c-0.44,-0.166 -0.953,-0.261 -1.399,-0.409c-0.931,-0.309 -1.88,-0.542 -2.857,-0.653c-0.718,-0.082 -1.44,-0.125 -2.162,-0.109c-0.818,0.019 -1.635,0.064 -2.452,0.109c-0.319,0.017 -0.637,0.064 -0.955,0.098l0.091,0.026c0.572,0.096 1.108,0.301 1.63,0.545c1.012,0.475 1.932,1.097 2.807,1.788c1.062,0.841 2.043,1.773 3.004,2.726c1.726,1.711 3.372,3.498 4.981,5.319c0.588,0.665 1.184,1.325 1.741,2.016c0.034,0.042 0.069,0.084 0.103,0.127c-0.019,0.019 -0.039,0.038 -0.057,0.058c-0.515,0.589 -1.024,1.184 -1.541,1.771c-1.47,1.668 -2.972,3.306 -4.536,4.887c-1.061,1.073 -2.142,2.126 -3.311,3.082c-0.95,0.777 -1.953,1.472 -3.067,1.995c-0.549,0.258 -1.291,0.467 -1.896,0.561c0.231,0.03 0.641,0.062 0.873,0.079c0.583,0.044 1.165,0.103 1.749,0.117c0.709,0.017 1.42,0.003 2.13,-0.014c0.581,-0.014 1.16,-0.078 1.732,-0.183c1.197,-0.22 2.212,-0.437 3.336,-0.899c0.051,-0.021 0.189,-0.11 0.225,-0.15c2.359,-2.619 4.748,-5.288 7.118,-7.934c1.184,1.422 2.387,2.828 3.626,4.204c0.745,0.826 1.486,1.658 2.311,2.408c0.513,0.466 1.118,0.657 1.802,0.536c0.795,-0.141 1.356,-0.599 1.634,-1.356c0.279,-0.759 0.155,-1.473 -0.361,-2.108c-0.053,-0.065 -0.112,-0.125 -0.167,-0.188c-1.326,-1.511 -2.652,-3.021 -3.978,-4.531c-0.651,-0.74 -1.292,-1.49 -1.93,-2.243c1.652,-1.844 3.299,-3.693 4.94,-5.547c1.247,-1.408 2.475,-2.832 3.713,-4.248c0.153,-0.176 0.311,-0.347 0.47,-0.524c0.443,0.379 0.878,0.752 1.324,1.134c0.774,-2.677 1.541,-5.335 2.316,-8.015c-2.693,1.041 -5.36,2.072 -8.042,3.109Zm2.822,23.985c-1.121,0.147 -1.931,1.165 -1.83,2.299c0.079,0.883 0.68,1.613 1.534,1.856c0.14,0.04 0.285,0.06 0.429,0.089l0.305,0c0.117,-0.022 0.236,-0.037 0.351,-0.066c0.882,-0.22 1.506,-0.938 1.61,-1.846c0.003,-0.023 0.012,-0.046 0.018,-0.069l0,-0.306c-0.008,-0.047 -0.017,-0.094 -0.023,-0.14c-0.153,-1.068 -1.062,-1.836 -2.111,-1.836c-0.094,0 -0.188,0.006 -0.283,0.019Z" style="fill:url(#_Linear3);fill-rule:nonzero;"/></g></g></g><defs><linearGradient id="_Linear2" x1="0" y1="0" x2="1" y2="0" gradientUnits="userSpaceOnUse" gradientTransform="matrix(28.6237,0,0,-28.6474,0.0997839,17.2002)"><stop offset="0" style="stop-color:#f29c1b;stop-opacity:1"/><stop offset="1" style="stop-color:#e76f23;stop-opacity:1"/></linearGradient><linearGradient id="_Linear3" x1="0" y1="0" x2="1" y2="0" gradientUnits="userSpaceOnUse" gradientTransform="matrix(0,-31.298,-31.2721,-0,35.0822,31.4612)"><stop offset="0" style="stop-color:#00632f;stop-opacity:1"/><stop offset="0" style="stop-color:#00632f;stop-opacity:1"/><stop offset="0.53" style="stop-color:#00953d;stop-opacity:1"/><stop offset="1" style="stop-color:#00632f;stop-opacity:1"/></linearGradient></defs></svg>