<?xml version="1.0" encoding="UTF-8" standalone="no"?><!DOCTYPE svg PUBLIC "-//W3C//DTD SVG 1.1//EN" "http://www.w3.org/Graphics/SVG/1.1/DTD/svg11.dtd"><svg width="100%" height="100%" viewBox="0 0 620 204" version="1.1" xmlns="http://www.w3.org/2000/svg" xmlns:xlink="http://www.w3.org/1999/xlink" xml:space="preserve" xmlns:serif="http://www.serif.com/" style="fill-rule:evenodd;clip-rule:evenodd;stroke-linejoin:round;stroke-miterlimit:1.41421;"><rect id="stratum_logo_gray" x="0" y="0" width="620" height="204" style="fill:none;"/><g><g id="Symbol"><path d="M0,101.625l119.38,-87.063l40.737,30.188l-78.415,57.188l77.977,57.752l-40.966,29.856l-118.713,-87.921Z" style="fill:#d2d2d2;fill-rule:nonzero;"/><path d="M49.942,159.256l78.416,-57.193l-77.976,-57.749l40.964,-29.86l118.715,87.922l-119.378,87.067l-40.741,-30.187Z" style="fill:#858585;fill-rule:nonzero;"/><path d="M105.191,150.116c-25.95,-0.104 -46.985,-21.299 -46.885,-47.261c0.102,-25.864 21.213,-46.902 47.067,-46.902c12.762,0.047 24.573,4.985 33.429,13.914c8.858,8.927 13.711,20.768 13.666,33.346c-0.101,25.863 -21.224,46.903 -47.094,46.903l-0.183,0Z" style="fill:#2e2e2e;fill-rule:nonzero;"/><g><clipPath id="_clip1"><path d="M58.305,102.856c-0.1,25.96 20.936,47.155 46.886,47.26l0.182,0c25.871,0 46.994,-21.039 47.094,-46.903c0.046,-12.578 -4.806,-24.418 -13.666,-33.346c-8.855,-8.929 -20.665,-13.868 -33.429,-13.914c-25.853,0 -46.963,21.038 -47.067,46.903Z" clip-rule="nonzero"/></clipPath><g clip-path="url(#_clip1)"><path d="M68.095,109.557l-2.141,0l0,-14.275l-4.413,1.697l0,-1.977l6.381,-2.481l0.173,0l0,17.036Z" style="fill:#b1b1b1;fill-rule:nonzero;"/><path d="M83.749,109.557l-2.142,0l0,-14.275l-4.412,1.697l0,-1.977l6.38,-2.481l0.174,0l0,17.036Z" style="fill:#b1b1b1;fill-rule:nonzero;"/><path d="M100.884,99.589l-6.554,5.066c0.132,1.1 0.467,1.938 1.008,2.516c0.54,0.577 1.293,0.865 2.258,0.865c1.135,0 1.967,-0.39 2.495,-1.17c0.529,-0.779 0.793,-1.903 0.793,-3.369l0,-3.908Zm-6.611,3.018l6.566,-5.089c-0.124,-1.131 -0.45,-1.991 -0.979,-2.581c-0.53,-0.589 -1.292,-0.883 -2.287,-0.883c-1.127,0 -1.959,0.385 -2.496,1.152c-0.536,0.769 -0.804,1.89 -0.804,3.364l0,4.037Zm8.765,0.433c0,1.084 -0.123,2.046 -0.37,2.884c-0.248,0.838 -0.603,1.544 -1.065,2.118c-0.464,0.573 -1.031,1.008 -1.703,1.304c-0.671,0.297 -1.439,0.445 -2.304,0.445c-0.857,0 -1.623,-0.148 -2.298,-0.445c-0.675,-0.296 -1.249,-0.731 -1.72,-1.304c-0.471,-0.574 -0.832,-1.28 -1.083,-2.118c-0.25,-0.838 -0.376,-1.8 -0.376,-2.884l0,-3.99c0,-1.084 0.124,-2.046 0.37,-2.885c0.247,-0.838 0.604,-1.545 1.071,-2.123c0.467,-0.578 1.039,-1.016 1.714,-1.316c0.676,-0.301 1.442,-0.451 2.299,-0.451c0.865,0 1.635,0.15 2.31,0.451c0.675,0.3 1.247,0.738 1.714,1.316c0.466,0.578 0.823,1.285 1.071,2.123c0.247,0.839 0.37,1.801 0.37,2.885l0,3.99Z" style="fill:#b1b1b1;fill-rule:nonzero;"/><path d="M116.538,99.589l-6.554,5.066c0.132,1.1 0.467,1.938 1.007,2.516c0.541,0.577 1.294,0.865 2.258,0.865c1.136,0 1.967,-0.39 2.496,-1.17c0.529,-0.779 0.793,-1.903 0.793,-3.369l0,-3.908Zm-6.611,3.018l6.565,-5.089c-0.124,-1.131 -0.45,-1.991 -0.978,-2.581c-0.53,-0.589 -1.292,-0.883 -2.287,-0.883c-1.128,0 -1.959,0.385 -2.496,1.152c-0.537,0.769 -0.804,1.89 -0.804,3.364l0,4.037Zm8.764,0.433c0,1.084 -0.122,2.046 -0.37,2.884c-0.247,0.838 -0.602,1.544 -1.065,2.118c-0.464,0.573 -1.03,1.008 -1.702,1.304c-0.672,0.297 -1.44,0.445 -2.305,0.445c-0.856,0 -1.622,-0.148 -2.298,-0.445c-0.675,-0.296 -1.248,-0.731 -1.719,-1.304c-0.471,-0.574 -0.832,-1.28 -1.083,-2.118c-0.251,-0.838 -0.376,-1.8 -0.376,-2.884l0,-3.99c0,-1.084 0.123,-2.046 0.37,-2.885c0.247,-0.838 0.604,-1.545 1.071,-2.123c0.467,-0.578 1.038,-1.016 1.713,-1.316c0.677,-0.301 1.443,-0.451 2.3,-0.451c0.864,0 1.634,0.15 2.31,0.451c0.675,0.3 1.246,0.738 1.713,1.316c0.467,0.578 0.824,1.285 1.071,2.123c0.248,0.839 0.37,1.801 0.37,2.885l0,3.99Z" style="fill:#b1b1b1;fill-rule:nonzero;"/><path d="M130.71,109.557l-2.141,0l0,-14.275l-4.413,1.697l0,-1.977l6.381,-2.481l0.173,0l0,17.036Z" style="fill:#b1b1b1;fill-rule:nonzero;"/><path d="M146.364,109.557l-2.142,0l0,-14.275l-4.412,1.697l0,-1.977l6.38,-2.481l0.174,0l0,17.036Z" style="fill:#b1b1b1;fill-rule:nonzero;"/><g><g opacity="0.5"><path d="M70.646,73.445l0,14.893l-1.868,0l0,-13.404l-2.283,0l0,-1.063c0.319,-0.114 0.761,-0.213 1.329,-0.299c0.567,-0.084 1.161,-0.127 1.784,-0.127l1.038,0Z" style="fill:#b7b7b7;fill-rule:nonzero;"/><path d="M80.19,73.445l0,14.893l-1.868,0l0,-13.404l-2.282,0l0,-1.063c0.318,-0.114 0.761,-0.213 1.328,-0.299c0.567,-0.084 1.161,-0.127 1.785,-0.127l1.037,0Z" style="fill:#b7b7b7;fill-rule:nonzero;"/><path d="M90.668,87.273c0.291,0 0.578,-0.092 0.861,-0.276c0.284,-0.184 0.54,-0.517 0.768,-0.999c0.229,-0.483 0.411,-1.135 0.55,-1.958c0.139,-0.822 0.207,-1.872 0.207,-3.148c0,-1.278 -0.068,-2.326 -0.207,-3.15c-0.139,-0.822 -0.321,-1.474 -0.55,-1.957c-0.228,-0.482 -0.484,-0.815 -0.768,-1c-0.283,-0.184 -0.57,-0.277 -0.861,-0.277c-0.291,0 -0.577,0.093 -0.86,0.277c-0.285,0.185 -0.54,0.518 -0.768,1c-0.229,0.483 -0.412,1.135 -0.551,1.957c-0.138,0.824 -0.207,1.872 -0.207,3.15c0,1.276 0.069,2.326 0.207,3.148c0.139,0.823 0.322,1.475 0.551,1.958c0.228,0.482 0.483,0.815 0.768,0.999c0.283,0.184 0.569,0.276 0.86,0.276m0,-14.04c0.65,0 1.238,0.12 1.764,0.361c0.526,0.241 0.971,0.652 1.339,1.233c0.366,0.582 0.65,1.367 0.85,2.351c0.201,0.987 0.301,2.224 0.301,3.714c0,1.489 -0.1,2.726 -0.301,3.711c-0.2,0.987 -0.484,1.77 -0.85,2.351c-0.368,0.583 -0.813,0.994 -1.339,1.234c-0.526,0.242 -1.114,0.361 -1.764,0.361c-0.65,0 -1.237,-0.119 -1.763,-0.361c-0.526,-0.24 -0.973,-0.651 -1.339,-1.234c-0.367,-0.581 -0.65,-1.364 -0.85,-2.351c-0.201,-0.985 -0.302,-2.222 -0.302,-3.711c0,-1.49 0.101,-2.727 0.302,-3.714c0.2,-0.984 0.483,-1.769 0.85,-2.351c0.366,-0.581 0.813,-0.992 1.339,-1.233c0.526,-0.241 1.113,-0.361 1.763,-0.361" style="fill:#b7b7b7;fill-rule:nonzero;"/><path d="M103.844,73.445l0,14.893l-1.868,0l0,-13.404l-2.282,0l0,-1.063c0.318,-0.114 0.761,-0.213 1.328,-0.299c0.567,-0.084 1.161,-0.127 1.785,-0.127l1.037,0Z" style="fill:#b7b7b7;fill-rule:nonzero;"/><path d="M114.322,87.273c0.29,0 0.578,-0.092 0.861,-0.276c0.283,-0.184 0.54,-0.517 0.768,-0.999c0.228,-0.483 0.411,-1.135 0.55,-1.958c0.138,-0.822 0.207,-1.872 0.207,-3.148c0,-1.278 -0.069,-2.326 -0.207,-3.15c-0.139,-0.822 -0.322,-1.474 -0.55,-1.957c-0.228,-0.482 -0.485,-0.815 -0.768,-1c-0.283,-0.184 -0.571,-0.277 -0.861,-0.277c-0.291,0 -0.577,0.093 -0.861,0.277c-0.284,0.185 -0.539,0.518 -0.768,1c-0.228,0.483 -0.412,1.135 -0.55,1.957c-0.138,0.824 -0.208,1.872 -0.208,3.15c0,1.276 0.07,2.326 0.208,3.148c0.138,0.823 0.322,1.475 0.55,1.958c0.229,0.482 0.484,0.815 0.768,0.999c0.284,0.184 0.57,0.276 0.861,0.276m0,-14.04c0.649,0 1.238,0.12 1.764,0.361c0.525,0.241 0.971,0.652 1.338,1.233c0.366,0.582 0.65,1.367 0.851,2.351c0.2,0.987 0.3,2.224 0.3,3.714c0,1.489 -0.1,2.726 -0.3,3.711c-0.201,0.987 -0.485,1.77 -0.851,2.351c-0.367,0.583 -0.813,0.994 -1.338,1.234c-0.526,0.242 -1.115,0.361 -1.764,0.361c-0.65,0 -1.238,-0.119 -1.763,-0.361c-0.526,-0.24 -0.973,-0.651 -1.339,-1.234c-0.367,-0.581 -0.65,-1.364 -0.851,-2.351c-0.2,-0.985 -0.301,-2.222 -0.301,-3.711c0,-1.49 0.101,-2.727 0.301,-3.714c0.201,-0.984 0.484,-1.769 0.851,-2.351c0.366,-0.581 0.813,-0.992 1.339,-1.233c0.525,-0.241 1.113,-0.361 1.763,-0.361" style="fill:#b7b7b7;fill-rule:nonzero;"/><path d="M128.639,87.273c0.29,0 0.577,-0.092 0.861,-0.276c0.283,-0.184 0.539,-0.517 0.768,-0.999c0.228,-0.483 0.411,-1.135 0.549,-1.958c0.139,-0.822 0.208,-1.872 0.208,-3.148c0,-1.278 -0.069,-2.326 -0.208,-3.15c-0.138,-0.822 -0.321,-1.474 -0.549,-1.957c-0.229,-0.482 -0.485,-0.815 -0.768,-1c-0.284,-0.184 -0.571,-0.277 -0.861,-0.277c-0.291,0 -0.578,0.093 -0.861,0.277c-0.284,0.185 -0.54,0.518 -0.768,1c-0.228,0.483 -0.412,1.135 -0.551,1.957c-0.137,0.824 -0.207,1.872 -0.207,3.15c0,1.276 0.07,2.326 0.207,3.148c0.139,0.823 0.323,1.475 0.551,1.958c0.228,0.482 0.484,0.815 0.768,0.999c0.283,0.184 0.57,0.276 0.861,0.276m0,-14.04c0.649,0 1.238,0.12 1.763,0.361c0.526,0.241 0.972,0.652 1.339,1.233c0.366,0.582 0.65,1.367 0.851,2.351c0.2,0.987 0.3,2.224 0.3,3.714c0,1.489 -0.1,2.726 -0.3,3.711c-0.201,0.987 -0.485,1.77 -0.851,2.351c-0.367,0.583 -0.813,0.994 -1.339,1.234c-0.525,0.242 -1.114,0.361 -1.763,0.361c-0.651,0 -1.238,-0.119 -1.764,-0.361c-0.525,-0.24 -0.972,-0.651 -1.338,-1.234c-0.367,-0.581 -0.651,-1.364 -0.851,-2.351c-0.201,-0.985 -0.301,-2.222 -0.301,-3.711c0,-1.49 0.1,-2.727 0.301,-3.714c0.2,-0.984 0.484,-1.769 0.851,-2.351c0.366,-0.581 0.813,-0.992 1.338,-1.233c0.526,-0.241 1.113,-0.361 1.764,-0.361" style="fill:#b7b7b7;fill-rule:nonzero;"/><path d="M141.814,73.445l0,14.893l-1.868,0l0,-13.404l-2.282,0l0,-1.063c0.318,-0.114 0.761,-0.213 1.329,-0.299c0.566,-0.084 1.161,-0.127 1.784,-0.127l1.037,0Z" style="fill:#b7b7b7;fill-rule:nonzero;"/></g></g><g><g opacity="0.5"><path d="M63.441,127.026c0.284,0 0.563,-0.093 0.84,-0.276c0.278,-0.185 0.527,-0.518 0.751,-1c0.222,-0.483 0.401,-1.135 0.536,-1.958c0.135,-0.822 0.203,-1.872 0.203,-3.148c0,-1.277 -0.068,-2.326 -0.203,-3.15c-0.135,-0.822 -0.314,-1.474 -0.536,-1.957c-0.224,-0.481 -0.473,-0.815 -0.751,-1c-0.277,-0.184 -0.556,-0.276 -0.84,-0.276c-0.284,0 -0.564,0.092 -0.841,0.276c-0.278,0.185 -0.527,0.519 -0.749,1c-0.224,0.483 -0.402,1.135 -0.537,1.957c-0.136,0.824 -0.202,1.873 -0.202,3.15c0,1.276 0.066,2.326 0.202,3.148c0.135,0.823 0.313,1.475 0.537,1.958c0.222,0.482 0.471,0.815 0.749,1c0.277,0.183 0.557,0.276 0.841,0.276m0,-14.041c0.635,0 1.209,0.121 1.722,0.361c0.513,0.241 0.949,0.652 1.307,1.234c0.358,0.581 0.634,1.366 0.831,2.351c0.194,0.986 0.293,2.223 0.293,3.713c0,1.489 -0.099,2.726 -0.293,3.712c-0.197,0.986 -0.473,1.769 -0.831,2.351c-0.358,0.582 -0.794,0.993 -1.307,1.234c-0.513,0.241 -1.087,0.361 -1.722,0.361c-0.635,0 -1.209,-0.12 -1.722,-0.361c-0.514,-0.241 -0.95,-0.652 -1.307,-1.234c-0.359,-0.582 -0.635,-1.365 -0.83,-2.351c-0.196,-0.986 -0.295,-2.223 -0.295,-3.712c0,-1.49 0.099,-2.727 0.295,-3.713c0.195,-0.985 0.471,-1.77 0.83,-2.351c0.357,-0.582 0.793,-0.993 1.307,-1.234c0.513,-0.24 1.087,-0.361 1.722,-0.361" style="fill:#b7b7b7;fill-rule:nonzero;"/><path d="M78.23,127.026c0.284,0 0.563,-0.093 0.841,-0.276c0.277,-0.185 0.526,-0.518 0.75,-1c0.222,-0.483 0.402,-1.135 0.536,-1.958c0.135,-0.822 0.203,-1.872 0.203,-3.148c0,-1.277 -0.068,-2.326 -0.203,-3.15c-0.134,-0.822 -0.314,-1.474 -0.536,-1.957c-0.224,-0.481 -0.473,-0.815 -0.75,-1c-0.278,-0.184 -0.557,-0.276 -0.841,-0.276c-0.284,0 -0.564,0.092 -0.841,0.276c-0.277,0.185 -0.527,0.519 -0.749,1c-0.224,0.483 -0.402,1.135 -0.537,1.957c-0.135,0.824 -0.202,1.873 -0.202,3.15c0,1.276 0.067,2.326 0.202,3.148c0.135,0.823 0.313,1.475 0.537,1.958c0.222,0.482 0.472,0.815 0.749,1c0.277,0.183 0.557,0.276 0.841,0.276m0,-14.041c0.635,0 1.209,0.121 1.722,0.361c0.513,0.241 0.949,0.652 1.307,1.234c0.358,0.581 0.634,1.366 0.831,2.351c0.194,0.986 0.293,2.223 0.293,3.713c0,1.489 -0.099,2.726 -0.293,3.712c-0.197,0.986 -0.473,1.769 -0.831,2.351c-0.358,0.582 -0.794,0.993 -1.307,1.234c-0.513,0.241 -1.087,0.361 -1.722,0.361c-0.635,0 -1.209,-0.12 -1.722,-0.361c-0.514,-0.241 -0.949,-0.652 -1.306,-1.234c-0.36,-0.582 -0.636,-1.365 -0.831,-2.351c-0.196,-0.986 -0.295,-2.223 -0.295,-3.712c0,-1.49 0.099,-2.727 0.295,-3.713c0.195,-0.985 0.471,-1.77 0.831,-2.351c0.357,-0.582 0.792,-0.993 1.306,-1.234c0.513,-0.24 1.087,-0.361 1.722,-0.361" style="fill:#b7b7b7;fill-rule:nonzero;"/><path d="M93.019,127.026c0.284,0 0.563,-0.093 0.841,-0.276c0.277,-0.185 0.526,-0.518 0.75,-1c0.222,-0.483 0.402,-1.135 0.536,-1.958c0.135,-0.822 0.203,-1.872 0.203,-3.148c0,-1.277 -0.068,-2.326 -0.203,-3.15c-0.134,-0.822 -0.314,-1.474 -0.536,-1.957c-0.224,-0.481 -0.473,-0.815 -0.75,-1c-0.278,-0.184 -0.557,-0.276 -0.841,-0.276c-0.283,0 -0.564,0.092 -0.841,0.276c-0.277,0.185 -0.527,0.519 -0.749,1c-0.223,0.483 -0.402,1.135 -0.537,1.957c-0.135,0.824 -0.202,1.873 -0.202,3.15c0,1.276 0.067,2.326 0.202,3.148c0.135,0.823 0.314,1.475 0.537,1.958c0.222,0.482 0.472,0.815 0.749,1c0.277,0.183 0.558,0.276 0.841,0.276m0,-14.041c0.635,0 1.209,0.121 1.723,0.361c0.512,0.241 0.948,0.652 1.306,1.234c0.358,0.581 0.635,1.366 0.831,2.351c0.195,0.986 0.293,2.223 0.293,3.713c0,1.489 -0.098,2.726 -0.293,3.712c-0.196,0.986 -0.473,1.769 -0.831,2.351c-0.358,0.582 -0.794,0.993 -1.306,1.234c-0.514,0.241 -1.088,0.361 -1.723,0.361c-0.634,0 -1.209,-0.12 -1.722,-0.361c-0.513,-0.241 -0.949,-0.652 -1.306,-1.234c-0.359,-0.582 -0.636,-1.365 -0.831,-2.351c-0.196,-0.986 -0.294,-2.223 -0.294,-3.712c0,-1.49 0.098,-2.727 0.294,-3.713c0.195,-0.985 0.472,-1.77 0.831,-2.351c0.357,-0.582 0.793,-0.993 1.306,-1.234c0.513,-0.24 1.088,-0.361 1.722,-0.361" style="fill:#b7b7b7;fill-rule:nonzero;"/><path d="M106.694,113.197l0,14.893l-1.824,0l0,-13.404l-2.228,0l0,-1.063c0.311,-0.114 0.743,-0.212 1.297,-0.298c0.553,-0.085 1.134,-0.128 1.742,-0.128l1.013,0Z" style="fill:#b7b7b7;fill-rule:nonzero;"/><path d="M117.735,127.026c0.284,0 0.564,-0.093 0.841,-0.276c0.277,-0.185 0.527,-0.518 0.75,-1c0.222,-0.483 0.402,-1.135 0.537,-1.958c0.134,-0.822 0.202,-1.872 0.202,-3.148c0,-1.277 -0.068,-2.326 -0.202,-3.15c-0.135,-0.822 -0.315,-1.474 -0.537,-1.957c-0.223,-0.481 -0.473,-0.815 -0.75,-1c-0.277,-0.184 -0.557,-0.276 -0.841,-0.276c-0.283,0 -0.563,0.092 -0.841,0.276c-0.277,0.185 -0.526,0.519 -0.749,1c-0.223,0.483 -0.402,1.135 -0.536,1.957c-0.136,0.824 -0.203,1.873 -0.203,3.15c0,1.276 0.067,2.326 0.203,3.148c0.134,0.823 0.313,1.475 0.536,1.958c0.223,0.482 0.472,0.815 0.749,1c0.278,0.183 0.558,0.276 0.841,0.276m0,-14.041c0.636,0 1.209,0.121 1.723,0.361c0.512,0.241 0.948,0.652 1.306,1.234c0.358,0.581 0.635,1.366 0.831,2.351c0.195,0.986 0.293,2.223 0.293,3.713c0,1.489 -0.098,2.726 -0.293,3.712c-0.196,0.986 -0.473,1.769 -0.831,2.351c-0.358,0.582 -0.794,0.993 -1.306,1.234c-0.514,0.241 -1.087,0.361 -1.723,0.361c-0.634,0 -1.209,-0.12 -1.721,-0.361c-0.514,-0.241 -0.95,-0.652 -1.307,-1.234c-0.359,-0.582 -0.635,-1.365 -0.831,-2.351c-0.195,-0.986 -0.294,-2.223 -0.294,-3.712c0,-1.49 0.099,-2.727 0.294,-3.713c0.196,-0.985 0.472,-1.77 0.831,-2.351c0.357,-0.582 0.793,-0.993 1.307,-1.234c0.512,-0.24 1.087,-0.361 1.721,-0.361" style="fill:#b7b7b7;fill-rule:nonzero;"/><path d="M132.524,127.026c0.285,0 0.564,-0.093 0.841,-0.276c0.277,-0.185 0.527,-0.518 0.75,-1c0.223,-0.483 0.402,-1.135 0.537,-1.958c0.135,-0.822 0.202,-1.872 0.202,-3.148c0,-1.277 -0.067,-2.326 -0.202,-3.15c-0.135,-0.822 -0.314,-1.474 -0.537,-1.957c-0.223,-0.481 -0.473,-0.815 -0.75,-1c-0.277,-0.184 -0.556,-0.276 -0.841,-0.276c-0.283,0 -0.563,0.092 -0.84,0.276c-0.278,0.185 -0.527,0.519 -0.75,1c-0.223,0.483 -0.402,1.135 -0.536,1.957c-0.136,0.824 -0.203,1.873 -0.203,3.15c0,1.276 0.067,2.326 0.203,3.148c0.134,0.823 0.313,1.475 0.536,1.958c0.223,0.482 0.472,0.815 0.75,1c0.277,0.183 0.557,0.276 0.84,0.276m0,-14.041c0.636,0 1.209,0.121 1.723,0.361c0.513,0.241 0.948,0.652 1.307,1.234c0.358,0.581 0.634,1.366 0.83,2.351c0.195,0.986 0.294,2.223 0.294,3.713c0,1.489 -0.099,2.726 -0.294,3.712c-0.196,0.986 -0.472,1.769 -0.83,2.351c-0.359,0.582 -0.794,0.993 -1.307,1.234c-0.514,0.241 -1.087,0.361 -1.723,0.361c-0.634,0 -1.209,-0.12 -1.721,-0.361c-0.514,-0.241 -0.95,-0.652 -1.307,-1.234c-0.359,-0.582 -0.635,-1.365 -0.831,-2.351c-0.195,-0.986 -0.294,-2.223 -0.294,-3.712c0,-1.49 0.099,-2.727 0.294,-3.713c0.196,-0.985 0.472,-1.77 0.831,-2.351c0.357,-0.582 0.793,-0.993 1.307,-1.234c0.512,-0.24 1.087,-0.361 1.721,-0.361" style="fill:#b7b7b7;fill-rule:nonzero;"/><path d="M146.199,113.197l0,14.893l-1.823,0l0,-13.404l-2.228,0l0,-1.063c0.311,-0.114 0.743,-0.212 1.296,-0.298c0.554,-0.085 1.134,-0.128 1.743,-0.128l1.012,0Z" style="fill:#b7b7b7;fill-rule:nonzero;"/></g></g><g><g opacity="0.5"><path d="M66.069,53.619l0,14.892l-1.869,0l0,-13.403l-2.282,0l0,-1.063c0.318,-0.114 0.761,-0.213 1.329,-0.299c0.566,-0.084 1.161,-0.127 1.784,-0.127l1.038,0Z" style="fill:#b7b7b7;fill-rule:nonzero;"/><path d="M75.198,53.619l0,14.892l-1.868,0l0,-13.403l-2.282,0l0,-1.063c0.318,-0.114 0.761,-0.213 1.328,-0.299c0.567,-0.084 1.161,-0.127 1.785,-0.127l1.037,0Z" style="fill:#b7b7b7;fill-rule:nonzero;"/><path d="M85.261,67.448c0.291,0 0.578,-0.093 0.861,-0.277c0.284,-0.184 0.54,-0.517 0.768,-0.999c0.229,-0.483 0.411,-1.135 0.55,-1.958c0.139,-0.822 0.207,-1.872 0.207,-3.148c0,-1.278 -0.068,-2.326 -0.207,-3.15c-0.139,-0.822 -0.321,-1.474 -0.55,-1.957c-0.228,-0.482 -0.484,-0.815 -0.768,-1c-0.283,-0.184 -0.57,-0.277 -0.861,-0.277c-0.291,0 -0.577,0.093 -0.86,0.277c-0.285,0.185 -0.54,0.518 -0.768,1c-0.229,0.483 -0.412,1.135 -0.551,1.957c-0.138,0.824 -0.207,1.872 -0.207,3.15c0,1.276 0.069,2.326 0.207,3.148c0.139,0.823 0.322,1.475 0.551,1.958c0.228,0.482 0.483,0.815 0.768,0.999c0.283,0.184 0.569,0.277 0.86,0.277m0,-14.041c0.65,0 1.238,0.12 1.764,0.361c0.526,0.241 0.971,0.652 1.338,1.233c0.367,0.582 0.651,1.367 0.851,2.351c0.201,0.987 0.301,2.224 0.301,3.714c0,1.489 -0.1,2.726 -0.301,3.711c-0.2,0.987 -0.484,1.77 -0.851,2.351c-0.367,0.583 -0.812,0.994 -1.338,1.234c-0.526,0.242 -1.114,0.361 -1.764,0.361c-0.65,0 -1.237,-0.119 -1.763,-0.361c-0.526,-0.24 -0.973,-0.651 -1.339,-1.234c-0.367,-0.581 -0.65,-1.364 -0.85,-2.351c-0.201,-0.985 -0.302,-2.222 -0.302,-3.711c0,-1.49 0.101,-2.727 0.302,-3.714c0.2,-0.984 0.483,-1.769 0.85,-2.351c0.366,-0.581 0.813,-0.992 1.339,-1.233c0.526,-0.241 1.113,-0.361 1.763,-0.361" style="fill:#b7b7b7;fill-rule:nonzero;"/><path d="M98.022,53.619l0,14.892l-1.868,0l0,-13.403l-2.282,0l0,-1.063c0.318,-0.114 0.761,-0.213 1.328,-0.299c0.567,-0.084 1.161,-0.127 1.785,-0.127l1.037,0Z" style="fill:#b7b7b7;fill-rule:nonzero;"/><path d="M108.085,67.448c0.29,0 0.578,-0.093 0.861,-0.277c0.283,-0.184 0.54,-0.517 0.768,-0.999c0.228,-0.483 0.411,-1.135 0.55,-1.958c0.138,-0.822 0.207,-1.872 0.207,-3.148c0,-1.278 -0.069,-2.326 -0.207,-3.15c-0.139,-0.822 -0.322,-1.474 -0.55,-1.957c-0.228,-0.482 -0.485,-0.815 -0.768,-1c-0.283,-0.184 -0.571,-0.277 -0.861,-0.277c-0.291,0 -0.577,0.093 -0.861,0.277c-0.284,0.185 -0.539,0.518 -0.768,1c-0.228,0.483 -0.412,1.135 -0.55,1.957c-0.138,0.824 -0.208,1.872 -0.208,3.15c0,1.276 0.07,2.326 0.208,3.148c0.138,0.823 0.322,1.475 0.55,1.958c0.229,0.482 0.484,0.815 0.768,0.999c0.284,0.184 0.57,0.277 0.861,0.277m0,-14.041c0.649,0 1.238,0.12 1.764,0.361c0.525,0.241 0.971,0.652 1.338,1.233c0.366,0.582 0.65,1.367 0.851,2.351c0.2,0.987 0.3,2.224 0.3,3.714c0,1.489 -0.1,2.726 -0.3,3.711c-0.201,0.987 -0.485,1.77 -0.851,2.351c-0.367,0.583 -0.813,0.994 -1.338,1.234c-0.526,0.242 -1.115,0.361 -1.764,0.361c-0.65,0 -1.238,-0.119 -1.763,-0.361c-0.526,-0.24 -0.973,-0.651 -1.339,-1.234c-0.367,-0.581 -0.65,-1.364 -0.851,-2.351c-0.2,-0.985 -0.301,-2.222 -0.301,-3.711c0,-1.49 0.101,-2.727 0.301,-3.714c0.201,-0.984 0.484,-1.769 0.851,-2.351c0.366,-0.581 0.813,-0.992 1.339,-1.233c0.525,-0.241 1.113,-0.361 1.763,-0.361" style="fill:#b7b7b7;fill-rule:nonzero;"/><path d="M120.846,53.619l0,14.892l-1.868,0l0,-13.403l-2.282,0l0,-1.063c0.318,-0.114 0.761,-0.213 1.328,-0.299c0.567,-0.084 1.161,-0.127 1.785,-0.127l1.037,0Z" style="fill:#b7b7b7;fill-rule:nonzero;"/><path d="M129.975,53.619l0,14.892l-1.868,0l0,-13.403l-2.282,0l0,-1.063c0.318,-0.114 0.761,-0.213 1.328,-0.299c0.567,-0.084 1.161,-0.127 1.785,-0.127l1.037,0Z" style="fill:#b7b7b7;fill-rule:nonzero;"/><path d="M140.039,67.448c0.29,0 0.577,-0.093 0.861,-0.277c0.283,-0.184 0.539,-0.517 0.768,-0.999c0.228,-0.483 0.41,-1.135 0.549,-1.958c0.139,-0.822 0.208,-1.872 0.208,-3.148c0,-1.278 -0.069,-2.326 -0.208,-3.15c-0.139,-0.822 -0.321,-1.474 -0.549,-1.957c-0.229,-0.482 -0.485,-0.815 -0.768,-1c-0.284,-0.184 -0.571,-0.277 -0.861,-0.277c-0.292,0 -0.578,0.093 -0.861,0.277c-0.284,0.185 -0.54,0.518 -0.768,1c-0.228,0.483 -0.412,1.135 -0.551,1.957c-0.137,0.824 -0.207,1.872 -0.207,3.15c0,1.276 0.07,2.326 0.207,3.148c0.139,0.823 0.323,1.475 0.551,1.958c0.228,0.482 0.484,0.815 0.768,0.999c0.283,0.184 0.569,0.277 0.861,0.277m0,-14.041c0.649,0 1.238,0.12 1.763,0.361c0.526,0.241 0.972,0.652 1.339,1.233c0.366,0.582 0.65,1.367 0.851,2.351c0.2,0.987 0.3,2.224 0.3,3.714c0,1.489 -0.1,2.726 -0.3,3.711c-0.201,0.987 -0.485,1.77 -0.851,2.351c-0.367,0.583 -0.813,0.994 -1.339,1.234c-0.525,0.242 -1.114,0.361 -1.763,0.361c-0.651,0 -1.238,-0.119 -1.764,-0.361c-0.525,-0.24 -0.972,-0.651 -1.338,-1.234c-0.367,-0.581 -0.651,-1.364 -0.851,-2.351c-0.201,-0.985 -0.301,-2.222 -0.301,-3.711c0,-1.49 0.1,-2.727 0.301,-3.714c0.2,-0.984 0.484,-1.769 0.851,-2.351c0.366,-0.581 0.813,-0.992 1.338,-1.233c0.526,-0.241 1.113,-0.361 1.764,-0.361" style="fill:#b7b7b7;fill-rule:nonzero;"/></g></g><g><g opacity="0.5"><path d="M65.786,146.562c0.29,0 0.577,-0.093 0.86,-0.277c0.284,-0.184 0.54,-0.517 0.768,-0.999c0.229,-0.483 0.411,-1.135 0.55,-1.958c0.139,-0.822 0.207,-1.872 0.207,-3.148c0,-1.278 -0.068,-2.326 -0.207,-3.15c-0.139,-0.822 -0.321,-1.474 -0.55,-1.957c-0.228,-0.482 -0.484,-0.815 -0.768,-1c-0.283,-0.184 -0.57,-0.277 -0.86,-0.277c-0.292,0 -0.578,0.093 -0.861,0.277c-0.284,0.185 -0.54,0.518 -0.768,1c-0.229,0.483 -0.412,1.135 -0.551,1.957c-0.137,0.824 -0.207,1.872 -0.207,3.15c0,1.276 0.07,2.326 0.207,3.148c0.139,0.823 0.322,1.475 0.551,1.958c0.228,0.482 0.484,0.815 0.768,0.999c0.283,0.184 0.569,0.277 0.861,0.277m0,-14.041c0.649,0 1.237,0.12 1.763,0.361c0.526,0.241 0.972,0.652 1.339,1.234c0.366,0.581 0.65,1.366 0.85,2.351c0.201,0.986 0.301,2.223 0.301,3.713c0,1.489 -0.1,2.726 -0.301,3.712c-0.2,0.986 -0.484,1.769 -0.85,2.35c-0.367,0.583 -0.813,0.994 -1.339,1.234c-0.526,0.242 -1.114,0.361 -1.763,0.361c-0.651,0 -1.238,-0.119 -1.764,-0.361c-0.526,-0.24 -0.972,-0.651 -1.338,-1.234c-0.367,-0.581 -0.651,-1.364 -0.851,-2.35c-0.201,-0.986 -0.301,-2.223 -0.301,-3.712c0,-1.49 0.1,-2.727 0.301,-3.713c0.2,-0.985 0.484,-1.77 0.851,-2.351c0.366,-0.582 0.812,-0.993 1.338,-1.234c0.526,-0.241 1.113,-0.361 1.764,-0.361" style="fill:#b7b7b7;fill-rule:nonzero;"/><path d="M79.791,132.733l0,14.893l-1.868,0l0,-13.404l-2.282,0l0,-1.063c0.318,-0.114 0.761,-0.213 1.328,-0.298c0.567,-0.085 1.161,-0.128 1.785,-0.128l1.037,0Z" style="fill:#b7b7b7;fill-rule:nonzero;"/><path d="M90.166,132.733l0,14.893l-1.868,0l0,-13.404l-2.282,0l0,-1.063c0.318,-0.114 0.761,-0.213 1.328,-0.298c0.567,-0.085 1.161,-0.128 1.785,-0.128l1.037,0Z" style="fill:#b7b7b7;fill-rule:nonzero;"/><path d="M101.474,146.562c0.29,0 0.577,-0.093 0.86,-0.277c0.284,-0.184 0.54,-0.517 0.769,-0.999c0.228,-0.483 0.41,-1.135 0.549,-1.958c0.139,-0.822 0.208,-1.872 0.208,-3.148c0,-1.278 -0.069,-2.326 -0.208,-3.15c-0.139,-0.822 -0.321,-1.474 -0.549,-1.957c-0.229,-0.482 -0.485,-0.815 -0.769,-1c-0.283,-0.184 -0.57,-0.277 -0.86,-0.277c-0.292,0 -0.578,0.093 -0.861,0.277c-0.284,0.185 -0.54,0.518 -0.768,1c-0.229,0.483 -0.412,1.135 -0.551,1.957c-0.137,0.824 -0.207,1.872 -0.207,3.15c0,1.276 0.07,2.326 0.207,3.148c0.139,0.823 0.322,1.475 0.551,1.958c0.228,0.482 0.484,0.815 0.768,0.999c0.283,0.184 0.569,0.277 0.861,0.277m0,-14.041c0.649,0 1.238,0.12 1.763,0.361c0.526,0.241 0.972,0.652 1.339,1.234c0.366,0.581 0.65,1.366 0.851,2.351c0.2,0.986 0.3,2.223 0.3,3.713c0,1.489 -0.1,2.726 -0.3,3.712c-0.201,0.986 -0.485,1.769 -0.851,2.35c-0.367,0.583 -0.813,0.994 -1.339,1.234c-0.525,0.242 -1.114,0.361 -1.763,0.361c-0.651,0 -1.238,-0.119 -1.764,-0.361c-0.525,-0.24 -0.972,-0.651 -1.338,-1.234c-0.367,-0.581 -0.651,-1.364 -0.851,-2.35c-0.201,-0.986 -0.301,-2.223 -0.301,-3.712c0,-1.49 0.1,-2.727 0.301,-3.713c0.2,-0.985 0.484,-1.77 0.851,-2.351c0.366,-0.582 0.813,-0.993 1.338,-1.234c0.526,-0.241 1.113,-0.361 1.764,-0.361" style="fill:#b7b7b7;fill-rule:nonzero;"/><path d="M116.62,146.562c0.291,0 0.578,-0.093 0.861,-0.277c0.283,-0.184 0.54,-0.517 0.768,-0.999c0.229,-0.483 0.411,-1.135 0.55,-1.958c0.138,-0.822 0.207,-1.872 0.207,-3.148c0,-1.278 -0.069,-2.326 -0.207,-3.15c-0.139,-0.822 -0.321,-1.474 -0.55,-1.957c-0.228,-0.482 -0.485,-0.815 -0.768,-1c-0.283,-0.184 -0.57,-0.277 -0.861,-0.277c-0.291,0 -0.577,0.093 -0.86,0.277c-0.285,0.185 -0.54,0.518 -0.768,1c-0.229,0.483 -0.412,1.135 -0.551,1.957c-0.138,0.824 -0.207,1.872 -0.207,3.15c0,1.276 0.069,2.326 0.207,3.148c0.139,0.823 0.322,1.475 0.551,1.958c0.228,0.482 0.483,0.815 0.768,0.999c0.283,0.184 0.569,0.277 0.86,0.277m0,-14.041c0.65,0 1.238,0.12 1.764,0.361c0.526,0.241 0.971,0.652 1.338,1.234c0.366,0.581 0.651,1.366 0.851,2.351c0.201,0.986 0.3,2.223 0.3,3.713c0,1.489 -0.099,2.726 -0.3,3.712c-0.2,0.986 -0.485,1.769 -0.851,2.35c-0.367,0.583 -0.812,0.994 -1.338,1.234c-0.526,0.242 -1.114,0.361 -1.764,0.361c-0.65,0 -1.237,-0.119 -1.763,-0.361c-0.526,-0.24 -0.973,-0.651 -1.339,-1.234c-0.367,-0.581 -0.65,-1.364 -0.85,-2.35c-0.201,-0.986 -0.302,-2.223 -0.302,-3.712c0,-1.49 0.101,-2.727 0.302,-3.713c0.2,-0.985 0.483,-1.77 0.85,-2.351c0.366,-0.582 0.813,-0.993 1.339,-1.234c0.526,-0.241 1.113,-0.361 1.763,-0.361" style="fill:#b7b7b7;fill-rule:nonzero;"/><path d="M130.626,132.733l0,14.893l-1.868,0l0,-13.404l-2.282,0l0,-1.063c0.318,-0.114 0.761,-0.213 1.329,-0.298c0.566,-0.085 1.161,-0.128 1.784,-0.128l1.037,0Z" style="fill:#b7b7b7;fill-rule:nonzero;"/></g></g></g></g></g><g id="Stratum"><path d="M281.869,56.266l-6.986,0l0,-0.674c0,-0.896 -0.324,-1.669 -0.968,-2.314c-0.647,-0.645 -1.418,-0.969 -2.315,-0.969l-29.293,0c-0.898,0 -1.671,0.324 -2.315,0.969c-0.646,0.645 -0.969,1.418 -0.969,2.314l0,7.493c0,0.897 0.323,1.669 0.969,2.314c0.644,0.646 1.417,0.968 2.315,0.968l29.293,0c1.402,0 2.736,0.268 3.998,0.8c1.263,0.534 2.357,1.262 3.283,2.189c0.926,0.925 1.655,2.006 2.188,3.24c0.533,1.235 0.8,2.555 0.8,3.956l0,7.493c0,1.402 -0.267,2.722 -0.8,3.955c-0.533,1.236 -1.262,2.316 -2.188,3.24c-0.926,0.927 -2.02,1.657 -3.283,2.19c-1.262,0.533 -2.596,0.8 -3.998,0.8l-29.293,0c-1.404,0 -2.723,-0.267 -3.956,-0.8c-1.236,-0.533 -2.315,-1.263 -3.241,-2.19c-0.926,-0.924 -1.656,-2.004 -2.189,-3.24c-0.534,-1.233 -0.799,-2.553 -0.799,-3.955l0,-0.674l6.901,0l0,0.674c0,0.898 0.323,1.669 0.969,2.314c0.644,0.645 1.417,0.968 2.315,0.968l29.293,0c0.897,0 1.668,-0.323 2.315,-0.968c0.644,-0.645 0.968,-1.416 0.968,-2.314l0,-7.493c0,-0.898 -0.324,-1.669 -0.968,-2.314c-0.647,-0.645 -1.418,-0.968 -2.315,-0.968l-29.293,0c-1.404,0 -2.723,-0.267 -3.956,-0.8c-1.236,-0.533 -2.315,-1.263 -3.241,-2.189c-0.926,-0.925 -1.656,-2.006 -2.189,-3.24c-0.534,-1.234 -0.799,-2.554 -0.799,-3.956l0,-7.493c0,-1.401 0.265,-2.72 0.799,-3.956c0.533,-1.234 1.263,-2.315 2.189,-3.241c0.926,-0.925 2.005,-1.654 3.241,-2.188c1.233,-0.533 2.552,-0.8 3.956,-0.8l29.293,0c1.402,0 2.736,0.267 3.998,0.8c1.263,0.534 2.357,1.263 3.283,2.188c0.926,0.926 1.655,2.007 2.188,3.241c0.533,1.236 0.8,2.555 0.8,3.956l0,0.674Z" style="fill:#8d9195;fill-rule:nonzero;"/><path d="M301.313,52.31l0,31.734c0,0.899 0.322,1.67 0.968,2.315c0.645,0.645 1.417,0.968 2.315,0.968l17.845,0l0,6.902l-17.845,0c-1.459,0 -2.807,-0.265 -4.041,-0.799c-1.235,-0.534 -2.301,-1.263 -3.199,-2.189c-0.897,-0.925 -1.612,-2.005 -2.146,-3.241c-0.534,-1.233 -0.799,-2.553 -0.799,-3.956l0,-54.631l6.902,0l0,15.994l21.128,0l0,6.903l-21.128,0Z" style="fill:#8d9195;fill-rule:nonzero;"/><path d="M370.589,45.407l0,6.903l-27.442,0c-0.898,0 -1.671,0.323 -2.315,0.968c-0.644,0.646 -0.968,1.419 -0.968,2.314l0,38.637l-6.903,0l0,-38.637c0,-1.401 0.268,-2.721 0.801,-3.956c0.532,-1.233 1.263,-2.315 2.188,-3.24c0.926,-0.927 2.006,-1.655 3.241,-2.189c1.234,-0.532 2.553,-0.8 3.956,-0.8l27.442,0Z" style="fill:#8d9195;fill-rule:nonzero;"/><path d="M422.945,73.269l-35.859,0l0,10.776c0,0.897 0.323,1.669 0.969,2.314c0.643,0.646 1.415,0.968 2.314,0.968l32.576,0l0,-14.058Zm-3.283,-27.862c1.402,0 2.736,0.267 3.998,0.8c1.262,0.534 2.357,1.263 3.283,2.189c0.927,0.925 1.655,2.006 2.188,3.241c0.533,1.235 0.8,2.553 0.8,3.955l0,38.638l-39.562,0c-1.403,0 -2.723,-0.267 -3.956,-0.8c-1.235,-0.533 -2.315,-1.263 -3.241,-2.189c-0.926,-0.925 -1.655,-2.006 -2.188,-3.24c-0.535,-1.234 -0.8,-2.554 -0.8,-3.956l0,-17.678l42.761,0l0,-10.775c0,-0.896 -0.31,-1.669 -0.926,-2.314c-0.619,-0.645 -1.404,-0.969 -2.357,-0.969l-39.478,0l0,-6.902l39.478,0Z" style="fill:#8d9195;fill-rule:nonzero;"/><path d="M449.711,52.31l0,31.734c0,0.899 0.323,1.67 0.969,2.315c0.644,0.645 1.416,0.968 2.315,0.968l17.845,0l0,6.902l-17.845,0c-1.46,0 -2.807,-0.265 -4.041,-0.799c-1.235,-0.534 -2.301,-1.263 -3.198,-2.189c-0.899,-0.925 -1.614,-2.005 -2.147,-3.241c-0.534,-1.233 -0.8,-2.553 -0.8,-3.956l0,-54.631l6.902,0l0,15.994l21.129,0l0,6.903l-21.129,0Z" style="fill:#8d9195;fill-rule:nonzero;"/><path d="M531.193,45.407l0,38.637c0,1.404 -0.268,2.723 -0.8,3.956c-0.534,1.235 -1.262,2.315 -2.189,3.241c-0.926,0.926 -2.02,1.655 -3.282,2.189c-1.264,0.534 -2.598,0.799 -3.999,0.799l-29.293,0c-1.403,0 -2.723,-0.265 -3.957,-0.799c-1.234,-0.534 -2.314,-1.263 -3.24,-2.189c-0.927,-0.926 -1.656,-2.006 -2.189,-3.241c-0.533,-1.233 -0.8,-2.552 -0.8,-3.956l0,-38.637l6.903,0l0,38.637c0,0.899 0.322,1.67 0.968,2.315c0.644,0.646 1.416,0.968 2.315,0.968l29.293,0c0.953,0 1.753,-0.322 2.399,-0.968c0.644,-0.645 0.968,-1.416 0.968,-2.315l0,-38.637l6.903,0Z" style="fill:#8d9195;fill-rule:nonzero;"/><path d="M606.951,45.407c1.402,0 2.736,0.268 3.999,0.8c1.262,0.534 2.342,1.262 3.24,2.189c0.897,0.925 1.612,2.007 2.147,3.24c0.533,1.235 0.8,2.555 0.8,3.956l0,38.637l-6.819,0l0,-38.637c0,-0.895 -0.323,-1.668 -0.968,-2.314c-0.645,-0.645 -1.445,-0.968 -2.399,-0.968l-20.286,0c-0.955,0 -1.74,0.323 -2.357,0.968c-0.618,0.646 -0.926,1.419 -0.926,2.314l0,38.637l-6.986,0l0,-38.637c0,-0.895 -0.324,-1.668 -0.968,-2.314c-0.646,-0.645 -1.418,-0.968 -2.316,-0.968l-20.371,0c-0.897,0 -1.668,0.323 -2.314,0.968c-0.645,0.646 -0.968,1.419 -0.968,2.314l0,38.637l-6.986,0l0,-48.822l64.478,0Z" style="fill:#8d9195;fill-rule:nonzero;"/></g><g id="Blockchain-Tech" serif:id="Blockchain Tech"><path d="M257.887,142.998c0,-3.381 -2.646,-6.562 -7.881,-6.562l-12.048,0l0,13.123l12.048,0c4.954,0 7.881,-2.535 7.881,-6.561m-0.731,-15.26c0,-3.38 -2.533,-6.164 -7.375,-6.164l-11.823,0l0,12.278l11.823,0c4.842,0 7.375,-2.684 7.375,-6.114m-22.407,24.406l0,-33.155l15.426,0c6.305,0 10.358,3.231 10.358,8.449c0,4.177 -3.208,7.01 -6.587,7.606c3.998,0.548 7.32,4.226 7.32,8.152c0,5.518 -4.054,8.948 -10.754,8.948l-15.763,0Z" style="fill:#cbcbcb;fill-rule:nonzero;"/><rect x="269.26" y="118.989" width="2.927" height="33.155" style="fill:#cbcbcb;"/><path d="M302.757,140.114c0,-5.318 -3.546,-10.239 -9.964,-10.239c-6.306,0 -9.909,4.921 -9.909,10.239c0,5.37 3.603,10.29 9.909,10.29c6.418,0 9.964,-4.92 9.964,-10.29m-22.969,0c0,-7.008 5.066,-12.574 13.005,-12.574c8.05,0 13.117,5.566 13.117,12.574c0,7.009 -5.067,12.626 -13.117,12.626c-7.939,0 -13.005,-5.617 -13.005,-12.626" style="fill:#cbcbcb;fill-rule:nonzero;"/><path d="M311.935,140.114c0,-7.008 5.18,-12.574 13.174,-12.574c4.729,0 7.431,1.639 9.626,4.075l-2.025,1.59c-1.971,-2.385 -4.449,-3.33 -7.432,-3.33c-6.362,0 -10.247,4.474 -10.247,10.239c0,5.767 3.885,10.29 10.247,10.29c2.983,0 5.461,-0.995 7.432,-3.379l2.025,1.589c-2.195,2.486 -4.897,4.126 -9.626,4.126c-7.994,0 -13.174,-5.617 -13.174,-12.626" style="fill:#cbcbcb;fill-rule:nonzero;"/><path d="M360.126,152.144l-10.866,-11.433l-5.067,4.224l0,7.209l-2.926,0l0,-33.155l2.926,0l0,22.866l15.989,-13.719l3.941,0l-12.667,10.836l12.61,13.172l-3.94,0Z" style="fill:#cbcbcb;fill-rule:nonzero;"/><path d="M368.064,140.114c0,-7.008 5.178,-12.574 13.174,-12.574c4.728,0 7.431,1.639 9.626,4.075l-2.027,1.59c-1.97,-2.385 -4.447,-3.33 -7.431,-3.33c-6.361,0 -10.246,4.474 -10.246,10.239c0,5.767 3.885,10.29 10.246,10.29c2.984,0 5.461,-0.995 7.431,-3.379l2.027,1.589c-2.195,2.486 -4.898,4.126 -9.626,4.126c-7.996,0 -13.174,-5.617 -13.174,-12.626" style="fill:#cbcbcb;fill-rule:nonzero;"/><path d="M415.748,152.144l0,-16.354c0,-4.622 -2.645,-5.915 -6.587,-5.915c-3.49,0 -7.093,1.938 -8.839,4.127l0,18.142l-2.926,0l0,-33.155l2.926,0l0,12.774c1.971,-2.086 5.855,-4.224 9.796,-4.224c5.518,0 8.558,2.286 8.558,7.704l0,16.901l-2.928,0Z" style="fill:#cbcbcb;fill-rule:nonzero;"/><path d="M445.08,147.422l0,-5.269c-1.914,-2.237 -4.954,-3.33 -8.219,-3.33c-4.448,0 -7.431,2.534 -7.431,5.964c0,3.38 2.983,5.915 7.431,5.915c3.265,0 6.305,-1.094 8.219,-3.28m0,4.722l0,-2.833c-2.421,2.336 -5.461,3.429 -9.233,3.429c-4.673,0 -9.514,-2.833 -9.514,-8.002c0,-5.22 4.786,-7.954 9.514,-7.954c3.772,0 6.869,1.094 9.233,3.43l0,-4.871c0,-3.579 -3.265,-5.518 -7.263,-5.518c-3.434,0 -6.08,1.044 -8.557,3.529l-1.632,-1.789c2.814,-2.685 5.967,-4.026 10.471,-4.026c5.517,0 9.909,2.336 9.909,7.704l0,16.901l-2.928,0Z" style="fill:#cbcbcb;fill-rule:nonzero;"/><path d="M457.129,128.135l2.927,0l0,24.008l-2.927,0l0,-24.008Zm-0.789,-5.766c0,-1.093 1.07,-1.938 2.252,-1.938c1.239,0 2.252,0.845 2.252,1.938c0,1.094 -1.013,1.989 -2.252,1.989c-1.182,0 -2.252,-0.895 -2.252,-1.989" style="fill:#cbcbcb;fill-rule:nonzero;"/><path d="M487.528,152.144l0,-16.254c0,-4.623 -2.645,-6.015 -6.587,-6.015c-3.49,0 -7.093,1.938 -8.838,4.127l0,18.142l-2.927,0l0,-24.008l2.927,0l0,3.627c1.971,-2.086 5.855,-4.224 9.796,-4.224c5.518,0 8.558,2.386 8.558,7.803l0,16.802l-2.929,0Z" style="fill:#cbcbcb;fill-rule:nonzero;"/><path d="M523.841,152.144l0,-30.57l-12.273,0l0,-2.585l27.811,0l0,2.585l-12.273,0l0,30.57l-3.265,0Z" style="fill:#cbcbcb;fill-rule:nonzero;"/><path d="M550.471,129.776c-6.418,0 -9.626,4.97 -9.852,9.146l19.761,0c-0.056,-4.076 -3.096,-9.146 -9.909,-9.146m-13.004,10.338c0,-6.958 5.516,-12.575 13.061,-12.575c8.276,0 12.836,5.766 12.836,12.726l0,0.695l-22.745,0c0.282,5.219 4.222,9.543 10.64,9.543c3.434,0 6.588,-1.143 8.895,-3.33l1.52,1.691c-2.703,2.484 -6.136,3.876 -10.64,3.876c-7.938,0 -13.567,-5.219 -13.567,-12.626" style="fill:#cbcbcb;fill-rule:nonzero;"/><path d="M569.387,140.114c0,-7.008 5.179,-12.574 13.173,-12.574c4.729,0 7.432,1.639 9.628,4.075l-2.027,1.59c-1.97,-2.385 -4.448,-3.33 -7.431,-3.33c-6.362,0 -10.247,4.474 -10.247,10.239c0,5.767 3.885,10.29 10.247,10.29c2.983,0 5.461,-0.995 7.431,-3.379l2.027,1.589c-2.196,2.486 -4.899,4.126 -9.628,4.126c-7.994,0 -13.173,-5.617 -13.173,-12.626" style="fill:#cbcbcb;fill-rule:nonzero;"/><path d="M617.072,152.144l0,-16.354c0,-4.622 -2.646,-5.915 -6.588,-5.915c-3.49,0 -7.092,1.938 -8.838,4.127l0,18.142l-2.926,0l0,-33.155l2.926,0l0,12.774c1.971,-2.086 5.855,-4.224 9.796,-4.224c5.518,0 8.558,2.286 8.558,7.704l0,16.901l-2.928,0Z" style="fill:#cbcbcb;fill-rule:nonzero;"/></g></g></svg>